<svg xmlns="http://www.w3.org/2000/svg" xmlns:xlink="http://www.w3.org/1999/xlink" viewBox="0 0 258.71 183.56"><defs><style>.cls-1{fill:none;}.cls-2{clip-path:url(#clip-path);}.cls-3{fill:#dadada;}</style><clipPath id="clip-path" transform="translate(0 0)"><rect class="cls-1" width="258.71" height="183.56"/></clipPath></defs><g id="Layer_2" data-name="Layer 2"><g id="logo"><g id="burger-lines"><g class="cls-2"><g class="cls-2"><path class="cls-3" d="M240.53,183.56H18.18a18.18,18.18,0,1,1,0-36.35H240.53a18.18,18.18,0,1,1,0,36.35" transform="translate(0 0)"/><path class="cls-3" d="M240.53,110H18.18a18.18,18.18,0,0,1,0-36.36H240.53a18.18,18.18,0,0,1,0,36.36" transform="translate(0 0)"/><path class="cls-3" d="M240.53,36.35H18.18A18.18,18.18,0,1,1,18.18,0H240.53a18.18,18.18,0,1,1,0,36.35" transform="translate(0 0)"/></g></g></g></g></g></svg>