<svg xmlns="http://www.w3.org/2000/svg" xmlns:xlink="http://www.w3.org/1999/xlink" viewBox="0 0 633.64 133.83"><defs><style>.cls-1,.cls-20{fill:none;}.cls-2{clip-path:url(#clip-path);}.cls-3{font-size:105.84px;font-family:AmbroiseStdFrancois-Bold, Ambroise Std Francois;font-weight:700;}.cls-19,.cls-21,.cls-23,.cls-3{fill:#dadada;}.cls-4{letter-spacing:0em;}.cls-5{letter-spacing:0.03em;}.cls-6{font-size:16px;fill:#f7c86f;font-family:AcuminPro-ExtraLight, Acumin Pro;font-weight:200;letter-spacing:0.14em;}.cls-7{letter-spacing:0.13em;}.cls-8{letter-spacing:0.12em;}.cls-9{letter-spacing:0.14em;}.cls-10{letter-spacing:0.02em;}.cls-11{letter-spacing:0.13em;}.cls-12{letter-spacing:0.14em;}.cls-13{letter-spacing:0.13em;}.cls-14{letter-spacing:0.13em;}.cls-15{letter-spacing:0.14em;}.cls-16{letter-spacing:0.14em;}.cls-17{letter-spacing:0.13em;}.cls-18{letter-spacing:0em;}.cls-20{stroke:#dadada;stroke-miterlimit:10;}.cls-21{font-size:53.55px;}.cls-21,.cls-23{font-family:AmbroiseStdFrancois-Light, Ambroise Std Francois;font-weight:300;}.cls-22{letter-spacing:0.03em;}.cls-23{font-size:37.49px;}.cls-24{letter-spacing:0.03em;}.cls-25{letter-spacing:-0.01em;}.cls-26{letter-spacing:0.03em;}.cls-27{letter-spacing:0.03em;}</style><clipPath id="clip-path" transform="translate(0 0)"><rect class="cls-1" width="635.48" height="133.83"/></clipPath></defs><g id="Layer_2" data-name="Layer 2"><g id="logo"><g id="dark-full"><g class="cls-2"><g class="cls-2"><text class="cls-3" transform="translate(0 90.28) scale(1.59 1)"><tspan class="cls-4">R</tspan><tspan class="cls-5" x="42.65" y="0">W</tspan><tspan x="109.75" y="0">P</tspan></text></g><text class="cls-6" transform="translate(4.02 117.93)">C<tspan class="cls-7" x="12.98" y="0">ON</tspan><tspan class="cls-8" x="40.83" y="0">S</tspan><tspan class="cls-9" x="52.08" y="0">U</tspan><tspan class="cls-10" x="65.55" y="0">L</tspan><tspan class="cls-11" x="74.61" y="0">T</tspan><tspan class="cls-12" x="85.33" y="0">I</tspan><tspan class="cls-7" x="91.6" y="0">NG</tspan><tspan class="cls-13" x="118.99" y="0"> </tspan><tspan class="cls-7" x="125.23" y="0">E</tspan><tspan class="cls-14" x="136.67" y="0">N</tspan><tspan class="cls-15" x="150.53" y="0">G</tspan><tspan x="164.17" y="0">I</tspan><tspan class="cls-16" x="170.45" y="0">N</tspan><tspan class="cls-17" x="184.46" y="0">EER</tspan><tspan class="cls-18" x="219.45" y="0">S</tspan></text><path class="cls-19" d="M262.89,117.93v0Z" transform="translate(0 0)"/><line class="cls-20" x1="262.89" y1="15.52" x2="262.89" y2="117.93"/><g class="cls-2"><text class="cls-21" transform="translate(291.53 117.93) scale(1.59 1)"><tspan class="cls-22">&amp; </tspan><tspan x="34.22" y="0">P</tspan></text></g><text class="cls-23" transform="translate(378.14 117.93) scale(1.59 1)"><tspan class="cls-24">A</tspan><tspan class="cls-25" x="13.83" y="0">R</tspan><tspan class="cls-24" x="28" y="0">TNER</tspan><tspan x="86.96" y="0">S</tspan></text><text class="cls-21" transform="translate(291.53 54.75) scale(1.59 1)">R</text><text class="cls-23" transform="translate(326.72 54.75) scale(1.59 1)"><tspan class="cls-24">OBE</tspan><tspan class="cls-25" x="42.88" y="0">R</tspan><tspan x="57.05" y="0">T</tspan></text><text class="cls-21" transform="translate(440.72 54.75) scale(1.59 1)"> </text><text class="cls-21" transform="translate(452.62 54.75) scale(1.59 1)">W</text><g class="cls-2"><text class="cls-23" transform="translate(502.21 54.75) scale(1.59 1)"><tspan class="cls-24">AL</tspan><tspan class="cls-26" x="27.44" y="0">P</tspan><tspan class="cls-24" x="41.72" y="0">O</tspan><tspan class="cls-27" x="56.83" y="0">L</tspan><tspan x="70.4" y="0">E</tspan></text></g></g></g></g></g></svg>