<svg xmlns="http://www.w3.org/2000/svg" viewBox="0 0 115.01 115.01"><defs><style>.cls-1,.cls-2,.cls-5{fill:none;}.cls-1,.cls-2,.cls-3{stroke:#dadada;stroke-linecap:round;}.cls-1,.cls-2{stroke-linejoin:round;}.cls-1{stroke-width:0.48px;}.cls-2,.cls-3{stroke-width:0.12px;}.cls-3,.cls-4{fill:#dadada;}.cls-3{stroke-miterlimit:7.5;}</style></defs><g id="Layer_2" data-name="Layer 2"><g id="Layer_1-2" data-name="Layer 1"><path class="cls-1" d="M94.44,41,86.15,40l-8.29-.72-8.29-.6-8.28-.24H52.88l-8.29.24-8.41.6L27.9,40,19.61,41"/><path class="cls-1" d="M93.48,35.14l-8-1-8.17-.72L69.21,33l-8-.24H53L45,33l-8.17.48-8,.72-8,1"/><path class="cls-1" d="M38.58,57.49V39H75.46v18.5"/><path class="cls-1" d="M38.58,57.37a18.44,18.44,0,1,0,36.88,0"/><path class="cls-2" d="M36.07,94.91H78.94"/><path class="cls-2" d="M57.08,7A37.55,37.55,0,1,0,94.67,44.64,37.55,37.55,0,0,0,57.08,7"/><path class="cls-2" d="M57.08,53.17V24"/><path class="cls-2" d="M75.46,34.78V24"/><path class="cls-2" d="M60.69,28.17H72"/><path class="cls-3" d="M60.69,29v-.84H57.08Zm0-.84H57.08l3.61-.84Z"/><path class="cls-3" d="M72,27.33v.84h3.48Zm0,.84h3.48L72,29Z"/><path class="cls-4" d="M67.66,24.21H64.89v-.48h2.77Zm0,1.32H64.89v-.48h2.77Z"/><path class="cls-2" d="M57.08,53.17V24"/><path class="cls-2" d="M38.58,34.78V24"/><path class="cls-2" d="M53.6,28.17H42.19"/><path class="cls-3" d="M53.6,27.33v.84h3.48Zm0,.84h3.48L53.6,29Z"/><path class="cls-3" d="M42.19,29v-.84H38.58Zm0-.84H38.58l3.61-.84Z"/><path class="cls-4" d="M49.28,24.21H46.39v-.48h2.89Zm0,1.32H46.39v-.48h2.89Z"/><path class="cls-2" d="M38.58,34.78V14.47"/><path class="cls-2" d="M75.46,34.78V14.47"/><path class="cls-2" d="M42.19,18.68H72"/><path class="cls-3" d="M42.19,19.64v-1H38.58Zm0-1H38.58l3.61-.84Z"/><path class="cls-3" d="M72,17.84v.84h3.49Zm0,.84h3.49l-3.49,1Z"/><path class="cls-2" d="M23.81,48.6l22.58,6"/><path class="cls-2" d="M34.38,39H3.51"/><path class="cls-2" d="M52.88,75.88H3.51"/><path class="cls-2" d="M7.83,42.6V72.4"/><path class="cls-3" d="M6.87,42.6h.85V39Zm.85,0V39l1,3.61Z"/><path class="cls-3" d="M8.68,72.4H7.84v3.48Zm-.84,0v3.48l-1-3.48Z"/><path class="cls-2" d="M47.23,57.49H12.64"/><path class="cls-2" d="M34.38,39H12.64"/><path class="cls-2" d="M17,53.89V42.6"/><path class="cls-3" d="M17.81,53.89H17V57.5Zm-.84,0V57.5l-1-3.61Z"/><path class="cls-3" d="M16,42.6h1V39Zm1,0V39l.84,3.61Z"/><path class="cls-4" d="M13,46.8v2.89h-.48V46.8Zm1.32,0v2.89h-.48V46.8Z"/><path class="cls-2" d="M44.76,57.49H12.64"/><path class="cls-2" d="M52.88,75.88H12.64"/><path class="cls-2" d="M17,61V72.4"/><path class="cls-3" d="M16,61h1V57.49Zm1,0V57.49L17.81,61Z"/><path class="cls-3" d="M17.81,72.4H17v3.48Zm-.84,0v3.48L16,72.4Z"/><path class="cls-4" d="M13,65.31v2.76h-.48V65.31Zm1.32,0v2.76h-.48V65.31Z"/><path class="cls-4" d="M26.17,47.63l.54-.45a2.43,2.43,0,0,1-.14-1.74,2.12,2.12,0,0,1,2.59-1.7,1.89,1.89,0,0,1,1,.63l.51-.41.28.32-.54.44a2.38,2.38,0,0,1,.12,1.72A2.06,2.06,0,0,1,28,48.16a1.83,1.83,0,0,1-1-.64l-.55.44Zm3.58-2.93a1.23,1.23,0,0,0-.72-.51c-.94-.26-1.64.48-1.88,1.37a2.26,2.26,0,0,0,0,1.24h0Zm-2.41,2.49a1.16,1.16,0,0,0,.72.52c.89.24,1.61-.44,1.87-1.4a2.22,2.22,0,0,0,0-1.2h0Z"/><path class="cls-4" d="M33.89,45.77l-1.58-.43-.44,1a1.46,1.46,0,0,1,.34.07,1.79,1.79,0,0,1,.83.46,1.23,1.23,0,0,1,.3,1.22,1.49,1.49,0,0,1-1.92,1,2.07,2.07,0,0,1-1-.53l.26-.39a1.82,1.82,0,0,0,.82.47A1,1,0,0,0,32.76,48c.14-.54-.12-1-.94-1.24-.24-.06-.43-.08-.58-.11l.8-1.91,2,.54Z"/><path class="cls-4" d="M34,49a1.94,1.94,0,0,0,.85.5A.84.84,0,0,0,36,49c.15-.58-.31-1-.85-1.12l-.31-.08.12-.42.31.08c.4.11,1,0,1.11-.45.09-.33,0-.67-.56-.81a1.56,1.56,0,0,0-.9,0l0-.45a2,2,0,0,1,1.16,0c.81.22,1.05.8.92,1.3a1.07,1.07,0,0,1-1,.76v0a1.11,1.11,0,0,1,.63,1.31,1.36,1.36,0,0,1-1.84.83,2.35,2.35,0,0,1-1-.57Z"/><path class="cls-4" d="M39,85.64a14.49,14.49,0,0,1,2-.15,4.23,4.23,0,0,1,3,.92A3.39,3.39,0,0,1,45,89a3.89,3.89,0,0,1-1.06,2.86,4.53,4.53,0,0,1-3.24,1A16.57,16.57,0,0,1,39,92.87Zm.94,6.5a6.54,6.54,0,0,0,1,0A2.82,2.82,0,0,0,44,89.08c0-1.74-1-2.84-3-2.84a5.67,5.67,0,0,0-1.11.1Z"/><path class="cls-4" d="M50,89.45H47.15v2.64h3.18v.8H46.2V85.55h4v.79h-3v2.32H50Z"/><path class="cls-4" d="M53.13,86.35H50.9v-.8h5.43v.8H54.09v6.54h-1Z"/><path class="cls-4" d="M57.52,90.58l-.76,2.31h-1l2.49-7.34h1.15l2.5,7.34h-1l-.79-2.31Zm2.41-.74-.72-2.12c-.16-.47-.27-.91-.38-1.34h0c-.11.44-.23.89-.37,1.33l-.72,2.13Z"/><path class="cls-4" d="M64,85.55v7.34H63V85.55Z"/><path class="cls-4" d="M65.6,85.55h1v6.54h3.14v.8H65.6Z"/><path class="cls-4" d="M72.94,91.79a3.31,3.31,0,0,0,1.57.44c1.23,0,1.62-.78,1.61-1.37,0-1-.91-1.41-1.83-1.41h-.54v-.72h.54c.69,0,1.57-.36,1.57-1.2,0-.57-.35-1.07-1.24-1.07a2.57,2.57,0,0,0-1.41.47l-.25-.7a3.39,3.39,0,0,1,1.85-.54c1.39,0,2,.83,2,1.69A1.74,1.74,0,0,1,75.53,89v0a1.85,1.85,0,0,1,1.58,1.82c0,1.14-.89,2.13-2.59,2.13a3.6,3.6,0,0,1-1.84-.48Z"/><path class="cls-4" d="M42,96.61a4.88,4.88,0,0,0-.94,3,5,5,0,0,0,.94,3h-.52a4.81,4.81,0,0,1-1-3,5,5,0,0,1,1-3Z"/><path class="cls-4" d="M42.64,101a2.27,2.27,0,0,0,1.16.33c.66,0,1.05-.35,1.05-.86s-.27-.74-1-1-1.32-.71-1.32-1.42a1.44,1.44,0,0,1,1.62-1.36,2.37,2.37,0,0,1,1.11.24l-.18.53a2,2,0,0,0-1-.24c-.69,0-1,.41-1,.76s.31.7,1,1c.85.33,1.28.74,1.28,1.48s-.57,1.44-1.76,1.44a2.59,2.59,0,0,1-1.28-.32Z"/><path class="cls-4" d="M49.91,101.62a3.45,3.45,0,0,1-1.33.23,2.35,2.35,0,0,1-2.48-2.54,2.5,2.5,0,0,1,2.62-2.63,2.67,2.67,0,0,1,1.19.22l-.15.53a2.39,2.39,0,0,0-1-.21,1.86,1.86,0,0,0-2,2.07,1.82,1.82,0,0,0,1.92,2,2.53,2.53,0,0,0,1.06-.21Z"/><path class="cls-4" d="M51.56,100.2,51,101.78h-.67l1.71-5h.78l1.71,5h-.69l-.54-1.58Zm1.65-.51-.49-1.44a8.18,8.18,0,0,1-.26-.92h0c-.07.3-.16.61-.25.91l-.49,1.45Z"/><path class="cls-4" d="M55.31,96.76H56v4.48H58.1v.54H55.31Z"/><path class="cls-4" d="M61.43,99.43h-2v1.81h2.17v.54H58.83v-5h2.71v.54H59.48v1.59h2Z"/><path class="cls-4" d="M65.27,97.55h0l-.84.45-.13-.5,1.06-.56h.56v4.84h-.63Z"/><path class="cls-4" d="M67.72,98.77a.44.44,0,0,1,.44-.47.47.47,0,1,1-.44.47Zm0,2.63a.43.43,0,0,1,.44-.47.47.47,0,0,1,0,.93A.44.44,0,0,1,67.72,101.4Z"/><path class="cls-4" d="M72.1,97.49H70.25l-.19,1.24a3.67,3.67,0,0,1,.4,0,2.14,2.14,0,0,1,1,.26,1.39,1.39,0,0,1,.69,1.25,1.68,1.68,0,0,1-1.8,1.65,2.32,2.32,0,0,1-1.2-.3l.16-.5a2.17,2.17,0,0,0,1,.27,1.07,1.07,0,0,0,1.14-1c0-.62-.42-1.07-1.39-1.07a5.43,5.43,0,0,0-.67.05l.31-2.32H72.1Z"/><path class="cls-4" d="M72.85,102.68a5.1,5.1,0,0,0,.93-3.05,5,5,0,0,0-.93-3h.5a4.73,4.73,0,0,1,1,3,4.81,4.81,0,0,1-1,3Z"/><path class="cls-5" d="M34.7,34.93H79.35V79.58H34.7Z"/><path class="cls-4" d="M57,38.65a18.6,18.6,0,1,0,18.6,18.6A18.6,18.6,0,0,0,57,38.65Zm0,24.18-7.44-7.44H64.46Z"/><path class="cls-4" d="M53.4,13.89h0l-.7.38-.11-.42.89-.47h.47v4.06H53.4Z"/><path class="cls-4" d="M55.54,16.81a1.85,1.85,0,0,0,.9.26c.71,0,.93-.45.92-.79,0-.57-.52-.81-1-.81H56v-.42h.3c.4,0,.91-.2.91-.68,0-.33-.21-.62-.71-.62a1.56,1.56,0,0,0-.82.27l-.14-.4a1.91,1.91,0,0,1,1.06-.31c.8,0,1.17.47,1.17,1a1,1,0,0,1-.75,1v0a1,1,0,0,1,.9,1c0,.65-.5,1.22-1.48,1.22a2.09,2.09,0,0,1-1.06-.27Z"/><path class="cls-4" d="M61.33,15.37c0,1.38-.52,2.14-1.42,2.14s-1.33-.74-1.34-2.09.59-2.11,1.41-2.11S61.33,14.07,61.33,15.37Zm-2.21.06c0,1.06.33,1.66.83,1.66s.83-.66.83-1.7-.26-1.66-.83-1.66S59.12,14.32,59.12,15.43Z"/><path class="cls-4" d="M2.68,59.5h0l.38.71-.42.11-.47-.89V59H6.23v.53Z"/><path class="cls-4" d="M5.6,57.35a1.82,1.82,0,0,0,.26-.9.8.8,0,0,0-.79-.92c-.57,0-.81.52-.81,1v.31H3.84v-.31c0-.4-.2-.9-.68-.9s-.62.2-.62.71a1.52,1.52,0,0,0,.27.81l-.4.15a2,2,0,0,1-.31-1.07c0-.8.47-1.16,1-1.16a1,1,0,0,1,1,.75H4a1.06,1.06,0,0,1,1-.91c.65,0,1.22.51,1.22,1.49a2.08,2.08,0,0,1-.27,1Z"/><path class="cls-4" d="M4.16,51.57c1.38,0,2.14.51,2.14,1.41s-.74,1.34-2.09,1.35S2.1,53.74,2.1,52.91,2.86,51.57,4.16,51.57Zm.06,2.21c1.06,0,1.66-.33,1.66-.83s-.66-.83-1.7-.83-1.66.26-1.66.83S3.11,53.78,4.22,53.78Z"/><path class="cls-4" d="M57.15,35.49A21.77,21.77,0,1,0,78.91,57.25,21.77,21.77,0,0,0,57.15,35.49Zm0,38.75a17,17,0,1,1,17-17A17,17,0,0,1,57.15,74.24Z"/><rect class="cls-5" width="115.01" height="115.01"/></g></g></svg>