<svg id="Layer_1" data-name="Layer 1" xmlns="http://www.w3.org/2000/svg" viewBox="0 0 623.1 103.05"><defs><style>.cls-1,.cls-3{fill:#dadada;}.cls-2{fill:#f7c86f;}.cls-3{stroke:#dadada;stroke-miterlimit:10;}</style></defs><path class="cls-1" d="M42.34,79.57c0-5.5.16-10.26.16-15.87-.16-10.06-4.87-11.85-11.76-11.85H28.06c-1.18,0-1.52.31-1.52.74V85.4c0,3.06.17,3.91,1.68,3.91h3.53c1,0,1.35.32,1.35.64s-.34.53-1.35.53H4.2c-1,0-1.34-.22-1.34-.53s.33-.64,1.34-.64H7.9c1.34,0,1.51-.85,1.51-3.91V20.84c0-3.07-.17-3.92-1.51-3.92H4.2c-1,0-1.34-.32-1.34-.64s.33-.52,1.34-.52H33.77c13.27,0,23.52,5.71,23.52,18.09,0,8.58-8.57,16.62-20.5,17.36v.11C49.9,52.37,59,57.24,59,71.53v13c0,2.75.33,5.18,3.36,5.18,2.69,0,3.86-2.11,4-4,0-.42,0-1.06,1-1.06,1.17,0,1.17.64,1.17,1.17C68,89.31,64.85,91.75,58,91.75,48.38,91.75,42.34,86.56,42.34,79.57ZM31.58,16.92H27.89c-1,0-1.35.32-1.35.74V50.05c0,.42.17.74,1.18.74h3.53C40.15,50.79,41,45,41,34.06,41,24.22,39.48,16.92,31.58,16.92Z" transform="translate(-2.86 -15.71)"/><path class="cls-1" d="M167.66,16.92h-.33c-4.2,0-5.88,2.43-9.91,20.11l-12.6,53.66c-.17.53-.51.63-1.18.63h-9.07c-.51,0-.84-.1-1-.63L117.77,33.75h-.34l-13.1,56.94c-.17.53-.51.63-1.18.63H94.08c-.5,0-.84-.1-1-.63L73.58,21.05c-.84-3.6-1.51-4.13-3.19-4.13h-1c-1,0-1.34-.32-1.34-.64s.34-.52,1.34-.52H95.26c1,0,1.34.21,1.34.52s-.34.64-1.34.64H92.4c-1.68,0-2.18.42-1.18,4.13l14,55.56h.33l9.08-40c2.52-11.43,2-19.68-5.38-19.68H108c-.84,0-1.17-.32-1.17-.64s.33-.52,1.17-.52h27.89c.84,0,1.18.21,1.18.52s-.34.64-1.18.64h-3c-1.68,0-2,.42-1.18,4.13L145.66,76.5H146l9.07-39.9c2.69-11.43,2-19.68-5.2-19.68h-1.35c-.84,0-1.17-.32-1.17-.64s.33-.52,1.17-.52h19.15c1,0,1.18.21,1.18.52S168.67,16.92,167.66,16.92Z" transform="translate(-2.86 -15.71)"/><path class="cls-1" d="M209.16,57.67H202.1c-1.17,0-1.34.31-1.34.63V85.4c0,3.06.17,3.91,1.68,3.91h6.21c1,0,1.35.32,1.35.64s-.34.53-1.35.53H178.41c-1,0-1.34-.22-1.34-.53s.34-.64,1.34-.64h3.7c1.34,0,1.51-.85,1.51-3.91V20.84c0-3.07-.17-3.92-1.51-3.92h-3.7c-1,0-1.34-.32-1.34-.64s.34-.52,1.34-.52h29.4c14.79,0,26.72,7,26.72,21.16C234.53,50.26,223.61,57.67,209.16,57.67ZM205.8,16.92h-3.7c-1,0-1.34.42-1.34.74V55.87c0,.31.17.63,1.17.63h3.87c9.57,0,9.91-7.09,9.91-19.79C215.71,23.59,213.53,16.92,205.8,16.92Z" transform="translate(-2.86 -15.71)"/><path class="cls-2" d="M14.06,115.11a4.09,4.09,0,0,1-4.23,3.14c-3.21,0-4.91-2.56-4.91-5.71s1.66-5.78,4.93-5.78A4,4,0,0,1,14.08,110h-.9a3.23,3.23,0,0,0-3.38-2.4c-2.77,0-3.92,2.53-3.92,4.93s1.14,4.91,4,4.91a3.28,3.28,0,0,0,3.29-2.32Z" transform="translate(-2.86 -15.71)"/><path class="cls-2" d="M28,112.44c0,3.06-1.65,5.84-5.11,5.84-3.15,0-5-2.54-5-5.76s1.78-5.76,5.11-5.76C26.11,106.76,28,109.17,28,112.44Zm-9.14,0c0,2.58,1.41,5,4.08,5,2.88,0,4.1-2.35,4.1-5s-1.38-4.87-4.07-4.87C20.12,107.59,18.87,110,18.87,112.47Z" transform="translate(-2.86 -15.71)"/><path class="cls-2" d="M32.57,118.12v-11.2h1.31c1.74,2.69,5.79,8.9,6.5,10.11h0c-.09-1.6-.08-3.25-.08-5.07v-5h.92v11.2H40c-1.66-2.58-5.79-9.06-6.59-10.29h0c.08,1.46.06,3.11.06,5.14v5.15Z" transform="translate(-2.86 -15.71)"/><path class="cls-2" d="M46.55,115.11a2.86,2.86,0,0,0,3.15,2.36c2,0,2.81-1,2.81-2.23s-.56-2-3-2.64-3.4-1.36-3.4-3,1.08-2.86,3.48-2.86,3.52,1.5,3.66,2.88h-.93a2.47,2.47,0,0,0-2.78-2c-1.6,0-2.47.74-2.47,2s.72,1.71,2.79,2.21c3.15.78,3.62,2,3.62,3.41,0,1.65-1.2,3.07-3.81,3.07-2.8,0-3.83-1.63-4-3.14Z" transform="translate(-2.86 -15.71)"/><path class="cls-2" d="M58.55,106.92v6.78c0,3,1.67,3.73,3.24,3.73,1.87,0,3.24-.78,3.24-3.73v-6.78H66v6.74c0,3.5-1.88,4.59-4.2,4.59s-4.13-1.2-4.13-4.45v-6.88Z" transform="translate(-2.86 -15.71)"/><path class="cls-2" d="M71.16,106.92h.9v10.37h6l-.16.83H71.16Z" transform="translate(-2.86 -15.71)"/><path class="cls-2" d="M82.52,107.75H78.76v-.83h8.43v.83H83.43v10.37h-.91Z" transform="translate(-2.86 -15.71)"/><path class="cls-2" d="M91.85,106.92v11.2H91v-11.2Z" transform="translate(-2.86 -15.71)"/><path class="cls-2" d="M97.22,118.12v-11.2h1.32c1.74,2.69,5.79,8.9,6.49,10.11h0c-.1-1.6-.08-3.25-.08-5.07v-5h.91v11.2h-1.21c-1.67-2.58-5.8-9.06-6.6-10.29h0c.08,1.46.07,3.11.07,5.14v5.15Z" transform="translate(-2.86 -15.71)"/><path class="cls-2" d="M119.75,118.12H119a7.5,7.5,0,0,1-.13-1.77,3.64,3.64,0,0,1-3.6,1.9c-3.22,0-4.87-2.45-4.87-5.63,0-3.35,1.76-5.86,5-5.86,2.44,0,4,1.28,4.39,3.33H119a3.31,3.31,0,0,0-3.52-2.5c-2.78,0-4.05,2.16-4.05,5,0,2.54,1.22,4.86,4,4.86s3.55-1.82,3.55-4.27V113H115.3v-.81h4.45Z" transform="translate(-2.86 -15.71)"/><path class="cls-2" d="M137.46,112.63h-5.69v4.66H138l-.13.83h-7v-11.2h6.88v.83h-6v4h5.69Z" transform="translate(-2.86 -15.71)"/><path class="cls-2" d="M142.31,118.12v-11.2h1.31c1.75,2.69,5.8,8.9,6.5,10.11h0c-.1-1.6-.08-3.25-.08-5.07v-5H151v11.2h-1.22c-1.66-2.58-5.79-9.06-6.59-10.29h0c.08,1.46.07,3.11.07,5.14v5.15Z" transform="translate(-2.86 -15.71)"/><path class="cls-2" d="M164.84,118.12h-.74a7.83,7.83,0,0,1-.12-1.77,3.64,3.64,0,0,1-3.6,1.9c-3.22,0-4.87-2.45-4.87-5.63,0-3.35,1.76-5.86,5-5.86,2.43,0,4,1.28,4.39,3.33H164a3.32,3.32,0,0,0-3.52-2.5c-2.79,0-4.05,2.16-4.05,5,0,2.54,1.22,4.86,3.95,4.86s3.56-1.82,3.56-4.27V113h-3.59v-.81h4.45Z" transform="translate(-2.86 -15.71)"/><path class="cls-2" d="M170.73,106.92v11.2h-.9v-11.2Z" transform="translate(-2.86 -15.71)"/><path class="cls-2" d="M176.1,118.12v-11.2h1.31c1.75,2.69,5.8,8.9,6.5,10.11h0c-.1-1.6-.08-3.25-.08-5.07v-5h.91v11.2h-1.22c-1.66-2.58-5.79-9.06-6.59-10.29h0c.08,1.46.07,3.11.07,5.14v5.15Z" transform="translate(-2.86 -15.71)"/><path class="cls-2" d="M196.73,112.63H191v4.66h6.24l-.13.83h-7v-11.2H197v.83h-6v4h5.7Z" transform="translate(-2.86 -15.71)"/><path class="cls-2" d="M208.17,112.63h-5.7v4.66h6.24l-.13.83h-7v-11.2h6.89v.83h-6v4h5.7Z" transform="translate(-2.86 -15.71)"/><path class="cls-2" d="M213.93,112.9v5.22H213v-11.2h4c2.21,0,3.37,1.18,3.37,2.94a2.53,2.53,0,0,1-2.08,2.63c1.14.27,1.91,1,1.91,2.93v.43a7.41,7.41,0,0,0,.14,2.27h-.91a7.38,7.38,0,0,1-.16-2.33v-.29c0-1.83-.53-2.6-2.67-2.6Zm0-.81h2.68c2,0,2.85-.74,2.85-2.2s-.88-2.14-2.62-2.14h-2.91Z" transform="translate(-2.86 -15.71)"/><path class="cls-2" d="M225.29,115.11a2.86,2.86,0,0,0,3.15,2.36c2,0,2.8-1,2.8-2.23s-.56-2-3-2.64-3.39-1.36-3.39-3,1.07-2.86,3.47-2.86,3.52,1.5,3.67,2.88h-.93a2.48,2.48,0,0,0-2.79-2c-1.6,0-2.46.74-2.46,2s.72,1.71,2.78,2.21c3.16.78,3.62,2,3.62,3.41,0,1.65-1.2,3.07-3.81,3.07-2.8,0-3.82-1.63-4-3.14Z" transform="translate(-2.86 -15.71)"/><line class="cls-3" x1="260.03" x2="260.03" y2="102.41"/><path class="cls-1" d="M294.08,107a11.2,11.2,0,0,1,9.61-11.41v0c-4.42-.81-7.4-4.23-7.4-7.77,0-4.17,3.57-8.08,9.35-8.08,5.61,0,9.52,3.85,9.52,8a8,8,0,0,1-7.22,7.92v0a12.41,12.41,0,0,1,6.8,3.43c.76-4,3.14-6,6.72-6,2.63,0,4.67,1.34,4.67,3.64,0,1.55-1.28,2.46-3.06,2.46s-3-1-3-2.08c0-1.24,1.11-1.72,1.11-2.36,0-.43-.43-.64-1.19-.64-2.72,0-4.17,2.84-4.76,5.89a11.82,11.82,0,0,1,2,5.24c.25,2.15,1.27,8.52,1.53,10.66a2.58,2.58,0,0,0,2.55,2.3,2,2,0,0,0,2.21-2.14c0-.21,0-.54.51-.54s.51.33.51.54c-.17,1.55-1.1,2.78-4,2.78-4.5,0-7.22-2.57-7.82-4.92-1.61,3.21-3.91,4.92-7.82,4.92C298.16,118.76,294.08,113.79,294.08,107Zm18.45,5.46c-.51-3.06-.85-7.77-1.36-10.23-.94-5.3-3-6.43-5.44-6.43-3.74,0-4.34,3.32-4.59,6.54a56.38,56.38,0,0,0,0,9.37c.25,3,.85,6.48,4.59,6.48C308.53,118.18,311.25,116.35,312.53,112.45ZM309.3,84.6c-.17-1.92-.94-4.33-3.66-4.33s-3.14,2.46-3.4,4.39a20,20,0,0,0,0,6.37c.26,1.93.85,4.34,3.49,4.34,2.89,0,3.4-2.47,3.57-4.39A40,40,0,0,0,309.3,84.6Z" transform="translate(-2.86 -15.71)"/><path class="cls-1" d="M362.08,101.26h-3.65c-.68,0-.85.16-.85.32v14.13c0,1.29.17,1.88.76,1.88H362c.42,0,.59.1.59.26s-.17.27-.59.27H348.48c-.42,0-.59-.1-.59-.27s.17-.26.59-.26h2.21c.51,0,.68-.59.68-1.88v-33c0-1.29-.17-1.87-.68-1.87h-2.21c-.42,0-.59-.11-.59-.27s.17-.27.59-.27h13.18c6.54,0,12,4,12,10.39S368.54,101.26,362.08,101.26ZM361,80.86h-2.64c-.59,0-.76.21-.76.37v19.22c0,.16.08.32.68.32h2.8c4.93,0,5.19-3.53,5.19-10C366.25,84,365,80.86,361,80.86Z" transform="translate(-2.86 -15.71)"/><path class="cls-1" d="M391.65,118.12H384c-.29,0-.41-.07-.41-.19s.12-.18.41-.18h1.13c.72,0,.84-.19.48-1.5l-2-7.69c-.06-.19-.18-.22-.36-.22h-5.53c-.12,0-.36,0-.42.22l-.42,2c-.95,4.69-.83,7.24,1.85,7.24h.65c.3,0,.42.07.42.18s-.12.19-.42.19h-6.72c-.3,0-.42-.07-.42-.19s.12-.18.42-.18h.12c1.84,0,2-1.46,3.39-7.16l4.52-19.2c.06-.19.18-.22.42-.22h1.31c.18,0,.29,0,.35.22L390,116.25c.42,1.27.48,1.5,1.31,1.5h.36c.3,0,.42.07.42.18S392,118.12,391.65,118.12ZM380.4,96.19h-.11l-2.68,11.55c-.06.18.06.22.3.22h5.17c.24,0,.42-.07.36-.3Z" transform="translate(-2.86 -15.71)"/><path class="cls-1" d="M409.08,114.82c0-1.87.12-3.48.12-5.32,0-4.35-2.44-5.06-5.35-5.06H403c-.47,0-.65.15-.65.26v11.74c0,.89.12,1.31.54,1.31h1.48c.3,0,.42.07.42.18s-.12.19-.42.19H396c-.29,0-.41-.07-.41-.19s.12-.18.41-.18h1.55c.36,0,.48-.42.48-1.31V93.34c0-.9-.12-1.31-.48-1.31H396c-.29,0-.41-.08-.41-.19s.12-.19.41-.19h9.28c3.57,0,7.14,2,7.14,6.3a6.58,6.58,0,0,1-6.42,6.26v0c4.52.64,7.44,2.74,7.44,7.54v4.5c0,.59,0,1.79,1.36,1.79a1.54,1.54,0,0,0,1.67-1.61c0-.15,0-.37.36-.37s.35.22.35.37c-.12,1.24-.95,2.1-3,2.1C410.93,118.57,409.08,116.66,409.08,114.82ZM404.68,92H402.9c-.42,0-.54.15-.54.26v11.59c0,.11.06.22.48.22h1.54c3.39,0,3.69-2.21,3.69-6C408.07,95.18,407.71,92,404.68,92Z" transform="translate(-2.86 -15.71)"/><path class="cls-1" d="M431.57,118.12h-8.39c-.29,0-.41-.07-.41-.19s.12-.18.41-.18h1.61c.3,0,.42-.42.42-1.31V92.22c0-.12-.12-.19-.54-.19H424c-5.36,0-5.48,5.1-5.48,7v.9c0,.19-.17.26-.35.26s-.36-.07-.36-.26v-8c0-.23.24-.27.42-.27h18.38c.12,0,.36,0,.36.27v8a.28.28,0,0,1-.3.26c-.18,0-.36-.07-.36-.26V99c0-1.87-.12-7-5.53-7h-.65c-.48,0-.6.07-.6.19v24.22c0,.89.12,1.31.54,1.31h1.48c.3,0,.42.07.42.18S431.87,118.12,431.57,118.12Z" transform="translate(-2.86 -15.71)"/><path class="cls-1" d="M460.37,92h-.12c-1.07,0-1.84.37-1.84,8.47v17.7c0,.26-.12.41-.66.41h-.95a.7.7,0,0,1-.77-.49l-11.25-24.4h-.12V109c0,7.13,1.37,8.74,3.16,8.74h1c.24,0,.36.07.36.18s-.12.19-.36.19H442c-.3,0-.42-.07-.42-.19s.12-.18.42-.18h.12c1.07,0,1.84-.38,1.84-8.48v-16c0-.87-.12-1.24-.53-1.24h-1.49c-.3,0-.42-.08-.42-.19s.12-.19.42-.19h5.83a.81.81,0,0,1,.59.23l9.22,21h.12V100.76c0-6.82-1.36-8.73-3.21-8.73h-1c-.3,0-.36-.08-.36-.19s.12-.19.36-.19h6.84c.3,0,.42.08.42.19S460.67,92,460.37,92Z" transform="translate(-2.86 -15.71)"/><path class="cls-1" d="M482,109.91v8c0,.22-.18.26-.36.26h-15.7c-.3,0-.42-.07-.42-.19s.12-.18.42-.18h1.54c.36,0,.48-.42.48-1.31V93.34c0-.9-.12-1.31-.48-1.31h-1.54c-.3,0-.42-.08-.42-.19s.12-.19.42-.19h13.92c.17,0,.35,0,.35.27V99.6c0,.15-.18.23-.35.23s-.36-.08-.36-.23v-1c0-2-.54-6.56-5.77-6.56h-.95c-.36,0-.48.11-.48.15V104s.06.11.42.11h.18a3.08,3.08,0,0,0,2.85-3.34v-.52c0-.19.18-.27.36-.27s.3.08.3.27v8c0,.22-.18.3-.36.3a.28.28,0,0,1-.3-.3v-.49a3.07,3.07,0,0,0-2.85-3.33h-.12c-.36,0-.48.11-.48.18v13s.06.12.42.12h.89c7.38,0,7.67-5.51,7.67-6.75v-1.09c0-.15.18-.22.36-.22S482,109.76,482,109.91Z" transform="translate(-2.86 -15.71)"/><path class="cls-1" d="M500.47,114.82c0-1.87.12-3.48.12-5.32,0-4.35-2.44-5.06-5.35-5.06h-.84c-.47,0-.65.15-.65.26v11.74c0,.89.12,1.31.54,1.31h1.48c.3,0,.42.07.42.18s-.12.19-.42.19h-8.39c-.29,0-.41-.07-.41-.19s.12-.18.41-.18h1.55c.36,0,.48-.42.48-1.31V93.34c0-.9-.12-1.31-.48-1.31h-1.55c-.29,0-.41-.08-.41-.19s.12-.19.41-.19h9.29c3.57,0,7.13,2,7.13,6.3a6.58,6.58,0,0,1-6.42,6.26v0c4.52.64,7.44,2.74,7.44,7.54v4.5c0,.59,0,1.79,1.36,1.79a1.54,1.54,0,0,0,1.67-1.61c0-.15,0-.37.36-.37s.35.22.35.37c-.11,1.24-.95,2.1-3,2.1C502.32,118.57,500.47,116.66,500.47,114.82ZM496.07,92h-1.78c-.42,0-.54.15-.54.26v11.59c0,.11.06.22.48.22h1.54c3.39,0,3.69-2.21,3.69-6C499.46,95.18,499.1,92,496.07,92Z" transform="translate(-2.86 -15.71)"/><path class="cls-1" d="M513.62,117.6c-.35-.15-.77-.15-.77,0v.23a.32.32,0,0,1-.36.34c-.18,0-.36,0-.36-.34v-9c0-.18.18-.26.36-.26s.36.08.36.26v.38c0,3.26,1.07,9,5.95,9a4.2,4.2,0,0,0,4.4-4.19c0-6.87-10.83-8.18-10.83-16.43,0-2.88,2-6.41,5.77-6.41a11,11,0,0,1,3.28.72c.83.3,1.36.6,1.36.18v-.18a.36.36,0,1,1,.72,0v7.94c0,.23-.18.3-.36.3s-.36-.07-.36-.3v-.37c0-1.73-1.24-7.95-4.75-7.95-1.79,0-2.8,1.8-2.8,3.79,0,7.2,10.77,8.43,10.77,16.42,0,3.26-2.38,6.82-7.44,6.82A15.47,15.47,0,0,1,513.62,117.6Z" transform="translate(-2.86 -15.71)"/><path class="cls-1" d="M312.87,50.23c0-2.67.17-5,.17-7.6,0-6.21-3.49-7.23-7.65-7.23H304.2c-.68,0-.94.22-.94.38V52.54c0,1.28.17,1.87.77,1.87h2.12c.43,0,.6.11.6.27s-.17.27-.6.27h-12c-.43,0-.6-.11-.6-.27s.17-.27.6-.27h2.21c.51,0,.68-.59.68-1.87v-33c0-1.28-.17-1.87-.68-1.87h-2.21c-.43,0-.6-.11-.6-.27s.17-.27.6-.27h13.26c5.1,0,10.2,2.84,10.2,9,0,3-2.38,8.41-9.18,8.94v.05c6.46.91,10.62,3.91,10.62,10.77v6.42c0,.86,0,2.57,2,2.57a2.21,2.21,0,0,0,2.38-2.3c0-.21,0-.54.51-.54s.51.33.51.54c-.17,1.77-1.36,3-4.25,3C315.5,55.59,312.87,52.86,312.87,50.23Zm-6.29-32.55H304c-.6,0-.77.21-.77.37V34.6c0,.16.09.32.68.32h2.21c4.85,0,5.27-3.16,5.27-8.51C311.42,22.18,310.91,17.68,306.58,17.68Z" transform="translate(-2.86 -15.71)"/><path class="cls-1" d="M337.85,55.4c-6.67,0-9.34-6.79-9.34-13.69S331.24,28,337.85,28s9.34,6.78,9.34,13.68S344.39,55.4,337.85,55.4Zm3.92-20.77c-.47-4.77-1.54-6.27-3.92-6.27s-3.51,1.5-3.93,6.27a111.66,111.66,0,0,0,0,14.17c.42,4.72,1.55,6.26,3.93,6.26s3.45-1.58,3.92-6.26A111.66,111.66,0,0,0,341.77,34.63Z" transform="translate(-2.86 -15.71)"/><path class="cls-1" d="M361.94,55h-9.4c-.29,0-.41-.08-.41-.19s.12-.19.41-.19h1.55c.36,0,.48-.41.48-1.31V30.16c0-.9-.12-1.31-.48-1.31h-1.55c-.29,0-.41-.07-.41-.19s.12-.18.41-.18h9.28c3.57,0,7.14,1.91,7.14,6.3A6.55,6.55,0,0,1,362.54,41v0c4.4,0,7.43,2.78,7.43,6.83S366.05,55,361.94,55Zm-.71-26.1h-1.79c-.41,0-.53.15-.53.26V40.7c0,.11.06.22.47.22h1.55c3.39,0,3.69-2.25,3.69-6C364.62,32,364.26,28.85,361.23,28.85ZM361,41.26h-1.55c-.41,0-.53.11-.53.23V54.31c0,.11.06.26.47.26H361c3.63,0,3.75-2.4,3.75-6.67S363.91,41.26,361,41.26Z" transform="translate(-2.86 -15.71)"/><path class="cls-1" d="M391.21,46.73v8c0,.23-.17.27-.35.27H375.15c-.3,0-.41-.08-.41-.19s.11-.19.41-.19h1.55c.36,0,.47-.41.47-1.31V30.16c0-.9-.11-1.31-.47-1.31h-1.55c-.3,0-.41-.07-.41-.19s.11-.18.41-.18h13.92c.18,0,.36,0,.36.26v7.68c0,.15-.18.23-.36.23s-.35-.08-.35-.23v-1c0-2-.54-6.56-5.77-6.56h-1c-.35,0-.47.11-.47.15V40.85s.06.11.41.11h.18A3.08,3.08,0,0,0,385,37.62V37.1c0-.19.18-.26.36-.26s.29.07.29.26v8c0,.23-.18.3-.35.3a.28.28,0,0,1-.3-.3v-.48a3.08,3.08,0,0,0-2.86-3.34H382c-.35,0-.47.11-.47.19v13s.06.11.41.11h.9c7.37,0,7.67-5.51,7.67-6.75V46.73c0-.15.18-.22.36-.22S391.21,46.58,391.21,46.73Z" transform="translate(-2.86 -15.71)"/><path class="cls-1" d="M409.72,51.65c0-1.88.12-3.49.12-5.33,0-4.35-2.44-5.06-5.36-5.06h-.83c-.47,0-.65.15-.65.26V53.26c0,.9.12,1.31.53,1.31H405c.3,0,.42.08.42.19s-.12.19-.42.19h-8.39c-.3,0-.42-.08-.42-.19s.12-.19.42-.19h1.55c.36,0,.47-.41.47-1.31V30.16c0-.9-.11-1.31-.47-1.31h-1.55c-.3,0-.42-.07-.42-.19s.12-.18.42-.18h9.28c3.57,0,7.14,2,7.14,6.3A6.6,6.6,0,0,1,406.63,41v0c4.52.64,7.43,2.74,7.43,7.54v4.5c0,.6,0,1.8,1.37,1.8a1.55,1.55,0,0,0,1.67-1.61c0-.15,0-.38.35-.38s.36.23.36.38c-.12,1.23-.95,2.1-3,2.1C411.56,55.4,409.72,53.48,409.72,51.65Zm-4.4-22.8h-1.79c-.41,0-.53.15-.53.26V40.7c0,.11.06.22.47.22H405c3.39,0,3.69-2.21,3.69-6C408.71,32,408.35,28.85,405.32,28.85Z" transform="translate(-2.86 -15.71)"/><path class="cls-1" d="M432.21,55h-8.39c-.29,0-.41-.08-.41-.19s.12-.19.41-.19h1.61c.3,0,.42-.41.42-1.31V29c0-.11-.12-.19-.54-.19h-.65c-5.36,0-5.48,5.1-5.48,7v.89c0,.19-.18.27-.35.27s-.36-.08-.36-.27v-8c0-.23.24-.26.41-.26h18.39c.12,0,.36,0,.36.26v8a.29.29,0,0,1-.3.27c-.18,0-.36-.08-.36-.27v-.89c0-1.88-.12-7-5.53-7h-.66c-.47,0-.59.08-.59.19V53.26c0,.9.12,1.31.53,1.31h1.49c.3,0,.42.08.42.19S432.51,55,432.21,55Z" transform="translate(-2.86 -15.71)"/><path class="cls-1" d="M499,17.68h-.17c-2.72,0-2.89,2-4.85,10.23L487.5,55.32c-.08.27-.34.32-.68.32H485c-.26,0-.43,0-.51-.32L476,25.44h-.17l-7,29.88c-.09.27-.26.32-.6.32h-1.87c-.25,0-.42,0-.51-.32l-10.2-35.5c-.51-1.82-.76-2.14-1.78-2.14h-.51c-.43,0-.6-.11-.6-.27s.17-.27.6-.27H464.3c.42,0,.59.11.59.27s-.17.27-.59.27h-1.62c-1.1,0-1.27.27-.76,2.14l7.48,28.59h.17L474.24,28c1.19-5,1.87-10.33-2.63-10.33h-.85c-.43,0-.6-.11-.6-.27s.17-.27.6-.27h12.15c.43,0,.6.11.6.27s-.17.27-.6.27H481.3c-1,0-1.19.27-.68,2.14L488,48.36h.17L492.94,28c1.11-5,1.87-10.33-2.63-10.33h-1c-.34,0-.51-.11-.51-.27s.17-.27.51-.27H499c.34,0,.51.11.51.27S499.32,17.68,499,17.68Z" transform="translate(-2.86 -15.71)"/><path class="cls-1" d="M515.71,55h-7.62c-.29,0-.41-.08-.41-.19s.12-.19.41-.19h1.13c.72,0,.84-.19.48-1.5l-2-7.68c-.06-.19-.18-.23-.36-.23h-5.53c-.12,0-.36,0-.42.23L501,47.33c-.95,4.69-.83,7.24,1.85,7.24h.65c.3,0,.42.08.42.19s-.12.19-.42.19h-6.72c-.3,0-.42-.08-.42-.19s.12-.19.42-.19h.12c1.84,0,2-1.46,3.39-7.16l4.52-19.2c.06-.18.18-.22.42-.22h1.31c.18,0,.29,0,.35.22L514,53.07c.42,1.28.48,1.5,1.31,1.5h.36c.3,0,.42.08.42.19S516,55,515.71,55ZM504.46,33h-.11l-2.68,11.55c-.06.19.06.23.3.23h5.17c.24,0,.42-.08.36-.3Z" transform="translate(-2.86 -15.71)"/><path class="cls-1" d="M536.24,45.2v9.48c0,.23-.18.27-.36.27H520.05c-.29,0-.41-.08-.41-.19s.12-.19.41-.19h1.55c.36,0,.48-.41.48-1.31V30.09c0-.86-.12-1.24-.48-1.24h-1.55c-.29,0-.41-.07-.41-.19s.12-.18.41-.18h9c.29,0,.41.07.41.18s-.12.19-.41.19H527c-.42,0-.54,1.09-.54,1.95V54.46s.06.11.42.11h.95c7.38,0,7.73-5.55,7.73-7V45.2c0-.15.18-.23.36-.23S536.24,45.05,536.24,45.2Z" transform="translate(-2.86 -15.71)"/><path class="cls-1" d="M551.17,43.14h-2.56c-.47,0-.59.11-.59.22v9.9c0,.9.12,1.31.53,1.31h2.56c.3,0,.42.08.42.19s-.12.19-.42.19h-9.46c-.29,0-.41-.08-.41-.19s.12-.19.41-.19h1.55c.36,0,.48-.41.48-1.31V30.16c0-.9-.12-1.31-.48-1.31h-1.55c-.29,0-.41-.07-.41-.19s.12-.18.41-.18h9.22c4.59,0,8.39,2.77,8.39,7.27S555.69,43.14,551.17,43.14Zm-.77-14.29h-1.85c-.41,0-.53.15-.53.26V42.57c0,.12.06.23.48.23h2c3.45,0,3.63-2.48,3.63-7C554.09,31.06,553.19,28.85,550.4,28.85Z" transform="translate(-2.86 -15.71)"/><path class="cls-1" d="M573.6,55.4c-6.66,0-9.34-6.79-9.34-13.69S567,28,573.6,28s9.34,6.78,9.34,13.68S580.15,55.4,573.6,55.4Zm3.93-20.77c-.48-4.77-1.55-6.27-3.93-6.27s-3.51,1.5-3.92,6.27a111.66,111.66,0,0,0,0,14.17c.41,4.72,1.54,6.26,3.92,6.26s3.45-1.58,3.93-6.26A111.66,111.66,0,0,0,577.53,34.63Z" transform="translate(-2.86 -15.71)"/><path class="cls-1" d="M604.48,45.2v9.48c0,.23-.18.27-.36.27H588.3c-.3,0-.42-.08-.42-.19s.12-.19.42-.19h1.55c.35,0,.47-.41.47-1.31V30.09c0-.86-.12-1.24-.47-1.24H588.3c-.3,0-.42-.07-.42-.19s.12-.18.42-.18h9c.3,0,.42.07.42.18s-.12.19-.42.19H595.2c-.42,0-.54,1.09-.54,1.95V54.46s.06.11.42.11H596c7.38,0,7.74-5.55,7.74-7V45.2c0-.15.18-.23.35-.23S604.48,45.05,604.48,45.2Z" transform="translate(-2.86 -15.71)"/><path class="cls-1" d="M626,46.73v8c0,.23-.18.27-.36.27H609.9c-.3,0-.42-.08-.42-.19s.12-.19.42-.19h1.54c.36,0,.48-.41.48-1.31V30.16c0-.9-.12-1.31-.48-1.31H609.9c-.3,0-.42-.07-.42-.19s.12-.18.42-.18h13.92c.18,0,.36,0,.36.26v7.68c0,.15-.18.23-.36.23s-.36-.08-.36-.23v-1c0-2-.53-6.56-5.77-6.56h-1c-.36,0-.48.11-.48.15V40.85s.06.11.42.11h.18a3.07,3.07,0,0,0,2.85-3.34V37.1c0-.19.18-.26.36-.26s.3.07.3.26v8c0,.23-.18.3-.36.3a.28.28,0,0,1-.3-.3v-.48a3.07,3.07,0,0,0-2.85-3.34h-.12c-.36,0-.48.11-.48.19v13s.06.11.42.11h.89c7.38,0,7.68-5.51,7.68-6.75V46.73c0-.15.17-.22.35-.22S626,46.58,626,46.73Z" transform="translate(-2.86 -15.71)"/></svg>