<svg xmlns="http://www.w3.org/2000/svg" xmlns:xlink="http://www.w3.org/1999/xlink" viewBox="0 0 231.67 102.53"><defs><style>.cls-1{fill:none;}.cls-2{clip-path:url(#clip-path);}.cls-3{fill:#dadada;}.cls-4{fill:#f7c86f;}</style><clipPath id="clip-path" transform="translate(-2.86 -15.56)"><rect class="cls-1" width="242.76" height="122.12"/></clipPath></defs><g id="Layer_2" data-name="Layer 2"><g id="logo"><g id="dark"><g class="cls-2"><g class="cls-2"><path class="cls-3" d="M42.34,79.38c0-5.5.16-10.27.16-15.87-.16-10.06-4.87-11.86-11.76-11.86H28.06c-1.18,0-1.52.32-1.52.74V85.2c0,3.07.17,3.92,1.68,3.92h3.53c1,0,1.35.31,1.35.63s-.34.53-1.35.53H4.2c-1,0-1.34-.21-1.34-.53s.33-.63,1.34-.63H7.9c1.34,0,1.51-.85,1.51-3.92V20.64c0-3.07-.17-3.91-1.51-3.91H4.2c-1,0-1.34-.32-1.34-.64s.33-.53,1.34-.53H33.77c13.27,0,23.52,5.72,23.52,18.1,0,8.57-8.57,16.62-20.5,17.36v.1C49.9,52.18,59,57.05,59,71.34v13c0,2.76.33,5.19,3.36,5.19,2.69,0,3.86-2.12,4-4,0-.42,0-1.06,1-1.06,1.17,0,1.17.64,1.17,1.16-.5,3.5-3.69,5.93-10.58,5.93-9.58,0-15.62-5.18-15.62-12.17M31.58,16.73H27.89c-1,0-1.35.31-1.35.74V49.85c0,.43.17.74,1.18.74h3.53c8.9,0,9.74-5.82,9.74-16.72,0-9.84-1.51-17.14-9.41-17.14" transform="translate(-2.86 -15.56)"/><path class="cls-3" d="M167.66,16.73h-.33c-4.2,0-5.88,2.43-9.91,20.1l-12.6,53.66c-.17.53-.51.64-1.18.64h-9.07c-.51,0-.84-.11-1-.64L117.77,33.55h-.34l-13.1,56.94c-.17.53-.51.64-1.18.64H94.08c-.5,0-.84-.11-1-.64L73.58,20.85c-.84-3.59-1.51-4.12-3.19-4.12h-1c-1,0-1.34-.32-1.34-.64s.34-.53,1.34-.53H95.26c1,0,1.34.21,1.34.53s-.34.64-1.34.64H92.4c-1.68,0-2.18.42-1.18,4.12l14,55.57h.33l9.08-40c2.52-11.43,2-19.68-5.38-19.68H108c-.84,0-1.17-.32-1.17-.64s.33-.53,1.17-.53h27.89c.84,0,1.18.21,1.18.53s-.34.64-1.18.64h-3c-1.68,0-2,.42-1.18,4.12l13.95,55.46H146l9.07-39.9c2.69-11.43,2-19.68-5.2-19.68h-1.35c-.84,0-1.17-.32-1.17-.64s.33-.53,1.17-.53h19.15c1,0,1.18.21,1.18.53s-.17.64-1.18.64" transform="translate(-2.86 -15.56)"/><path class="cls-3" d="M209.16,57.47H202.1c-1.17,0-1.34.32-1.34.64V85.2c0,3.07.17,3.92,1.68,3.92h6.21c1,0,1.35.31,1.35.63s-.34.53-1.35.53H178.41c-1,0-1.34-.21-1.34-.53s.34-.63,1.34-.63h3.7c1.34,0,1.51-.85,1.51-3.92V20.64c0-3.07-.17-3.91-1.51-3.91h-3.7c-1,0-1.34-.32-1.34-.64s.34-.53,1.34-.53h29.4c14.79,0,26.72,7,26.72,21.17,0,13.33-10.92,20.74-25.37,20.74M205.8,16.73h-3.7c-1,0-1.34.42-1.34.74v38.2c0,.32.17.64,1.17.64h3.87c9.57,0,9.91-7.09,9.91-19.79,0-13.13-2.18-19.79-9.91-19.79" transform="translate(-2.86 -15.56)"/><path class="cls-4" d="M14.06,114.92a4.1,4.1,0,0,1-4.23,3.14c-3.21,0-4.91-2.57-4.91-5.72s1.66-5.78,4.93-5.78a4,4,0,0,1,4.23,3.24h-.9a3.23,3.23,0,0,0-3.38-2.4c-2.77,0-3.92,2.52-3.92,4.93s1.14,4.91,4,4.91a3.28,3.28,0,0,0,3.29-2.32Z" transform="translate(-2.86 -15.56)"/><path class="cls-4" d="M28,112.25c0,3-1.65,5.84-5.11,5.84-3.15,0-5-2.55-5-5.76s1.78-5.77,5.11-5.77c3.09,0,5,2.42,5,5.69m-9.14,0c0,2.57,1.41,5,4.08,5,2.88,0,4.1-2.36,4.1-5S25.67,107.4,23,107.4c-2.86,0-4.11,2.36-4.11,4.88" transform="translate(-2.86 -15.56)"/><path class="cls-4" d="M32.57,117.93V106.72h1.31c1.74,2.69,5.79,8.9,6.5,10.12h0c-.09-1.6-.08-3.25-.08-5.07v-5h.92v11.21H40c-1.67-2.58-5.8-9.06-6.6-10.29h0c.08,1.45.06,3.1.06,5.13v5.16Z" transform="translate(-2.86 -15.56)"/><path class="cls-4" d="M46.55,114.92a2.86,2.86,0,0,0,3.15,2.35c2,0,2.81-1,2.81-2.22s-.57-2-3-2.64-3.4-1.37-3.4-3,1.08-2.87,3.48-2.87,3.52,1.51,3.66,2.88h-.93a2.46,2.46,0,0,0-2.78-2c-1.6,0-2.47.73-2.47,2s.72,1.72,2.79,2.21c3.15.79,3.62,2.05,3.62,3.41,0,1.65-1.21,3.08-3.81,3.08-2.81,0-3.83-1.64-4-3.14Z" transform="translate(-2.86 -15.56)"/><path class="cls-4" d="M58.55,106.72v6.79c0,3,1.67,3.73,3.23,3.73,1.88,0,3.25-.78,3.25-3.73v-6.79H66v6.74c0,3.51-1.88,4.6-4.2,4.6s-4.13-1.2-4.13-4.45v-6.89Z" transform="translate(-2.86 -15.56)"/><polygon class="cls-4" points="68.3 91.16 69.2 91.16 69.2 101.53 75.2 101.53 75.04 102.37 68.3 102.37 68.3 91.16"/><polygon class="cls-4" points="79.66 92 75.9 92 75.9 91.16 84.34 91.16 84.34 92 80.58 92 80.58 102.37 79.66 102.37 79.66 92"/><rect class="cls-4" x="88.09" y="91.16" width="0.9" height="11.2"/><path class="cls-4" d="M97.22,117.93V106.72h1.31c1.75,2.69,5.8,8.9,6.5,10.12h0c-.1-1.6-.08-3.25-.08-5.07v-5h.91v11.21h-1.22c-1.66-2.58-5.79-9.06-6.59-10.29h0c.08,1.45.07,3.1.07,5.13v5.16Z" transform="translate(-2.86 -15.56)"/><path class="cls-4" d="M119.75,117.93H119a7,7,0,0,1-.13-1.78,3.62,3.62,0,0,1-3.6,1.91c-3.22,0-4.87-2.45-4.87-5.64,0-3.34,1.76-5.86,5-5.86,2.44,0,4,1.28,4.39,3.33H119a3.32,3.32,0,0,0-3.52-2.49c-2.78,0-4.05,2.16-4.05,5,0,2.55,1.22,4.87,4,4.87s3.55-1.82,3.55-4.27v-.13H115.3V112h4.45Z" transform="translate(-2.86 -15.56)"/><polygon class="cls-4" points="134.61 96.88 128.91 96.88 128.91 101.53 135.15 101.53 135.02 102.37 128.01 102.37 128.01 91.16 134.9 91.16 134.9 92 128.91 92 128.91 96.04 134.61 96.04 134.61 96.88"/><path class="cls-4" d="M142.31,117.93V106.72h1.31c1.75,2.69,5.79,8.9,6.5,10.12h0c-.1-1.6-.08-3.25-.08-5.07v-5H151v11.21h-1.22c-1.66-2.58-5.79-9.06-6.59-10.29h0c.08,1.45.06,3.1.06,5.13v5.16Z" transform="translate(-2.86 -15.56)"/><path class="cls-4" d="M164.84,117.93h-.74a8,8,0,0,1-.12-1.78,3.64,3.64,0,0,1-3.61,1.91c-3.21,0-4.86-2.45-4.86-5.64,0-3.34,1.76-5.86,5-5.86,2.43,0,4,1.28,4.39,3.33H164a3.32,3.32,0,0,0-3.52-2.49c-2.79,0-4.05,2.16-4.05,5,0,2.55,1.21,4.87,3.95,4.87S164,115.42,164,113v-.13h-3.59V112h4.45Z" transform="translate(-2.86 -15.56)"/><rect class="cls-4" x="166.97" y="91.16" width="0.9" height="11.2"/><path class="cls-4" d="M176.1,117.93V106.72h1.31c1.75,2.69,5.8,8.9,6.5,10.12h0c-.1-1.6-.08-3.25-.08-5.07v-5h.91v11.21h-1.22c-1.66-2.58-5.79-9.06-6.59-10.29h0c.08,1.45.07,3.1.07,5.13v5.16Z" transform="translate(-2.86 -15.56)"/><polygon class="cls-4" points="193.87 96.88 188.17 96.88 188.17 101.53 194.41 101.53 194.29 102.37 187.28 102.37 187.28 91.16 194.16 91.16 194.16 92 188.17 92 188.17 96.04 193.87 96.04 193.87 96.88"/><polygon class="cls-4" points="205.31 96.88 199.61 96.88 199.61 101.53 205.85 101.53 205.73 102.37 198.72 102.37 198.72 91.16 205.6 91.16 205.6 92 199.61 92 199.61 96.04 205.31 96.04 205.31 96.88"/><path class="cls-4" d="M213.92,112.71v5.22H213V106.72h4c2.2,0,3.37,1.19,3.37,3a2.54,2.54,0,0,1-2.08,2.62c1.14.28,1.91,1,1.91,2.93v.44a7.41,7.41,0,0,0,.14,2.27h-.91a7.45,7.45,0,0,1-.16-2.34v-.29c0-1.82-.53-2.59-2.67-2.59Zm0-.82h2.69c2,0,2.85-.73,2.85-2.19s-.88-2.14-2.62-2.14h-2.92Z" transform="translate(-2.86 -15.56)"/><path class="cls-4" d="M225.28,114.92a2.87,2.87,0,0,0,3.16,2.35c2,0,2.8-1,2.8-2.22s-.56-2-3-2.64-3.39-1.37-3.39-3,1.07-2.87,3.47-2.87,3.52,1.51,3.67,2.88h-.93a2.48,2.48,0,0,0-2.79-2c-1.6,0-2.46.73-2.46,2s.72,1.72,2.78,2.21c3.16.79,3.62,2.05,3.62,3.41,0,1.65-1.2,3.08-3.81,3.08-2.8,0-3.83-1.64-4-3.14Z" transform="translate(-2.86 -15.56)"/></g></g></g></g></g></svg>