<svg xmlns="http://www.w3.org/2000/svg" viewBox="0 0 230.32 318.65"><defs><style>.cls-1,.cls-2,.cls-3{fill:none;stroke-linejoin:round;}.cls-1,.cls-3,.cls-4,.cls-6{stroke:#142026;}.cls-1,.cls-2,.cls-3,.cls-6{stroke-linecap:round;}.cls-1{stroke-width:0.48px;}.cls-2{stroke:#2e393e;}.cls-2,.cls-3,.cls-4,.cls-6{stroke-width:0.12px;}.cls-4,.cls-5,.cls-6{fill:#142026;}.cls-4,.cls-6{stroke-miterlimit:7.5;}</style></defs><g id="Layer_2" data-name="Layer 2"><g id="Layer_1-2" data-name="Layer 1"><path class="cls-1" d="M125,139.25a67.35,67.35,0,1,0,67.39,67.41A67.35,67.35,0,0,0,125,139.25"/><path class="cls-1" d="M193,196.8h.72V176.26h-7.09v-1.09l.24-.12H192l.36-.12.36-.24.24-.24.12-.48V157.15l-.12-.36-.24-.36-.36-.24-.36-.12h-5.41V155h7.09v21.27"/><path class="cls-1" d="M193.08,165.57h-13"/><path class="cls-1" d="M186.59,155H170.38"/><path class="cls-1" d="M57,196.8h-.72V176.26h7.09v-1l-.12-.12-.13-.12H58l-.36-.12-.36-.24-.24-.24-.12-.48V157.15l.12-.36.24-.36.36-.24.36-.12h5.29l.12-.12v-1H56.27v21.27"/><path class="cls-1" d="M56.87,165.57h13"/><path class="cls-1" d="M63.36,155H79.58"/><path class="cls-2" d="M125,291.5V280.8"/><path class="cls-3" d="M125,276.35v.13"/><path class="cls-3" d="M125,271.91v-9"/><path class="cls-3" d="M125,258.33v.12"/><path class="cls-3" d="M125,253.89v-9"/><path class="cls-3" d="M125,240.3v.12"/><path class="cls-3" d="M125,235.86v-9"/><path class="cls-3" d="M125,222.4v.12"/><path class="cls-3" d="M125,217.83v-9"/><path class="cls-3" d="M125,204.38v.12"/><path class="cls-3" d="M125,199.81v-8.9"/><path class="cls-3" d="M125,186.35v.12"/><path class="cls-3" d="M125,181.91v-9"/><path class="cls-3" d="M125,168.32v.12"/><path class="cls-3" d="M125,163.88v-9"/><path class="cls-3" d="M125,150.3v.12"/><path class="cls-3" d="M125,145.85v-9"/><path class="cls-3" d="M125,132.39v.12"/><path class="cls-3" d="M125,127.83V117.26"/><path class="cls-3" d="M154.16,146l-1.92,4"/><path class="cls-3" d="M152.48,145.25l-1.8,4"/><path class="cls-3" d="M151.4,148.61a.94.94,0,0,0-.84,1,.82.82,0,0,0,.84.84.93.93,0,0,0,1-.84,1,1,0,0,0-1-1"/><path class="cls-3" d="M152.12,146l1.68.71"/><path class="cls-3" d="M125,206.66l4.69-10.22"/><path class="cls-3" d="M131.58,192.36v.12"/><path class="cls-3" d="M133.38,188.39l3.85-8.17"/><path class="cls-3" d="M139.15,176.14v.12"/><path class="cls-3" d="M141.07,172.05l3.72-8.17"/><path class="cls-3" d="M146.72,159.8v.12"/><path class="cls-3" d="M148.63,155.71l4.69-10.1"/><path class="cls-4" d="M202.09,32.17v.13h.84Z"/><path class="cls-4" d="M202.09,32.54h1.68l-1.68-.24Zm1.68,0-1.68-.24h.84Z"/><path class="cls-4" d="M202,32.78h1.68l-1.56-.24Zm1.68,0-1.56-.24h1.68Z"/><path class="cls-4" d="M202.21,33.38h1.2l-1.44-.6Zm1.2,0-1.44-.6h1.68Z"/><path class="cls-4" d="M202.21,33.38l.48.47h.6Zm.48.47h.6l-.12.37Z"/><path class="cls-4" d="M202.21,33.38h1.2l-.12.47Z"/><path class="cls-4" d="M210.49,34.7l-.11.24h1Z"/><path class="cls-4" d="M210.26,35.3h1.8l-1.68-.36Zm1.8,0-1.68-.36h1Z"/><path class="cls-4" d="M210.13,35.78h1.68l-1.55-.48Zm1.68,0-1.55-.48h1.8Z"/><path class="cls-4" d="M210,36.26h1.21l-1.09-.48Zm1.21,0-1.09-.48h1.68Z"/><path class="cls-4" d="M210,36.26v.13h.84Zm0,.13h0Z"/><path class="cls-4" d="M210,36.26h1.21l-.37.13Z"/><path class="cls-1" d="M186.35,24.36l2.16-.6"/><path class="cls-1" d="M185.63,25.57,190.56,24"/><path class="cls-1" d="M185,26.77l7.57-2.41"/><path class="cls-1" d="M184.43,27.85l10.09-3.25"/><path class="cls-1" d="M184,28.93l12.37-4"/><path class="cls-1" d="M186.23,29.17l11.9-3.84"/><path class="cls-1" d="M188.39,29.41l11.54-3.6"/><path class="cls-1" d="M190.44,29.77l11.17-3.6"/><path class="cls-1" d="M192.36,30l10.93-3.48"/><path class="cls-1" d="M194.28,30.38,204.85,27"/><path class="cls-1" d="M196.08,30.74l10.34-3.25"/><path class="cls-1" d="M197.89,31.1,208,28"/><path class="cls-1" d="M199.57,31.58l10-3.25"/><path class="cls-1" d="M201.25,31.94,211,28.81"/><path class="cls-1" d="M202.93,32.42l9.49-3.13"/><path class="cls-1" d="M204.49,32.78l9.25-2.89"/><path class="cls-1" d="M206.06,33.26l9.12-2.88"/><path class="cls-1" d="M207.49,33.74l9-2.89"/><path class="cls-1" d="M209.06,34.22l8.76-2.76"/><path class="cls-1" d="M210.49,34.7l8.65-2.76"/><path class="cls-1" d="M211.81,35.17l8.53-2.75"/><path class="cls-1" d="M213.26,35.66,221.67,33"/><path class="cls-1" d="M214.58,36.26l8.29-2.64"/><path class="cls-1" d="M215.9,36.75l8.17-2.65"/><path class="cls-1" d="M217.22,37.23l8.05-2.53"/><path class="cls-1" d="M218.42,37.82l7.93-2.52"/><path class="cls-1" d="M219.74,38.3l7.81-2.39"/><path class="cls-1" d="M220.94,38.91l7.69-2.52"/><path class="cls-1" d="M222.15,39.5,229.84,37"/><path class="cls-1" d="M223.23,40.1l6.85-2.16"/><path class="cls-1" d="M224.43,40.58,230,38.91"/><path class="cls-1" d="M225.51,41.19,230,39.86"/><path class="cls-1" d="M226.71,41.79l3.13-1"/><path class="cls-1" d="M227.79,42.39l1.81-.6"/><path class="cls-1" d="M228.87,43l.61-.12"/><path class="cls-1" d="M229.36,43.23l-4.69-2.53-4.81-2.28-4.92-2L210,34.58l-5.16-1.68-5-1.32-5.29-1.2-5.29-.85-5.28-.6"/><path class="cls-1" d="M230.08,37.1l-5.17-2.52-5-2.41-5.28-2-5.41-1.8-5.52-1.68-5.52-1.32-5.53-1L187,23.52"/><path class="cls-3" d="M203.77,32.54l-5.28,16.94"/><path class="cls-3" d="M210.49,34.7l-5.28,16.82"/><path class="cls-3" d="M201.85,47a3.55,3.55,0,1,0,3.6,3.48,3.59,3.59,0,0,0-3.6-3.48"/><path class="cls-3" d="M209.29,38.3l-6.72-2"/><path class="cls-3" d="M86.53,174l-.11-2.4-.25-2"/><path class="cls-3" d="M85.69,167.36l-.24-.47-.71-2.29L84,163.16"/><path class="cls-3" d="M82.93,161.24l-.48-.84L81,158.47l-.72-.84"/><path class="cls-3" d="M78.73,156.07,77.53,155l-1.92-1.45-.36-.24"/><path class="cls-3" d="M73.33,152.22l-1.92-1-2.17-.72"/><path class="cls-3" d="M67.08,149.94h-.24l-2.4-.36-1.81-.12"/><path class="cls-3" d="M60.35,149.46l-.72.12-2.4.36-1.32.24"/><path class="cls-3" d="M53.86,150.9l-1.19.36-2.16,1.08-.73.36"/><path class="cls-3" d="M47.86,153.9,46.42,155l-1.8,1.68-.12.12"/><path class="cls-3" d="M42.94,158.47l-1.32,1.93-1.08,1.8"/><path class="cls-3" d="M39.58,164.24l-.25.36-.84,2.29-.36,1.55"/><path class="cls-3" d="M37.77,170.73l-.24.84-.12,2.4.12,1.2"/><path class="cls-3" d="M37.77,177.34l.12,1.44.6,2.4.24.49"/><path class="cls-3" d="M39.58,183.83l.84,1.8,1.2,2v.12"/><path class="cls-3" d="M42.94,189.59h.12l1.56,1.8,1.44,1.33"/><path class="cls-3" d="M47.86,194l.49.36,2.16,1.2,1.19.72"/><path class="cls-3" d="M53.86,197.16l1.08.37,2.29.6,1,.12"/><path class="cls-3" d="M60.35,198.49l1.68.12,2.41-.12.36-.12"/><path class="cls-3" d="M67.08,198l2.16-.48,2.05-.85"/><path class="cls-3" d="M73.33,195.84l.36-.24,1.92-1.2,1.44-1.08"/><path class="cls-3" d="M78.73,192l.6-.61,1.68-1.8.73-1"/><path class="cls-3" d="M82.93,186.83l.72-1.2,1.09-2.16.23-.72"/><path class="cls-3" d="M85.69,180.7l.37-1.92.36-2.4v-.12"/><path class="cls-3" d="M27.2,149.94,41.86,160"/><path class="cls-3" d="M.06,152.22H25.88"/><path class="cls-5" d="M.54,151v-4.2H2.7a2.31,2.31,0,0,1,.6.35c.24.24.48.36.6.72a2.39,2.39,0,0,1,.12,1,1.8,1.8,0,0,1-.12.85c-.12.24-.12.48-.24.6a1.66,1.66,0,0,1-.36.48c-.24,0-.36.12-.6.12a.9.9,0,0,1-.6.12Zm.6-.48H2a1.52,1.52,0,0,0,.72-.12c.12,0,.24-.12.36-.24a.62.62,0,0,0,.24-.48,1.8,1.8,0,0,0,.12-.85,1.32,1.32,0,0,0-.24-1c-.12-.23-.24-.48-.48-.48s-.36-.12-.72-.12H1.14Z"/><path class="cls-5" d="M4.74,151v-4.2H7.86v.47H5.34v1.32H7.62v.49H5.34v1.44H8V151Z"/><path class="cls-5" d="M9.79,151v-3.73H8.34v-.47h3.37v.47H10.39V151Z"/><path class="cls-5" d="M11.83,151l1.68-4.2h.6l1.68,4.2h-.6l-.48-1.32h-1.8L12.43,151Zm1.2-1.68h1.44l-.48-1.2a3.2,3.2,0,0,1-.24-.85c-.12.24-.12.48-.24.72Z"/><path class="cls-5" d="M16.93,146.7V151h-.6V146.7Z"/><path class="cls-5" d="M17.83,151v-4.2h.6v3.72h2V151Z"/><path class="cls-5" d="M25.28,147.89h-.6c0-.23-.12-.36-.12-.48a.92.92,0,0,0-.6-.24c-.12,0-.24.12-.36.12a.65.65,0,0,0-.36.6,1.78,1.78,0,0,0-.25,1c.12-.24.36-.35.48-.48s.37-.12.61-.12a1.09,1.09,0,0,1,.84.36,1.72,1.72,0,0,1,.36,1.09,1.52,1.52,0,0,1-.12.72.94.94,0,0,1-.48.48,1.71,1.71,0,0,1-.72.24,2.16,2.16,0,0,1-1.08-.48,2.64,2.64,0,0,1-.37-1.56,2.52,2.52,0,0,1,.48-1.81,1.19,1.19,0,0,1,1.09-.47,1.28,1.28,0,0,1,.72.23A1.93,1.93,0,0,1,25.28,147.89Zm-2.17,1.81a.68.68,0,0,0,.13.48c.11.12.11.24.36.36a.44.44,0,0,0,.36.12.92.92,0,0,0,.6-.24,1.71,1.71,0,0,0,.24-.72,1.29,1.29,0,0,0-.24-.72.87.87,0,0,0-.6-.25.9.9,0,0,0-.61.25A1.37,1.37,0,0,0,23.11,149.7Z"/><path class="cls-2" d="M93.74,309h68.83"/><path class="cls-3" d="M160.77,147.77l-.12-1.32-.24-1.2-.6-1.32-.24-.36"/><path class="cls-3" d="M158.25,141.76l-1-.84-1.2-.71-1.2-.48-.36-.13"/><path class="cls-3" d="M152.24,139.37l-1.32.12-1.2.24-1.32.48-.37.24"/><path class="cls-3" d="M146.24,141.76l-.84,1.09-.73,1.08-.48,1.32-.11.36"/><path class="cls-3" d="M143.83,147.77l.12,1.33.24,1.32.48,1.2.25.36"/><path class="cls-3" d="M146.24,153.78l1.07.85,1.09.72,1.32.48.36.12"/><path class="cls-3" d="M152.24,156.31l1.32-.12,1.32-.36,1.2-.48.48-.24"/><path class="cls-3" d="M158.25,153.78l1-1,.6-1.2.6-1.2v-.48"/><path class="cls-3" d="M160.77,147.77v.12"/><path class="cls-3" d="M156,140.21l39.52-81.12"/><path class="cls-6" d="M202.57,23l-.72-.36-1.68,3.13Zm-.72-.36-1.68,3.13L201,22.2Z"/><path class="cls-3" d="M201.85,22.68l5.89-11"/><path class="cls-3" d="M205.93,13.79A23.86,23.86,0,1,0,229.84,37.7a23.86,23.86,0,0,0-23.91-23.91"/><path class="cls-3" d="M205,47.56l2.16.6"/><path class="cls-3" d="M207.85,48.4,212.77,50"/><path class="cls-3" d="M215.9,37.58,212.53,48.4"/><path class="cls-6" d="M215.66,40.1l-1.08-.35,1.68-3.25Z"/><path class="cls-6" d="M213.74,46.6l-1.21-.37-.47,3.49Z"/><path class="cls-6" d="M198.49,32.54l.12.84,3.48-.12Zm.12.84,3.48-.12-3.48,1.07Z"/><path class="cls-3" d="M198.61,33.38,176,34.7"/><path class="cls-3" d="M156.68,50.2l38.08.24"/><path class="cls-3" d="M208.94,50.56h3.48"/><path class="cls-3" d="M205.33,50.56l-7.08-.12"/><path class="cls-6" d="M208.93,51.4v-.84h-3.6Zm0-.84h-3.6l3.6-1Z"/><path class="cls-6" d="M194.76,49.6v.84h3.49Zm0,.84h3.49l-3.61.84Z"/><path class="cls-3" d="M186.59,90h42.89"/><path class="cls-3" d="M61.31,209.18,115.49,207"/><path class="cls-5" d="M104.8,202.21l.48-.48.36.24-.48.48.36.72c0,.25.12.49.12.73a3.55,3.55,0,0,1-.24,1.2,1.61,1.61,0,0,1-.72.84,2.26,2.26,0,0,1-1,.23,1.65,1.65,0,0,1-.72-.11c-.24,0-.36-.12-.61-.24l-.48.6-.24-.25.48-.59a6.28,6.28,0,0,1-.48-.73c0-.23-.12-.47-.12-.71a3.55,3.55,0,0,1,.24-1.2,1.6,1.6,0,0,1,.72-.85,2.35,2.35,0,0,1,1-.24,1.52,1.52,0,0,1,.72.12C104.44,202,104.56,202.09,104.8,202.21Zm-.24.48a1.66,1.66,0,0,1-.48-.36h-.48a1.18,1.18,0,0,0-1.09.49,1.93,1.93,0,0,0-.36,1.32.72.72,0,0,0,.12.48.64.64,0,0,0,.24.48Zm.24.25-2,2.52c.12.12.24.12.36.24h.6a1.09,1.09,0,0,0,1-.48A1.8,1.8,0,0,0,105,204,2.86,2.86,0,0,0,104.8,202.94Z"/><path class="cls-5" d="M108.16,205.94h-.48l-.12-3.25c-.12.13-.36.25-.48.37s-.36.24-.6.24v-.48a2.79,2.79,0,0,0,.72-.49,2.11,2.11,0,0,0,.48-.6H108Z"/><path class="cls-5" d="M109.48,205l.48-.13a1.42,1.42,0,0,0,.36.48.42.42,0,0,0,.36.13c.24,0,.36,0,.49-.13a.25.25,0,0,0,.23-.23c.12-.12.12-.36.25-.48v-.84a2.05,2.05,0,0,1-.37.48,1.08,1.08,0,0,1-.6.12,1,1,0,0,1-1-.37,1.15,1.15,0,0,1-.36-.95,1.37,1.37,0,0,1,.36-1,1,1,0,0,1,1-.48.87.87,0,0,1,.72.24.82.82,0,0,1,.48.6,2.3,2.3,0,0,1,.25,1.09,3.64,3.64,0,0,1-.12,1.31c-.13.37-.25.61-.49.73a1.09,1.09,0,0,1-.84.36,1.71,1.71,0,0,1-.72-.24A2.51,2.51,0,0,1,109.48,205Zm2-2a.92.92,0,0,0-.24-.61.44.44,0,0,0-.6-.24.66.66,0,0,0-.6.24,1.75,1.75,0,0,0-.24.73c.12.24.12.48.36.72a.92.92,0,0,0,.61.23,1.42,1.42,0,0,0,.59-.35C111.52,203.54,111.52,203.3,111.52,202.94Z"/><path class="cls-5" d="M112.6,203.66c0-.49.12-.84.12-1.21a3,3,0,0,1,.48-.72,1.71,1.71,0,0,1,.72-.24.89.89,0,0,1,.6.12,1.88,1.88,0,0,1,.49.36.91.91,0,0,1,.23.6,2.39,2.39,0,0,1,.12,1,3.37,3.37,0,0,1-.12,1.2.72.72,0,0,1-.36.72,1,1,0,0,1-.71.36,1,1,0,0,1-1-.49C112.85,205.1,112.72,204.5,112.6,203.66Zm.6,0a2.58,2.58,0,0,0,.24,1.32c.24.24.37.35.6.35a.68.68,0,0,0,.61-.35c.23-.24.23-.72.23-1.32a2.12,2.12,0,0,0-.36-1.45.65.65,0,0,0-.6-.36c-.24.12-.36.12-.48.36S113.2,202.94,113.2,203.66Z"/><path class="cls-5" d="M116,203.54a4.09,4.09,0,0,1,.11-1.21,1,1,0,0,1,.36-.72,1.7,1.7,0,0,1,.73-.24c.23,0,.48,0,.59.12s.37.12.48.36a.92.92,0,0,1,.25.6,2.39,2.39,0,0,1,.12,1,3.93,3.93,0,0,1,0,1.2,1.09,1.09,0,0,1-.48.71,1.94,1.94,0,0,1-.73.37,1,1,0,0,1-1-.48A2.19,2.19,0,0,1,116,203.54Zm.47,0c0,.72.12,1.2.37,1.31a.64.64,0,0,0,.59.37c.25,0,.36-.12.61-.37a4,4,0,0,0,.12-1.43,3.08,3.08,0,0,0-.25-1.33,1,1,0,0,0-.71-.36c-.25,0-.36.12-.49.36S116.44,202.82,116.44,203.54Z"/><path class="cls-3" d="M61.31,209.18l3.49-.11"/><path class="cls-3" d="M52.78,209.54l-3.6.12"/><path class="cls-5" d="M50.38,206.66v.48l-2.75.12v-.36c.11-.24.23-.36.36-.6s.36-.36.59-.6l1-1a1.78,1.78,0,0,0,.24-.6c-.11-.24-.11-.48-.24-.6a1.07,1.07,0,0,0-.6-.12.89.89,0,0,0-.59.24.86.86,0,0,0-.25.6h-.47a1.24,1.24,0,0,1,1.31-1.32,1.33,1.33,0,0,1,1,.36.91.91,0,0,1,.36.84,1,1,0,0,1-.11.48c0,.12-.13.23-.25.48a5.29,5.29,0,0,1-.84.72,3,3,0,0,1-.59.6.42.42,0,0,1-.12.24Z"/><path class="cls-5" d="M50.86,205.1a3.8,3.8,0,0,1,.13-1.32q.16-.36.36-.72a1.69,1.69,0,0,1,.83-.24,1.08,1.08,0,0,1,.6.12l.37.36c.11.24.23.36.36.6s.12.6.12,1.08a3.61,3.61,0,0,1-.12,1.19,2.67,2.67,0,0,1-.49.73,1,1,0,0,1-.71.24,1.37,1.37,0,0,1-1-.36A2.35,2.35,0,0,1,50.86,205.1Zm.49-.12c.12.72.12,1.19.35,1.44s.36.24.61.24.36-.12.59-.36A1.93,1.93,0,0,0,53,205a3.45,3.45,0,0,0-.24-1.44c-.24-.12-.36-.24-.6-.24a.92.92,0,0,0-.6.24A4.81,4.81,0,0,0,51.35,205Z"/><path class="cls-3" d="M57.71,209.3l-1.44.12"/><path class="cls-6" d="M61.31,210v-.84l-3.6.12Zm0-.84-3.6.12,3.48-1Z"/><path class="cls-6" d="M52.78,208.7v.84l3.49-.12Zm0,.84,3.49-.12-3.49,1Z"/><path class="cls-3" d="M188.63,204l-73.14,3"/><path class="cls-3" d="M121.25,204l-3.6.13"/><path class="cls-3" d="M129.66,203.66l3.48-.12"/><path class="cls-5" d="M129.9,200.05l.12.6h-2.88c0-.12.12-.24.12-.36a.91.91,0,0,1,.24-.48l.72-.72a2.76,2.76,0,0,0,.84-1c.24-.12.24-.36.24-.6a.63.63,0,0,0-.24-.49.92.92,0,0,0-.6-.24c-.24,0-.36.12-.6.24a1.34,1.34,0,0,0-.12.73l-.6-.12a2.83,2.83,0,0,1,.36-.85,1.36,1.36,0,0,1,1-.36c.48,0,.72,0,1,.24a1.22,1.22,0,0,1,.48.85c0,.12-.12.36-.12.48s-.24.36-.36.6l-.72.72a2.7,2.7,0,0,0-.6.6c-.12,0-.12.12-.24.24Z"/><path class="cls-5" d="M130.5,198.49a4.07,4.07,0,0,1,0-1.21,1.1,1.1,0,0,1,.48-.72,1.71,1.71,0,0,1,.72-.24.9.9,0,0,1,.6.12c.24,0,.36.12.48.36a.92.92,0,0,1,.24.61,2.34,2.34,0,0,1,.12,1,1.86,1.86,0,0,1-.12,1.2.73.73,0,0,1-.36.72c-.24.24-.48.24-.72.36a1,1,0,0,1-1-.48A2.17,2.17,0,0,1,130.5,198.49Zm.48,0a2.8,2.8,0,0,0,.24,1.32,1.1,1.1,0,0,0,.6.36.66.66,0,0,0,.6-.36c.24-.24.24-.72.24-1.44a3.27,3.27,0,0,0-.24-1.33,1,1,0,0,0-.72-.36c-.24,0-.36.12-.48.36S131,197.77,131,198.49Z"/><path class="cls-3" d="M124.73,203.9h1.32"/><path class="cls-6" d="M121.13,203.17l.12.84,3.48-.11Zm.12.84,3.48-.11L121.25,205Z"/><path class="cls-6" d="M129.66,204.62v-1l-3.61.24Zm0-1-3.61.24,3.61-1.08Z"/><path class="cls-3" d="M125,121v-1.44"/><path class="cls-3" d="M153.32,141.41V119.54"/><path class="cls-3" d="M128.46,123.75h21.26"/><path class="cls-6" d="M128.46,124.58v-.83H125Zm0-.83H125l3.49-.84Z"/><path class="cls-6" d="M149.72,122.91v.84h3.59Zm0,.84h3.59l-3.59.83Z"/><path class="cls-5" d="M136.15,122.18v-1h-1.8v-.48l1.92-2.77h.48v2.77h.48v.48h-.48v1Zm0-1.43v-1.93l-1.32,1.93Z"/><path class="cls-5" d="M137.83,120.14a3.7,3.7,0,0,1,.12-1.2,1.53,1.53,0,0,1,.48-.72,1,1,0,0,1,.72-.24.9.9,0,0,1,.6.12c.12.12.36.23.48.48a1.9,1.9,0,0,0,.24.59v1a3.61,3.61,0,0,1-.12,1.19,2.59,2.59,0,0,1-.48.74,1.07,1.07,0,0,1-.72.23,1.09,1.09,0,0,1-1-.48A2.9,2.9,0,0,1,137.83,120.14Zm.48,0a2.5,2.5,0,0,0,.24,1.32.68.68,0,0,0,1.2,0,2.5,2.5,0,0,0,.24-1.32,2.44,2.44,0,0,0-.24-1.32.66.66,0,0,0-.6-.36.92.92,0,0,0-.6.24A3.45,3.45,0,0,0,138.31,120.14Z"/><path class="cls-5" d="M141.07,120.14a3.7,3.7,0,0,1,.12-1.2,1.53,1.53,0,0,1,.48-.72,1.7,1.7,0,0,1,.73-.24c.23,0,.48,0,.59.12a.87.87,0,0,1,.48.48c.13.12.13.36.25.59s.11.61.11,1a3.45,3.45,0,0,1-.23,1.19c0,.25-.25.49-.36.74a1.89,1.89,0,0,1-.84.23,1.1,1.1,0,0,1-1-.48A2.9,2.9,0,0,1,141.07,120.14Zm.48,0a2.5,2.5,0,0,0,.24,1.32c.24.24.36.36.61.36a.65.65,0,0,0,.59-.36c.25-.13.25-.61.25-1.32s0-1.2-.25-1.32a.65.65,0,0,0-.59-.36c-.25,0-.37.12-.61.24A3.45,3.45,0,0,0,141.55,120.14Z"/><path class="cls-5" d="M202.19,3.45V3.18l.35-.34c.84-.8,1.21-1.22,1.22-1.71a.58.58,0,0,0-.65-.64,1.07,1.07,0,0,0-.69.28l-.15-.32a1.45,1.45,0,0,1,.93-.33.91.91,0,0,1,1,1c0,.61-.44,1.1-1.13,1.76l-.26.24h1.47v.37Z"/><path class="cls-5" d="M207,1.78c0,1.11-.41,1.72-1.14,1.72s-1.07-.59-1.08-1.68.47-1.7,1.14-1.7S207,.74,207,1.78Zm-1.78.05c0,.85.27,1.33.67,1.33s.67-.53.67-1.36S206.3.46,205.84.46,205.17.94,205.17,1.83Z"/><path class="cls-5" d="M207.5,1.67c0-.25,0-.46,0-.66h.39l0,.39h0a.85.85,0,0,1,.77-.44.72.72,0,0,1,.69.49h0a1,1,0,0,1,.27-.32.85.85,0,0,1,.54-.17c.32,0,.8.21.8,1V3.45h-.43V2.07c0-.47-.17-.75-.53-.75a.57.57,0,0,0-.52.4.72.72,0,0,0,0,.22V3.45H209V2c0-.39-.17-.67-.51-.67a.6.6,0,0,0-.55.44.54.54,0,0,0,0,.22V3.45h-.43Z"/><path class="cls-5" d="M211.7,1.67c0-.25,0-.46,0-.66h.39l0,.39h0a.85.85,0,0,1,.77-.44.72.72,0,0,1,.69.49h0a1,1,0,0,1,.27-.32.85.85,0,0,1,.54-.17c.32,0,.8.21.8,1V3.45h-.43V2.07c0-.47-.17-.75-.53-.75a.57.57,0,0,0-.52.4.72.72,0,0,0,0,.22V3.45h-.43V2c0-.39-.17-.67-.51-.67a.6.6,0,0,0-.55.44.54.54,0,0,0,0,.22V3.45h-.43Z"/><path class="cls-5" d="M217.42.43h-1V.06h2.51V.43h-1v3h-.45Z"/><path class="cls-5" d="M219.72.06V1.48h1.64V.06h.44V3.45h-.44V1.86h-1.64V3.45h-.44V.06Z"/><path class="cls-5" d="M223,.06V3.45h-.44V.06Z"/><path class="cls-5" d="M226.14,3.34a2.18,2.18,0,0,1-.9.16,1.58,1.58,0,0,1-1.67-1.72A1.69,1.69,0,0,1,225.34,0a1.79,1.79,0,0,1,.8.15l-.1.36a1.62,1.62,0,0,0-.69-.14A1.26,1.26,0,0,0,224,1.77a1.23,1.23,0,0,0,1.3,1.36,1.71,1.71,0,0,0,.72-.14Z"/><path class="cls-5" d="M226.69.06h.44V1.69h0q.13-.19.27-.36l1-1.27H229L227.76,1.5l1.33,2h-.52l-1.12-1.67-.32.38V3.45h-.44Z"/><path class="cls-5" d="M202.29,9a1.56,1.56,0,0,0,.78.22c.45,0,.71-.24.71-.58s-.18-.5-.63-.67-.9-.49-.9-1a1,1,0,0,1,1.1-.92,1.51,1.51,0,0,1,.75.17l-.12.36a1.37,1.37,0,0,0-.65-.16c-.46,0-.64.27-.64.5s.21.48.68.66.86.5.86,1-.39,1-1.19,1a1.76,1.76,0,0,1-.86-.21Z"/><path class="cls-5" d="M205.48,6.47h-1V6.1H207v.37h-1v3h-.44Z"/><path class="cls-5" d="M209.09,7.9h-1.32V9.13h1.47v.36h-1.9V6.1h1.83v.37h-1.4V7.54h1.32Z"/><path class="cls-5" d="M211.57,7.9h-1.32V9.13h1.47v.36h-1.91V6.1h1.84v.37h-1.4V7.54h1.32Z"/><path class="cls-5" d="M212.29,6.1h.44v3h1.45v.36h-1.89Z"/><path class="cls-5" d="M215.74,6.1h.43v3h1.45v.36h-1.88Z"/><path class="cls-5" d="M218.55,6.1V9.49h-.44V6.1Z"/><path class="cls-5" d="M219.32,9.49V6.1h.47l1.09,1.72a8.88,8.88,0,0,1,.61,1.1h0c0-.45-.05-.86-.05-1.39V6.1h.41V9.49h-.44l-1.08-1.72a11.74,11.74,0,0,1-.63-1.13h0c0,.43,0,.84,0,1.4V9.49Z"/><path class="cls-5" d="M224.39,7.9h-1.32V9.13h1.47v.36h-1.91V6.1h1.83v.37h-1.39V7.54h1.32Z"/><path class="cls-5" d="M225.11,6.14a5.08,5.08,0,0,1,.84-.07,1.38,1.38,0,0,1,1,.28.85.85,0,0,1,.27.65.89.89,0,0,1-.64.86v0a.84.84,0,0,1,.5.68,5.47,5.47,0,0,0,.26.93h-.46a4.49,4.49,0,0,1-.22-.81c-.1-.47-.28-.64-.68-.66h-.41V9.49h-.44Zm.44,1.55H226c.47,0,.77-.26.77-.64s-.32-.63-.78-.64a1.79,1.79,0,0,0-.43,0Z"/><path class="cls-5" d="M214.38,49,214,50.27l.81.35a2,2,0,0,1,.05-.27,1.39,1.39,0,0,1,.37-.66,1,1,0,0,1,1-.25A1.19,1.19,0,0,1,217,51a1.66,1.66,0,0,1-.43.77l-.3-.2a1.66,1.66,0,0,0,.37-.66.75.75,0,0,0-.51-1c-.42-.11-.8.09-1,.74a3.85,3.85,0,0,0-.08.47l-1.52-.64.42-1.56Z"/><path class="cls-5" d="M216.36,46.54c1.11.3,1.61.88,1.42,1.6s-.89.92-2,.64-1.58-.93-1.4-1.6S215.31,46.26,216.36,46.54Zm-.43,1.79c.85.23,1.41.1,1.51-.3s-.35-.82-1.18-1-1.39-.15-1.52.31S215,48.09,215.93,48.33Z"/><path class="cls-5" d="M216.4,46c-.26-.07-.46-.12-.67-.16l.1-.39.4.09v0a.87.87,0,0,1-.25-.88.74.74,0,0,1,.68-.56h0a.94.94,0,0,1-.24-.36.84.84,0,0,1,0-.59c.09-.32.43-.74,1.27-.51l1.44.38-.12.44L217.61,43c-.47-.13-.8,0-.89.32A.61.61,0,0,0,217,44a1,1,0,0,0,.21.09l1.51.4-.12.44-1.46-.39c-.39-.11-.71,0-.8.33a.61.61,0,0,0,.29.66.51.51,0,0,0,.21.1l1.47.39-.11.44Z"/><path class="cls-5" d="M217.52,41.77l-.66-.16.1-.39.4.09v0a.86.86,0,0,1-.24-.88.75.75,0,0,1,.67-.56h0a1,1,0,0,1-.25-.36.82.82,0,0,1,0-.58c.08-.33.42-.75,1.27-.52l1.43.38-.11.44-1.38-.37c-.47-.13-.8,0-.9.32a.62.62,0,0,0,.27.64.83.83,0,0,0,.21.09l1.51.41-.12.43-1.46-.39c-.39-.11-.72,0-.81.33a.66.66,0,0,0,.3.67.67.67,0,0,0,.21.09l1.47.39-.12.44Z"/><path class="cls-5" d="M138.12,28.8a1.64,1.64,0,0,0-.37,0,1.47,1.47,0,0,0-1.26,1.29h0a1.11,1.11,0,0,1,2,.76,1.21,1.21,0,0,1-1.21,1.27c-.78,0-1.29-.6-1.29-1.54A2.28,2.28,0,0,1,136.6,29a2,2,0,0,1,1.16-.54,2.57,2.57,0,0,1,.36,0ZM138,30.89a.74.74,0,0,0-.75-.83.8.8,0,0,0-.7.45.36.36,0,0,0-.06.22c0,.59.29,1,.8,1S138,31.41,138,30.89Z"/><path class="cls-5" d="M139.06,30.11c0-.28,0-.51,0-.73h.43l0,.43h0a.94.94,0,0,1,.85-.49.8.8,0,0,1,.77.54h0a1,1,0,0,1,.3-.35.94.94,0,0,1,.6-.19c.35,0,.88.23.88,1.17v1.59h-.48V30.55c0-.52-.19-.83-.58-.83a.63.63,0,0,0-.58.45.57.57,0,0,0,0,.24v1.67h-.48V30.46c0-.43-.19-.74-.57-.74a.68.68,0,0,0-.61.49.93.93,0,0,0,0,.24v1.63h-.48Z"/><path class="cls-5" d="M143.72,30.11c0-.28,0-.51,0-.73h.43l0,.43h0a1,1,0,0,1,.85-.49.8.8,0,0,1,.77.54h0a1,1,0,0,1,.3-.35.94.94,0,0,1,.6-.19c.36,0,.89.23.89,1.17v1.59h-.49V30.55c0-.52-.18-.83-.58-.83a.63.63,0,0,0-.58.45.8.8,0,0,0,0,.24v1.67h-.48V30.46c0-.43-.19-.74-.57-.74a.67.67,0,0,0-.6.49.64.64,0,0,0,0,.24v1.63h-.48Z"/><path class="cls-5" d="M149.57,28.32h2v.41h-1.55V30h1.43v.4h-1.43v1.7h-.48Z"/><path class="cls-5" d="M152.77,28.32v3.76h-.48V28.32Z"/><path class="cls-5" d="M153.62,28.32h.48v3.35h1.61v.41h-2.09Z"/><path class="cls-5" d="M156.25,28.32h.49v3.35h1.61v.41h-2.1Z"/><path class="cls-5" d="M160.83,30.32h-1.46v1.35H161v.41h-2.12V28.32h2v.41h-1.55v1.19h1.46Z"/><path class="cls-5" d="M162.43,28.73h-1.14v-.41h2.78v.41h-1.15v3.35h-.49Z"/><path class="cls-5" d="M166.09,32.08l-1-3.76h.52l.44,1.9c.11.47.21.94.28,1.3h0c.06-.37.18-.82.31-1.3l.5-1.9h.51l.46,1.91c.1.45.21.89.26,1.29h0c.08-.42.19-.83.3-1.3l.5-1.9h.5l-1.07,3.76h-.51l-.47-2a10.75,10.75,0,0,1-.25-1.23h0a11.74,11.74,0,0,1-.29,1.23l-.54,2Z"/><path class="cls-5" d="M172.14,30.32h-1.46v1.35h1.63v.41h-2.12V28.32h2v.41h-1.54v1.19h1.46Z"/><path class="cls-5" d="M172.94,28.32h.48v3.35H175v.41h-2.09Z"/><path class="cls-5" d="M175.57,28.37a6.34,6.34,0,0,1,1-.08,2.15,2.15,0,0,1,1.53.47,1.75,1.75,0,0,1,.53,1.35,2,2,0,0,1-.54,1.46,2.32,2.32,0,0,1-1.67.55,7.23,7.23,0,0,1-.88,0Zm.48,3.33a3.53,3.53,0,0,0,.5,0,1.45,1.45,0,0,0,1.6-1.6,1.35,1.35,0,0,0-1.53-1.45,2.65,2.65,0,0,0-.57.05Z"/><path class="cls-5" d="M136.83,37.59l-.39,1.19h-.51L137.21,35h.59l1.28,3.77h-.51l-.41-1.19Zm1.23-.38-.37-1.08c-.08-.25-.14-.47-.19-.69h0c-.06.23-.12.46-.19.68l-.37,1.09Z"/><path class="cls-5" d="M139.63,35h.49v3.36h1.61v.41h-2.1Z"/><path class="cls-5" d="M142.27,35h.48v3.36h1.61v.41h-2.09Z"/><path class="cls-5" d="M146.08,35.06A5.12,5.12,0,0,1,147,35a1.54,1.54,0,0,1,1.09.31,1,1,0,0,1,.3.72,1,1,0,0,1-.71,1h0a.94.94,0,0,1,.55.76,8.17,8.17,0,0,0,.29,1H148a5.54,5.54,0,0,1-.25-.9c-.11-.52-.31-.72-.75-.73h-.46v1.63h-.49Zm.49,1.72h.49c.52,0,.85-.29.85-.72s-.35-.7-.86-.7a2.19,2.19,0,0,0-.48,0Z"/><path class="cls-5" d="M152.32,36.86a1.77,1.77,0,0,1-1.75,2,1.72,1.72,0,0,1-1.69-1.91,1.79,1.79,0,0,1,1.74-2A1.72,1.72,0,0,1,152.32,36.86Zm-2.92.06c0,.8.43,1.52,1.2,1.52s1.2-.71,1.2-1.56-.39-1.53-1.2-1.53S149.4,36.09,149.4,36.92Z"/><path class="cls-5" d="M153.43,35v2.23c0,.84.37,1.2.88,1.2s.91-.37.91-1.2V35h.49v2.2c0,1.15-.61,1.63-1.42,1.63s-1.35-.44-1.35-1.61V35Z"/><path class="cls-5" d="M156.55,38.78V35h.53l1.21,1.91a8.92,8.92,0,0,1,.67,1.22h0a14.91,14.91,0,0,1-.06-1.54V35h.46v3.77h-.49l-1.2-1.91a12.3,12.3,0,0,1-.7-1.26h0c0,.47,0,.92,0,1.55v1.61Z"/><path class="cls-5" d="M160.22,35.06a7.73,7.73,0,0,1,1-.08,2.19,2.19,0,0,1,1.52.47,1.74,1.74,0,0,1,.53,1.36,2,2,0,0,1-.54,1.46,2.32,2.32,0,0,1-1.67.54c-.34,0-.63,0-.88,0Zm.49,3.33a3.28,3.28,0,0,0,.49,0,1.44,1.44,0,0,0,1.6-1.6,1.33,1.33,0,0,0-1.52-1.45,2.65,2.65,0,0,0-.57.05Z"/><path class="cls-5" d="M157.07,48.47l.38-.54a2.19,2.19,0,0,1-.55-1.52,2,2,0,0,1,1.9-2.16,1.69,1.69,0,0,1,1,.33l.36-.5.33.22-.38.53a2.23,2.23,0,0,1,.53,1.52,1.92,1.92,0,0,1-1.87,2.16,1.75,1.75,0,0,1-1.05-.33l-.38.53Zm2.5-3.5a1.16,1.16,0,0,0-.77-.29c-.9,0-1.35.84-1.35,1.7a2.13,2.13,0,0,0,.3,1.11h0ZM158,47.79a1,1,0,0,0,.77.29c.86,0,1.34-.78,1.34-1.71a2.09,2.09,0,0,0-.29-1.08h0Z"/><path class="cls-5" d="M161.18,48.45v-.33l.42-.41c1-1,1.47-1.49,1.48-2.08a.71.71,0,0,0-.79-.78,1.35,1.35,0,0,0-.84.33l-.18-.37a1.73,1.73,0,0,1,1.13-.41,1.12,1.12,0,0,1,1.22,1.16c0,.73-.53,1.33-1.37,2.13l-.32.3h1.78v.45Z"/><path class="cls-5" d="M166.69,44.92h-1.52l-.15,1,.33,0a1.73,1.73,0,0,1,.85.21,1.14,1.14,0,0,1,.57,1,1.38,1.38,0,0,1-1.48,1.36,2,2,0,0,1-1-.24l.13-.41a1.77,1.77,0,0,0,.85.22.88.88,0,0,0,.95-.86c0-.52-.35-.89-1.15-.89a3.84,3.84,0,0,0-.55.05l.26-1.91h1.9Z"/><path class="cls-5" d="M167.63,46.29c0-.31,0-.56,0-.81h.48l0,.48h0a1,1,0,0,1,.93-.54.88.88,0,0,1,.84.59h0a1.24,1.24,0,0,1,.33-.38,1,1,0,0,1,.65-.21c.4,0,1,.25,1,1.28v1.75h-.53V46.77c0-.57-.21-.91-.64-.91a.69.69,0,0,0-.64.49,1,1,0,0,0,0,.27v1.83h-.53V46.67c0-.47-.2-.81-.61-.81a.73.73,0,0,0-.67.54.75.75,0,0,0,0,.26v1.79h-.53Z"/><path class="cls-5" d="M172.74,46.29c0-.31,0-.56,0-.81h.47l0,.48h0a1,1,0,0,1,.93-.54A.86.86,0,0,1,175,46h0a1.12,1.12,0,0,1,.33-.38,1,1,0,0,1,.65-.21c.39,0,1,.25,1,1.28v1.75h-.52V46.77c0-.57-.21-.91-.64-.91a.69.69,0,0,0-.64.49,1,1,0,0,0,0,.27v1.83h-.53V46.67c0-.47-.21-.81-.62-.81a.73.73,0,0,0-.66.54.75.75,0,0,0-.05.26v1.79h-.52Z"/><path class="cls-5" d="M157.68,51.67V53.4h2V51.67h.54v4.12h-.54V53.86h-2v1.93h-.53V51.67Z"/><path class="cls-5" d="M161.81,54.5l-.43,1.29h-.55l1.4-4.12h.64l1.41,4.12h-.57l-.44-1.29Zm1.35-.42-.41-1.19c-.09-.27-.15-.51-.21-.75h0q-.09.38-.21.75l-.4,1.19Z"/><path class="cls-5" d="M164.89,55.79V51.67h.58l1.32,2.09a10.82,10.82,0,0,1,.74,1.34h0c0-.55-.06-1.05-.06-1.69V51.67h.5v4.12h-.54l-1.31-2.09a14.8,14.8,0,0,1-.77-1.38h0c0,.52,0,1,0,1.7v1.76Z"/><path class="cls-5" d="M168.92,51.73a7.39,7.39,0,0,1,1.13-.09,2.4,2.4,0,0,1,1.67.51,1.9,1.9,0,0,1,.58,1.48,2.21,2.21,0,0,1-.59,1.61,2.59,2.59,0,0,1-1.83.59,8.44,8.44,0,0,1-1,0Zm.53,3.64a2.81,2.81,0,0,0,.54,0,1.58,1.58,0,0,0,1.75-1.75,1.47,1.47,0,0,0-1.67-1.59,3,3,0,0,0-.62.06Z"/><path class="cls-5" d="M173,51.73a5.19,5.19,0,0,1,1-.09,1.66,1.66,0,0,1,1.19.34,1,1,0,0,1,.32.78,1.09,1.09,0,0,1-.77,1.05v0a1,1,0,0,1,.6.83,6.45,6.45,0,0,0,.32,1.13h-.55a5.13,5.13,0,0,1-.28-1c-.12-.57-.34-.78-.82-.8h-.5v1.78H173Zm.54,1.87h.54c.57,0,.93-.31.93-.78s-.38-.76-.95-.77a1.87,1.87,0,0,0-.52.05Z"/><path class="cls-5" d="M177,54.5l-.43,1.29H176l1.4-4.12h.64l1.41,4.12h-.57l-.44-1.29Zm1.35-.42-.41-1.19c-.09-.27-.15-.51-.21-.75h0q-.09.38-.21.75l-.4,1.19Z"/><path class="cls-5" d="M180.6,51.67v4.12h-.53V51.67Z"/><path class="cls-5" d="M181.53,51.67h.53v3.68h1.76v.44h-2.29Z"/><path class="cls-5" d="M188.84,80.52a14,14,0,0,1,2.08-.16,4.36,4.36,0,0,1,3.06.94A3.48,3.48,0,0,1,195.05,84,4,4,0,0,1,194,87a4.62,4.62,0,0,1-3.34,1.09,15,15,0,0,1-1.78-.09Zm1,6.69a5.57,5.57,0,0,0,1,.06A2.91,2.91,0,0,0,194,84.05c0-1.78-1-2.92-3.07-2.92a5.18,5.18,0,0,0-1.14.11Z"/><path class="cls-5" d="M200.24,84.44H197.3v2.73h3.28V88h-4.26V80.42h4.09v.82H197.3v2.39h2.94Z"/><path class="cls-5" d="M203.46,81.25h-2.3v-.83h5.61v.83h-2.32V88h-1Z"/><path class="cls-5" d="M208,85.6,207.2,88h-1l2.58-7.57h1.17L212.53,88h-1.05l-.81-2.39Zm2.48-.76-.74-2.18c-.17-.49-.28-.94-.39-1.38h0c-.12.45-.24.91-.39,1.37l-.74,2.19Z"/><path class="cls-5" d="M214.62,80.42V88h-1V80.42Z"/><path class="cls-5" d="M216.32,80.42h1v6.75h3.24V88h-4.22Z"/><path class="cls-5" d="M223.66,88v-.61l.77-.75c1.87-1.78,2.71-2.72,2.72-3.82a1.31,1.31,0,0,0-1.45-1.43,2.51,2.51,0,0,0-1.55.62l-.31-.7a3.22,3.22,0,0,1,2.07-.74,2.05,2.05,0,0,1,2.23,2.12c0,1.35-1,2.44-2.52,3.92l-.58.54v0h3.28V88Z"/><path class="cls-5" d="M191.36,92.49a5.3,5.3,0,0,0-1,3.27,5.36,5.36,0,0,0,1,3.24h-.55a5.12,5.12,0,0,1-1.05-3.24,5.26,5.26,0,0,1,1.05-3.27Z"/><path class="cls-5" d="M192,97.19a2.48,2.48,0,0,0,1.24.35c.71,0,1.13-.38,1.13-.92s-.29-.79-1-1.07c-.88-.31-1.42-.77-1.42-1.52a1.54,1.54,0,0,1,1.74-1.46,2.34,2.34,0,0,1,1.18.26l-.19.57a2,2,0,0,0-1-.26c-.73,0-1,.44-1,.81s.33.75,1.07,1c.91.35,1.37.79,1.37,1.58s-.61,1.55-1.88,1.55a2.83,2.83,0,0,1-1.38-.34Z"/><path class="cls-5" d="M199.82,97.86a3.63,3.63,0,0,1-1.42.25,2.51,2.51,0,0,1-2.66-2.72,2.67,2.67,0,0,1,2.81-2.82,2.86,2.86,0,0,1,1.28.24l-.17.56a2.5,2.5,0,0,0-1.09-.22,2,2,0,0,0-2.09,2.22,2,2,0,0,0,2.06,2.16,2.89,2.89,0,0,0,1.14-.22Z"/><path class="cls-5" d="M201.59,96.34,201,98h-.71l1.82-5.38H203L204.82,98h-.75l-.57-1.69Zm1.77-.54-.53-1.55c-.12-.35-.2-.67-.28-1h0c-.08.32-.16.64-.27,1l-.52,1.56Z"/><path class="cls-5" d="M205.61,92.65h.69v4.8h2.3V98h-3Z"/><path class="cls-5" d="M212.16,95.51h-2.09v1.94h2.33V98h-3V92.65h2.9v.59h-2.21v1.7h2.09Z"/><path class="cls-5" d="M216.27,93.5h0l-.9.49-.14-.54,1.13-.6h.6V98h-.68Z"/><path class="cls-5" d="M218.9,94.81a.48.48,0,1,1,.95,0,.48.48,0,1,1-.95,0Zm0,2.82a.48.48,0,1,1,.95,0,.48.48,0,1,1-.95,0Z"/><path class="cls-5" d="M223.59,93.44h-2l-.2,1.33a2.39,2.39,0,0,1,.43,0A2.09,2.09,0,0,1,223,95a1.47,1.47,0,0,1,.75,1.33,1.81,1.81,0,0,1-1.94,1.77,2.55,2.55,0,0,1-1.29-.32l.18-.53a2.41,2.41,0,0,0,1.11.28A1.15,1.15,0,0,0,223,96.43c0-.67-.46-1.15-1.5-1.15a6.2,6.2,0,0,0-.71,0l.33-2.48h2.48Z"/><path class="cls-5" d="M224.39,99a5.39,5.39,0,0,0,1-3.27,5.27,5.27,0,0,0-1-3.24h.54a5.05,5.05,0,0,1,1,3.25,5.13,5.13,0,0,1-1,3.26Z"/><path class="cls-5" d="M94,304.8a3.68,3.68,0,0,0,1.87.53c1.07,0,1.69-.57,1.69-1.38s-.43-1.19-1.52-1.61c-1.32-.47-2.14-1.15-2.14-2.29a2.34,2.34,0,0,1,2.62-2.2,3.72,3.72,0,0,1,1.79.4l-.29.85a3.33,3.33,0,0,0-1.54-.38c-1.1,0-1.52.66-1.52,1.21,0,.75.49,1.13,1.61,1.56,1.36.53,2.06,1.18,2.06,2.37s-.92,2.33-2.83,2.33a4.13,4.13,0,0,1-2.06-.52Z"/><path class="cls-5" d="M104.29,302.28h-3.15v2.91h3.51v.88H100.1V298h4.37v.87h-3.33v2.56h3.15Z"/><path class="cls-5" d="M111.65,305.81a5.2,5.2,0,0,1-2.13.38,3.78,3.78,0,0,1-4-4.09,4,4,0,0,1,4.23-4.25,4.44,4.44,0,0,1,1.92.36l-.26.85a3.82,3.82,0,0,0-1.63-.33,3,3,0,0,0-3.15,3.33,2.94,2.94,0,0,0,3.1,3.25,4.27,4.27,0,0,0,1.71-.33Z"/><path class="cls-5" d="M114.83,298.87h-2.45V298h6v.88h-2.47v7.2h-1.06Z"/><path class="cls-5" d="M120.31,298v8.08h-1V298Z"/><path class="cls-5" d="M129,301.94c0,2.79-1.69,4.26-3.75,4.26s-3.64-1.65-3.64-4.1,1.6-4.25,3.76-4.25S129,299.54,129,301.94Zm-6.27.14c0,1.72.93,3.27,2.58,3.27s2.59-1.52,2.59-3.36c0-1.61-.84-3.28-2.58-3.28S122.77,300.3,122.77,302.08Z"/><path class="cls-5" d="M130.4,306.07V298h1.14l2.59,4.09a21.44,21.44,0,0,1,1.45,2.62h0c-.09-1.08-.11-2.06-.11-3.32V298h1v8.08h-1.06l-2.56-4.1a23.86,23.86,0,0,1-1.51-2.7h0c.06,1,.08,2,.08,3.33v3.46Z"/><path class="cls-5" d="M142.15,303.53l-.84,2.54h-1.08L143,298h1.26l2.76,8.08h-1.11l-.87-2.54Zm2.65-.82-.79-2.33c-.18-.52-.3-1-.42-1.47h0c-.12.48-.25,1-.41,1.46l-.79,2.34Z"/><path class="cls-5" d="M153.14,302.44v.77h-3v-.77Z"/><path class="cls-5" d="M158.26,303.53l-.84,2.54h-1.08l2.75-8.08h1.26l2.76,8.08H162l-.86-2.54Zm2.65-.82-.79-2.33c-.18-.52-.3-1-.42-1.47h0c-.12.48-.26,1-.41,1.46l-.79,2.34Z"/><path class="cls-5" d="M110.63,312.44a5,5,0,0,0-1,3.12,5.14,5.14,0,0,0,1,3.09h-.53a4.92,4.92,0,0,1-1-3.09,5,5,0,0,1,1-3.12Z"/><path class="cls-5" d="M111.27,316.92a2.38,2.38,0,0,0,1.19.34c.67,0,1.07-.36,1.07-.88s-.27-.75-1-1-1.35-.73-1.35-1.45a1.48,1.48,0,0,1,1.66-1.4,2.45,2.45,0,0,1,1.13.25l-.18.55a2,2,0,0,0-1-.25c-.7,0-1,.42-1,.77s.31.72,1,1c.87.34,1.31.75,1.31,1.51s-.59,1.48-1.8,1.48a2.72,2.72,0,0,1-1.31-.33Z"/><path class="cls-5" d="M118.7,317.56a3.27,3.27,0,0,1-1.35.25,2.4,2.4,0,0,1-2.54-2.6,2.56,2.56,0,0,1,2.68-2.7,2.79,2.79,0,0,1,1.22.23l-.16.54a2.45,2.45,0,0,0-1-.21,1.91,1.91,0,0,0-2,2.12,1.86,1.86,0,0,0,2,2.06,2.59,2.59,0,0,0,1.08-.21Z"/><path class="cls-5" d="M120.39,316.11l-.53,1.62h-.69l1.75-5.13h.8l1.75,5.13h-.71l-.55-1.62Zm1.69-.51-.51-1.48c-.11-.34-.19-.64-.26-.94h0c-.08.31-.16.62-.26.93l-.5,1.49Z"/><path class="cls-5" d="M124.22,312.6h.67v4.57h2.19v.56h-2.86Z"/><path class="cls-5" d="M130.48,315.32h-2v1.85h2.23v.56h-2.89V312.6h2.77v.55h-2.11v1.62h2Z"/><path class="cls-5" d="M134.4,313.4h0l-.86.47-.13-.51,1.09-.58h.57v5h-.65Z"/><path class="cls-5" d="M136.91,314.65a.45.45,0,1,1,.44.48A.45.45,0,0,1,136.91,314.65Zm0,2.69a.45.45,0,1,1,.9,0,.45.45,0,1,1-.9,0Z"/><path class="cls-5" d="M138.43,317.73v-.41l.52-.51c1.27-1.21,1.84-1.85,1.85-2.59a.89.89,0,0,0-1-1,1.71,1.71,0,0,0-1.05.42l-.21-.47a2.16,2.16,0,0,1,1.4-.5,1.39,1.39,0,0,1,1.52,1.44c0,.91-.67,1.65-1.71,2.65l-.39.37h2.22v.56Z"/><path class="cls-5" d="M145.63,315.2c0,1.68-.63,2.61-1.73,2.61s-1.62-.9-1.63-2.54.71-2.57,1.72-2.57S145.63,313.63,145.63,315.2Zm-2.69.08c0,1.28.39,2,1,2s1-.79,1-2.06-.32-2-1-2S142.94,313.93,142.94,315.28Z"/><path class="cls-5" d="M146.05,318.65a5.14,5.14,0,0,0,1-3.11,5.06,5.06,0,0,0-1-3.1h.52a4.85,4.85,0,0,1,1,3.1,4.93,4.93,0,0,1-1,3.11Z"/></g></g></svg>