<svg xmlns="http://www.w3.org/2000/svg" viewBox="0 0 208.1 293.25"><defs><style>.cls-1,.cls-2,.cls-5{fill:none;stroke-linejoin:round;}.cls-1,.cls-2,.cls-3,.cls-5{stroke:#c9c9c9;stroke-linecap:round;}.cls-1{stroke-width:0.48px;}.cls-2,.cls-3{stroke-width:0.12px;}.cls-3,.cls-4{fill:#c9c9c9;}.cls-3{stroke-miterlimit:7.5;}.cls-5{stroke-width:0.36px;}</style></defs><g id="Layer_2" data-name="Layer 2"><g id="Layer_1-2" data-name="Layer 1"><path class="cls-1" d="M31.11,24H165.76"/><path class="cls-1" d="M31.11,26.23H165.76"/><path class="cls-1" d="M31.11,64.08H165.76"/><path class="cls-1" d="M31.11,66.49H165.76"/><path class="cls-1" d="M103.3,26.23v6.49"/><path class="cls-1" d="M103.3,34.76v5.65"/><path class="cls-1" d="M103.3,42.33V48.1"/><path class="cls-1" d="M103.3,50v5.64"/><path class="cls-1" d="M103.3,57.59v6.49h-2.77V57.59"/><path class="cls-1" d="M100.53,55.67V50"/><path class="cls-1" d="M100.53,48.1V42.33"/><path class="cls-1" d="M100.53,40.41V34.76"/><path class="cls-1" d="M100.53,32.72V26.23"/><path class="cls-2" d="M92.73,26.23V38.37"/><path class="cls-2" d="M92.73,38.37h1.68"/><path class="cls-2" d="M94.41,38.37V26.23"/><path class="cls-2" d="M111.11,26.23V38.37"/><path class="cls-2" d="M111.11,38.37h-1.69"/><path class="cls-2" d="M109.42,38.37V26.23"/><path class="cls-2" d="M91.29,21.06h21.26"/><path class="cls-2" d="M112.55,24H91.29V21.06"/><path class="cls-2" d="M112.55,21.06V24"/><path class="cls-1" d="M102.82,107.58V66.49h-1.68v41.09h1.68"/><path class="cls-1" d="M100.05,21.06V24"/><path class="cls-1" d="M103.78,21.06V24"/><path class="cls-2" d="M102,112.63v-7.21"/><path class="cls-2" d="M102,102.78v.12"/><path class="cls-2" d="M102,100V94.73"/><path class="cls-2" d="M102,92v.12"/><path class="cls-2" d="M102,89.32V83.91"/><path class="cls-2" d="M102,81.15v.12"/><path class="cls-2" d="M102,78.5V73.1"/><path class="cls-2" d="M102,70.34v.12"/><path class="cls-2" d="M102,67.69V62.28"/><path class="cls-2" d="M102,59.52v.12"/><path class="cls-2" d="M102,56.88V51.47"/><path class="cls-2" d="M102,48.82V49"/><path class="cls-2" d="M102,46.06V40.65"/><path class="cls-2" d="M102,38v.12"/><path class="cls-2" d="M102,35.24v-5.4"/><path class="cls-2" d="M102,27.2v.12"/><path class="cls-2" d="M102,24.43V17.34"/><path class="cls-2" d="M103.66,45.22V15.29"/><path class="cls-2" d="M100.18,45.22V7.85"/><path class="cls-2" d="M100.18,45.22h1.19"/><path class="cls-2" d="M102.46,45.22h1.2"/><path class="cls-2" d="M102,26.83h3.12v-.6H98.85v.6H102"/><path class="cls-2" d="M103.42,27.2a3,3,0,0,0-2.89,0"/><path class="cls-2" d="M100.53,27.2a.86.86,0,0,0-.71-.37,1.07,1.07,0,0,0-.84.37"/><path class="cls-2" d="M99,27.32v1.8"/><path class="cls-2" d="M99,29.12a1.06,1.06,0,0,0,.84.36.85.85,0,0,0,.71-.36"/><path class="cls-2" d="M100.53,29.12a3.08,3.08,0,0,0,2.89,0"/><path class="cls-2" d="M103.42,29.12a1.09,1.09,0,0,0,.84.36.86.86,0,0,0,.72-.36"/><path class="cls-2" d="M104.86,29.12v-1.8"/><path class="cls-2" d="M105,27.2a.86.86,0,0,0-.72-.37,1.1,1.1,0,0,0-.84.37"/><path class="cls-2" d="M103.42,27.32v1.8"/><path class="cls-2" d="M100.41,27.32v1.8"/><path class="cls-2" d="M104.14,29.48H99.69"/><path class="cls-2" d="M103.42,29.84a3.08,3.08,0,0,0-2.89,0"/><path class="cls-2" d="M100.53,30a1,1,0,0,0-.71-.48A1.18,1.18,0,0,0,99,30"/><path class="cls-2" d="M99,30v1.8"/><path class="cls-2" d="M99,31.76a1.16,1.16,0,0,0,.84.47,1,1,0,0,0,.71-.47"/><path class="cls-2" d="M100.53,31.76a2.55,2.55,0,0,0,2.89,0"/><path class="cls-2" d="M103.42,31.76a1.2,1.2,0,0,0,.84.47,1,1,0,0,0,.72-.47"/><path class="cls-2" d="M104.86,31.76V30"/><path class="cls-2" d="M105,30a1,1,0,0,0-.72-.48,1.21,1.21,0,0,0-.84.48"/><path class="cls-2" d="M103.42,30v1.8"/><path class="cls-2" d="M100.41,30v1.8"/><path class="cls-2" d="M104.14,32.23H99.69"/><path class="cls-1" d="M157.71,107.58V66.49h1.81v41.09h-1.81"/><path class="cls-1" d="M37.23,107.58V66.49H39v41.09H37.23"/><path class="cls-2" d="M38.19,112.63v-7.21"/><path class="cls-2" d="M38.19,102.78v.12"/><path class="cls-2" d="M38.19,100V94.73"/><path class="cls-2" d="M38.19,92v.12"/><path class="cls-2" d="M38.19,89.32V83.91"/><path class="cls-2" d="M38.19,81.15v.12"/><path class="cls-2" d="M38.19,78.5V73.1"/><path class="cls-2" d="M38.19,70.34v.12"/><path class="cls-2" d="M38.19,67.69V62.28"/><path class="cls-2" d="M38.19,59.52v.12"/><path class="cls-2" d="M38.19,56.88V51.47"/><path class="cls-2" d="M38.19,48.82V49"/><path class="cls-2" d="M38.19,46.06V40.65"/><path class="cls-2" d="M38.19,38v.12"/><path class="cls-2" d="M38.19,35.24v-5.4"/><path class="cls-2" d="M38.19,27.2v.12"/><path class="cls-2" d="M38.19,24.43V17.34"/><path class="cls-2" d="M158.68,112.63v-7.21"/><path class="cls-2" d="M158.68,102.78v.12"/><path class="cls-2" d="M158.68,100V94.73"/><path class="cls-2" d="M158.68,92v.12"/><path class="cls-2" d="M158.68,89.32V83.91"/><path class="cls-2" d="M158.68,81.15v.12"/><path class="cls-2" d="M158.68,78.5V73.1"/><path class="cls-2" d="M158.68,70.34v.12"/><path class="cls-2" d="M158.68,67.69V62.28"/><path class="cls-2" d="M158.68,59.52v.12"/><path class="cls-2" d="M158.68,56.88V51.47"/><path class="cls-2" d="M158.68,48.82V49"/><path class="cls-2" d="M158.68,46.06V40.65"/><path class="cls-2" d="M158.68,38v.12"/><path class="cls-2" d="M158.68,35.24v-5.4"/><path class="cls-2" d="M158.68,27.2v.12"/><path class="cls-2" d="M158.68,24.43V17.34"/><path class="cls-1" d="M31.11,24V66.49"/><path class="cls-1" d="M165.76,24V66.49"/><path class="cls-1" d="M28.47,24H22.58V66.49"/><path class="cls-1" d="M22.58,26.23h5.89"/><path class="cls-1" d="M22.58,64.08h5.89"/><path class="cls-1" d="M22.58,66.49h5.89"/><path class="cls-1" d="M169.24,24H181.5"/><path class="cls-1" d="M169.24,26.23H181.5"/><path class="cls-1" d="M169.24,64.08H181.5"/><path class="cls-1" d="M169.24,66.49H181.5"/><path class="cls-1" d="M39.52,26.23v6.49"/><path class="cls-1" d="M39.52,34.76v5.65"/><path class="cls-1" d="M39.52,42.33V48.1"/><path class="cls-1" d="M39.52,50v5.64"/><path class="cls-1" d="M39.52,57.59v6.49H36.75V57.59"/><path class="cls-1" d="M36.75,55.67V50"/><path class="cls-1" d="M36.75,48.1V42.33"/><path class="cls-1" d="M36.75,40.41V34.76"/><path class="cls-1" d="M36.75,32.72V26.23"/><path class="cls-1" d="M160,26.23v6.49"/><path class="cls-1" d="M160,34.76v5.65"/><path class="cls-1" d="M160,42.33V48.1"/><path class="cls-1" d="M160,50v5.64"/><path class="cls-1" d="M160,57.59v6.49h-2.77V57.59"/><path class="cls-1" d="M157.23,55.67V50"/><path class="cls-1" d="M157.23,48.1V42.33"/><path class="cls-1" d="M157.23,40.41V34.76"/><path class="cls-1" d="M157.23,32.72V26.23"/><path class="cls-2" d="M46,119.36H94.89"/><path class="cls-2" d="M102,13V1.48"/><path class="cls-2" d="M91.29,16.86V1.48"/><path class="cls-2" d="M98.37,5.69H94.89"/><path class="cls-3" d="M98.37,4.84v.84H102Zm0,.84H102l-3.61,1Z"/><path class="cls-3" d="M94.89,6.64V5.69h-3.6Zm0-.95h-3.6l3.6-.84Z"/><path class="cls-2" d="M102,13V1.48"/><path class="cls-2" d="M112.55,16.86V1.48"/><path class="cls-2" d="M105.46,5.69h3.6"/><path class="cls-3" d="M105.46,6.64V5.69H102Zm0-.95H102l3.48-.84Z"/><path class="cls-3" d="M109.06,4.84v.84h3.49Zm0,.84h3.49l-3.49,1Z"/><path class="cls-2" d="M92.73,40.89V52.66"/><path class="cls-2" d="M91.29,28.16v24.5"/><path class="cls-2" d="M96.21,48.34h3.61"/><path class="cls-2" d="M87.81,48.34H74.35"/><path class="cls-2" d="M92.73,48.34H91.29"/><path class="cls-3" d="M96.21,49.31v-1H92.73Zm0-1H92.73l3.48-.84Z"/><path class="cls-3" d="M87.81,47.5v.84H91.3Zm0,.84H91.3l-3.49,1Z"/><path class="cls-2" d="M92.73,40.89V63"/><path class="cls-2" d="M94.41,40.89V63"/><path class="cls-2" d="M98,58.79h3.48"/><path class="cls-2" d="M89.13,58.79H77.23"/><path class="cls-2" d="M94.41,58.79H92.73"/><path class="cls-3" d="M98,59.64V58.8H94.41Zm0-.84H94.41l3.61-1Z"/><path class="cls-3" d="M89.13,57.83v1h3.48Zm0,1h3.48l-3.48.85Z"/><path class="cls-2" d="M111.11,40.89V52.43"/><path class="cls-2" d="M112.55,28.16V52.43"/><path class="cls-2" d="M107.62,48.22H104"/><path class="cls-2" d="M116.15,48.22H129.6"/><path class="cls-2" d="M111.11,48.22h1.44"/><path class="cls-3" d="M107.62,47.38v.84h3.49Zm0,.84h3.49l-3.49,1Z"/><path class="cls-3" d="M116.15,49.07v-.84h-3.61Zm0-.84h-3.61l3.61-.84Z"/><path class="cls-2" d="M111.11,40.89V63"/><path class="cls-2" d="M109.42,40.89V63"/><path class="cls-2" d="M105.94,58.79h-3.6"/><path class="cls-2" d="M114.71,58.79h12"/><path class="cls-2" d="M109.42,58.79h1.69"/><path class="cls-3" d="M105.94,57.83v1h3.49Zm0,1h3.49l-3.49.85Z"/><path class="cls-3" d="M114.71,59.64V58.8H111.1Zm0-.84H111.1l3.61-1Z"/><path class="cls-2" d="M102,76.82V72.38"/><path class="cls-2" d="M98.37,76.58H94.89"/><path class="cls-2" d="M106.3,76.58h9.37"/><path class="cls-2" d="M102,76.58h.84"/><path class="cls-3" d="M98.37,75.74v.84H102Zm0,.84H102l-3.61,1Z"/><path class="cls-3" d="M106.3,77.54v-1h-3.48Zm0-1h-3.48l3.48-.84Z"/><path class="cls-2" d="M105.46,86h3.6"/><path class="cls-2" d="M97.53,86H88.29"/><path class="cls-2" d="M102,86h-.84"/><path class="cls-3" d="M105.46,86.8V86H102Zm0-.84H102l3.48-.84Z"/><path class="cls-3" d="M97.53,85.11V86H101Zm0,.84H101l-3.49,1Z"/><path class="cls-2" d="M115.43,36.68h34"/><path class="cls-2" d="M135,24h14.42"/><path class="cls-2" d="M145.22,33.08V27.44"/><path class="cls-3" d="M146.06,33.08h-.84v3.61Zm-.84,0v3.61l-1-3.61Z"/><path class="cls-3" d="M144.26,27.44h1V24Zm1,0V24l.84,3.49Z"/><path class="cls-2" d="M135,24h14.42"/><path class="cls-2" d="M116.87,21.06h32.56"/><path class="cls-2" d="M145.22,27.44V31"/><path class="cls-2" d="M145.22,17.58V5"/><path class="cls-2" d="M145.22,24V21.06"/><path class="cls-3" d="M144.26,27.44h1V24Zm1,0V24l.84,3.49Z"/><path class="cls-3" d="M146.06,17.58h-.84v3.49Zm-.84,0v3.49l-1-3.49Z"/><path class="cls-2" d="M102,94.73V93.16"/><path class="cls-2" d="M38.19,95V93.16"/><path class="cls-2" d="M98.37,97.38H41.68"/><path class="cls-3" d="M98.37,96.53v.84H102Zm0,.84H102l-3.61.95Z"/><path class="cls-3" d="M41.68,98.22v-.84H38.19Zm0-.84H38.19l3.49-.84Z"/><path class="cls-2" d="M158.68,94.73V93.16"/><path class="cls-2" d="M102,95V93.16"/><path class="cls-2" d="M155.07,97.38H105.46"/><path class="cls-3" d="M155.07,96.53v.84h3.61Zm0,.84h3.61l-3.61.95Z"/><path class="cls-3" d="M105.46,98.22v-.84H102Zm0-.84H102l3.48-.84Z"/><path class="cls-2" d="M38.19,75.14V71.66"/><path class="cls-2" d="M31.11,70.7v9.36"/><path class="cls-2" d="M41.68,75.86h3.6"/><path class="cls-2" d="M27.63,75.86H24"/><path class="cls-2" d="M38.19,75.86H31.11"/><path class="cls-3" d="M41.68,76.7v-.84H38.19Zm0-.84H38.19L41.68,75Z"/><path class="cls-3" d="M27.63,75v.84h3.48Zm0,.84h3.48l-3.48,1Z"/><path class="cls-2" d="M158.68,75.14V71.66"/><path class="cls-2" d="M165.76,70.7v9.36"/><path class="cls-2" d="M155.07,75.86h-3.48"/><path class="cls-2" d="M169.24,75.86h3.6"/><path class="cls-4" d="M161,82.35h.6c0,.24.13.36.25.6a.7.7,0,0,0,.47.12,1.32,1.32,0,0,0,.73-.24,1.84,1.84,0,0,0,.23-.72,1.07,1.07,0,0,0-.23-.72c-.25-.24-.36-.24-.73-.24a.45.45,0,0,0-.36.12c-.11,0-.23.12-.36.24h-.48l.36-2.17h2.16v.48h-1.68l-.23,1.09a1.7,1.7,0,0,1,.84-.25,1.09,1.09,0,0,1,.83.37,1.36,1.36,0,0,1,.36,1,1.85,1.85,0,0,1-.23,1.08,2.19,2.19,0,0,1-1.21.48,1.1,1.1,0,0,1-.84-.36A1.93,1.93,0,0,1,161,82.35Z"/><path class="cls-4" d="M164.19,81.39a3.26,3.26,0,0,1,.24-1.21,1.09,1.09,0,0,1,.48-.71,1,1,0,0,1,.73-.25,1.08,1.08,0,0,1,.6.12l.36.36a1.75,1.75,0,0,1,.24.72,2.11,2.11,0,0,1,.12,1,3.7,3.7,0,0,1-.12,1.2,2.51,2.51,0,0,1-.48.72,1.29,1.29,0,0,1-.72.24,1,1,0,0,1-1-.48A3,3,0,0,1,164.19,81.39Zm.61,0a2.68,2.68,0,0,0,.24,1.32.66.66,0,0,0,.6.36c.24,0,.36-.12.6-.36a2.8,2.8,0,0,0,.24-1.32,3.37,3.37,0,0,0-.24-1.44.87.87,0,0,0-.6-.25c-.24,0-.48,0-.6.25A3.22,3.22,0,0,0,164.8,81.39Z"/><path class="cls-2" d="M158.68,75.86h7.08"/><path class="cls-3" d="M155.07,75v.84h3.61Zm0,.84h3.61l-3.61,1Z"/><path class="cls-3" d="M169.24,76.7v-.84h-3.49Zm0-.84h-3.49l3.49-.84Z"/><path class="cls-1" d="M190.56,234.13l-4.45-3.61L181.43,227l-4.69-3.13-4.91-3L166.77,218l-5-2.52-5.28-2.4-5.29-2.16-5.4-1.81-5.41-1.68L134.83,206l-5.65-1.2-5.65-1-5.64-.72-5.77-.48-5.64-.24h-5.77l-5.76.24-5.65.48-5.65.72-5.64,1L72.36,206l-5.52,1.44-5.52,1.68L56,210.94l-5.41,2.16-5.16,2.4-5,2.52-5.05,2.89-4.92,3L25.76,227l-4.57,3.48-4.43,3.61"/><path class="cls-1" d="M194.76,234.13l-4.2-3.73L186,226.92l-4.68-3.37-4.69-3.12-4.92-2.89-5-2.76-5-2.52L156.33,210l-5.29-2-5.41-1.8-5.4-1.68L134.71,203l-5.65-1.08-5.53-1-5.76-.72-5.65-.48-5.64-.24h-5.77l-5.64.24-5.65.48-5.65.72-5.64,1L72.49,203,67,204.45l-5.4,1.68-5.41,1.8-5.29,2-5.16,2.28-5.16,2.52-5,2.76-4.92,2.89-4.69,3.12-4.69,3.37-4.43,3.48-4.45,3.73"/><path class="cls-1" d="M203.29,234.13l-4.32-4-4.45-3.84-4.44-3.61-4.69-3.37-4.8-3.23-5.05-3-5-2.76-5.16-2.65-5.29-2.4-5.41-2.17-5.52-1.92-5.52-1.68L138.07,198l-5.64-1.32-5.77-1.07-5.65-.72-5.89-.61-5.76-.35-5.76-.13-5.89.13-5.65.35-5.76.61-5.77.72-5.76,1.07L69.12,198l-5.64,1.57L58,201.2l-5.41,1.92-5.39,2.17-5.29,2.4-5.17,2.65-5,2.76-4.93,3-4.93,3.23-4.68,3.37-4.56,3.61-4.44,3.84-4.21,4"/><path class="cls-2" d="M103.6,206l-4.81,2.88"/><path class="cls-5" d="M94.35,211.54V202.4"/><path class="cls-2" d="M94.35,211.54a9.25,9.25,0,0,0,18.5,0"/><path class="cls-5" d="M103.6,206.73a4.81,4.81,0,1,0,4.8,4.81,4.82,4.82,0,0,0-4.8-4.81"/><path class="cls-5" d="M94.35,202.4h18.5v9.14"/><path class="cls-2" d="M108.4,208.89,103.6,206"/><path class="cls-2" d="M98.79,211.54v-2.65"/><path class="cls-2" d="M108.4,211.54v-2.65"/><path class="cls-2" d="M103.6,217.18l-4.81-2.88"/><path class="cls-2" d="M108.4,214.3l-4.8,2.88"/><path class="cls-2" d="M98.79,211.54v2.76"/><path class="cls-2" d="M108.4,211.54v2.76"/><path class="cls-1" d="M107.32,211.54l-.12-1-.36-.85-.6-.72-.84-.6-.84-.48-1-.12"/><path class="cls-1" d="M101.68,208.41l-.72.6-.61.72-.36.85-.12,1,.12,1,.24.84"/><path class="cls-1" d="M101.68,214.78l1,.37,1,.23,1-.23.84-.37.84-.6.6-.72"/><path class="cls-1" d="M107.32,211.54v.12"/><path class="cls-2" d="M206.9,234.13H105.27l-.83,2.28-1.68-4.56-.84,2.28H.06"/><path class="cls-2" d="M94.35,215.86v17.31"/><path class="cls-2" d="M112.85,215.86v17.31"/><path class="cls-2" d="M98,229h11.29"/><path class="cls-3" d="M98,229.8V229H94.34Zm0-.84H94.34L98,228Z"/><path class="cls-3" d="M109.24,228v1h3.49Zm0,1h3.49l-3.49.85Z"/><path class="cls-4" d="M100.71,227.4h-.6v-3.25a1.66,1.66,0,0,1-.48.36.91.91,0,0,1-.48.24v-.48c.24-.12.48-.36.72-.48a2.11,2.11,0,0,0,.48-.6h.36Z"/><path class="cls-4" d="M102,226.32l.48-.12c.12.36.12.6.36.72s.23.12.48.12.48,0,.6-.24a.92.92,0,0,0,.24-.6.94.94,0,0,0-.24-.61.92.92,0,0,0-.6-.24.43.43,0,0,0-.36.12l.11-.48a.92.92,0,0,0,.61-.12.66.66,0,0,0,.36-.6.91.91,0,0,0-.24-.48.72.72,0,0,0-.48-.12c-.25,0-.36,0-.48.12s-.24.36-.36.6l-.48-.12c.12-.36.23-.6.48-.72a1.09,1.09,0,0,1,.84-.36c.24,0,.36.12.6.12a.94.94,0,0,1,.48.48.72.72,0,0,1,.12.48c0,.24,0,.36-.13.48s-.23.36-.47.36a2.87,2.87,0,0,1,.6.36,1.75,1.75,0,0,1,.24.73,1.09,1.09,0,0,1-.48,1,1.46,1.46,0,0,1-1.92,0A1.09,1.09,0,0,1,102,226.32Z"/><path class="cls-4" d="M105.27,225.35a3.43,3.43,0,0,1,.13-1.2,1.53,1.53,0,0,1,.48-.72,1.66,1.66,0,0,1,.72-.24.9.9,0,0,1,.6.12.94.94,0,0,1,.48.48c.12.12.12.36.24.6s.12.6.12,1a3.61,3.61,0,0,1-.24,1.21c0,.24-.24.48-.37.72a1.66,1.66,0,0,1-.83.24,1.09,1.09,0,0,1-1-.48A2.91,2.91,0,0,1,105.27,225.35Zm.49,0a3.47,3.47,0,0,0,.24,1.45c.24.12.36.24.6.24a.66.66,0,0,0,.6-.36c.23-.12.23-.6.23-1.33s0-1.2-.23-1.32a.65.65,0,0,0-1.09-.12A2.15,2.15,0,0,0,105.76,225.35Z"/><path class="cls-2" d="M99.39,220.79H81.85"/><path class="cls-2" d="M99.39,211.54H81.85"/><path class="cls-2" d="M86.18,224.27v3.61"/><path class="cls-2" d="M86.18,208.05v-3.48"/><path class="cls-2" d="M86.18,220.79v-9.25"/><path class="cls-3" d="M85.22,224.27h1v-3.48Zm1,0v-3.48l.84,3.48Z"/><path class="cls-3" d="M87,208.05h-.84v3.49Zm-.84,0v3.49l-1-3.49Z"/><path class="cls-4" d="M81.49,216.59v.48c-.23,0-.36.11-.48.11-.11.25-.24.36-.24.61s.13.23.24.36a1.06,1.06,0,0,0,.48.48c.25,0,.61.12,1,.12a.64.64,0,0,1-.35-.48c-.13-.25-.25-.36-.25-.61a.93.93,0,0,1,.48-.84,1.22,1.22,0,0,1,1-.35,1.52,1.52,0,0,1,.72.12c.25.11.36.36.48.48a1.68,1.68,0,0,1,.25.72,2.22,2.22,0,0,1-.48,1.07,2.66,2.66,0,0,1-1.57.36,2.47,2.47,0,0,1-1.79-.47,1.17,1.17,0,0,1-.48-1.09,1.28,1.28,0,0,1,.23-.71A1.07,1.07,0,0,1,81.49,216.59Zm1.8,2a.67.67,0,0,0,.48-.13c.13,0,.24-.12.36-.23a.87.87,0,0,0,.13-.48c0-.25-.13-.36-.25-.61a1,1,0,0,0-.72-.23,1.74,1.74,0,0,0-.71.23c-.13.25-.25.36-.25.61a.85.85,0,0,0,.25.59A1.26,1.26,0,0,0,83.29,218.63Z"/><path class="cls-4" d="M83.53,216v-.6a1.21,1.21,0,0,0,.6-.23.88.88,0,0,0,.13-.61c0-.24-.13-.36-.25-.6a1.71,1.71,0,0,0-.72-.24,1,1,0,0,0-.71.24c-.25.12-.25.36-.25.6s0,.36.12.48.13.25.24.36v.48l-2.16-.48v-2H81V215l1.09.25a1.7,1.7,0,0,1-.25-.85,1.44,1.44,0,0,1,1.32-1.32,1.35,1.35,0,0,1,1,.36,1.27,1.27,0,0,1,.61,1.08,1.17,1.17,0,0,1-.37,1A1.79,1.79,0,0,1,83.53,216Z"/><path class="cls-4" d="M147.55,241.45v.48h-2.28v-.36c.12-.12.12-.23.36-.48s.23-.36.48-.48c.36-.36.72-.6.84-.72a1,1,0,0,0,.13-.6.42.42,0,0,0-.13-.36.91.91,0,0,0-.48-.24.62.62,0,0,0-.48.24.59.59,0,0,0-.24.48h-.48a5.85,5.85,0,0,1,.36-.84,1.7,1.7,0,0,1,.84-.24,1.07,1.07,0,0,1,.84.36.92.92,0,0,1,.24.6c0,.24,0,.36-.12.48s-.12.24-.24.36-.36.37-.72.73c-.24.11-.36.36-.48.36a.37.37,0,0,1-.13.23Z"/><path class="cls-4" d="M148,240.13a2.11,2.11,0,0,1,.13-.95,2.72,2.72,0,0,1,.36-.61,1.25,1.25,0,0,1,.6-.23c.24,0,.36.11.6.11l.36.37c0,.11.12.36.12.47a1.8,1.8,0,0,1,.12.84,3,3,0,0,1-.12,1.09,2,2,0,0,1-.36.48c-.24.23-.36.23-.72.23a.83.83,0,0,1-.72-.36A2,2,0,0,1,148,240.13Zm.49,0a3.09,3.09,0,0,0,.12,1.21.74.74,0,0,0,1.08,0,3.09,3.09,0,0,0,.12-1.21c0-.59,0-.95-.12-1.07a.66.66,0,0,0-.6-.36c-.12,0-.36.12-.36.23C148.52,239.18,148.52,239.54,148.52,240.13Z"/><path class="cls-4" d="M153.2,241.93v-3.12H152v-.48h2.89v.48h-1.2v3.12Z"/><path class="cls-4" d="M155.36,241.93v-3.48h.48v1.44h1.8v-1.44h.48v3.48h-.48v-1.68h-1.8v1.68Z"/><path class="cls-4" d="M158.85,241.93v-3.59h.48v1.79l1.68-1.79h.72l-1.56,1.43,1.56,2.16h-.6l-1.2-1.8-.6.48v1.32Z"/><path class="cls-4" d="M163.41,240.73h.36c0,.13.12.36.12.49s.25.12.37.23.35.12.6.12.36-.12.48-.12a.25.25,0,0,0,.24-.23c.12-.13.12-.13.12-.25a.45.45,0,0,0-.12-.36.43.43,0,0,0-.24-.11c-.12-.12-.36-.12-.73-.25s-.47-.12-.59-.23-.37-.12-.37-.25a.89.89,0,0,1-.12-.48c0-.23,0-.36.12-.47s.24-.37.49-.37a1,1,0,0,1,.6-.11,1.65,1.65,0,0,1,.72.11c.12.12.36.25.47.37a4.62,4.62,0,0,1,.13.59h-.48a.66.66,0,0,0-.24-.48.9.9,0,0,0-1.2,0c-.12,0-.25.13-.25.36a.28.28,0,0,0,.25.25c0,.12.24.23.6.23s.72.25.84.25a1.47,1.47,0,0,1,.48.36c0,.12.12.35.12.48s-.12.36-.12.59-.36.25-.48.37a1.65,1.65,0,0,1-.72.11,1.93,1.93,0,0,1-.84-.11,1.84,1.84,0,0,1-.49-.48A.93.93,0,0,1,163.41,240.73Z"/><path class="cls-4" d="M166.77,241.93v-3.48h.49v1.44h1.8v-1.44h.48v3.48h-.48v-1.68h-1.8v1.68Z"/><path class="cls-4" d="M169.9,241.93l1.44-3.59h.49l1.43,3.59h-.48l-.48-1.07h-1.44l-.36,1.07ZM171,240.5h1.2l-.35-1.09a1.56,1.56,0,0,1-.25-.71c-.12.23-.12.48-.24.71Z"/><path class="cls-4" d="M173.62,241.93v-3.59h1.32a1,1,0,0,1,.6.11.43.43,0,0,1,.36.12l.36.36v.48a.86.86,0,0,1-.24.72,1.26,1.26,0,0,1-1.08.37h-.84v1.43Zm.48-1.91h.84c.36,0,.6,0,.73-.12s.11-.24.11-.49a.45.45,0,0,0-.11-.35.26.26,0,0,0-.25-.24H174.1Z"/><path class="cls-4" d="M176.86,241.93v-3.6h2.65v.48h-2.16v1.08h2v.36h-2v1.2h2.16v.48Z"/><path class="cls-4" d="M180.23,241.93v-3.59h1.2a1,1,0,0,1,.6.11.6.6,0,0,1,.48.25,1.22,1.22,0,0,1,.48.59c0,.25.12.48.12.84a1.56,1.56,0,0,1-.12.73,1,1,0,0,1-.24.48q-.18.16-.36.36c-.12,0-.24.12-.36.12a5.62,5.62,0,0,1-.6.11Zm.48-.48h1.2c.12-.11.24-.11.36-.23a.66.66,0,0,0,.24-.49.89.89,0,0,0,.12-.6,1.4,1.4,0,0,0-.24-.84,1.59,1.59,0,0,0-.36-.47h-1.32Z"/><path class="cls-4" d="M185.15,241.93v-3.59h1.32c.24,0,.36,0,.48.11s.36,0,.48.12.12.25.25.36.12.25.12.48a1.52,1.52,0,0,1-.25.72,1.43,1.43,0,0,1-1.08.37h-1v1.43Zm.36-1.91h1c.36,0,.48,0,.6-.12a.64.64,0,0,0,.24-.49.42.42,0,0,0-.12-.35c-.12-.13-.12-.24-.24-.24h-1.44Z"/><path class="cls-4" d="M188.4,241.93v-3.59h.48v3.11h1.68v.48Z"/><path class="cls-4" d="M190.68,241.93l1.44-3.6h.48l1.45,3.6h-.61l-.36-1.07h-1.44l-.36,1.07Zm1.08-1.43H193l-.36-1.09a1.71,1.71,0,0,1-.24-.72c-.12.24-.12.48-.24.72Z"/><path class="cls-4" d="M195.24,241.93v-3.12h-1.08v-.36h2.76v.36h-1.2v3.12Z"/><path class="cls-4" d="M197.41,241.93v-3.6h2.52v.48h-2v1.08h1.92v.36h-1.92v1.2h2.16v.48Z"/><path class="cls-4" d="M146.24,247.83l-1-3.49h.49l.48,2.28c.11.24.11.48.23.72a1.36,1.36,0,0,1,.13-.6l.71-2.4h.48l.49,1.8c.12.36.24.84.36,1.2,0-.24.12-.48.12-.72l.6-2.28h.48l-1,3.49h-.48l-.73-2.65a.91.91,0,0,1-.12-.48.91.91,0,0,0-.12.48l-.72,2.65Z"/><path class="cls-4" d="M150.76,244.17v3.72h-.48v-3.72Z"/><path class="cls-4" d="M152.48,247.83V244.7h-1.2v-.36h2.89v.36H153v3.13Z"/><path class="cls-4" d="M154.64,247.83v-3.49h.48v1.44h1.8v-1.44h.48v3.49h-.48v-1.69h-1.8v1.69Z"/><path class="cls-4" d="M159.33,246.86h.48a.62.62,0,0,0,.24.48.6.6,0,0,0,.48.25.86.86,0,0,0,.48-.25,1.29,1.29,0,0,0,.24-.72.62.62,0,0,0-.24-.48.48.48,0,0,0-.48-.24c-.24,0-.36,0-.48.12s-.12.12-.24.24l-.36-.12.36-1.8h1.68v.48h-1.32l-.24.84a1.3,1.3,0,0,1,.6-.12,1.73,1.73,0,0,1,.84.24,1.09,1.09,0,0,1,.36.84,1.13,1.13,0,0,1-.36.85,1.21,1.21,0,0,1-.84.48,1.09,1.09,0,0,1-.84-.36A.74.74,0,0,1,159.33,246.86Z"/><path class="cls-4" d="M162.09,246.86h.48a.62.62,0,0,0,.24.48c.12.13.24.25.36.25s.36-.12.6-.25a.9.9,0,0,0,.12-.6.48.48,0,0,0-.6-.6h-.36v-.36h.12c.24,0,.36,0,.48-.12a.62.62,0,0,0,.24-.48.44.44,0,0,0-.12-.36c-.12-.12-.24-.12-.48-.12a.44.44,0,0,0-.36.12.62.62,0,0,0-.24.48l-.48-.12a2.62,2.62,0,0,1,.36-.6.88.88,0,0,1,.72-.24,1.08,1.08,0,0,1,.6.12c.12,0,.25.12.37.24s.12.36.12.48-.12.36-.12.48-.25.24-.37.24c.12.12.37.12.49.36a.72.72,0,0,1,.12.48,1.13,1.13,0,0,1-.36.85,1,1,0,0,1-.85.36,1,1,0,0,1-.72-.36A.74.74,0,0,1,162.09,246.86Z"/><path class="cls-4" d="M166.42,247.83v-3.49h1.8c.24.12.36.12.48.24a2.3,2.3,0,0,1,.48.6c0,.24.12.6.12.84a1.52,1.52,0,0,1-.12.72c-.12.24-.12.36-.25.48s-.23.25-.35.37-.24.12-.36.24h-1.8Zm.35-.36h.84c.25,0,.37-.13.49-.13s.24-.12.36-.12a.91.91,0,0,0,.24-.48,1.52,1.52,0,0,0,.12-.72,1.73,1.73,0,0,0-.24-.84q-.18-.36-.36-.36a.92.92,0,0,0-.61-.12h-.84Z"/><path class="cls-4" d="M170.44,244.17v3.72H170v-3.72Z"/><path class="cls-4" d="M170.86,247.83l1.44-3.49h.48l1.44,3.49h-.6l-.36-1.09h-1.43l-.49,1.09Zm1.08-1.45h1.21l-.37-1a6.3,6.3,0,0,1-.24-.72c-.12.24-.12.48-.24.6Z"/><path class="cls-4" d="M175.9,247.83v-3.49h.48v1.44h1.8v-1.44h.49v3.49h-.49v-1.69h-1.8v1.69Z"/><path class="cls-4" d="M179.38,246.14a1.92,1.92,0,0,1,.49-1.44,1.6,1.6,0,0,1,1.2-.48,2.22,2.22,0,0,1,.84.24,1.23,1.23,0,0,1,.6.72,2.22,2.22,0,0,1,.24.84,2.26,2.26,0,0,1-.24,1,1.25,1.25,0,0,1-.6.73,2.22,2.22,0,0,1-.84.24,2.26,2.26,0,0,1-1-.24,3,3,0,0,1-.6-.73A1.9,1.9,0,0,1,179.38,246.14Zm.49,0a2.26,2.26,0,0,0,.24,1,1.37,1.37,0,0,0,1,.37,1.1,1.1,0,0,0,.84-.37,1.47,1.47,0,0,0,.36-1.08,1.71,1.71,0,0,0-.24-.72c0-.24-.24-.36-.36-.48a1.08,1.08,0,0,0-.6-.12,1.73,1.73,0,0,0-.84.24A1.59,1.59,0,0,0,179.87,246.14Z"/><path class="cls-4" d="M183.23,247.83v-3.49h.48v3.13h1.8v.36Z"/><path class="cls-4" d="M186,247.83v-3.48h2.65v.36h-2.16v1.08h2v.48h-2v1.2h2.16v.36Z"/><path class="cls-4" d="M191.28,247.83l-1-3.49h.48l.6,2.28c0,.24.12.48.12.72a2.1,2.1,0,0,0,.12-.6l.72-2.4h.6l.48,1.8a4.26,4.26,0,0,1,.24,1.2c.12-.24.12-.48.24-.72l.48-2.28h.48l-1,3.49h-.48l-.72-2.65c0-.24-.12-.36-.12-.48,0,.24,0,.36-.12.48l-.72,2.65Z"/><path class="cls-4" d="M195.88,244.17v3.72h-.48v-3.72Z"/><path class="cls-4" d="M197.65,247.83V244.7h-1.2v-.36h2.76v.36H198v3.13Z"/><path class="cls-4" d="M199.68,247.83v-3.49h.49v1.44H202v-1.44h.48v3.49H202v-1.69h-1.8v1.69Z"/><path class="cls-4" d="M145.27,253.84v-3.49h2.4v.36h-1.91v1.08h1.55v.48h-1.55v1.57Z"/><path class="cls-4" d="M148.88,253.84l-1-3.49h.48l.48,2.28c.12.25.12.49.24.73a4.42,4.42,0,0,1,.12-.73l.72-2.28h.48l.48,1.8c.12.36.24.85.36,1.21,0-.24.12-.48.12-.73l.6-2.28h.48l-1,3.49H151l-.72-2.65a.91.91,0,0,1-.12-.48c0,.24-.12.36-.12.48l-.72,2.65Z"/><path class="cls-4" d="M153.8,253.84l1.45-3.48h.48l1.44,3.48h-.6l-.36-1.08h-1.44l-.36,1.08Zm1.09-1.44h1.2l-.36-1a4.72,4.72,0,0,1-.24-.72c-.12.24-.12.36-.24.6Z"/><path class="cls-4" d="M157.53,253.84v-3.49H158v3.13h1.68v.36Z"/><path class="cls-4" d="M160.29,253.84v-3.49h.36v3.13h1.8v.36Z"/><path class="cls-4" d="M164.38,253.84v-3.49h2.28l.36.36a1.08,1.08,0,0,1,.12.6c0,.24,0,.48-.24.6a2,2,0,0,1-.72.36c.12,0,.24.12.36.12a1.77,1.77,0,0,1,.36.49l.6,1h-.6l-.48-.72a1.72,1.72,0,0,0-.36-.49.27.27,0,0,0-.24-.24l-.12-.12h-.84v1.57Zm.48-1.93h1c.24,0,.36-.12.48-.12s.24-.12.36-.24v-.24c0-.24,0-.36-.12-.48a.92.92,0,0,0-.61-.12h-1.07Z"/><path class="cls-4" d="M167.74,252.15a2.57,2.57,0,0,1,.48-1.44,2.1,2.1,0,0,1,1.2-.48,2.88,2.88,0,0,1,1,.24c.23.12.36.36.6.72a1.78,1.78,0,0,1,.12.84,2.41,2.41,0,0,1-.12,1,2.16,2.16,0,0,1-.72.72,1.8,1.8,0,0,1-.84.12,1.14,1.14,0,0,1-.84-.24,1.45,1.45,0,0,1-.6-.6A2.32,2.32,0,0,1,167.74,252.15Zm.48,0a1.39,1.39,0,0,0,.36,1,1.09,1.09,0,0,0,.84.36,1.38,1.38,0,0,0,1-.36,2.46,2.46,0,0,0,.23-1.09,1.36,1.36,0,0,0-.47-1.2,1.52,1.52,0,0,0-.72-.12,1.14,1.14,0,0,0-.84.24A1.59,1.59,0,0,0,168.22,252.15Z"/><path class="cls-4" d="M174.1,250.35h.36v2a2,2,0,0,1-.11.85.67.67,0,0,1-.36.48,3,3,0,0,1-1.69,0c-.12-.12-.36-.24-.36-.48a1.89,1.89,0,0,1-.24-.85v-2h.48v2a5.45,5.45,0,0,0,.12.61c0,.12.12.24.24.36a1.1,1.1,0,0,0,.61.12,1,1,0,0,0,.71-.24,1.37,1.37,0,0,0,.24-.85Z"/><path class="cls-4" d="M175.3,253.84v-3.49h.48l1.8,2.77v-2.77h.48v3.49h-.48l-1.8-2.77v2.77Z"/><path class="cls-4" d="M178.78,253.84v-3.49h1.93a.91.91,0,0,1,.48.24,2.11,2.11,0,0,1,.48.6c0,.24.12.6.12.84s-.12.48-.12.72-.12.37-.24.49l-.36.36a.44.44,0,0,1-.36.12,1.08,1.08,0,0,1-.6.12Zm.48-.36h.85c.24,0,.36-.12.48-.12s.24-.12.36-.24.12-.24.24-.37.12-.48.12-.72a1.73,1.73,0,0,0-.24-.84q-.18-.36-.36-.36a1.08,1.08,0,0,0-.6-.12h-.85Z"/><path class="cls-3" d="M115.49,214.06l.36-.72-3-1.8Zm.36-.72-3-1.8,3.48,1.08Z"/><path class="cls-2" d="M115.85,213.34l41.2,24"/><path class="cls-2" d="M103.72,174.77a162.21,162.21,0,0,0-83.25,22.95"/><path class="cls-3" d="M99.39,174.16v1.45l4.21-.84Z"/><path class="cls-3" d="M20.71,198.43l-.72-1.2-3.23,2.89Z"/><path class="cls-4" d="M39.94,185.34l-1-3-1.08.36-.13-.36,2.65-.84.12.48-1.08.24.84,3Z"/><path class="cls-4" d="M42,184.74l-1.08-3.37.48-.12.36,1.32,1.8-.48-.36-1.32.36-.24L44.61,184l-.47.12-.48-1.69-1.8.61.48,1.56Z"/><path class="cls-4" d="M45.46,183.78l-1.08-3.49.48-.12,1,3.37Z"/><path class="cls-4" d="M46.67,183.3l-1.09-3.37,1.57-.36a1.46,1.46,0,0,1,.71-.12.75.75,0,0,1,.49.12,1,1,0,0,1,.23.48.77.77,0,0,1,0,.72,1.22,1.22,0,0,1-.59.48.42.42,0,0,1,.23.12,1.66,1.66,0,0,1,.48.36l1,.72-.61.12-.71-.48q-.2-.36-.36-.36c-.13-.12-.25-.12-.37-.24h-.24a.34.34,0,0,0-.23.12l-.48.12.48,1.45Zm-.13-1.93,1-.36c.23,0,.35-.12.48-.12a.47.47,0,0,0,.11-.36.23.23,0,0,0,0-.36.25.25,0,0,0-.24-.24.53.53,0,0,0-.6,0l-1.07.24Z"/><path class="cls-4" d="M50,182.33l-1-3.36,1.09-.36a1.74,1.74,0,0,1,.71-.12.75.75,0,0,1,.49.12,1,1,0,0,1,.59.36,4.9,4.9,0,0,1,.36.84,1.52,1.52,0,0,1,.12.72c0,.24,0,.36-.12.48s-.11.36-.11.48-.25.12-.36.24-.37.12-.61.24Zm.36-.48.72-.24c.25-.12.36-.12.48-.24s.25-.12.25-.24a.77.77,0,0,0,.11-.48,1.65,1.65,0,0,0-.11-.72,2.1,2.1,0,0,0-.37-.72,1.6,1.6,0,0,0-.6-.36,2.44,2.44,0,0,1-.6.12l-.72.24Z"/><path class="cls-4" d="M54.71,180.89l-1-3.36,1.32-.37a.72.72,0,0,1,.48-.12H56c.12.12.24.12.36.25s.12.24.24.48,0,.48-.12.84-.36.36-.84.6l-.84.24.36,1.32Zm0-1.92.84-.24a.66.66,0,0,0,.6-.36c0-.12.12-.24,0-.48s-.12-.24-.24-.36-.24-.12-.36-.12a.53.53,0,0,1-.36.12l-.84.24Z"/><path class="cls-4" d="M57.23,178.37a1.89,1.89,0,0,1,.12-1.44,1.35,1.35,0,0,1,1-.84,1.32,1.32,0,0,1,1,0,2.16,2.16,0,0,1,.72.48,1.88,1.88,0,0,1,.48.84,2.64,2.64,0,0,1,.12,1c-.12.24-.24.6-.48.72s-.48.36-.72.48a1.32,1.32,0,0,1-1,0c-.24,0-.48-.24-.72-.36A1.93,1.93,0,0,1,57.23,178.37Zm.48-.12a1.53,1.53,0,0,0,.6.84.94.94,0,0,0,1,.12c.36-.12.6-.24.72-.6a1.65,1.65,0,0,0,0-1.08,1,1,0,0,0-.36-.72c-.12-.13-.36-.24-.48-.36h-.72a3.4,3.4,0,0,0-.72.59A2,2,0,0,0,57.71,178.25Z"/><path class="cls-4" d="M61.68,178.85l-1.09-3.37.48-.12,1,3.37Z"/><path class="cls-4" d="M62.88,178.49l-1-3.36.36-.13,2.64,2-.84-2.63.48-.12,1,3.36-.48.24-2.52-2.17.72,2.65Z"/><path class="cls-4" d="M67.08,177.16l-.84-2.87-1.08.23-.12-.36,2.64-.84.12.49-1.08.35.84,2.88Z"/><path class="cls-4" d="M68.64,175.61l.48-.25c0,.25.13.36.24.36s.25.25.37.25a1,1,0,0,0,.6-.13,1.21,1.21,0,0,0,.36-.12c.12-.11.24-.24.24-.36s.12-.23,0-.23a.42.42,0,0,0-.12-.36h-.36a.54.54,0,0,0-.6,0h-.73c-.24-.12-.36-.12-.48-.25s-.24-.23-.24-.36a.53.53,0,0,1,0-.59c0-.12.12-.25.36-.48a.64.64,0,0,1,.49-.25,1.52,1.52,0,0,1,.72-.12c.24,0,.36.12.6.25a.88.88,0,0,1,.24.48l-.36.12-.36-.37a.59.59,0,0,0-.6,0,1.27,1.27,0,0,0-.61.37.43.43,0,0,0-.12.36c.12.11.12.23.24.23s.36.13.73.13h.84c.24,0,.36.12.6.12a.88.88,0,0,1,.24.47v.6c-.12.13-.12.36-.36.49a2.64,2.64,0,0,1-.6.35c-.24,0-.6.13-.84,0a.69.69,0,0,1-.61-.23A1.81,1.81,0,0,1,68.64,175.61Z"/><path class="cls-2" d="M103.6,202.28V169.12"/><path class="cls-3" d="M25.52,195.68l-.6-1.21-3.37,2.64Z"/><path class="cls-2" d="M187,197.72a162.46,162.46,0,0,0-83.23-22.95"/><path class="cls-3" d="M107.92,174.16l-.12,1.45-4.2-.84Z"/><path class="cls-3" d="M186.59,198.43l.72-1.2,3.25,2.89Z"/><path class="cls-4" d="M136.51,176.09l.84-2.89-1.08-.36.12-.36,2.63.72-.11.48-1.08-.36-1,3Z"/><path class="cls-4" d="M138.55,176.81l1-3.49.48.25-.48,1.31,1.8.48.36-1.32.48.12-1,3.37-.48-.12.48-1.57-1.8-.59-.48,1.68Z"/><path class="cls-4" d="M142,177.77l1-3.36.48.11-1.07,3.37Z"/><path class="cls-4" d="M143.24,178.13l.95-3.36,1.57.48c.23.11.48.11.59.23a1.55,1.55,0,0,1,.36.49,1.43,1.43,0,0,1-.11.6c0,.24-.13.36-.36.47a1.8,1.8,0,0,1-.84.12c.11.13.23.13.23.25s.13.36.24.6l.37,1.08-.61-.24-.23-.84c-.13-.24-.13-.36-.25-.48a.47.47,0,0,0-.12-.37l-.11-.12c-.13,0-.13-.11-.25-.11l-.59-.12-.37,1.44Zm.95-1.68,1,.23a.87.87,0,0,0,.48.13c.13,0,.24-.13.36-.13s.12-.23.25-.36a.4.4,0,0,0-.13-.35,1.37,1.37,0,0,0-.48-.36l-1.08-.36Z"/><path class="cls-4" d="M146.6,179.21l1.07-3.37,1.09.36a5.2,5.2,0,0,1,.6.12,1,1,0,0,1,.48.49.89.89,0,0,1,.12.6,2,2,0,0,1,0,.84,4,4,0,0,1-.36.72c-.12.12-.24.36-.36.36s-.24.24-.36.24a.72.72,0,0,1-.48.12,5.45,5.45,0,0,0-.61-.12Zm.59-.24.73.12a.91.91,0,0,0,.48.12.44.44,0,0,0,.36-.12q.18,0,.36-.36a2.62,2.62,0,0,0,.36-.6,1,1,0,0,0,0-.84.61.61,0,0,0-.24-.48c-.12-.13-.36-.13-.6-.24l-.72-.25Z"/><path class="cls-4" d="M151.28,180.53l1.08-3.37,1.2.49a5.2,5.2,0,0,1,.6.12c.12.12.24.24.36.24s.12.36.12.48V179a1.2,1.2,0,0,1-.48.6q-.36.36-1.08,0l-1-.24-.36,1.44Zm1-1.56,1,.24a.54.54,0,0,0,.6,0c.24,0,.24-.12.36-.36v-.36c0-.12-.12-.24-.24-.36s-.24-.12-.36-.12l-1-.24Z"/><path class="cls-4" d="M154.76,179.81a2.4,2.4,0,0,1,1-1.2,2,2,0,0,1,1.21-.12,5.22,5.22,0,0,1,.84.48,1.09,1.09,0,0,1,.36.84,2.64,2.64,0,0,1-.12,1,1.21,1.21,0,0,1-.48.84c-.12.24-.48.36-.72.48A2.11,2.11,0,0,1,156,182a1.21,1.21,0,0,1-.84-.48.86.86,0,0,1-.36-.72Zm.48.24a.91.91,0,0,0,.12,1c.12.36.36.48.73.6a.74.74,0,0,0,.84-.12,1.27,1.27,0,0,0,.72-.84v-.72a.92.92,0,0,0-.24-.6.66.66,0,0,0-.6-.36,1,1,0,0,0-.85,0A1.9,1.9,0,0,0,155.24,180.05Z"/><path class="cls-4" d="M158.25,182.69l1-3.36.48.12-1.08,3.37Z"/><path class="cls-4" d="M159.45,183.06l1-3.37.48.12,1,3.13.84-2.65.36.12-1,3.37-.48-.12-1-3.13-.84,2.65Z"/><path class="cls-4" d="M163.65,184.26l1-2.89-1.08-.36.12-.36,2.65.72-.12.48-1.08-.36-1,2.89Z"/><path class="cls-4" d="M165.94,183.78l.36.12v.48c.12.12.12.24.36.36s.24.12.48.24h.47c.13,0,.25,0,.25-.12a.26.26,0,0,0,.24-.24v-.36l-.24-.24c-.12,0-.25-.12-.6-.36a2.42,2.42,0,0,1-.6-.36c-.12-.12-.12-.24-.24-.48v-.37c.12-.24.12-.36.35-.48a.66.66,0,0,1,.49-.24.9.9,0,0,1,.6.12,1.29,1.29,0,0,1,.72.24c.12.24.24.36.24.48a.55.55,0,0,1,0,.61h-.36a.93.93,0,0,0-.12-.61,1.66,1.66,0,0,0-.48-.36.76.76,0,0,0-.72,0,.26.26,0,0,0-.24.24v.37a3.28,3.28,0,0,0,.6.48,1.85,1.85,0,0,1,.72.48l.36.36v.6c-.12.12-.24.36-.36.48s-.36.12-.48.24a1.52,1.52,0,0,1-.72-.12,2,2,0,0,1-.72-.36.64.64,0,0,1-.36-.48A.76.76,0,0,1,165.94,183.78Z"/><path class="cls-3" d="M181.67,195.68l.72-1.21,3.36,2.64Z"/><path class="cls-2" d="M89.42,240v21.27h14.06L89.42,257"/><path class="cls-4" d="M98.43,250.71v-.84h3v2.64l-.11.12h-.12v.12h-.12l-.12.13-.12.12h-.13l-.12.12h-.24v.12h-.24v.12h-.36l-.12.12h-.48l-.12.12h-1.2l-.12-.12h-.36l-.12-.12h-.36l-.12-.12h-.24v-.12h-.12l-.12-.12-.12-.12H96v-.13h-.12v-.12h-.12l-.12-.12-.12-.12v-.12h-.12V252h-.12v0l-.12-.24v-.12l-.12-.12v-.24l-.12-.12v-.48l-.12-.12v-1.2l.12-.12v-.48h.12v-.36h.12v-.24l.12-.12V248l.12-.12v-.12l.24-.24v-.13h.12v-.12h.12v-.12H96l.12-.12.12-.12h.12v-.12h.12l.12-.12h.24l.12-.12h.24l.12-.12h.48v-.12h1.08l.12.12h.48v.12h.24l.12.12h.24v.12h.12l.12.12.12.12h.12v.12h.12v.12l.13.12.12.13v.12l.12.12v.12l.12.12v.24l.12.12v.24l-.85.12v-.12l-.12-.12v-.24h-.12V248h-.12v-.12H100v-.24h-.12l-.12-.12h-.12l-.12-.13h-.12v-.12h-.24L99,247.1h-.6v.12l-.12-.12h-.6l-.12.12h-.24l-.12.12h-.12l-.12.13h-.12v.12h-.12v.12h-.12l-.12.12v0l-.12.12v.12h-.12v.12l-.12.12v.12l-.12.12v.24l-.12.12v.48h-.12v1.08l.12.12v.48l.12.12v.24h.12v.24h.12v.12l.12.12.12.12.12.12.12.12h.12v.12H97l.12.12v.12l.12-.12.12.12h.24l.12.12h.72v.13l.12-.13H99l.12-.12h.36v-.12h.36v-.12H100l.12-.12h.12l.12-.12.12-.12v-1.32Z"/><path class="cls-2" d="M99.39,211.54H81.85"/><path class="cls-2" d="M90.14,202.4H81.85"/><path class="cls-2" d="M86.18,215.15v3.48"/><path class="cls-2" d="M86.18,198.79v-3.47"/><path class="cls-2" d="M86.18,211.54V202.4"/><path class="cls-3" d="M85.22,215.15h.85v-3.61Zm.85,0v-3.61l.84,3.61Z"/><path class="cls-3" d="M87,198.79h-.84v3.61Zm-.84,0v3.61l-1-3.61Z"/><path class="cls-4" d="M81.49,207.33v.48c-.23.12-.36.12-.48.24a1,1,0,0,0-.24.48A.66.66,0,0,0,81,209a1.81,1.81,0,0,0,.48.36,2.39,2.39,0,0,0,1,.12c-.24-.12-.35-.24-.35-.36s-.25-.36-.25-.6a.91.91,0,0,1,.48-.84,1.19,1.19,0,0,1,1-.36,1.52,1.52,0,0,1,.72.12.9.9,0,0,1,.48.48.92.92,0,0,1,.25.6,1.56,1.56,0,0,1-.48,1.08,2,2,0,0,1-1.57.49,3.11,3.11,0,0,1-1.79-.49,1.15,1.15,0,0,1-.48-1.08,1.73,1.73,0,0,1,.23-.84A6.39,6.39,0,0,1,81.49,207.33Zm1.8,2.16c.13,0,.36-.12.48-.12s.24-.24.36-.36a.42.42,0,0,0,.13-.36.92.92,0,0,0-.25-.6,1,1,0,0,0-.72-.24,1.62,1.62,0,0,0-.71.24.87.87,0,0,0-.25.6c0,.24.12.36.25.6A1.25,1.25,0,0,0,83.29,209.49Z"/><path class="cls-4" d="M83.53,206.73v-.48a1.53,1.53,0,0,0,.6-.36c.13-.12.13-.24.13-.48a.92.92,0,0,0-.25-.6.88.88,0,0,0-.72-.24c-.35,0-.6,0-.71.24s-.25.36-.25.6a.72.72,0,0,0,.12.48.27.27,0,0,0,.24.24v.48l-2.16-.36V204.2H81v1.69l1.09.24a2.8,2.8,0,0,1-.25-.84,1.4,1.4,0,0,1,.36-1,1.36,1.36,0,0,1,1-.36,1.35,1.35,0,0,1,1,.36,1.3,1.3,0,0,1,.61,1.09,1.37,1.37,0,0,1-.37,1A1.07,1.07,0,0,1,83.53,206.73Z"/><path class="cls-2" d="M88.22,220.79H70.69"/><path class="cls-2" d="M90.14,202.4H70.69"/><path class="cls-2" d="M75,217.18V205.89"/><path class="cls-3" d="M75.85,217.18H75v3.61Zm-.84,0v3.61l-1-3.61Z"/><path class="cls-3" d="M74.05,205.89h1V202.4Zm1,0V202.4l.84,3.49Z"/><path class="cls-4" d="M73.45,214.54V215H70.21a2,2,0,0,1,.36.48c.12.25.12.36.24.61h-.48a4.81,4.81,0,0,0-.48-.84,2,2,0,0,0-.6-.49v-.24Z"/><path class="cls-4" d="M72.36,213.22l-.11-.6a1,1,0,0,0,.72-.24.9.9,0,0,0,.12-.6.66.66,0,0,0-.24-.6.87.87,0,0,0-1.2,0,1.17,1.17,0,0,0-.24.6.47.47,0,0,0,.11.36h-.47V212c0-.24-.12-.36-.24-.6s-.24-.24-.48-.24-.36,0-.48.12a1.08,1.08,0,0,0-.12.6.72.72,0,0,0,.12.48.92.92,0,0,0,.6.24l-.12.48a1.09,1.09,0,0,1-.84-.36,2.06,2.06,0,0,1-.24-.84,1.65,1.65,0,0,1,.11-.72,1.88,1.88,0,0,1,.49-.36.91.91,0,0,1,.48-.24.62.62,0,0,1,.48.24.38.38,0,0,1,.36.36c.12-.24.24-.36.35-.6a1.58,1.58,0,0,1,.73-.12,1.36,1.36,0,0,1,1,.36,1.47,1.47,0,0,1,.36,1.08,1.09,1.09,0,0,1-.36.84A1.91,1.91,0,0,1,72.36,213.22Z"/><path class="cls-4" d="M71.41,209.86a3.1,3.1,0,0,1-1.2-.13,1.1,1.1,0,0,1-.72-.48,1,1,0,0,1-.24-.72,1.17,1.17,0,0,1,.11-.6l.37-.36.72-.36h1a3.7,3.7,0,0,1,1.2.12,2.51,2.51,0,0,1,.72.48,1,1,0,0,1,.24.72,1.09,1.09,0,0,1-.48,1A2.89,2.89,0,0,1,71.41,209.86Zm0-.49a2.44,2.44,0,0,0,1.32-.24.68.68,0,0,0,0-1.2,2.8,2.8,0,0,0-1.32-.24,3.45,3.45,0,0,0-1.44.24.92.92,0,0,0-.24.6c0,.24,0,.48.24.6A3.45,3.45,0,0,0,71.41,209.37Z"/><path class="cls-2" d="M94.35,198.07V184.5"/><path class="cls-2" d="M103.6,186.06V184.5"/><path class="cls-2" d="M90.86,188.71H87.38"/><path class="cls-2" d="M107.2,188.71h3.49"/><path class="cls-2" d="M94.35,188.71h9.25"/><path class="cls-3" d="M90.86,187.86v.84h3.49Zm0,.84h3.49l-3.49,1Z"/><path class="cls-3" d="M107.2,189.55v-.84h-3.61Zm0-.84h-3.61l3.61-.84Z"/><path class="cls-4" d="M98.67,184l-.48.12c-.12-.24-.12-.36-.24-.48a.91.91,0,0,0-.48-.24c-.24,0-.36,0-.48.12a2.62,2.62,0,0,0-.36.6c-.12.12-.12.48-.12,1a1.66,1.66,0,0,1,.36-.48,1.29,1.29,0,0,1,1.44.24,1.36,1.36,0,0,1,.36,1,1.78,1.78,0,0,1-.12.84c-.12.12-.24.36-.48.48a1.3,1.3,0,0,1-.72.12,1.09,1.09,0,0,1-1-.48c-.36-.24-.48-.84-.48-1.56a3.11,3.11,0,0,1,.48-1.68,1.17,1.17,0,0,1,1.08-.48,1,1,0,0,1,.84.24A4,4,0,0,1,98.67,184Zm-2.16,1.8c0,.24.12.36.12.6l.36.36c.12,0,.24.12.36.12a.92.92,0,0,0,.6-.24,1.71,1.71,0,0,0,.24-.72,1,1,0,0,0-.24-.72.92.92,0,0,0-.6-.24c-.24,0-.36.12-.6.24A.92.92,0,0,0,96.51,185.82Z"/><path class="cls-4" d="M99.27,186.18l.48-.12c.12.24.12.48.36.6a.62.62,0,0,0,.48.24.66.66,0,0,0,.61-.36c.24-.12.24-.36.24-.72a.88.88,0,0,0-.24-.72.92.92,0,0,0-.61-.24c-.12,0-.36.12-.48.12s-.24.24-.24.36l-.6-.12.48-2.16h2v.48h-1.69l-.24,1.2a1.29,1.29,0,0,1,.84-.24,1.36,1.36,0,0,1,1,2.28,1.18,1.18,0,0,1-1.09.48,2.26,2.26,0,0,1-1-.24A1.09,1.09,0,0,1,99.27,186.18Z"/><path class="cls-2" d="M112.85,198.07V184.5"/><path class="cls-2" d="M103.6,186.06V184.5"/><path class="cls-2" d="M116.33,188.71h3.6"/><path class="cls-2" d="M100.11,188.71h-3.6"/><path class="cls-2" d="M112.85,188.71H103.6"/><path class="cls-3" d="M116.33,189.55v-.84h-3.49Zm0-.84h-3.49l3.49-.84Z"/><path class="cls-3" d="M100.11,187.86v.84h3.49Zm0,.84h3.49l-3.49,1Z"/><path class="cls-4" d="M107.92,184l-.6.12c0-.24,0-.36-.12-.48a.91.91,0,0,0-.48-.24c-.24,0-.36,0-.48.12a2.31,2.31,0,0,0-.36.6c-.12.12-.12.48-.12,1a1.86,1.86,0,0,1,.35-.48,1.13,1.13,0,0,1,.61-.12,1.09,1.09,0,0,1,.84.36,1.36,1.36,0,0,1,.36,1,1.78,1.78,0,0,1-.12.84c-.12.12-.24.36-.48.48a1.52,1.52,0,0,1-.72.12,1.09,1.09,0,0,1-1-.48c-.37-.24-.48-.84-.48-1.56a2.3,2.3,0,0,1,.48-1.68,1.17,1.17,0,0,1,1.08-.48,1,1,0,0,1,.84.24A4,4,0,0,1,107.92,184Zm-2.16,1.8a1.08,1.08,0,0,0,.12.6l.36.36c.12,0,.24.12.36.12a.92.92,0,0,0,.6-.24,1.71,1.71,0,0,0,.24-.72,1,1,0,0,0-.24-.72.92.92,0,0,0-.6-.24c-.24,0-.36.12-.6.24A.92.92,0,0,0,105.76,185.82Z"/><path class="cls-4" d="M108.52,186.18l.49-.12a.91.91,0,0,0,.23.6c.25.12.36.24.61.24a.65.65,0,0,0,.59-.36c.25-.12.25-.36.25-.72a.86.86,0,0,0-.25-.72.89.89,0,0,0-.59-.24c-.25,0-.36.12-.49.12l-.35.36-.49-.12.49-2.16h2v.48h-1.68l-.24,1.2a1.14,1.14,0,0,1,.84-.24,1.36,1.36,0,0,1,1,2.28,1.14,1.14,0,0,1-1.07.48,2.31,2.31,0,0,1-1-.24A1.09,1.09,0,0,1,108.52,186.18Z"/><path class="cls-4" d="M180.83,175v-3.48h1.32a.9.9,0,0,1,.6.12c.12.12.24.12.36.36s.12.25.12.48a.43.43,0,0,1-.12.36q0,.19-.36.36a.6.6,0,0,1,.48.25,1.23,1.23,0,0,1,.24.59c0,.12-.12.37-.12.48s-.12.25-.24.25-.24.23-.36.23h-1.92Zm.36-2h1.32c.12,0,.12-.13.24-.13s.12-.23.12-.36-.12-.23-.12-.35-.12-.13-.24-.13h-1.32Zm0,1.68h1.2c.12,0,.24-.13.36-.13a.38.38,0,0,0,.12-.23c.12,0,.12-.13.12-.25s-.12-.23-.12-.36l-.24-.23h-1.44Z"/><path class="cls-4" d="M184,173.32a1.51,1.51,0,0,1,.48-1.32,1.39,1.39,0,0,1,1.2-.48,1.78,1.78,0,0,1,.84.12,3.41,3.41,0,0,1,.6.72,2.34,2.34,0,0,1,.24,1,2.88,2.88,0,0,1-.24,1,1.42,1.42,0,0,1-.6.59,2.25,2.25,0,0,1-.84.25,1.74,1.74,0,0,1-.84-.25c-.36-.11-.48-.36-.6-.72A1,1,0,0,1,184,173.32Zm.48,0a1.7,1.7,0,0,0,.36,1.09,1.09,1.09,0,0,0,.84.36.91.91,0,0,0,.84-.48,1.2,1.2,0,0,0,.36-1c0-.35,0-.6-.12-.71a1.22,1.22,0,0,0-.48-.61.9.9,0,0,0-.6-.12,1.07,1.07,0,0,0-.84.37A1.43,1.43,0,0,0,184.43,173.32Z"/><path class="cls-4" d="M187.92,175v-3.48h.48v3.13h1.68V175Z"/><path class="cls-4" d="M191.52,175v-3h-1.08v-.48h2.76V172H192v3Z"/><path class="cls-4" d="M195,175v-3.48h.48V173h1.8v-1.45h.48V175h-.48v-1.55h-1.8V175Z"/><path class="cls-4" d="M198.61,175v-3.48h2.52V172h-2v1.09H201v.36h-1.92v1.2h2.16V175Z"/><path class="cls-4" d="M201.49,175l1.32-3.48h.48l1.45,3.48h-.48l-.49-1h-1.44l-.36,1Zm1-1.43h1.2l-.36-1a1.75,1.75,0,0,1-.24-.73,1.61,1.61,0,0,1-.24.73Z"/><path class="cls-4" d="M205.1,175v-3.48H207c.12.12.36.24.48.36a1.05,1.05,0,0,1,.36.6,1.77,1.77,0,0,1,.25.84,4.68,4.68,0,0,1-.13.61c-.12.23-.12.48-.23.59s-.25.25-.37.25-.24.23-.36.23H205.1Zm.48-.35h.71a.88.88,0,0,0,.61-.13.49.49,0,0,0,.36-.11c.11-.12.11-.25.23-.48a5,5,0,0,0,.12-.61,1.89,1.89,0,0,0-.24-1,2,2,0,0,0-.47-.36h-1.32Z"/><path class="cls-2" d="M75.13,272.1A9.8,9.8,0,1,0,85,281.84a9.7,9.7,0,0,0-9.84-9.74"/><path class="cls-2" d="M65.4,282h58.85"/><path class="cls-4" d="M103.11,279.79v-7h3.73a2.61,2.61,0,0,1,1,.6,1.76,1.76,0,0,1,.84,1.21,3.48,3.48,0,0,1,.37,1.68,4.3,4.3,0,0,1-.25,1.32,2.17,2.17,0,0,1-.49,1.08,1.37,1.37,0,0,1-.59.6,1.1,1.1,0,0,1-.84.36,3.73,3.73,0,0,1-1.2.12Zm1-.84h1.56a3.32,3.32,0,0,0,1.08-.12,2.62,2.62,0,0,0,.6-.36,1.93,1.93,0,0,0,.48-.84,4.48,4.48,0,0,0,.24-1.44,3.48,3.48,0,0,0-.36-1.68,1.87,1.87,0,0,0-1-.73,3,3,0,0,0-1.2-.12h-1.44Z"/><path class="cls-4" d="M110.33,279.79v-7.08h5v.84h-4.19v2.17h4v.84h-4V279h4.32v.84Z"/><path class="cls-4" d="M118.61,279.79v-6.13h-2.28v-.84h5.52v.84h-2.28v6.13Z"/><path class="cls-4" d="M122.09,279.79l2.65-7h1l2.88,7h-1l-.84-2.16h-3l-.72,2.16Zm2-2.88h2.29L125.7,275c-.24-.6-.36-1.09-.48-1.45-.12.36-.24.85-.36,1.33Z"/><path class="cls-4" d="M130.49,272.73v7.08h-1v-7.08Z"/><path class="cls-4" d="M132.06,279.79v-7h1V279h3.49v.84Z"/><path class="cls-4" d="M140,273.66v-.84h4.56v.72a16.12,16.12,0,0,0-1.31,1.93,8.4,8.4,0,0,0-1,2.4,5,5,0,0,0-.35,1.92h-1c.13-.48.13-1.2.36-2a8.52,8.52,0,0,1,1-2.16,7.56,7.56,0,0,1,1.2-1.93Z"/><path class="cls-4" d="M118.37,292.05l.49-.12c0,.24,0,.36.12.48s.24.24.36.24a.72.72,0,0,0,.48.12c.24,0,.36,0,.48-.12s.24-.12.36-.12.12-.24.12-.36a.42.42,0,0,0-.12-.24c-.12-.12-.24-.24-.36-.24a2.44,2.44,0,0,0-.6-.12,4.72,4.72,0,0,0-.72-.24l-.37-.36c0-.12-.12-.24-.12-.48s.12-.36.12-.49a1.72,1.72,0,0,1,.49-.36c.24,0,.36-.12.6-.12a4.24,4.24,0,0,1,.72.12,1.66,1.66,0,0,1,.48.36,1.13,1.13,0,0,1,.12.61h-.36a.62.62,0,0,0-.24-.48c-.12-.13-.36-.13-.6-.13s-.48,0-.6.13-.24.24-.24.36a.44.44,0,0,0,.12.36,4.72,4.72,0,0,1,.72.24,1,1,0,0,1,.72.24c.24,0,.36.12.48.36s.12.24.12.48a.72.72,0,0,1-.12.48c-.12.24-.24.36-.48.36a.92.92,0,0,1-.6.24,1.73,1.73,0,0,1-.84-.24c-.24,0-.37-.24-.49-.36S118.37,292.29,118.37,292.05Z"/><path class="cls-4" d="M124.37,291.93l.49.12a2.08,2.08,0,0,1-.61.84,1.36,1.36,0,0,1-1,.36,1.73,1.73,0,0,1-.84-.24,3.18,3.18,0,0,1-.6-.72,2.34,2.34,0,0,1-.12-1,2.41,2.41,0,0,1,.12-1c.24-.24.36-.48.6-.6a2.22,2.22,0,0,1,.84-.24,2.26,2.26,0,0,1,1,.24,1.84,1.84,0,0,1,.49.85l-.49.12a.66.66,0,0,0-.36-.61,1.56,1.56,0,0,0-1.2,0,.66.66,0,0,0-.36.61.9.9,0,0,0-.12.6,1.78,1.78,0,0,0,.12.84c0,.24.24.36.36.48a1.08,1.08,0,0,0,.6.12.88.88,0,0,0,.72-.24A2.62,2.62,0,0,0,124.37,291.93Z"/><path class="cls-4" d="M125,293.13l1.32-3.49h.6l1.44,3.49h-.6l-.36-1.08h-1.56l-.36,1.08Zm1.08-1.44h1.08l-.36-1c-.12-.37-.12-.61-.24-.73a6,6,0,0,1-.12.61Z"/><path class="cls-4" d="M128.58,293.13v-3.49h.48v3.13h1.8v.36Z"/><path class="cls-4" d="M131.34,293.13v-3.48H134V290h-2.16v1.08h2v.48h-2v1.2H134v.36Z"/><path class="cls-4" d="M137.47,293.13h-.36v-2.77a1.81,1.81,0,0,1-.48.37c-.12,0-.36.12-.48.12v-.37l.71-.36a1.86,1.86,0,0,1,.37-.48h.24Z"/><path class="cls-4" d="M138.79,291.09v-.48h.48v.48Zm0,2v-.48h.48v.48Z"/><path class="cls-4" d="M141.55,293.13h-.36v-2.77a1.53,1.53,0,0,1-.48.37c-.11,0-.24.12-.36.12v-.37c.25-.12.36-.24.6-.36a1.86,1.86,0,0,1,.36-.48h.24Z"/><path class="cls-4" d="M142.76,291.45a3,3,0,0,1,.11-1.09.65.65,0,0,1,.37-.6c.11-.12.36-.12.59-.12s.36,0,.48.12.24.12.36.24a.93.93,0,0,1,.25.61,7.34,7.34,0,0,1,.11.84c0,.36-.11.72-.11,1a1.27,1.27,0,0,1-.49.6.9.9,0,0,1-.6.24,1.1,1.1,0,0,1-.84-.36A2.7,2.7,0,0,1,142.76,291.45Zm.35,0a2.13,2.13,0,0,0,.24,1.08c.12.24.25.36.48.36s.36-.12.48-.36a2,2,0,0,0,.24-1.08,2.63,2.63,0,0,0-.24-1.21c-.12-.24-.23-.24-.48-.24s-.36,0-.48.24A2.38,2.38,0,0,0,143.11,291.45Z"/><path class="cls-4" d="M72.36,279.19v-3.48h1.93c.12.12.36.12.48.24s.36.36.36.6a2.2,2.2,0,0,1,.23.84,4.6,4.6,0,0,1-.11.72c-.12.24-.12.36-.24.6s-.24.24-.36.24-.24.12-.36.24H72.36Zm.49-.36h.83a.74.74,0,0,0,.49-.12c.12,0,.24-.12.35-.12s.13-.24.25-.48.12-.36.12-.72a1.73,1.73,0,0,0-.24-.84,1.81,1.81,0,0,0-.48-.36,2.44,2.44,0,0,0-.6-.12h-.72Z"/><path class="cls-4" d="M75.85,276.19v-.48h2.28v.36a6.65,6.65,0,0,0-.71,1,4.67,4.67,0,0,0-.49,1.2,2.64,2.64,0,0,0-.12,1h-.48a3,3,0,0,1,.12-1,4.63,4.63,0,0,1,.48-1.2,5.08,5.08,0,0,1,.6-.84Z"/><path class="cls-4" d="M74.29,288.32h-.48v-2.76c0,.12-.24.24-.36.36a.91.91,0,0,0-.48.24v-.48a2.62,2.62,0,0,0,.6-.36l.48-.48h.24Z"/><path class="cls-4" d="M76.81,288.32v-.84H75.24v-.36l1.57-2.28h.36v2.28h.48v.36h-.48v.84Zm0-1.2v-1.56l-1.09,1.56Z"/><path class="cls-4" d="M88.1,287.36l1.32-3.48h.48l1.44,3.48h-.48l-.48-1.08H88.94l-.36,1.08Zm1-1.44h1.2l-.36-1a2.31,2.31,0,0,1-.24-.72c-.12.24-.12.49-.24.61Z"/><path class="cls-4" d="M91.7,287.36v-3.48h.48V287h1.69v.36Z"/><path class="cls-4" d="M95,283.77v3.6h-.47v-3.6Z"/><path class="cls-4" d="M97.47,286v-.48h1.44v1.32a1,1,0,0,1-.72.36,1.71,1.71,0,0,1-.72.24,2.82,2.82,0,0,1-1-.24,1.23,1.23,0,0,1-.6-.72,1.8,1.8,0,0,1,0-1.8,1.2,1.2,0,0,1,.6-.72,2.26,2.26,0,0,1,1-.25c.24,0,.48.13.72.13s.36.23.48.35.12.36.24.61l-.48.11c0-.23-.12-.36-.12-.48s-.24-.11-.36-.24H96.87l-.36.36c-.12,0-.12.13-.24.25s-.12.48-.12.72a1.73,1.73,0,0,0,.24.84c0,.24.24.36.36.48a1.52,1.52,0,0,0,.72.12,1.08,1.08,0,0,0,.6-.12.91.91,0,0,0,.48-.24V286Z"/><path class="cls-4" d="M99.63,287.36v-3.48h.48l1.8,2.76v-2.76h.48v3.48h-.48l-1.8-2.77v2.77Z"/><path class="cls-4" d="M103.11,287.36v-3.48h.73l.84,2.52c.12.12.12.36.24.48a5.2,5.2,0,0,0,.12-.6l.84-2.4h.6v3.48h-.37v-2.89L105,287.36h-.36l-1.08-3v3Z"/><path class="cls-4" d="M107.32,287.36v-3.48h2.52v.35h-2v1.09h1.92v.47H107.8V287H110v.36Z"/><path class="cls-4" d="M110.56,287.36v-3.48H111l1.81,2.76v-2.76h.48v3.48h-.48L111,284.59v2.77Z"/><path class="cls-4" d="M115,287.36v-3.13H113.8v-.35h2.89v.35h-1.2v3.13Z"/><path class="cls-4" d="M118.49,287.36v-3.48h1.92c.12,0,.24.12.36.12s.24.23.24.36a.71.71,0,0,1,.12.48,1,1,0,0,1-.24.84,2,2,0,0,1-1.08.24H119v1.44Zm.48-1.8h.84a1,1,0,0,0,.72-.24c.12-.12.12-.25.12-.48a.46.46,0,0,0-.12-.37c0-.11-.12-.11-.24-.11s-.24-.13-.48-.13H119Z"/><path class="cls-4" d="M122.33,283.77v3.6h-.48v-3.6Z"/><path class="cls-4" d="M123.17,287.36v-3.48h.48l1.8,2.75v-2.75h.48v3.48h-.48l-1.92-2.77v2.77Z"/><path class="cls-4" d="M128.1,287.36v-3.48h1.8c.24.12.36.12.48.23a2.14,2.14,0,0,1,.48.61c0,.23.12.6.12.84a1.3,1.3,0,0,1-.12.72.62.62,0,0,1-.24.48c-.12.24-.24.24-.36.36s-.24.12-.36.24h-1.8Zm.48-.36h.72c.24,0,.36-.12.48-.12s.24-.12.36-.12a.91.91,0,0,0,.24-.48,1.52,1.52,0,0,0,.12-.72,1.7,1.7,0,0,0-.24-.84c-.12-.13-.24-.36-.36-.36s-.36-.13-.6-.13h-.72Z"/><path class="cls-4" d="M131.58,287.36v-3.48h2.52v.35h-2v1.09H134v.47h-1.92V287h2.16v.36Z"/><path class="cls-4" d="M135.79,287.36v-3.13h-1.2v-.35h2.88v.35h-1.2v3.13Z"/><path class="cls-4" d="M137.47,287.36l1.44-3.48h.48l1.44,3.48h-.6l-.37-1.08h-1.43l-.48,1.08Zm1.08-1.44h1.2l-.36-1a2.31,2.31,0,0,1-.24-.72c-.13.24-.13.49-.24.61Z"/><path class="cls-4" d="M141.65,283.77v3.6h-.48v-3.6Z"/><path class="cls-4" d="M142.51,287.36v-3.48H143V287h1.68v.36Z"/><path class="cls-2" d="M124.25,282h21"/><path class="cls-4" d="M49.66,117.86l-2.43-7.43h1l1.15,3.66c.33,1,.6,1.91.8,2.78h0c.21-.86.52-1.8.85-2.77l1.26-3.67h1l-2.66,7.43Z"/><path class="cls-4" d="M55.14,110.43v7.43h-1v-7.43Z"/><path class="cls-4" d="M60.67,114.38H57.78v2.68H61v.8H56.82v-7.43h4v.8h-3v2.35h2.89Z"/><path class="cls-4" d="M63.56,117.86l-1.89-7.43h1l.88,3.76c.22.93.42,1.85.55,2.57h0c.12-.74.36-1.62.61-2.58l1-3.75h1l.9,3.77c.21.88.41,1.77.52,2.55h0c.16-.82.37-1.64.6-2.57l1-3.75h1l-2.11,7.43h-1L66.7,114a23,23,0,0,1-.48-2.43h0a21.57,21.57,0,0,1-.57,2.43l-1.06,3.87Z"/><path class="cls-4" d="M73.51,117.3l4.13-6v0H73.86v-.8h5V111l-4.1,6v0h4.16v.8H73.51Z"/><path class="cls-4" d="M84.67,114.52v.72H82v-.72Z"/><path class="cls-4" d="M87.68,117.3l4.12-6v0H88v-.8h5V111l-4.11,6v0H93.1v.8H87.68Z"/><path class="cls-4" d="M51.22,121.5a5.35,5.35,0,0,0-1,3.33,5.48,5.48,0,0,0,1,3.31h-.57a5.73,5.73,0,0,1,0-6.64Z"/><path class="cls-4" d="M51.9,126.29a2.47,2.47,0,0,0,1.27.36c.73,0,1.15-.38,1.15-.94s-.29-.8-1-1.09c-.9-.32-1.45-.78-1.45-1.56a1.58,1.58,0,0,1,1.77-1.49,2.53,2.53,0,0,1,1.22.27l-.2.58a2.18,2.18,0,0,0-1-.26c-.75,0-1,.45-1,.82s.34.77,1.09,1.06c.93.36,1.41.81,1.41,1.62s-.63,1.58-1.93,1.58a2.88,2.88,0,0,1-1.4-.35Z"/><path class="cls-4" d="M59.85,127a3.52,3.52,0,0,1-1.45.26,2.57,2.57,0,0,1-2.71-2.78,2.74,2.74,0,0,1,2.87-2.89,2.89,2.89,0,0,1,1.3.25l-.17.58a2.59,2.59,0,0,0-1.11-.23,2,2,0,0,0-2.14,2.26,2,2,0,0,0,2.11,2.21,2.85,2.85,0,0,0,1.16-.23Z"/><path class="cls-4" d="M61.67,125.43l-.57,1.72h-.74l1.87-5.49h.85L65,127.15H64.2l-.59-1.72Zm1.8-.56-.54-1.58c-.12-.36-.21-.68-.29-1h0c-.08.33-.17.66-.28,1l-.54,1.59Z"/><path class="cls-4" d="M65.77,121.66h.7v4.9h2.35v.59h-3Z"/><path class="cls-4" d="M72.46,124.58H70.32v2H72.7v.59H69.61v-5.49h3v.6H70.32V124h2.14Z"/><path class="cls-4" d="M76.65,122.53h0l-.92.49-.14-.54,1.16-.62h.61v5.29h-.7Z"/><path class="cls-4" d="M79.34,123.86a.49.49,0,1,1,.48.51A.48.48,0,0,1,79.34,123.86Zm0,2.88a.49.49,0,1,1,.48.5A.47.47,0,0,1,79.34,126.74Z"/><path class="cls-4" d="M82.52,122.53h0l-.92.49-.14-.54,1.15-.62h.62v5.29h-.7Z"/><path class="cls-4" d="M88.67,124.45c0,1.8-.67,2.79-1.84,2.79s-1.74-1-1.76-2.72.77-2.75,1.85-2.75S88.67,122.76,88.67,124.45Zm-2.88.08c0,1.38.43,2.16,1.08,2.16s1.08-.86,1.08-2.21-.33-2.16-1.07-2.16S85.79,123.09,85.79,124.53Z"/><path class="cls-4" d="M89.13,128.14a5.59,5.59,0,0,0,1-3.33,5.45,5.45,0,0,0-1-3.31h.55a5.2,5.2,0,0,1,1.07,3.32,5.29,5.29,0,0,1-1.07,3.32Z"/><path class="cls-4" d="M66.72,96V94.9H64.87v-.35L66.65,92h.58v2.48h.56v.42h-.56V96Zm0-1.51V93.15c0-.21,0-.42,0-.63h0c-.12.23-.22.41-.33.59l-1,1.36h1.3Z"/><path class="cls-4" d="M70.59,92.45H69.06l-.15,1a2.34,2.34,0,0,1,.33,0,1.63,1.63,0,0,1,.85.22,1.12,1.12,0,0,1,.57,1,1.37,1.37,0,0,1-1.48,1.36,2,2,0,0,1-1-.24l.13-.41a1.77,1.77,0,0,0,.85.22.88.88,0,0,0,1-.87c0-.51-.35-.88-1.15-.88-.23,0-.4,0-.55,0L68.68,92h1.91Z"/><path class="cls-4" d="M74,94c0,1.36-.5,2.1-1.38,2.1s-1.31-.73-1.32-2,.58-2.08,1.39-2.08S74,92.68,74,94ZM71.84,94c0,1,.32,1.63.81,1.63s.81-.65.81-1.67-.25-1.62-.81-1.62S71.84,92.93,71.84,94Z"/><path class="cls-4" d="M128.79,96V94.9h-1.86v-.35L128.71,92h.59v2.48h.55v.42h-.55V96Zm0-1.51V93.15c0-.21,0-.42,0-.63h0c-.12.23-.22.41-.33.59l-1,1.36h1.31Z"/><path class="cls-4" d="M132.92,94c0,1.36-.51,2.1-1.39,2.1s-1.31-.73-1.32-2,.58-2.08,1.39-2.08S132.92,92.68,132.92,94Zm-2.17.06c0,1,.32,1.63.81,1.63s.82-.65.82-1.67-.25-1.62-.81-1.62S130.75,92.93,130.75,94Z"/><path class="cls-4" d="M136.07,94c0,1.36-.51,2.1-1.39,2.1s-1.31-.73-1.32-2,.58-2.08,1.39-2.08S136.07,92.68,136.07,94ZM133.9,94c0,1,.32,1.63.81,1.63s.82-.65.82-1.67-.25-1.62-.81-1.62S133.9,92.93,133.9,94Z"/><path class="cls-4" d="M91.68,80.84a1.55,1.55,0,0,0-.41,0,1.62,1.62,0,0,0-1.38,1.41h0a1.21,1.21,0,0,1,2.16.83,1.33,1.33,0,0,1-1.32,1.41c-.86,0-1.41-.67-1.41-1.7A2.51,2.51,0,0,1,90,81a2.12,2.12,0,0,1,1.28-.59l.39,0Zm-.15,2.3a.81.81,0,0,0-.83-.91.89.89,0,0,0-.77.49.43.43,0,0,0-.06.24c0,.65.31,1.14.88,1.14S91.53,83.71,91.53,83.14Z"/><path class="cls-4" d="M115.46,72.19a2.13,2.13,0,0,0-.41,0,1.62,1.62,0,0,0-1.38,1.42h0a1.16,1.16,0,0,1,1-.46,1.18,1.18,0,0,1,1.2,1.28,1.34,1.34,0,0,1-1.32,1.41c-.86,0-1.41-.66-1.41-1.7a2.53,2.53,0,0,1,.67-1.8,2.18,2.18,0,0,1,1.28-.59l.39,0Zm-.16,2.3a.8.8,0,0,0-.82-.91.89.89,0,0,0-.77.49.43.43,0,0,0-.06.24c0,.66.31,1.14.88,1.14S115.3,75.07,115.3,74.49Z"/><path class="cls-4" d="M32,81.58H30.51l-.16,1,.33,0a1.69,1.69,0,0,1,.86.21,1.15,1.15,0,0,1,.57,1,1.39,1.39,0,0,1-1.49,1.36,2,2,0,0,1-1-.25l.13-.41a1.79,1.79,0,0,0,.86.22.87.87,0,0,0,.94-.86c0-.52-.35-.89-1.15-.89a3.84,3.84,0,0,0-.55.05l.26-1.92H32Z"/><path class="cls-4" d="M35.45,83.07c0,1.36-.51,2.11-1.39,2.11s-1.31-.73-1.32-2.05.58-2.07,1.39-2.07S35.45,81.8,35.45,83.07Zm-2.17.06c0,1,.32,1.63.81,1.63s.82-.64.82-1.66-.26-1.63-.81-1.63S33.28,82.05,33.28,83.13Z"/><path class="cls-4" d="M79.43,54.11h0l-.69.37-.1-.41.87-.46H80v4h-.53Z"/><path class="cls-4" d="M81.41,57.59v-.33l.43-.41c1-1,1.47-1.48,1.48-2.08a.71.71,0,0,0-.79-.78,1.4,1.4,0,0,0-.85.33l-.17-.38a1.78,1.78,0,0,1,1.13-.4,1.12,1.12,0,0,1,1.22,1.16c0,.74-.53,1.33-1.37,2.14l-.32.29v0H84v.44Z"/><path class="cls-4" d="M121.24,54.11h0l-.69.37-.11-.41.88-.46h.46v4h-.53Z"/><path class="cls-4" d="M123.22,57.59v-.33l.42-.41c1-1,1.48-1.48,1.49-2.08a.71.71,0,0,0-.79-.78,1.33,1.33,0,0,0-.85.34l-.17-.39a1.78,1.78,0,0,1,1.13-.4,1.12,1.12,0,0,1,1.22,1.16c0,.74-.54,1.33-1.37,2.14l-.32.29v0h1.79v.44Z"/><path class="cls-4" d="M75.8,43.42h0l-.7.37-.1-.41.87-.47h.46v4H75.8Z"/><path class="cls-4" d="M80.42,44.86c0,1.36-.5,2.11-1.38,2.11s-1.31-.73-1.32-2,.58-2.08,1.39-2.08S80.42,43.59,80.42,44.86Zm-2.16.06c0,1,.32,1.63.81,1.63s.81-.64.81-1.66-.25-1.63-.8-1.63S78.26,43.84,78.26,44.92Z"/><path class="cls-4" d="M124.79,43.48h0l-.7.38-.1-.41.87-.47h.46v4h-.52Z"/><path class="cls-4" d="M129.41,44.93c0,1.36-.5,2.1-1.38,2.1s-1.31-.73-1.32-2,.58-2.08,1.39-2.08S129.41,43.66,129.41,44.93Zm-2.16.06c0,1,.32,1.63.81,1.63s.81-.65.81-1.67-.25-1.62-.81-1.62S127.25,43.91,127.25,45Z"/><path class="cls-4" d="M107.07,0V.36L105.33,4h-.56L106.5.46h-2V0Z"/><path class="cls-4" d="M110,.45h-1.52l-.16,1a2.34,2.34,0,0,1,.33,0,1.69,1.69,0,0,1,.86.22,1.14,1.14,0,0,1,.57,1,1.38,1.38,0,0,1-1.49,1.36,2,2,0,0,1-1-.24l.13-.41a1.79,1.79,0,0,0,.86.22.88.88,0,0,0,.94-.87c0-.51-.35-.88-1.15-.88-.22,0-.4,0-.55,0L108.1,0H110Z"/><path class="cls-4" d="M96.43,0V.36L94.7,4h-.56L95.87.46h-2V0Z"/><path class="cls-4" d="M99.38.45H97.85l-.15,1a2.34,2.34,0,0,1,.33,0,1.63,1.63,0,0,1,.85.22,1.12,1.12,0,0,1,.57,1A1.37,1.37,0,0,1,98,4.05a2,2,0,0,1-1-.24l.13-.41a1.77,1.77,0,0,0,.85.22.88.88,0,0,0,1-.87c0-.51-.35-.88-1.15-.88-.23,0-.4,0-.55,0L97.47,0h1.91Z"/><path class="cls-4" d="M143.78,14.39h-.33L143,14c-1-1-1.49-1.47-2.09-1.48a.72.72,0,0,0-.78.79,1.41,1.41,0,0,0,.34.85l-.38.17a1.78,1.78,0,0,1-.4-1.13,1.12,1.12,0,0,1,1.16-1.22c.73,0,1.33.53,2.14,1.37l.29.32h0V11.84h.45Z"/><path class="cls-4" d="M141.74,8.59c1.36,0,2.11.5,2.11,1.39s-.73,1.3-2,1.31-2.07-.57-2.07-1.38S140.47,8.59,141.74,8.59Zm.07,2.16c1,0,1.62-.31,1.62-.81s-.64-.81-1.66-.81-1.63.25-1.63.81S140.72,10.75,141.81,10.75Z"/><path class="cls-4" d="M143.47,33.09a2.28,2.28,0,0,0,0-.43,1.49,1.49,0,0,0-.39-.84A1.75,1.75,0,0,0,142,31.3h0a1.18,1.18,0,0,1,.43.94,1.16,1.16,0,0,1-1.22,1.18,1.37,1.37,0,0,1-1.42-1.36c0-.82.67-1.32,1.68-1.32a2.51,2.51,0,0,1,1.87.69,2,2,0,0,1,.54,1.16,2.23,2.23,0,0,1,0,.49Zm-2.3-.19a.77.77,0,0,0,.85-.77.88.88,0,0,0-.42-.78.29.29,0,0,0-.19-.05c-.68,0-1.21.25-1.21.81A.86.86,0,0,0,141.17,32.9Z"/><path class="cls-4" d="M141.81,27.61c1.36,0,2.11.5,2.11,1.38s-.73,1.31-2,1.32-2.08-.57-2.08-1.38S140.54,27.61,141.81,27.61Zm.06,2.16c1,0,1.63-.32,1.63-.81s-.65-.81-1.66-.81-1.63.25-1.63.81S140.79,29.77,141.87,29.77Z"/></g></g></svg>