<svg xmlns="http://www.w3.org/2000/svg" viewBox="0 0 142.14 221.93"><defs><style>.cls-1,.cls-2,.cls-4{fill:none;stroke-linejoin:round;}.cls-1,.cls-2,.cls-3,.cls-4{stroke:#142026;stroke-linecap:round;}.cls-1{stroke-width:0.48px;}.cls-2,.cls-3{stroke-width:0.12px;}.cls-3,.cls-5{fill:#142026;}.cls-3{stroke-miterlimit:7.5;}.cls-4{stroke-width:0.36px;}</style></defs><g id="Layer_2" data-name="Layer 2"><g id="Layer_1-2" data-name="Layer 1"><path class="cls-1" d="M15.13,33.22l2-2.17"/><path class="cls-1" d="M14.41,35l4-4"/><path class="cls-1" d="M14.05,36.82l5.64-5.77"/><path class="cls-1" d="M15.25,36.82,21,31.05"/><path class="cls-1" d="M16.57,36.82l5.65-5.77"/><path class="cls-1" d="M17.77,36.82l5.65-5.77"/><path class="cls-1" d="M19.09,36.82l5.65-5.77"/><path class="cls-1" d="M20.41,36.82l5.53-5.77"/><path class="cls-1" d="M21.62,36.82l5.64-5.77"/><path class="cls-1" d="M22.82,36.82l5.76-5.77"/><path class="cls-1" d="M24.14,36.82l5.65-5.77"/><path class="cls-1" d="M25.46,36.82l5.65-5.77"/><path class="cls-1" d="M26.66,36.82l5.77-5.77"/><path class="cls-1" d="M28,36.82l5.65-5.77"/><path class="cls-1" d="M29.19,36.82,35,31.05"/><path class="cls-1" d="M30.51,36.82l5.64-5.77"/><path class="cls-1" d="M31.83,36.82l5.65-5.77"/><path class="cls-1" d="M33,36.82l5.77-5.77"/><path class="cls-1" d="M34.35,36.82,40,31.05"/><path class="cls-1" d="M35.67,36.82l5.65-5.77"/><path class="cls-1" d="M36.87,36.82l5.65-5.77"/><path class="cls-1" d="M38.19,36.82l5.65-5.77"/><path class="cls-1" d="M39.4,36.82l5.76-5.77"/><path class="cls-1" d="M40.72,36.82l5.64-5.77"/><path class="cls-1" d="M42,36.82l5.65-5.77"/><path class="cls-1" d="M43.24,36.82l5.64-5.77"/><path class="cls-1" d="M44.56,36.82l5.64-5.77"/><path class="cls-1" d="M45.77,36.82l5.75-5.77"/><path class="cls-1" d="M47.09,36.82l5.64-5.77"/><path class="cls-1" d="M48.41,36.82l5.64-5.77"/><path class="cls-1" d="M49.6,36.82l5.65-5.77"/><path class="cls-1" d="M50.93,36.82l5.64-5.77"/><path class="cls-1" d="M52.12,36.82l5.77-5.77"/><path class="cls-1" d="M53.45,36.82l5.64-5.77"/><path class="cls-1" d="M54.77,36.82l5.65-5.77"/><path class="cls-1" d="M56,36.82l5.77-5.77"/><path class="cls-1" d="M57.29,36.82l5.65-5.77"/><path class="cls-1" d="M58.49,36.82l5.77-5.77"/><path class="cls-1" d="M59.81,36.82l5.65-5.77"/><path class="cls-1" d="M61.14,36.82l5.64-5.77"/><path class="cls-1" d="M62.34,36.82l5.76-5.77"/><path class="cls-1" d="M63.66,36.82l5.65-5.77"/><path class="cls-1" d="M65,36.82l5.53-5.77"/><path class="cls-1" d="M66.18,36.82l5.41-5.53"/><path class="cls-1" d="M67.5,36.82l4.09-4.2"/><path class="cls-1" d="M68.71,36.82l2.88-3"/><path class="cls-1" d="M69.91,36.82l1.68-1.68"/><path class="cls-1" d="M71.23,36.82l.36-.36"/><path class="cls-1" d="M14.05,36.82H71.59"/><path class="cls-1" d="M15.85,31.05H71.59V63.74"/><path class="cls-2" d="M16.21,58.09H26.3"/><path class="cls-2" d="M26.3,58.09A17.12,17.12,0,0,0,43.35,41"/><path class="cls-2" d="M43.24,41v-4.2"/><path class="cls-2" d="M34.47,36.82a1.74,1.74,0,0,0,1.8,1.68"/><path class="cls-2" d="M43.35,38.5A1.72,1.72,0,0,0,45,36.82"/><path class="cls-2" d="M43.24,41H36"/><path class="cls-2" d="M13.93,51H24.86v7.09"/><path class="cls-2" d="M24.86,51A11.48,11.48,0,0,0,36.27,39.59"/><path class="cls-2" d="M36.27,39.59V36.82"/><path class="cls-1" d="M68.4,192.38V116.07"/><path class="cls-1" d="M89.78,154.89a10.71,10.71,0,0,0-10.68-10.7"/><path class="cls-1" d="M79.1,165.46a10.61,10.61,0,0,0,10.68-10.57"/><path class="cls-1" d="M79.1,165.46H68.4V144.19H79.1"/><path class="cls-3" d="M68.4,140v4.21h4.33Z"/><path class="cls-4" d="M68.4,140v4.21h4.33L68.4,140"/><path class="cls-3" d="M68.4,165.46h4.33l-4.33,4.33Z"/><path class="cls-4" d="M68.4,169.79v-4.33h4.33l-4.33,4.33"/><path class="cls-2" d="M45.16,12.79A32.51,32.51,0,1,0,77.59,45.35,32.51,32.51,0,0,0,45.16,12.79"/><path class="cls-2" d="M43.24,32.5V23"/><path class="cls-2" d="M71.59,26.85V23"/><path class="cls-2" d="M46.84,27.33H68.1"/><path class="cls-3" d="M46.84,28.17v-.84h-3.6Zm0-.84h-3.6l3.6-1Z"/><path class="cls-3" d="M68.1,26.37v1h3.49Zm0,1h3.49l-3.49.85Z"/><path class="cls-2" d="M22.94,47.4V40.07"/><path class="cls-3" d="M23.78,47.4h-.84V51Zm-.84,0V51l-.84-3.6Z"/><path class="cls-3" d="M22.1,40.07h.84V36.58Zm.84,0V36.58l.84,3.49Z"/><path class="cls-2" d="M24.74,94H67.62"/><path class="cls-3" d="M26.18,27.81l-.72.48,2.28,2.76Zm-.72.48,2.28,2.76-3-2.16Z"/><path class="cls-2" d="M25.46,28.29l-12.73-16"/><path class="cls-2" d="M22.94,47.4V43.91"/><path class="cls-2" d="M22.94,61.58v3.6"/><path class="cls-2" d="M22.94,51v7.09"/><path class="cls-3" d="M23.78,47.4h-.84V51Zm-.84,0V51l-.84-3.6Z"/><path class="cls-3" d="M22.1,61.58h.84V58.09Zm.84,0V58.09l.84,3.49Z"/><path class="cls-3" d="M47.68,39.83l.25-.84-3.37-1.08Zm.25-.84-3.37-1.08,3.72.24Z"/><path class="cls-2" d="M47.93,39,82.87,50.52"/><path class="cls-3" d="M40.6,55.93l.36-.84-3.24-1.44Zm.36-.84-3.24-1.44,3.6.72Z"/><path class="cls-2" d="M41,55.09l34.71,16.7"/><path class="cls-2" d="M76.69,114.87a39.24,39.24,0,1,0,39.16,39.18,39.21,39.21,0,0,0-39.16-39.18"/><path class="cls-2" d="M55.43,205.84H98.31"/><path class="cls-2" d="M68.4,129.53V124"/><path class="cls-2" d="M89.78,150.68V124"/><path class="cls-2" d="M72,128.21H86.18"/><path class="cls-3" d="M72,129.17v-1H68.4Zm0-1H68.4l3.61-.84Z"/><path class="cls-3" d="M86.18,127.37v.84h3.49Zm0,.84h3.49l-3.49,1Z"/><path class="cls-2" d="M64.2,144.19h-16"/><path class="cls-2" d="M64.2,165.46h-16"/><path class="cls-2" d="M52.55,147.8V162"/><path class="cls-3" d="M51.59,147.8h.84v-3.61Zm.84,0v-3.61l.84,3.61Z"/><path class="cls-3" d="M53.39,162h-.84v3.49Zm-.84,0v3.49l-1-3.49Z"/><path class="cls-3" d="M84.5,167.87l.6-.72L82.22,165Zm.6-.72L82.22,165l3.36,1.44Z"/><path class="cls-2" d="M85.1,167.15l23.06,17.9"/><path class="cls-3" d="M65.28,169.19l.6.72,2.52-2.52Zm.6.72,2.52-2.52-1.92,3.12Z"/><path class="cls-2" d="M65.88,169.91,41.74,192.74"/><path class="cls-3" d="M65.88,145.15l.84.49,1.68-3.13Zm.84.49,1.68-3.13-1,3.61Z"/><path class="cls-2" d="M66.72,145.64,41.14,190.7"/><path class="cls-3" d="M75.13,141.79l-.36.72,3.12,1.68Zm-.36.72,3.12,1.68-3.6-.84Z"/><path class="cls-2" d="M74.77,142.51l-30-16.58"/><path class="cls-2" d="M103,132.17l-13.57,13"/><path class="cls-2" d="M79.1,154.89l7.68-7.33"/><path class="cls-3" d="M90,145.76l-.59-.61-2.65,2.41Zm-.59-.61-2.65,2.41,1.93-3.13Z"/><path class="cls-5" d="M111,187.44v-.29l.37-.36c.89-.84,1.29-1.29,1.3-1.82a.62.62,0,0,0-.69-.68,1.15,1.15,0,0,0-.74.3l-.15-.33a1.48,1.48,0,0,1,1-.36,1,1,0,0,1,1.07,1c0,.65-.47,1.17-1.2,1.87l-.28.26h1.57v.39Z"/><path class="cls-5" d="M115,187.44v-3.61h.51l1.15,1.83a9.44,9.44,0,0,1,.65,1.17h0c0-.49,0-.92,0-1.49v-1.51h.44v3.61h-.47l-1.15-1.83a11.2,11.2,0,0,1-.67-1.2h0c0,.46,0,.89,0,1.49v1.54Z"/><path class="cls-5" d="M120.87,186.13a1.27,1.27,0,0,1-1.29,1.37,1.24,1.24,0,0,1-1.25-1.33,1.27,1.27,0,0,1,1.29-1.38A1.23,1.23,0,0,1,120.87,186.13Zm-2.06,0c0,.57.33,1,.79,1s.79-.43.79-1-.22-1-.78-1S118.81,185.66,118.81,186.15Z"/><path class="cls-5" d="M121.22,187.16a.32.32,0,1,1,.32.34A.31.31,0,0,1,121.22,187.16Z"/><path class="cls-5" d="M123.53,186.87a1.6,1.6,0,0,0,.83.24c.48,0,.76-.25.76-.62s-.2-.53-.68-.71-1-.52-1-1a1,1,0,0,1,1.17-1,1.65,1.65,0,0,1,.8.18l-.13.38a1.51,1.51,0,0,0-.69-.17c-.49,0-.68.29-.68.54s.22.5.72.7.92.53.92,1.06-.41,1-1.26,1a1.94,1.94,0,0,1-.92-.23Z"/><path class="cls-5" d="M126.23,183.88a5.08,5.08,0,0,1,.89-.07,1.43,1.43,0,0,1,1,.3,1,1,0,0,1,.32.75,1.07,1.07,0,0,1-.28.77,1.51,1.51,0,0,1-1.1.4,2.17,2.17,0,0,1-.38,0v1.44h-.46Zm.46,1.74a2.06,2.06,0,0,0,.39,0c.56,0,.9-.27.9-.77s-.33-.7-.85-.7a2.22,2.22,0,0,0-.44,0Z"/><path class="cls-5" d="M129.21,186.31l-.38,1.13h-.48l1.23-3.61h.56l1.23,3.61h-.5l-.38-1.13Zm1.18-.37-.35-1c-.08-.23-.14-.45-.19-.65h0c-.05.21-.11.43-.18.65l-.36,1Z"/><path class="cls-5" d="M134.34,187.32a2.19,2.19,0,0,1-1,.18,1.7,1.7,0,0,1-1.79-1.83,1.8,1.8,0,0,1,1.89-1.9,2,2,0,0,1,.86.16l-.12.38a1.73,1.73,0,0,0-.73-.15,1.34,1.34,0,0,0-1.4,1.49,1.31,1.31,0,0,0,1.38,1.45,1.84,1.84,0,0,0,.76-.14Z"/><path class="cls-5" d="M136.79,185.75h-1.4v1.3H137v.39h-2v-3.61h2v.39h-1.48v1.14h1.4Z"/><path class="cls-5" d="M137.55,183.88a4.84,4.84,0,0,1,.9-.07,1.47,1.47,0,0,1,1,.29.92.92,0,0,1,.29.69,1,1,0,0,1-.68.92h0a.92.92,0,0,1,.53.73,5.55,5.55,0,0,0,.27,1h-.48a4.39,4.39,0,0,1-.24-.86c-.11-.5-.3-.69-.72-.7H138v1.56h-.47Zm.47,1.64h.48c.49,0,.81-.27.81-.68s-.34-.67-.83-.68a1.8,1.8,0,0,0-.46.05Z"/><path class="cls-5" d="M111.14,190.3a4.75,4.75,0,0,1,.85-.07,1.49,1.49,0,0,1,1,.26.75.75,0,0,1,.3.64.86.86,0,0,1-.61.79h0a.94.94,0,0,1,.75.9,1,1,0,0,1-.31.73,1.82,1.82,0,0,1-1.25.34,5.31,5.31,0,0,1-.72-.05Zm.47,1.48H112c.49,0,.78-.26.78-.61s-.32-.59-.79-.59a1.53,1.53,0,0,0-.41,0Zm0,1.73a2.07,2.07,0,0,0,.39,0c.48,0,.92-.18.92-.7s-.42-.7-.93-.7h-.38Z"/><path class="cls-5" d="M115.91,192.17H114.5v1.3h1.57v.39h-2v-3.61H116v.39H114.5v1.14h1.41Z"/><path class="cls-5" d="M117.81,190.3a5.08,5.08,0,0,1,.89-.07,1.43,1.43,0,0,1,1,.3,1,1,0,0,1,.32.75,1.05,1.05,0,0,1-.28.77,1.51,1.51,0,0,1-1.1.4,2.17,2.17,0,0,1-.38,0v1.44h-.46Zm.46,1.74a2.06,2.06,0,0,0,.39,0c.56,0,.9-.27.9-.77s-.34-.7-.85-.7a2.22,2.22,0,0,0-.44,0Z"/><path class="cls-5" d="M120.65,190.25h.47v3.22h1.54v.39h-2Z"/><path class="cls-5" d="M123.76,192.73l-.37,1.13h-.49l1.23-3.61h.56l1.23,3.61h-.49l-.39-1.13Zm1.19-.37-.36-1c-.08-.23-.13-.45-.19-.65h0c0,.21-.11.43-.18.65l-.35,1Z"/><path class="cls-5" d="M128.89,193.75a2.39,2.39,0,0,1-.95.17,1.69,1.69,0,0,1-1.78-1.83,1.8,1.8,0,0,1,1.88-1.9,2,2,0,0,1,.86.16l-.11.38a1.81,1.81,0,0,0-.73-.15,1.35,1.35,0,0,0-1.41,1.49,1.32,1.32,0,0,0,1.39,1.46,1.9,1.9,0,0,0,.76-.15Z"/><path class="cls-5" d="M131.34,192.17h-1.4v1.3h1.56v.39h-2v-3.61h1.95v.39h-1.48v1.14h1.4Z"/><path class="cls-5" d="M132.11,190.3a7.08,7.08,0,0,1,1-.07,2,2,0,0,1,1.46.45,1.65,1.65,0,0,1,.51,1.29,1.93,1.93,0,0,1-.52,1.41,2.26,2.26,0,0,1-1.6.52,6.53,6.53,0,0,1-.84-.05Zm.46,3.19a3.09,3.09,0,0,0,.47,0,1.39,1.39,0,0,0,1.54-1.53,1.29,1.29,0,0,0-1.46-1.39,3.56,3.56,0,0,0-.55,0Z"/><path class="cls-5" d="M137.39,192.73l-.38,1.13h-.48l1.23-3.61h.56l1.23,3.61h-.5l-.38-1.13Zm1.18-.37-.35-1c-.08-.23-.14-.45-.19-.65h0c-.05.21-.11.43-.18.65l-.36,1Z"/><path class="cls-5" d="M140.35,190.65h-1.1v-.4h2.68v.4h-1.11v3.21h-.47Z"/><path class="cls-5" d="M114.22,198.44a1.69,1.69,0,0,1-1.67,1.9,1.66,1.66,0,0,1-1.63-1.83,1.72,1.72,0,0,1,1.68-1.9A1.64,1.64,0,0,1,114.22,198.44Zm-2.8.06c0,.77.42,1.46,1.16,1.46s1.15-.68,1.15-1.5-.37-1.47-1.15-1.47S111.42,197.71,111.42,198.5Z"/><path class="cls-5" d="M115.45,196.61a5.88,5.88,0,0,1-.5,1.27l-.3,0a6.45,6.45,0,0,0,.31-1.26Z"/><path class="cls-5" d="M119.18,200.17a2.45,2.45,0,0,1-1,.17,1.69,1.69,0,0,1-1.78-1.83,1.8,1.8,0,0,1,1.89-1.9,2,2,0,0,1,.85.16l-.11.39a1.65,1.65,0,0,0-.73-.15,1.34,1.34,0,0,0-1.41,1.48,1.32,1.32,0,0,0,1.39,1.46,1.9,1.9,0,0,0,.76-.15Z"/><path class="cls-5" d="M119.76,196.67h.46v3.22h1.55v.39h-2Z"/><path class="cls-5" d="M125.16,198.44a1.69,1.69,0,0,1-1.68,1.9,1.65,1.65,0,0,1-1.62-1.83,1.72,1.72,0,0,1,1.68-1.9A1.65,1.65,0,0,1,125.16,198.44Zm-2.8.06c0,.77.42,1.46,1.15,1.46s1.16-.68,1.16-1.5-.38-1.47-1.15-1.47S122.36,197.71,122.36,198.5Z"/><path class="cls-5" d="M128.28,200.17a2.39,2.39,0,0,1-1,.17,1.69,1.69,0,0,1-1.78-1.83,1.8,1.8,0,0,1,1.88-1.9,2,2,0,0,1,.86.16l-.11.39a1.65,1.65,0,0,0-.73-.15,1.34,1.34,0,0,0-1.41,1.48,1.32,1.32,0,0,0,1.39,1.46,1.9,1.9,0,0,0,.76-.15Z"/><path class="cls-5" d="M128.87,196.67h.46v1.74h0c.09-.14.19-.26.28-.38l1.1-1.36h.58l-1.3,1.54,1.4,2.07h-.55l-1.19-1.77-.34.4v1.37h-.46Z"/><path class="cls-5" d="M132.9,196.72a5.08,5.08,0,0,1,.89-.07,1.48,1.48,0,0,1,1,.3,1,1,0,0,1,.31.75,1,1,0,0,1-.28.77,1.44,1.44,0,0,1-1.1.4,2,2,0,0,1-.37,0v1.44h-.47Zm.47,1.74a2,2,0,0,0,.38,0c.56,0,.91-.27.91-.77s-.34-.7-.86-.7a2.1,2.1,0,0,0-.43,0Z"/><path class="cls-5" d="M138.83,198.44a1.69,1.69,0,0,1-1.68,1.9,1.65,1.65,0,0,1-1.62-1.83,1.72,1.72,0,0,1,1.68-1.9A1.65,1.65,0,0,1,138.83,198.44Zm-2.8.06c0,.77.42,1.46,1.15,1.46s1.16-.68,1.16-1.5S138,197,137.19,197,136,197.71,136,198.5Z"/><path class="cls-5" d="M139.37,199.72a1.73,1.73,0,0,0,.83.23c.48,0,.76-.25.76-.61s-.2-.53-.68-.72-1-.52-1-1a1,1,0,0,1,1.17-1,1.65,1.65,0,0,1,.8.18l-.13.38a1.5,1.5,0,0,0-.68-.17c-.5,0-.68.29-.68.54s.22.5.71.7.92.53.92,1.06-.41,1-1.26,1a1.94,1.94,0,0,1-.92-.23Z"/><path class="cls-5" d="M111.14,203.14a4.73,4.73,0,0,1,.89-.07,1.52,1.52,0,0,1,1,.29.91.91,0,0,1,.28.69,1,1,0,0,1-.68.92h0a.9.9,0,0,1,.53.73,6.23,6.23,0,0,0,.28,1H113a4.39,4.39,0,0,1-.24-.86c-.11-.5-.3-.68-.73-.7h-.43v1.56h-.47Zm.47,1.65h.47c.5,0,.82-.28.82-.69s-.34-.67-.83-.67a2,2,0,0,0-.46,0Z"/><path class="cls-5" d="M115.89,205h-1.41v1.3h1.57v.39h-2v-3.61h2v.39h-1.49v1.15h1.41Z"/><path class="cls-5" d="M116.59,206.14a1.69,1.69,0,0,0,.83.23c.48,0,.76-.25.76-.61s-.2-.53-.68-.72-1-.52-1-1a1,1,0,0,1,1.17-1,1.65,1.65,0,0,1,.8.18l-.13.38a1.51,1.51,0,0,0-.69-.17c-.49,0-.68.29-.68.54s.22.5.72.7.92.53.92,1.06-.41,1-1.26,1a1.83,1.83,0,0,1-.92-.23Z"/><path class="cls-5" d="M119.29,203.14a5.08,5.08,0,0,1,.89-.07,1.43,1.43,0,0,1,1,.3,1,1,0,0,1,.32.75,1.05,1.05,0,0,1-.28.77,1.46,1.46,0,0,1-1.1.4,2.17,2.17,0,0,1-.38,0v1.44h-.46Zm.46,1.74a2.13,2.13,0,0,0,.39,0c.56,0,.9-.27.9-.77s-.33-.7-.85-.7a2.22,2.22,0,0,0-.44,0Z"/><path class="cls-5" d="M124,205h-1.4v1.3h1.56v.39h-2v-3.61h2v.39H122.6v1.15H124Z"/><path class="cls-5" d="M127.29,206.59a2.43,2.43,0,0,1-1,.17,1.7,1.7,0,0,1-1.79-1.83,1.8,1.8,0,0,1,1.89-1.9,1.77,1.77,0,0,1,.85.17l-.11.38a1.65,1.65,0,0,0-.73-.15,1.34,1.34,0,0,0-1.41,1.48,1.32,1.32,0,0,0,1.39,1.46,1.87,1.87,0,0,0,.76-.15Z"/><path class="cls-5" d="M128.71,203.49h-1.1v-.4h2.67v.4h-1.1v3.21h-.47Z"/><path class="cls-5" d="M131.14,203.09v3.61h-.46v-3.61Z"/><path class="cls-5" d="M132.75,206.7l-1.18-3.61h.5l.57,1.78c.15.49.29.93.38,1.35h0c.1-.42.26-.87.42-1.34l.61-1.79h.49l-1.29,3.61Z"/><path class="cls-5" d="M136.81,205h-1.4v1.3H137v.39h-2v-3.61h1.95v.39h-1.48v1.15h1.4Z"/><path class="cls-5" d="M137.58,203.09H138v3.22h1.54v.39h-2Z"/><path class="cls-5" d="M140.45,206.7v-1.53l-1.14-2.08h.53l.51,1c.14.27.25.49.36.74h0c.1-.23.23-.47.37-.74l.52-1h.53l-1.21,2.08v1.53Z"/><path class="cls-5" d="M57.1,197a15.14,15.14,0,0,1,2.16-.16,4.52,4.52,0,0,1,3.19,1,3.62,3.62,0,0,1,1.11,2.82,4.14,4.14,0,0,1-1.14,3.06A4.79,4.79,0,0,1,59,204.82a16.2,16.2,0,0,1-1.85-.09Zm1,7a7.16,7.16,0,0,0,1,.06,3,3,0,0,0,3.36-3.34c0-1.86-1-3-3.19-3a5.56,5.56,0,0,0-1.19.11Z"/><path class="cls-5" d="M69,201.06H65.89v2.84H69.3v.85H64.88v-7.86h4.25v.85H65.89v2.48H69Z"/><path class="cls-5" d="M72.3,197.75H69.91v-.86h5.83v.86H73.33v7h-1Z"/><path class="cls-5" d="M77,202.28l-.82,2.47h-1l2.67-7.86H79l2.68,7.86H80.64l-.84-2.47Zm2.58-.8-.77-2.26c-.18-.51-.29-1-.41-1.44h0c-.12.47-.25.95-.4,1.43l-.77,2.27Z"/><path class="cls-5" d="M83.9,196.89v7.86h-1v-7.86Z"/><path class="cls-5" d="M85.67,196.89h1v7h3.36v.85H85.67Z"/><path class="cls-5" d="M93.89,204a4.24,4.24,0,0,0,.83,0,2.85,2.85,0,0,0,1.59-.73,3.35,3.35,0,0,0,1-2h0a2.25,2.25,0,0,1-1.79.82,2.2,2.2,0,0,1-2.24-2.33A2.6,2.6,0,0,1,95.84,197c1.55,0,2.51,1.26,2.51,3.2A4.81,4.81,0,0,1,97,203.8a3.77,3.77,0,0,1-2.2,1,4.85,4.85,0,0,1-1,.06Zm.37-4.37a1.46,1.46,0,0,0,1.46,1.61,1.7,1.7,0,0,0,1.5-.79.65.65,0,0,0,.09-.37c0-1.3-.48-2.29-1.55-2.29C94.88,197.82,94.26,198.59,94.26,199.66Z"/><path class="cls-5" d="M53.73,207.35a5.38,5.38,0,0,0-1,3.32,5.57,5.57,0,0,0,1,3.31h-.56a5.71,5.71,0,0,1,0-6.63Z"/><path class="cls-5" d="M59.13,210.58c0-.76-.09-1.68-.08-2.36h0c-.19.64-.42,1.32-.7,2.08l-1,2.66h-.54l-.89-2.61c-.26-.77-.48-1.48-.63-2.13h0c0,.68,0,1.6-.1,2.42L55,213h-.67l.38-5.48h.9l.94,2.65c.22.68.41,1.28.55,1.85h0c.14-.55.34-1.16.58-1.85l1-2.65h.9L60,213h-.69Z"/><path class="cls-5" d="M61.05,207.51h.71v2.64h0l.43-.58,1.68-2.06h.88l-2,2.33L64.92,213h-.84l-1.8-2.69-.52.6V213h-.71Z"/><path class="cls-5" d="M70.44,210.29c0,1.8-.67,2.79-1.84,2.79s-1.73-1-1.75-2.71.77-2.75,1.84-2.75S70.44,208.61,70.44,210.29Zm-2.87.08c0,1.38.42,2.16,1.07,2.16s1.09-.86,1.09-2.21-.34-2.15-1.08-2.15S67.57,208.93,67.57,210.37Z"/><path class="cls-5" d="M71.1,213v-.44l.56-.54c1.35-1.29,2-2,2-2.77a.94.94,0,0,0-1-1,1.75,1.75,0,0,0-1.12.45l-.23-.51a2.3,2.3,0,0,1,1.49-.53,1.49,1.49,0,0,1,1.62,1.53c0,1-.7,1.77-1.82,2.84l-.42.39v0h2.37V213Z"/><path class="cls-5" d="M76.41,211.27,75.84,213h-.73L77,207.51h.85L79.69,213h-.75l-.59-1.72Zm1.8-.56-.54-1.57c-.12-.36-.21-.69-.29-1h0c-.08.32-.17.66-.28,1l-.54,1.58Z"/><path class="cls-5" d="M86.91,210.19a2.57,2.57,0,0,1-2.55,2.89,2.51,2.51,0,0,1-2.46-2.78,2.6,2.6,0,0,1,2.54-2.88A2.5,2.5,0,0,1,86.91,210.19Zm-4.26.09c0,1.18.64,2.22,1.75,2.22s1.76-1,1.76-2.27c0-1.09-.57-2.23-1.75-2.23S82.65,209.08,82.65,210.28Z"/><path class="cls-5" d="M87.82,213v-5.48h.77l1.76,2.77a15.8,15.8,0,0,1,1,1.78h0c-.06-.74-.08-1.4-.08-2.26v-2.29h.67V213h-.72l-1.74-2.78a17,17,0,0,1-1-1.83h0c0,.69.06,1.35.06,2.26V213Z"/><path class="cls-5" d="M93.17,207.51h.71v4.89h2.34V213h-3Z"/><path class="cls-5" d="M97.55,213v-2.32l-1.74-3.16h.81l.77,1.51c.21.42.38.75.55,1.13h0c.16-.35.34-.71.56-1.13l.78-1.51h.81l-1.84,3.15V213Z"/><path class="cls-5" d="M100.72,214a5.52,5.52,0,0,0,1-3.33,5.34,5.34,0,0,0-1-3.3h.56a5.17,5.17,0,0,1,1.06,3.31,5.3,5.3,0,0,1-1.06,3.32Z"/><path class="cls-5" d="M59.72,215.54a5.17,5.17,0,0,0-1,3.2,5.29,5.29,0,0,0,1,3.19h-.54a5,5,0,0,1-1-3.19,5.14,5.14,0,0,1,1-3.2Z"/><path class="cls-5" d="M60.38,220.15a2.4,2.4,0,0,0,1.22.34c.7,0,1.11-.37,1.11-.9s-.28-.78-1-1.05-1.39-.75-1.39-1.5A1.52,1.52,0,0,1,62,215.61a2.35,2.35,0,0,1,1.17.26l-.19.55a2.17,2.17,0,0,0-1-.25c-.72,0-1,.43-1,.79s.32.74,1.05,1c.89.35,1.35.78,1.35,1.56s-.61,1.52-1.85,1.52a2.71,2.71,0,0,1-1.35-.34Z"/><path class="cls-5" d="M68,220.81a3.48,3.48,0,0,1-1.4.25A2.47,2.47,0,0,1,64,218.38a2.63,2.63,0,0,1,2.76-2.77,2.94,2.94,0,0,1,1.26.23l-.17.56a2.42,2.42,0,0,0-1.06-.22,2,2,0,0,0-2.07,2.18,1.93,1.93,0,0,0,2,2.13,2.82,2.82,0,0,0,1.12-.22Z"/><path class="cls-5" d="M69.78,219.32,69.24,221h-.71l1.8-5.29h.82L73,221h-.73l-.56-1.66Zm1.74-.54L71,217.26a8.88,8.88,0,0,1-.27-1h0c-.08.31-.17.63-.27.95l-.52,1.53Z"/><path class="cls-5" d="M73.73,215.69h.69v4.72h2.25V221H73.73Z"/><path class="cls-5" d="M80.17,218.5h-2v1.91h2.29V221h-3v-5.29h2.85v.58H78.12v1.67h2Z"/><path class="cls-5" d="M84.22,216.52h0l-.88.48-.14-.52,1.12-.6h.59V221h-.67Z"/><path class="cls-5" d="M86.8,217.81a.47.47,0,1,1,.46.49A.46.46,0,0,1,86.8,217.81Zm0,2.77a.47.47,0,1,1,.46.49A.46.46,0,0,1,86.8,220.58Z"/><path class="cls-5" d="M88.37,221v-.42l.54-.53c1.31-1.24,1.89-1.9,1.9-2.67a.91.91,0,0,0-1-1,1.7,1.7,0,0,0-1.08.43l-.22-.49a2.2,2.2,0,0,1,1.44-.51,1.43,1.43,0,0,1,1.56,1.48c0,.94-.68,1.7-1.75,2.73l-.41.38v0h2.29V221Z"/><path class="cls-5" d="M92.2,221.93a5.31,5.31,0,0,0,1-3.21,5.15,5.15,0,0,0-1-3.18h.54a5,5,0,0,1,1,3.19,5.11,5.11,0,0,1-1,3.2Z"/><path class="cls-5" d="M4.65,191.09H6.56v.39H5.11v1.17H6.45V193H5.11v1.6H4.65Z"/><path class="cls-5" d="M7.78,194.63l-.9-3.54h.49l.42,1.79c.1.44.2.89.26,1.23h0c.06-.36.17-.78.29-1.23l.47-1.79H9.3l.43,1.8c.1.42.19.84.25,1.21h0c.07-.39.17-.78.28-1.22l.47-1.79h.46l-1,3.54H9.72l-.44-1.84a9.08,9.08,0,0,1-.23-1.16H9c-.07.36-.15.7-.28,1.16l-.5,1.84Z"/><path class="cls-5" d="M13.32,193.52,13,194.63h-.48l1.2-3.54h.56l1.2,3.54H15l-.38-1.11Zm1.16-.36-.34-1c-.08-.23-.14-.44-.19-.64h0c0,.21-.11.42-.18.64l-.34,1Z"/><path class="cls-5" d="M16,191.09h.46v3.16h1.51v.38H16Z"/><path class="cls-5" d="M21.25,192.83a1.66,1.66,0,0,1-1.64,1.86,1.62,1.62,0,0,1-1.59-1.8A1.68,1.68,0,0,1,19.66,191,1.61,1.61,0,0,1,21.25,192.83Zm-2.74,0c0,.76.41,1.44,1.12,1.44s1.14-.67,1.14-1.47-.37-1.44-1.13-1.44S18.51,192.11,18.51,192.88Z"/><path class="cls-5" d="M21.84,194.63v-3.54h.5l1.13,1.79a11.65,11.65,0,0,1,.64,1.15h0c0-.47-.05-.9-.05-1.46v-1.48h.43v3.54H24l-1.12-1.79a11.87,11.87,0,0,1-.66-1.18h0c0,.45,0,.87,0,1.46v1.51Z"/><path class="cls-5" d="M28,194.47a3.09,3.09,0,0,1-1.09.2,1.66,1.66,0,0,1-1.81-1.79A1.77,1.77,0,0,1,27,191.06a2.34,2.34,0,0,1,.89.16l-.11.37a1.94,1.94,0,0,0-.79-.15,1.32,1.32,0,0,0-1.42,1.42,1.3,1.3,0,0,0,1.37,1.43,1.58,1.58,0,0,0,.61-.09v-1.06h-.72v-.37H28Z"/><path class="cls-5" d="M30.24,191.48H29.17v-.39h2.62v.39H30.7v3.15h-.46Z"/><path class="cls-5" d="M33,194.63l-.89-3.54h.48l.42,1.79c.1.44.2.89.26,1.23h0c.06-.36.17-.78.29-1.23l.47-1.79h.48l.43,1.8c.1.42.2.84.25,1.21h0c.07-.39.17-.78.28-1.22l.47-1.79h.47l-1,3.54h-.47l-.45-1.84a11.24,11.24,0,0,1-.23-1.16h0a10.35,10.35,0,0,1-.27,1.16l-.51,1.84Z"/><path class="cls-5" d="M39.84,192.83a1.66,1.66,0,0,1-1.64,1.86,1.63,1.63,0,0,1-1.59-1.8A1.68,1.68,0,0,1,38.25,191,1.61,1.61,0,0,1,39.84,192.83Zm-2.74,0c0,.76.41,1.44,1.13,1.44s1.13-.67,1.13-1.47-.37-1.44-1.13-1.44S37.1,192.11,37.1,192.88Z"/><path class="cls-5" d="M6.48,199.26H5.11v1.28H6.64v.38h-2v-3.54H6.56v.39H5.11v1.11H6.48Z"/><path class="cls-5" d="M7.23,197.43a6.89,6.89,0,0,1,1-.07,2,2,0,0,1,1.43.44,1.62,1.62,0,0,1,.5,1.27,1.81,1.81,0,0,1-.51,1.37,2.17,2.17,0,0,1-1.56.51,6.67,6.67,0,0,1-.83,0Zm.46,3.13a2.86,2.86,0,0,0,.46,0,1.37,1.37,0,0,0,1.51-1.51,1.27,1.27,0,0,0-1.44-1.36,2.3,2.3,0,0,0-.53.05Z"/><path class="cls-5" d="M13.42,200.76a3.15,3.15,0,0,1-1.09.2,1.67,1.67,0,0,1-1.82-1.79,1.78,1.78,0,0,1,1.92-1.82,2.24,2.24,0,0,1,.88.16l-.11.37a1.92,1.92,0,0,0-.78-.15A1.32,1.32,0,0,0,11,199.15a1.3,1.3,0,0,0,1.36,1.43,1.58,1.58,0,0,0,.61-.09v-1.06h-.72v-.37h1.17Z"/><path class="cls-5" d="M15.94,199.26H14.56v1.28H16.1v.38h-2v-3.54H16v.39H14.56v1.11h1.38Z"/><path class="cls-5" d="M16.62,200.37a1.72,1.72,0,0,0,.82.23c.47,0,.74-.25.74-.61s-.19-.52-.66-.7-.94-.5-.94-1a1,1,0,0,1,1.15-1,1.61,1.61,0,0,1,.78.17l-.13.37a1.41,1.41,0,0,0-.67-.17c-.48,0-.67.29-.67.53s.22.5.71.69.9.52.9,1-.4,1-1.24,1a1.89,1.89,0,0,1-.9-.22Z"/><path class="cls-5" d="M23.41,199.12A1.66,1.66,0,0,1,21.76,201a1.63,1.63,0,0,1-1.59-1.8,1.68,1.68,0,0,1,1.65-1.85A1.61,1.61,0,0,1,23.41,199.12Zm-2.75,0c0,.76.41,1.44,1.13,1.44s1.13-.67,1.13-1.47-.36-1.44-1.13-1.44S20.66,198.4,20.66,199.17Z"/><path class="cls-5" d="M24,200.92v-3.54h.5l1.14,1.79a11.41,11.41,0,0,1,.63,1.15h0c0-.47-.05-.9-.05-1.46v-1.48h.43v3.54h-.46l-1.13-1.79c-.24-.4-.48-.8-.66-1.18h0c0,.45,0,.87,0,1.46v1.51Z"/><path class="cls-5" d="M27.44,197.38h.46v3.16h1.51v.38h-2Z"/><path class="cls-5" d="M30.26,200.92v-1.5l-1.11-2h.52l.49,1c.14.27.25.48.36.73h0c.1-.23.22-.46.35-.73l.51-1h.52l-1.18,2v1.5Z"/><path class="cls-5" d="M76.13,126.4a1.72,1.72,0,0,0,.86.25.77.77,0,0,0,.88-.75c0-.55-.5-.78-1-.78h-.29v-.39h.29c.39,0,.87-.2.87-.66,0-.31-.2-.58-.68-.58a1.44,1.44,0,0,0-.78.25l-.13-.38a1.81,1.81,0,0,1,1-.3c.76,0,1.11.46,1.11.93a1,1,0,0,1-.72.91h0a1,1,0,0,1,.87,1c0,.62-.48,1.16-1.41,1.16a1.92,1.92,0,0,1-1-.26Z"/><path class="cls-5" d="M81.64,125c0,1.31-.49,2-1.35,2s-1.27-.71-1.28-2,.56-2,1.35-2S81.64,123.79,81.64,125Zm-2.1.06c0,1,.31,1.58.79,1.58s.79-.63.79-1.62-.25-1.58-.79-1.58S79.54,124,79.54,125.09Z"/><path class="cls-5" d="M50.33,156.65a1.69,1.69,0,0,0,.25-.86c0-.67-.43-.88-.76-.87-.54,0-.77.49-.77,1v.29h-.4v-.29c0-.38-.19-.87-.65-.87s-.59.2-.59.69a1.41,1.41,0,0,0,.26.77l-.38.14a1.84,1.84,0,0,1-.3-1c0-.76.45-1.11.93-1.11a1,1,0,0,1,.91.72h0a1,1,0,0,1,1-.86c.62,0,1.16.48,1.16,1.41a2.05,2.05,0,0,1-.26,1Z"/><path class="cls-5" d="M49,151.14c1.32,0,2,.49,2,1.35s-.71,1.27-2,1.28-2-.56-2-1.35S47.72,151.14,49,151.14Zm.06,2.11c1,0,1.58-.31,1.58-.79s-.62-.79-1.61-.79-1.58.24-1.58.78S48,153.25,49,153.25Z"/><path class="cls-5" d="M90.88,136a6,6,0,0,1,.73-.86,1.79,1.79,0,0,1,1.18-.66,1.1,1.1,0,0,1,.86.35,1.18,1.18,0,0,1,.21,1.42h0a1.12,1.12,0,0,1,1.11.18,7.6,7.6,0,0,0,1.12.63l-.42.42a6,6,0,0,1-1-.55c-.54-.34-.87-.34-1.26,0l-.39.39,1.39,1.38-.42.42Zm1.87,1,.42-.42a.9.9,0,0,0,.12-1.33c-.42-.41-.89-.29-1.34.14a3.48,3.48,0,0,0-.37.44Z"/><path class="cls-5" d="M94.65,133.14h0l-.25.83-.4-.24.32-1,.35-.36,3.08,3.08-.4.4Z"/><path class="cls-5" d="M98,129.74l-1.17,1.18.67.91a2.23,2.23,0,0,1,.23-.27,1.89,1.89,0,0,1,.83-.5,1.24,1.24,0,0,1,1.23.35,1.52,1.52,0,0,1-.09,2.2,2.32,2.32,0,0,1-1,.58l-.21-.43a1.92,1.92,0,0,0,.83-.48,1,1,0,0,0,.06-1.4c-.4-.39-1-.41-1.57.2a4.18,4.18,0,0,0-.39.46l-1.28-1.67,1.47-1.48Z"/><path class="cls-5" d="M14.19,121.48v-.29l.38-.37c.91-.87,1.32-1.33,1.33-1.87a.64.64,0,0,0-.71-.7,1.23,1.23,0,0,0-.76.31l-.15-.34a1.57,1.57,0,0,1,1-.37,1,1,0,0,1,1.09,1c0,.66-.48,1.19-1.23,1.92l-.28.26h1.6v.4Z"/><path class="cls-5" d="M19.38,119.66c0,1.21-.45,1.88-1.24,1.88S17,120.89,17,119.71s.51-1.86,1.24-1.86S19.38,118.52,19.38,119.66Zm-1.94.06c0,.92.28,1.45.72,1.45s.73-.58.73-1.49-.22-1.45-.72-1.45S17.44,118.74,17.44,119.72Z"/><path class="cls-5" d="M21.63,118.19H20.5v-.41h2.75v.41H22.11v3.29h-.48Z"/><path class="cls-5" d="M24.13,117.78v1.55h1.79v-1.55h.49v3.7h-.49v-1.73H24.13v1.73h-.47v-3.7Z"/><path class="cls-5" d="M27.23,117.78h.48v1.79h0a4.62,4.62,0,0,1,.29-.4l1.13-1.39h.59l-1.34,1.57,1.45,2.13h-.57l-1.22-1.81-.35.4v1.41h-.48Z"/><path class="cls-5" d="M34.49,119.86c0-.52-.06-1.14-.06-1.6h0c-.13.43-.28.9-.47,1.41l-.65,1.79h-.37l-.6-1.76c-.17-.52-.32-1-.42-1.44h0c0,.46,0,1.08-.08,1.64l-.09,1.58h-.46l.26-3.7h.61l.63,1.79c.15.46.28.87.37,1.25h0a12.22,12.22,0,0,1,.39-1.25l.66-1.79h.61l.23,3.7h-.47Z"/><path class="cls-5" d="M36.26,117.78v3.7h-.48v-3.7Z"/><path class="cls-5" d="M37.09,117.78h.48v3.3h1.58v.4H37.09Z"/><path class="cls-5" d="M39.68,117.83a7.42,7.42,0,0,1,1-.08,2.11,2.11,0,0,1,1.5.47,1.7,1.7,0,0,1,.52,1.33,1.93,1.93,0,0,1-.54,1.43,2.24,2.24,0,0,1-1.63.54,7,7,0,0,1-.87,0Zm.48,3.28a3.4,3.4,0,0,0,.48,0,1.43,1.43,0,0,0,1.58-1.57,1.33,1.33,0,0,0-1.5-1.43,3.26,3.26,0,0,0-.56.05Z"/><path class="cls-5" d="M14.29,127.49a1.74,1.74,0,0,0,.86.24c.49,0,.78-.26.78-.63s-.2-.55-.7-.74-1-.53-1-1a1.06,1.06,0,0,1,1.2-1,1.63,1.63,0,0,1,.82.18l-.14.39a1.39,1.39,0,0,0-.7-.18c-.5,0-.7.3-.7.56s.23.51.74.71,1,.54,1,1.09-.43,1.06-1.3,1.06a2,2,0,0,1-.95-.23Z"/><path class="cls-5" d="M17.77,124.77H16.64v-.4h2.74v.4H18.25v3.3h-.48Z"/><path class="cls-5" d="M21.71,126.33H20.27v1.34h1.6v.4H19.79v-3.7h2v.4H20.27v1.17h1.44Z"/><path class="cls-5" d="M24.41,126.33H23v1.34h1.6v.4H22.49v-3.7h2v.4H23v1.17h1.44Z"/><path class="cls-5" d="M25.19,124.37h.48v3.3h1.58v.4H25.19Z"/><path class="cls-5" d="M28.94,124.42a4.19,4.19,0,0,1,.88-.08,1.51,1.51,0,0,1,1,.27.75.75,0,0,1,.31.65.86.86,0,0,1-.63.81h0a1,1,0,0,1,.77.93,1,1,0,0,1-.31.74,1.85,1.85,0,0,1-1.28.35,6.3,6.3,0,0,1-.75,0Zm.48,1.51h.44c.5,0,.8-.26.8-.62s-.33-.6-.82-.6a1.92,1.92,0,0,0-.42,0Zm0,1.78.4,0c.5,0,.95-.18.95-.72s-.43-.72-.95-.72h-.4Z"/><path class="cls-5" d="M31.92,124.37h.47v3.3H34v.4H31.92Z"/><path class="cls-5" d="M37.46,126.18a1.74,1.74,0,0,1-1.72,1.95,1.7,1.7,0,0,1-1.67-1.88,1.75,1.75,0,0,1,1.72-1.94A1.69,1.69,0,0,1,37.46,126.18Zm-2.88.06c0,.79.43,1.5,1.18,1.5S37,127,37,126.2s-.38-1.5-1.18-1.5S34.58,125.43,34.58,126.24Z"/><path class="cls-5" d="M40.66,128a2.39,2.39,0,0,1-1,.17,1.73,1.73,0,0,1-1.83-1.87,1.84,1.84,0,0,1,1.94-1.94,2,2,0,0,1,.88.16l-.12.39a1.72,1.72,0,0,0-.75-.15,1.37,1.37,0,0,0-1.44,1.52,1.34,1.34,0,0,0,1.42,1.49,2,2,0,0,0,.78-.15Z"/><path class="cls-5" d="M41.25,124.37h.48v1.78h0l.29-.39,1.13-1.39h.59l-1.34,1.57,1.45,2.13H43.3l-1.22-1.82-.35.41v1.41h-.48Z"/><path class="cls-5" d="M27.15,85.36a13.45,13.45,0,0,1,2.05-.16,4.27,4.27,0,0,1,3,.94,3.43,3.43,0,0,1,1.06,2.69,4,4,0,0,1-1.08,2.91,4.6,4.6,0,0,1-3.31,1.07,14.38,14.38,0,0,1-1.75-.09Zm1,6.62a6.66,6.66,0,0,0,1,.06,2.88,2.88,0,0,0,3.19-3.18c0-1.77-1-2.89-3-2.89a5.26,5.26,0,0,0-1.13.1Z"/><path class="cls-5" d="M38.42,89.24H35.51v2.7h3.24v.81H34.54V85.26h4.05v.81H35.51v2.37h2.91Z"/><path class="cls-5" d="M41.61,86.08H39.33v-.82h5.54v.82H42.58v6.67h-1Z"/><path class="cls-5" d="M46.08,90.39l-.77,2.36h-1l2.54-7.49H48l2.55,7.49h-1l-.8-2.36Zm2.46-.75-.73-2.16c-.17-.49-.28-.93-.39-1.37h0c-.11.45-.23.9-.37,1.36l-.74,2.17Z"/><path class="cls-5" d="M52.64,85.26v7.49h-1V85.26Z"/><path class="cls-5" d="M54.33,85.26h1v6.68h3.2v.81H54.33Z"/><path class="cls-5" d="M63.7,86.44h0l-1.26.67-.19-.74,1.58-.84h.83v7.22H63.7Z"/><path class="cls-5" d="M29.85,95.88a5,5,0,0,0-1,3.11,5.12,5.12,0,0,0,1,3.09h-.53a4.9,4.9,0,0,1-1-3.09,5,5,0,0,1,1-3.11Z"/><path class="cls-5" d="M30.49,100.36a2.34,2.34,0,0,0,1.18.33c.68,0,1.08-.36,1.08-.87s-.28-.76-1-1c-.84-.3-1.35-.74-1.35-1.46A1.47,1.47,0,0,1,32.09,96a2.33,2.33,0,0,1,1.13.25l-.18.54a2.08,2.08,0,0,0-1-.24c-.7,0-1,.42-1,.77s.31.71,1,1,1.31.76,1.31,1.51-.59,1.48-1.8,1.48a2.55,2.55,0,0,1-1.31-.33Z"/><path class="cls-5" d="M37.92,101a3.3,3.3,0,0,1-1.35.24A2.4,2.4,0,0,1,34,98.64,2.55,2.55,0,0,1,36.71,96a2.65,2.65,0,0,1,1.22.23l-.16.54a2.44,2.44,0,0,0-1-.22,1.91,1.91,0,0,0-2,2.12,1.86,1.86,0,0,0,2,2.06,2.68,2.68,0,0,0,1.09-.21Z"/><path class="cls-5" d="M39.62,99.55l-.54,1.61H38.4L40.14,96h.8l1.75,5.13H42l-.54-1.61ZM41.3,99l-.5-1.48c-.12-.33-.19-.63-.27-.93h0c-.07.3-.15.61-.25.93L39.75,99Z"/><path class="cls-5" d="M43.45,96h.66v4.58h2.2v.55H43.45Z"/><path class="cls-5" d="M49.71,98.76h-2v1.85h2.22v.55H47.05V96h2.77v.56H47.71v1.62h2Z"/><path class="cls-5" d="M53.63,96.84h0l-.87.46-.12-.51,1.08-.58h.57v5h-.65Z"/><path class="cls-5" d="M56.14,98.09a.45.45,0,0,1,.46-.48.48.48,0,0,1,0,1A.45.45,0,0,1,56.14,98.09Zm0,2.69a.45.45,0,0,1,.46-.48.48.48,0,0,1,0,1A.45.45,0,0,1,56.14,100.78Z"/><path class="cls-5" d="M60.62,96.78H58.73l-.19,1.27a2.1,2.1,0,0,1,.4,0,2.05,2.05,0,0,1,1.07.27,1.4,1.4,0,0,1,.71,1.27,1.72,1.72,0,0,1-1.85,1.69,2.34,2.34,0,0,1-1.23-.31l.17-.51a2.22,2.22,0,0,0,1.06.28A1.09,1.09,0,0,0,60,99.63c0-.64-.44-1.09-1.43-1.09a5.62,5.62,0,0,0-.68,0l.32-2.38h2.37Z"/><path class="cls-5" d="M61.38,102.08a5.14,5.14,0,0,0,1-3.11,5,5,0,0,0-1-3.09h.52a4.83,4.83,0,0,1,1,3.1,4.89,4.89,0,0,1-1,3.1Z"/><path class="cls-5" d="M87,48.09a1.81,1.81,0,0,0-.39,0,1.54,1.54,0,0,0-1.3,1.34h0a1.14,1.14,0,0,1,2,.77,1.25,1.25,0,0,1-1.24,1.32c-.8,0-1.33-.62-1.33-1.59a2.35,2.35,0,0,1,.64-1.69,2,2,0,0,1,1.2-.56l.37,0Zm-.15,2.16a.76.76,0,0,0-.77-.86.84.84,0,0,0-.73.46.52.52,0,0,0-.06.23c0,.62.3,1.07.83,1.07S86.84,50.79,86.84,50.25Z"/><path class="cls-5" d="M88,49.45c0-.29,0-.53,0-.76h.45l0,.45h0a.94.94,0,0,1,.87-.51.84.84,0,0,1,.8.56h0a1,1,0,0,1,.31-.37,1,1,0,0,1,.62-.19c.36,0,.91.24.91,1.21v1.64h-.49V49.9c0-.54-.2-.86-.61-.86a.66.66,0,0,0-.6.46,1,1,0,0,0,0,.26v1.72h-.5V49.81c0-.45-.19-.77-.58-.77a.7.7,0,0,0-.63.51.66.66,0,0,0,0,.25v1.68H88Z"/><path class="cls-5" d="M92.78,49.45c0-.29,0-.53,0-.76h.44l0,.45h0a1,1,0,0,1,.88-.51.82.82,0,0,1,.79.56h0a1.29,1.29,0,0,1,.31-.37,1,1,0,0,1,.62-.19c.37,0,.91.24.91,1.21v1.64h-.49V49.9c0-.54-.2-.86-.61-.86a.67.67,0,0,0-.6.46,1,1,0,0,0,0,.26v1.72h-.49V49.81c0-.45-.2-.77-.59-.77a.7.7,0,0,0-.62.51.66.66,0,0,0,0,.25v1.68h-.5Z"/><path class="cls-5" d="M98.83,47.59h2.1V48h-1.6v1.29h1.47v.41H99.33v1.76h-.5Z"/><path class="cls-5" d="M102.14,47.59v3.89h-.5V47.59Z"/><path class="cls-5" d="M103,47.59h.5v3.47h1.66v.42H103Z"/><path class="cls-5" d="M105.75,47.59h.5v3.47h1.66v.42h-2.16Z"/><path class="cls-5" d="M110.48,49.66H109v1.4h1.68v.42h-2.18V47.59h2.1V48H109v1.22h1.51Z"/><path class="cls-5" d="M112.14,48H111v-.43h2.87V48h-1.18v3.46h-.51Z"/><path class="cls-5" d="M115.92,51.48l-1-3.89h.53l.46,2c.12.49.22,1,.29,1.34h0c.07-.38.19-.84.32-1.34l.52-2h.52l.48,2c.11.46.21.92.27,1.33h0c.08-.43.19-.86.31-1.34l.52-2h.51l-1.1,3.89h-.53l-.49-2a11.72,11.72,0,0,1-.25-1.27h0c-.07.38-.16.77-.3,1.27l-.56,2Z"/><path class="cls-5" d="M122.18,49.66h-1.51v1.4h1.68v.42h-2.19V47.59h2.1V48h-1.59v1.22h1.51Z"/><path class="cls-5" d="M123,47.59h.5v3.47h1.67v.42H123Z"/><path class="cls-5" d="M125.73,47.65a6.56,6.56,0,0,1,1.06-.09,2.23,2.23,0,0,1,1.58.49,1.82,1.82,0,0,1,.55,1.4,2.08,2.08,0,0,1-.56,1.51,2.43,2.43,0,0,1-1.72.56,7.64,7.64,0,0,1-.91-.05Zm.5,3.43a2.54,2.54,0,0,0,.51,0,1.49,1.49,0,0,0,1.65-1.65,1.39,1.39,0,0,0-1.57-1.5,2.67,2.67,0,0,0-.59.06Z"/><path class="cls-5" d="M85.65,57.18l-.4,1.23h-.52l1.32-3.89h.61L88,58.41h-.53L87,57.18Zm1.28-.39-.38-1.12c-.09-.25-.15-.48-.21-.71h0c0,.23-.12.47-.19.71l-.38,1.12Z"/><path class="cls-5" d="M88.56,54.52h.5V58h1.66v.43H88.56Z"/><path class="cls-5" d="M91.28,54.52h.5V58h1.66v.43H91.28Z"/><path class="cls-5" d="M95.23,54.57a5.3,5.3,0,0,1,1-.08,1.58,1.58,0,0,1,1.12.32,1,1,0,0,1,.31.73,1,1,0,0,1-.73,1h0a1,1,0,0,1,.57.79,5.76,5.76,0,0,0,.3,1.07h-.52a4.69,4.69,0,0,1-.26-.93c-.12-.54-.32-.74-.78-.76h-.47v1.69h-.5Zm.5,1.77h.51c.54,0,.88-.29.88-.74s-.37-.72-.9-.72a2.31,2.31,0,0,0-.49,0Z"/><path class="cls-5" d="M101.67,56.42a1.82,1.82,0,0,1-1.81,2,1.78,1.78,0,0,1-1.74-2,1.85,1.85,0,0,1,1.8-2A1.78,1.78,0,0,1,101.67,56.42Zm-3,.06c0,.84.45,1.58,1.24,1.58s1.25-.73,1.25-1.62-.4-1.58-1.24-1.58S98.65,55.63,98.65,56.48Z"/><path class="cls-5" d="M102.83,54.52v2.3c0,.87.38,1.24.9,1.24s1-.38,1-1.24v-2.3h.5v2.27c0,1.19-.62,1.68-1.47,1.68s-1.39-.46-1.39-1.66V54.52Z"/><path class="cls-5" d="M106.06,58.41V54.52h.54l1.25,2a11.94,11.94,0,0,1,.7,1.27h0a16,16,0,0,1-.06-1.6V54.52H109v3.89h-.5l-1.24-2a11.2,11.2,0,0,1-.72-1.29h0c0,.49,0,1,0,1.6v1.67Z"/><path class="cls-5" d="M109.85,54.57a6.77,6.77,0,0,1,1.07-.08,2.29,2.29,0,0,1,1.58.48,1.82,1.82,0,0,1,.54,1.4,2,2,0,0,1-.56,1.51,2.4,2.4,0,0,1-1.72.56,7.9,7.9,0,0,1-.91,0Zm.51,3.44a3.43,3.43,0,0,0,.5,0,1.49,1.49,0,0,0,1.66-1.65,1.39,1.39,0,0,0-1.58-1.5,2.69,2.69,0,0,0-.58,0Z"/><path class="cls-5" d="M0,3.73V3.44l.37-.37c.91-.86,1.32-1.32,1.32-1.85A.63.63,0,0,0,1,.53a1.18,1.18,0,0,0-.75.3L.1.49a1.57,1.57,0,0,1,1-.36,1,1,0,0,1,1.08,1c0,.65-.47,1.18-1.22,1.9l-.28.26H2.28v.4Z"/><path class="cls-5" d="M5.16,1.92c0,1.21-.45,1.87-1.23,1.87S2.77,3.14,2.76,2,3.27.13,4,.13,5.16.8,5.16,1.92ZM3.24,2c0,.92.28,1.44.72,1.44s.72-.57.72-1.48S4.46.5,4,.5,3.24,1,3.24,2Z"/><path class="cls-5" d="M5.75,1.81c0-.27,0-.5,0-.72h.42l0,.43h0A.9.9,0,0,1,7,1a.76.76,0,0,1,.74.52h0a1.11,1.11,0,0,1,.3-.34A.89.89,0,0,1,8.65,1c.35,0,.87.22.87,1.14V3.73H9.05V2.24c0-.51-.19-.81-.57-.81a.62.62,0,0,0-.57.43.93.93,0,0,0,0,.24V3.73H7.4V2.15c0-.42-.18-.72-.55-.72a.64.64,0,0,0-.59.48.59.59,0,0,0,0,.23V3.73H5.75Z"/><path class="cls-5" d="M10.29,1.81c0-.27,0-.5,0-.72h.42l0,.43h0A.89.89,0,0,1,11.55,1a.77.77,0,0,1,.75.52h0a1.11,1.11,0,0,1,.3-.34A.87.87,0,0,1,13.19,1c.35,0,.86.22.86,1.14V3.73h-.46V2.24c0-.51-.19-.81-.58-.81a.61.61,0,0,0-.56.43.93.93,0,0,0,0,.24V3.73h-.47V2.15c0-.42-.18-.72-.55-.72a.64.64,0,0,0-.59.48.59.59,0,0,0,0,.23V3.73h-.47Z"/><path class="cls-5" d="M16.47.46H15.36V.06h2.71v.4H17V3.73h-.48Z"/><path class="cls-5" d="M19,.06V1.6h1.78V.06h.48V3.73h-.48V2H19V3.73h-.47V.06Z"/><path class="cls-5" d="M22.5.06V3.73H22V.06Z"/><path class="cls-5" d="M25.89,3.61a2.26,2.26,0,0,1-1,.18,1.72,1.72,0,0,1-1.81-1.86A1.83,1.83,0,0,1,25,0a2.07,2.07,0,0,1,.87.16l-.11.39A1.72,1.72,0,0,0,25,.4a1.36,1.36,0,0,0-1.43,1.51A1.34,1.34,0,0,0,25,3.39a2,2,0,0,0,.78-.15Z"/><path class="cls-5" d="M26.48.06H27V1.83h0l.29-.39L28.39.06H29L27.64,1.62l1.44,2.11h-.56l-1.21-1.8-.35.4v1.4h-.48Z"/><path class="cls-5" d="M.12,9.68A1.67,1.67,0,0,0,1,9.92c.49,0,.77-.25.77-.62s-.2-.54-.69-.73-1-.53-1-1a1,1,0,0,1,1.18-1,1.74,1.74,0,0,1,.82.18L2,7.1a1.42,1.42,0,0,0-.7-.18c-.5,0-.69.3-.69.55s.22.51.73.71.93.54.93,1.08S1.8,10.32.94,10.32A1.91,1.91,0,0,1,0,10.08Z"/><path class="cls-5" d="M3.57,7H2.45v-.4H5.17V7H4v3.27H3.57Z"/><path class="cls-5" d="M7.47,8.54H6.05V9.86H7.64v.4H5.57V6.59h2V7H6.05V8.15H7.47Z"/><path class="cls-5" d="M10.15,8.54H8.72V9.86h1.59v.4H8.25V6.59h2V7H8.72V8.15h1.43Z"/><path class="cls-5" d="M10.93,6.59h.47V9.86H13v.4h-2Z"/><path class="cls-5" d="M14.65,6.59h.47V9.86h1.57v.4h-2Z"/><path class="cls-5" d="M17.69,6.59v3.67h-.47V6.59Z"/><path class="cls-5" d="M18.52,10.26V6.59H19l1.17,1.86a9.75,9.75,0,0,1,.66,1.19h0c0-.49-.05-.93-.05-1.5V6.59h.44v3.67h-.48L19.63,8.4a11.81,11.81,0,0,1-.69-1.23h0c0,.46,0,.9,0,1.51v1.57Z"/><path class="cls-5" d="M24,8.54H22.57V9.86h1.59v.4H22.1V6.59h2V7H22.57V8.15H24Z"/><path class="cls-5" d="M24.78,6.64a4.7,4.7,0,0,1,.9-.08,1.55,1.55,0,0,1,1.07.3,1,1,0,0,1,.29.7,1,1,0,0,1-.7.94h0a.89.89,0,0,1,.54.74,5.16,5.16,0,0,0,.29,1h-.49a5.08,5.08,0,0,1-.25-.88c-.11-.5-.3-.69-.73-.71h-.45v1.59h-.47Zm.47,1.67h.48c.51,0,.83-.28.83-.7s-.34-.68-.84-.68a2.15,2.15,0,0,0-.47,0Z"/><path class="cls-5" d="M77.94,75.28l.34-.48a2,2,0,0,1-.49-1.38,1.76,1.76,0,0,1,1.72-1.94,1.6,1.6,0,0,1,.93.29l.32-.45.3.2-.35.48a2,2,0,0,1,.49,1.37,1.74,1.74,0,0,1-1.7,1.95,1.55,1.55,0,0,1-.94-.3l-.35.48Zm2.26-3.16a1.06,1.06,0,0,0-.7-.26c-.81,0-1.22.75-1.22,1.53a1.82,1.82,0,0,0,.28,1h0Zm-1.4,2.55a1,1,0,0,0,.69.26c.78,0,1.21-.71,1.21-1.55a1.74,1.74,0,0,0-.26-1h0Z"/><path class="cls-5" d="M81.64,75.26V75l.39-.37c.91-.87,1.33-1.34,1.33-1.88a.64.64,0,0,0-.71-.7,1.18,1.18,0,0,0-.76.31L81.73,72a1.57,1.57,0,0,1,1-.36,1,1,0,0,1,1.1,1c0,.67-.48,1.2-1.24,1.93l-.29.27h1.62v.4Z"/><path class="cls-5" d="M86.62,72.08H85.25l-.14.92.29,0a1.55,1.55,0,0,1,.78.19,1,1,0,0,1,.51.92,1.25,1.25,0,0,1-1.34,1.23,1.75,1.75,0,0,1-.89-.22l.12-.37a1.59,1.59,0,0,0,.77.2.79.79,0,0,0,.85-.78c0-.46-.32-.8-1-.8-.21,0-.37,0-.5,0l.23-1.72h1.72Z"/><path class="cls-5" d="M89.13,71.54v1.55h1.8V71.54h.48v3.72h-.48V73.51h-1.8v1.75h-.48V71.54Z"/><path class="cls-5" d="M92.85,74.09l-.39,1.17H92l1.27-3.72h.58l1.27,3.72h-.52l-.39-1.17Zm1.22-.38-.37-1.07c-.08-.24-.14-.46-.19-.68h0c-.06.22-.12.45-.19.68L93,73.71Z"/><path class="cls-5" d="M95.62,75.26V71.54h.53l1.19,1.88A10.89,10.89,0,0,1,98,74.63h0A14.59,14.59,0,0,1,98,73.09V71.54h.46v3.72h-.49l-1.18-1.89a12.06,12.06,0,0,1-.7-1.24h0c0,.47,0,.92,0,1.54v1.59Z"/><path class="cls-5" d="M99.25,71.59a6.12,6.12,0,0,1,1-.08,2.15,2.15,0,0,1,1.51.46,1.74,1.74,0,0,1,.53,1.34,2,2,0,0,1-.54,1.45,2.32,2.32,0,0,1-1.64.53,7.45,7.45,0,0,1-.88,0Zm.48,3.29a3.28,3.28,0,0,0,.49,0,1.43,1.43,0,0,0,1.58-1.58,1.32,1.32,0,0,0-1.5-1.44,2.65,2.65,0,0,0-.57,0Z"/><path class="cls-5" d="M102.93,71.59a4.92,4.92,0,0,1,.92-.08,1.55,1.55,0,0,1,1.08.3,1,1,0,0,1,.29.71,1,1,0,0,1-.7,1v0a.91.91,0,0,1,.54.75,6.24,6.24,0,0,0,.29,1h-.5a5,5,0,0,1-.24-.89c-.11-.51-.31-.71-.75-.72h-.45v1.61h-.48Zm.48,1.69h.49c.51,0,.84-.28.84-.7s-.35-.7-.86-.7a2.08,2.08,0,0,0-.47,0Z"/><path class="cls-5" d="M106.52,74.09l-.38,1.17h-.5l1.27-3.72h.58l1.27,3.72h-.52l-.4-1.17Zm1.23-.38-.37-1.07c-.08-.24-.14-.46-.19-.68h0c-.06.22-.12.45-.19.68l-.37,1.07Z"/><path class="cls-5" d="M109.78,71.54v3.72h-.48V71.54Z"/><path class="cls-5" d="M110.62,71.54h.48v3.32h1.59v.4h-2.07Z"/><path class="cls-5" d="M53.62,22.17h0l-.72.39-.11-.42.9-.49h.48v4.12h-.54Z"/><path class="cls-5" d="M58.33,21.65V22l-1.79,3.75H56l1.79-3.64h-2v-.47Z"/><path class="cls-5" d="M61.36,22.12H59.79l-.16,1.06.34,0a1.78,1.78,0,0,1,.89.22,1.17,1.17,0,0,1,.58,1.05,1.43,1.43,0,0,1-1.53,1.41,2,2,0,0,1-1-.25l.14-.43a1.83,1.83,0,0,0,.88.23.91.91,0,0,0,1-.89c0-.53-.36-.91-1.18-.91a4.1,4.1,0,0,0-.57,0l.26-2h2Z"/><path class="cls-5" d="M18,44v1.57l1.06.15a2.63,2.63,0,0,1,0-.33,1.75,1.75,0,0,1,.22-.89,1.18,1.18,0,0,1,1.06-.59,1.43,1.43,0,0,1,1.4,1.54,2,2,0,0,1-.25,1L21,46.33a1.83,1.83,0,0,0,.23-.88.91.91,0,0,0-.89-1c-.53,0-.91.36-.91,1.18a4.1,4.1,0,0,0,0,.57l-2-.27V44Z"/><path class="cls-5" d="M19.52,40.47c1.4,0,2.17.52,2.17,1.43s-.75,1.35-2.11,1.36-2.14-.59-2.14-1.43S18.21,40.47,19.52,40.47Zm.06,2.23c1.07,0,1.68-.32,1.68-.83S20.59,41,19.54,41s-1.67.26-1.67.83S18.46,42.7,19.58,42.7Z"/><path class="cls-5" d="M21,57.22h-.34l-.42-.44c-1-1.05-1.54-1.53-2.16-1.53a.73.73,0,0,0-.8.81,1.4,1.4,0,0,0,.35.88l-.4.17A1.79,1.79,0,0,1,16.84,56,1.16,1.16,0,0,1,18,54.69c.76,0,1.38.55,2.21,1.42l.31.33h0V54.59H21Z"/><path class="cls-5" d="M17.38,51.51v1.57l1.05.16a2.82,2.82,0,0,1,0-.34,1.74,1.74,0,0,1,.22-.88,1.16,1.16,0,0,1,1.06-.59A1.43,1.43,0,0,1,21.09,53a2,2,0,0,1-.25,1l-.42-.14a1.88,1.88,0,0,0,.22-.88.91.91,0,0,0-.89-1c-.53,0-.91.36-.91,1.19a4.35,4.35,0,0,0,0,.57l-2-.27v-2Z"/></g></g></svg>