<svg xmlns="http://www.w3.org/2000/svg" viewBox="0 0 174.59 173.48"><defs><style>.cls-1,.cls-2,.cls-3{fill:none;stroke-linejoin:round;}.cls-1,.cls-2,.cls-3,.cls-4{stroke:#142026;stroke-linecap:round;}.cls-1{stroke-width:0.48px;}.cls-2,.cls-4{stroke-width:0.12px;}.cls-3{stroke-width:0.36px;}.cls-4,.cls-5{fill:#142026;}.cls-4{stroke-miterlimit:7.5;}</style></defs><g id="Layer_2" data-name="Layer 2"><g id="Layer_1-2" data-name="Layer 1"><path class="cls-1" d="M98,24.26h57.89"/><path class="cls-1" d="M98,26.66h11.65"/><path class="cls-1" d="M113.62,26.66h11.3"/><path class="cls-1" d="M128.88,26.66H140.3"/><path class="cls-1" d="M144.26,26.66h11.65"/><path class="cls-1" d="M98,64.51h11.65"/><path class="cls-1" d="M113.62,64.51h11.3"/><path class="cls-1" d="M128.88,64.51H140.3"/><path class="cls-1" d="M144.26,64.51h11.65"/><path class="cls-1" d="M98,66.79h57.89"/><path class="cls-1" d="M127.8,26.66v4.57"/><path class="cls-1" d="M127.8,33.27v5.65"/><path class="cls-1" d="M127.8,41v4.57h-1.68V41"/><path class="cls-1" d="M126.12,38.92V33.27"/><path class="cls-1" d="M126.12,31.23V26.66"/><path class="cls-2" d="M117.71,24.26V37.12"/><path class="cls-2" d="M117.71,37.12h1.68"/><path class="cls-2" d="M119.39,37.12V24.26"/><path class="cls-2" d="M136.21,24.26V37.12"/><path class="cls-2" d="M136.21,37.12h-1.8"/><path class="cls-2" d="M134.41,37.12V24.26"/><path class="cls-2" d="M116.39,21.49h21.14"/><path class="cls-2" d="M137.53,24.26H116.39V21.49"/><path class="cls-2" d="M137.53,21.49v2.77"/><path class="cls-1" d="M127.8,108V66.79h-1.68V108h1.68"/><path class="cls-1" d="M125,21.49v2.77"/><path class="cls-1" d="M128.76,21.49v2.77"/><path class="cls-2" d="M127,112.94V17.77"/><path class="cls-2" d="M128.64,45.53V15.73"/><path class="cls-2" d="M125.28,45.53V8.28"/><path class="cls-2" d="M125.28,45.53h1.08"/><path class="cls-2" d="M127.44,45.53h1.2"/><path class="cls-2" d="M127,24.86h3.13v-.6h-6.25v.6H127"/><path class="cls-2" d="M128.52,25.34a2.72,2.72,0,0,0-3,0"/><path class="cls-2" d="M125.52,25.34a.75.75,0,0,0-.72-.48.91.91,0,0,0-.84.48"/><path class="cls-2" d="M124,25.34v1.8"/><path class="cls-2" d="M124,27.14a1.09,1.09,0,0,0,.84.36.86.86,0,0,0,.72-.36"/><path class="cls-2" d="M125.52,27.14a2.72,2.72,0,0,0,3,0"/><path class="cls-2" d="M128.4,27.14a1.09,1.09,0,0,0,.84.36.87.87,0,0,0,.73-.36"/><path class="cls-2" d="M129.85,27.14v-1.8"/><path class="cls-2" d="M130,25.34a.76.76,0,0,0-.73-.48.91.91,0,0,0-.84.48"/><path class="cls-2" d="M128.4,25.34v1.8"/><path class="cls-2" d="M125.4,25.34v1.8"/><path class="cls-2" d="M129.12,27.5h-4.44"/><path class="cls-2" d="M128.52,28a2.72,2.72,0,0,0-3,0"/><path class="cls-2" d="M125.52,28a1,1,0,0,0-.72-.48A1.21,1.21,0,0,0,124,28"/><path class="cls-2" d="M124,28v1.81"/><path class="cls-2" d="M124,29.79a.91.91,0,0,0,.84.48.75.75,0,0,0,.72-.48"/><path class="cls-2" d="M125.52,29.79a2.72,2.72,0,0,0,3,0"/><path class="cls-2" d="M128.4,29.79a.91.91,0,0,0,.84.48.76.76,0,0,0,.73-.48"/><path class="cls-2" d="M129.85,29.79V28"/><path class="cls-2" d="M130,28a1,1,0,0,0-.73-.48,1.21,1.21,0,0,0-.84.48"/><path class="cls-2" d="M128.4,28v1.81"/><path class="cls-2" d="M125.4,28v1.81"/><path class="cls-2" d="M129.12,30.27h-4.44"/><path class="cls-1" d="M5.53,77.13V80"/><path class="cls-1" d="M9.25,77.13V80"/><path class="cls-1" d="M42.88,163.65H41.44V122.56H55.73v-1.93l-.24-.36-.24-.12H44.92l-.71-.12-.61-.24-.48-.48-.24-.6-.12-.72V84.46l.12-.59.24-.61.48-.48.61-.36.71-.13H55.25l.24-.11.24-.24V80H41.44v42.54"/><path class="cls-1" d="M42.76,101.29H68.59"/><path class="cls-1" d="M55.73,80H88.28"/><path class="cls-1" d="M95.49,77.62a135,135,0,0,0-50.44,91.44"/><path class="cls-1" d="M93.81,75.33a138,138,0,0,0-51.53,93.73"/><path class="cls-1" d="M5.65,56.7V80"/><path class="cls-1" d="M9,59.35V80"/><path class="cls-2" d="M9,90.47v-.72"/><path class="cls-2" d="M9,89.51v-1"/><path class="cls-2" d="M9,88.19v-1"/><path class="cls-2" d="M9,86.87v-1"/><path class="cls-2" d="M9,85.54v-1"/><path class="cls-2" d="M9,84.22v-1"/><path class="cls-2" d="M9,82.9v-.61"/><path class="cls-2" d="M10.45,82.9v-.61h-1"/><path class="cls-2" d="M9.13,82.29h-1"/><path class="cls-2" d="M7.81,82.29h-1"/><path class="cls-2" d="M6.49,82.29h-1"/><path class="cls-2" d="M5.29,82.29H4.21v.61h.72"/><path class="cls-2" d="M5.29,82.9h1"/><path class="cls-2" d="M6.61,82.9H8.05"/><path class="cls-2" d="M8.41,82.9h1"/><path class="cls-2" d="M9.73,82.9h.72"/><path class="cls-2" d="M8.89,83.38l-.6-.24"/><path class="cls-2" d="M8.05,83l-.72-.13H7.09"/><path class="cls-2" d="M6.73,83H6.61l-.72.35v-.12"/><path class="cls-2" d="M5.65,83H5.53l-.36-.13L4.69,83"/><path class="cls-2" d="M4.45,83.26v1"/><path class="cls-2" d="M4.45,84.46v.73l.24.23"/><path class="cls-2" d="M4.93,85.54h.6l.24-.24"/><path class="cls-2" d="M6,85.19l.6.35H7"/><path class="cls-2" d="M7.33,85.54h.84v-.12"/><path class="cls-2" d="M8.53,85.3l.36-.11.24.35h.24"/><path class="cls-2" d="M9.61,85.54H10l.36-.35v-.13"/><path class="cls-2" d="M10.33,84.7v-1"/><path class="cls-2" d="M10.33,83.38,10,83l-.36-.13H9.49"/><path class="cls-2" d="M9.25,83H9.13l-.24.35"/><path class="cls-2" d="M8.89,83.38v.72"/><path class="cls-2" d="M8.89,84.46v.73"/><path class="cls-2" d="M5.89,83.38v.72"/><path class="cls-2" d="M5.89,84.46v.73"/><path class="cls-2" d="M9.61,85.54H8.77"/><path class="cls-2" d="M8.53,85.54h-1"/><path class="cls-2" d="M7.21,85.54h-1"/><path class="cls-2" d="M5.89,85.54H5.17"/><path class="cls-2" d="M8.89,86l-.72-.25"/><path class="cls-2" d="M7.81,85.67l-.48-.13-.48.13"/><path class="cls-2" d="M6.61,85.78,5.89,86"/><path class="cls-2" d="M5.89,86l-.36-.36H5.29"/><path class="cls-2" d="M4.93,85.67H4.69L4.45,86"/><path class="cls-2" d="M4.45,86v1.8"/><path class="cls-2" d="M4.45,87.83a.82.82,0,0,0,.72.47,1,1,0,0,0,.72-.47"/><path class="cls-2" d="M5.89,87.83l.72.36"/><path class="cls-2" d="M6.85,88.19l.48.11.48-.11"/><path class="cls-2" d="M8.17,88.19l.72-.36"/><path class="cls-2" d="M8.89,87.83l.24.36.24.11"/><path class="cls-2" d="M9.73,88.3l.24-.11.36-.36"/><path class="cls-2" d="M10.33,87.83V87.1"/><path class="cls-2" d="M10.33,86.74V86"/><path class="cls-2" d="M10.33,86,10,85.67H9.73"/><path class="cls-2" d="M9.37,85.67H9.13L8.89,86"/><path class="cls-2" d="M8.89,86v.71"/><path class="cls-2" d="M8.89,87.1v.73"/><path class="cls-2" d="M5.89,86v.71"/><path class="cls-2" d="M5.89,87.1v.73"/><path class="cls-2" d="M9.61,88.3H8.77"/><path class="cls-2" d="M8.41,88.3h-1"/><path class="cls-2" d="M7.09,88.3H6.25"/><path class="cls-1" d="M9,90.47v11.66H5.65V88.3"/><path class="cls-2" d="M41.44,80h-27"/><path class="cls-3" d="M40.12,81.82l.36-.37"/><path class="cls-3" d="M40.12,83l1.32-1.45"/><path class="cls-3" d="M40.12,84.35l1.32-1.45"/><path class="cls-3" d="M40.12,85.54l1.32-1.44"/><path class="cls-3" d="M40.12,86.87l1.32-1.45"/><path class="cls-3" d="M40.12,88.06l1.32-1.44"/><path class="cls-3" d="M40.12,89.39l1.32-1.45"/><path class="cls-3" d="M40.12,90.59l1.32-1.44"/><path class="cls-3" d="M40.12,91.79l1.32-1.32"/><path class="cls-3" d="M40.12,93.11l1.32-1.44"/><path class="cls-3" d="M40.12,94.32l1.32-1.45"/><path class="cls-3" d="M40.12,95.64l1.32-1.44"/><path class="cls-3" d="M40.12,96.84l1.32-1.44"/><path class="cls-3" d="M40.12,98.16l1.32-1.44"/><path class="cls-3" d="M40.12,99.37l1.32-1.45"/><path class="cls-3" d="M40.12,100.57l1.32-1.32"/><path class="cls-3" d="M40.12,101.89l1.32-1.44"/><path class="cls-3" d="M40.12,103.09l1.32-1.32"/><path class="cls-3" d="M40.12,104.41,41.44,103"/><path class="cls-3" d="M40.12,105.62l1.32-1.45"/><path class="cls-3" d="M40.12,106.94l1.32-1.45"/><path class="cls-3" d="M40.12,108.13l1.32-1.44"/><path class="cls-3" d="M40.12,109.45,41.44,108"/><path class="cls-3" d="M40.12,110.66l1.32-1.45"/><path class="cls-3" d="M40.12,111.86l1.32-1.44"/><path class="cls-3" d="M40.12,113.06l1.32-1.32"/><path class="cls-3" d="M40.12,114.38l1.32-1.44"/><path class="cls-3" d="M40.12,115.59l1.32-1.45"/><path class="cls-3" d="M40.12,116.91l1.32-1.44"/><path class="cls-3" d="M40.12,118.11l1.32-1.44"/><path class="cls-3" d="M40.12,119.43,41.44,118"/><path class="cls-3" d="M40.12,120.63l1.32-1.44"/><path class="cls-3" d="M40.12,121.84l1.32-1.33"/><path class="cls-3" d="M40.72,122.56l.72-.84"/><path class="cls-2" d="M41.44,122.56h-27"/><path class="cls-4" d="M51.29,78.58V80h1.44Z"/><path class="cls-3" d="M51.29,78.58V80h1.44l-1.44-1.44"/><path class="cls-1" d="M14.42,122.56H.24v-1.93l.12-.36.36-.12H11.05l.6-.12.61-.24.48-.48.36-.6.11-.72V84.46l-.11-.59-.36-.61-.48-.48-.61-.36-.6-.13H.72l-.36-.11-.12-.24V80H14.42v42.54"/><path class="cls-1" d="M13.21,94.44V82.29H1.08L13.21,94.44"/><path class="cls-1" d="M.24,80H51.29V77.13H.24V80"/><path class="cls-3" d="M14.42,82.42l1.07-1"/><path class="cls-3" d="M14.42,83.62l1.43-1.44"/><path class="cls-3" d="M14.42,84.94l1.43-1.43"/><path class="cls-3" d="M14.42,86.14l1.43-1.44"/><path class="cls-3" d="M14.42,87.46,15.85,86"/><path class="cls-3" d="M14.42,88.67l1.43-1.45"/><path class="cls-3" d="M14.42,89.87l1.43-1.32"/><path class="cls-3" d="M14.42,91.19l1.43-1.44"/><path class="cls-3" d="M14.42,92.39l1.43-1.32"/><path class="cls-3" d="M14.42,93.71l1.43-1.44"/><path class="cls-3" d="M14.42,94.92l1.43-1.45"/><path class="cls-3" d="M14.42,96.24l1.43-1.44"/><path class="cls-3" d="M14.42,97.44,15.85,96"/><path class="cls-3" d="M14.42,98.76l1.43-1.44"/><path class="cls-3" d="M14.42,100l1.43-1.45"/><path class="cls-3" d="M14.42,101.17l1.43-1.32"/><path class="cls-3" d="M14.42,102.49,15.85,101"/><path class="cls-3" d="M14.42,103.69l1.43-1.32"/><path class="cls-3" d="M14.42,105l1.43-1.44"/><path class="cls-3" d="M14.42,106.21l1.43-1.43"/><path class="cls-3" d="M14.42,107.53l1.43-1.43"/><path class="cls-3" d="M14.42,108.73l1.43-1.44"/><path class="cls-3" d="M14.42,110.06l1.43-1.44"/><path class="cls-3" d="M14.42,111.26l1.43-1.45"/><path class="cls-3" d="M14.42,112.46,15.85,111"/><path class="cls-3" d="M14.42,113.66l1.43-1.32"/><path class="cls-3" d="M14.42,115l1.43-1.44"/><path class="cls-3" d="M14.42,116.19l1.43-1.45"/><path class="cls-3" d="M14.42,117.51l1.43-1.44"/><path class="cls-3" d="M14.42,118.71l1.43-1.44"/><path class="cls-3" d="M14.42,120l1.43-1.44"/><path class="cls-3" d="M14.42,121.24l1.43-1.45"/><path class="cls-3" d="M14.42,122.44l1.43-1.32"/><path class="cls-3" d="M15.74,122.56l.11-.24"/><path class="cls-3" d="M14.42,81.1,15.62,80"/><path class="cls-3" d="M15.49,81.45,16.81,80"/><path class="cls-3" d="M16.69,81.45,18.13,80"/><path class="cls-3" d="M17.9,81.45,19.34,80"/><path class="cls-3" d="M19.22,81.45,20.54,80"/><path class="cls-3" d="M20.42,81.45,21.86,80"/><path class="cls-3" d="M21.62,81.45,23.06,80"/><path class="cls-3" d="M22.94,81.45,24.26,80"/><path class="cls-3" d="M24.14,81.45,25.58,80"/><path class="cls-3" d="M25.46,81.45,26.78,80"/><path class="cls-3" d="M26.66,81.45,28.11,80"/><path class="cls-3" d="M27.87,81.45,29.31,80"/><path class="cls-3" d="M29.19,81.45,30.63,80"/><path class="cls-3" d="M30.39,81.45,31.83,80"/><path class="cls-3" d="M31.71,81.45,33.15,80"/><path class="cls-3" d="M32.91,81.45,34.35,80"/><path class="cls-3" d="M34.23,81.45,35.56,80"/><path class="cls-3" d="M35.44,81.45,36.88,80"/><path class="cls-3" d="M36.76,81.45,38.08,80"/><path class="cls-3" d="M38,81.45,39.4,80"/><path class="cls-3" d="M39.16,81.45,40.6,80"/><path class="cls-3" d="M40.48,81.45l1-1.07"/><path class="cls-3" d="M41.44,78.94l.48-.36"/><path class="cls-3" d="M41.68,80l1.44-1.44"/><path class="cls-3" d="M43,80l1.43-1.44"/><path class="cls-3" d="M44.21,80l1.44-1.44"/><path class="cls-3" d="M45.53,80,47,78.58"/><path class="cls-3" d="M46.72,80l1.45-1.44"/><path class="cls-3" d="M48.05,80l1.32-1.44"/><path class="cls-3" d="M49.24,80l1.45-1.44"/><path class="cls-3" d="M50.57,80l.72-.84"/><path class="cls-3" d="M.24,78.94l.36-.36"/><path class="cls-3" d="M.36,80,1.8,78.58"/><path class="cls-3" d="M1.68,80l1.44-1.44"/><path class="cls-3" d="M2.88,80l1.45-1.44"/><path class="cls-3" d="M4.21,80l1.44-1.44"/><path class="cls-3" d="M5.41,80l1.44-1.44"/><path class="cls-3" d="M6.73,80l1.32-1.44"/><path class="cls-3" d="M7.93,80l1.44-1.44"/><path class="cls-3" d="M9.25,80l1.32-1.44"/><path class="cls-3" d="M10.45,80l1.45-1.44"/><path class="cls-3" d="M11.65,80l1.45-1.44"/><path class="cls-3" d="M13,80,14.3,78.7"/><path class="cls-3" d="M14.17,80l.13-.12"/><path class="cls-2" d="M6.25,88.3H5.17"/><path class="cls-2" d="M5.65,88.3v-.84"/><path class="cls-2" d="M5.65,87.1v-1"/><path class="cls-2" d="M5.65,85.78v-1"/><path class="cls-2" d="M5.65,84.46v-.95"/><path class="cls-2" d="M5.65,83.14v-.85"/><path class="cls-2" d="M7.33,105.85V102"/><path class="cls-2" d="M7.33,99.37v.12"/><path class="cls-2" d="M7.33,96.6V91.19"/><path class="cls-2" d="M7.33,88.55v.12"/><path class="cls-2" d="M7.33,85.78v-5.4"/><path class="cls-2" d="M7.33,77.74v.12"/><path class="cls-2" d="M7.33,75V69.56"/><path class="cls-2" d="M7.33,66.92V67"/><path class="cls-2" d="M7.33,64.28V60.43"/><path class="cls-2" d="M102,138.78h50.08"/><path class="cls-2" d="M98.14,66.79V47.69l-2.89-1,5.65-2.29-2.76-1V24.26"/><path class="cls-2" d="M155.91,66.79V47.69l-2.89-1,5.77-2.29-2.88-1V24.26"/><path class="cls-2" d="M127,13.45V1.78"/><path class="cls-2" d="M116.39,17.29V1.78"/><path class="cls-2" d="M123.36,6.11h-3.49"/><path class="cls-4" d="M123.36,5.15v1H127Zm0,1H127L123.36,7Z"/><path class="cls-4" d="M119.87,7V6.11h-3.48Zm0-.84h-3.48l3.48-1Z"/><path class="cls-2" d="M127,13.45V1.78"/><path class="cls-2" d="M137.65,17.29V1.78"/><path class="cls-2" d="M130.45,6.11h3.6"/><path class="cls-4" d="M130.45,7V6.11H127Zm0-.84H127l3.48-1Z"/><path class="cls-4" d="M134.05,5.15v1h3.6Zm0,1h3.6l-3.6.84Z"/><path class="cls-2" d="M117.71,41.33V53"/><path class="cls-2" d="M116.39,28.58V53"/><path class="cls-2" d="M121.31,48.77h3.49"/><path class="cls-2" d="M112.78,48.77H99.34"/><path class="cls-2" d="M117.71,48.77h-1.32"/><path class="cls-4" d="M121.31,49.61v-.84h-3.6Zm0-.84h-3.6l3.6-1Z"/><path class="cls-4" d="M112.78,47.81v1h3.61Zm0,1h3.61l-3.61.84Z"/><path class="cls-2" d="M117.71,41.33V63.44"/><path class="cls-2" d="M119.39,41.33V63.44"/><path class="cls-2" d="M123,59.23h3.48"/><path class="cls-2" d="M114.23,59.23h-12"/><path class="cls-2" d="M119.39,59.23h-1.68"/><path class="cls-4" d="M123,60.07v-.84h-3.61Zm0-.84h-3.61l3.61-.84Z"/><path class="cls-4" d="M114.23,58.39v.84h3.48Zm0,.84h3.48l-3.48.84Z"/><path class="cls-2" d="M136.21,41.33V52.86"/><path class="cls-2" d="M137.65,28.58V52.86"/><path class="cls-2" d="M132.61,48.65h-3.49"/><path class="cls-2" d="M141.13,48.65h13.46"/><path class="cls-2" d="M136.21,48.65h1.44"/><path class="cls-4" d="M132.61,47.69v1h3.6Zm0,1h3.6l-3.6.84Z"/><path class="cls-4" d="M141.13,49.49v-.84h-3.48Zm0-.84h-3.48l3.48-1Z"/><path class="cls-2" d="M136.21,41.33V63.44"/><path class="cls-2" d="M134.53,41.33V63.44"/><path class="cls-2" d="M130.93,59.23h-3.61"/><path class="cls-2" d="M139.69,59.23h12"/><path class="cls-2" d="M134.53,59.23h1.68"/><path class="cls-4" d="M130.93,58.39v.84h3.6Zm0,.84h3.6l-3.6.84Z"/><path class="cls-4" d="M139.69,60.07v-.84h-3.48Zm0-.84h-3.48l3.48-.84Z"/><path class="cls-2" d="M127,82.06V77.62"/><path class="cls-2" d="M123.36,81.82h-3.49"/><path class="cls-2" d="M131.41,81.82h9.24"/><path class="cls-2" d="M127,81.82h.84"/><path class="cls-4" d="M123.36,81v.84h3.49Zm0,.84h3.49l-3.49,1Z"/><path class="cls-4" d="M131.41,82.78v-1H127.8Zm0-1H127.8l3.61-.84Z"/><path class="cls-2" d="M130.45,86.38h3.6"/><path class="cls-2" d="M122.52,86.38h-9.26"/><path class="cls-2" d="M127,86.38h-.84"/><path class="cls-4" d="M130.45,87.22v-.84H127Zm0-.84H127l3.48-1Z"/><path class="cls-4" d="M122.52,85.42v1h3.61Zm0,1h3.61l-3.61.84Z"/><path class="cls-2" d="M140.42,37.12h34.11"/><path class="cls-2" d="M160.11,24.26h14.42"/><path class="cls-2" d="M170.21,33.51V27.86"/><path class="cls-4" d="M171.17,33.51h-1v3.61Zm-1,0v3.61l-.85-3.61Z"/><path class="cls-4" d="M169.37,27.86h.84V24.37Zm.84,0V24.37l1,3.49Z"/><path class="cls-2" d="M160.11,24.26h14.42"/><path class="cls-2" d="M141.85,21.49h32.68"/><path class="cls-2" d="M170.21,27.86v3.49"/><path class="cls-2" d="M170.21,18V5.39"/><path class="cls-2" d="M170.21,24.26V21.49"/><path class="cls-4" d="M169.37,27.86h.84V24.37Zm.84,0V24.37l1,3.49Z"/><path class="cls-4" d="M171.17,18h-1v3.48Zm-1,0v3.48L169.36,18Z"/><path class="cls-2" d="M52,166.18h48.41"/><path class="cls-2" d="M14.53,75.69V44.08"/><path class="cls-2" d="M41.56,75.69V44.08"/><path class="cls-2" d="M18,48.41H38"/><path class="cls-4" d="M18,49.25v-.84H14.53Zm0-.84H14.53l3.48-1Z"/><path class="cls-4" d="M38,47.45v1h3.48Zm0,1h3.48L38,49.26Z"/><path class="cls-5" d="M25.46,46.85h-.6V43.6a1.5,1.5,0,0,1-.48.36c-.12.12-.36.12-.48.24v-.48c.24-.12.48-.35.72-.48a2,2,0,0,0,.48-.6h.36Z"/><path class="cls-5" d="M26.78,45.89h.49c.12.24.24.36.24.48a.72.72,0,0,0,.48.12c.24,0,.36,0,.48-.12a.26.26,0,0,0,.24-.24c.12-.12.12-.24.24-.48v-.73c0,.12-.24.25-.36.37a1.08,1.08,0,0,1-.6.12,1.07,1.07,0,0,1-.84-.37,1.37,1.37,0,0,1-.37-1A1.43,1.43,0,0,1,27.15,43a1.33,1.33,0,0,1,1-.37,1.71,1.71,0,0,1,.72.24,1.24,1.24,0,0,1,.48.6,3,3,0,0,1,.24,1.21A4.31,4.31,0,0,1,29.31,46a2.51,2.51,0,0,1-.48.72,1.59,1.59,0,0,1-1.68,0A7.11,7.11,0,0,1,26.78,45.89ZM29,44.08a1,1,0,0,0-.24-.71c-.12-.25-.36-.25-.6-.25a.65.65,0,0,0-.6.25,1.25,1.25,0,0,0-.24.71.94.94,0,0,0,.24.61.69.69,0,0,0,1.2,0A.94.94,0,0,0,29,44.08Z"/><path class="cls-5" d="M32,46.85h-.48V43.6c-.12.12-.36.25-.48.36s-.36.12-.6.24v-.48a4.56,4.56,0,0,0,.84-.48c.12-.23.36-.36.36-.6H32Z"/><path class="cls-2" d="M14.53,75.69v-22"/><path class="cls-2" d="M7.45,69.8V53.7"/><path class="cls-2" d="M18,57.91H21.5"/><path class="cls-2" d="M3.85,57.91H.24"/><path class="cls-5" d="M8.05,54.18h.6c0,.24.12.36.24.6a.72.72,0,0,0,.48.12,1.71,1.71,0,0,0,.72-.24,1.71,1.71,0,0,0,.24-.72,1,1,0,0,0-.24-.72C9.85,53,9.73,53,9.37,53A.44.44,0,0,0,9,53.1c-.24,0-.24.12-.36.24H8.17l.36-2.16h2.16v.48H9l-.24,1.08a1.71,1.71,0,0,1,.72-.24,1.18,1.18,0,0,1,1,.36,1.36,1.36,0,0,1,.36,1,2.26,2.26,0,0,1-.24,1,1.67,1.67,0,0,1-1.2.6A1.09,1.09,0,0,1,8.53,55,1.21,1.21,0,0,1,8.05,54.18Z"/><path class="cls-5" d="M11.3,53.22a3.22,3.22,0,0,1,.23-1.2,1,1,0,0,1,.37-.72,1.67,1.67,0,0,1,.84-.24,1,1,0,0,1,.59.12q.2.18.36.36a1.73,1.73,0,0,1,.25.72,2.06,2.06,0,0,1,.12,1,3.7,3.7,0,0,1-.12,1.2,3,3,0,0,1-.48.72,1.8,1.8,0,0,1-.72.24,1,1,0,0,1-1-.48A3,3,0,0,1,11.3,53.22Zm.6,0c0,.72,0,1.08.23,1.32a.67.67,0,0,0,.61.36c.23,0,.36-.12.59-.36a2.64,2.64,0,0,0,.25-1.32,3.25,3.25,0,0,0-.25-1.44.64.64,0,0,0-.59-.24c-.25,0-.48,0-.61.24A3.49,3.49,0,0,0,11.9,53.22Z"/><path class="cls-2" d="M14.53,57.91H7.45"/><path class="cls-4" d="M18,58.87v-1H14.53Zm0-1H14.53L18,57.07Z"/><path class="cls-4" d="M3.85,57.07v.84H7.33Zm0,.84H7.33l-3.48,1Z"/><path class="cls-2" d="M7.45,66.31V57.07"/><path class="cls-2" d="M.24,72.93V57.07"/><path class="cls-2" d="M10.93,61.39h3.6"/><path class="cls-2" d="M7.45,61.39H.24"/><path class="cls-4" d="M10.93,62.23v-.84H7.45Zm0-.84H7.45l3.48-1Z"/><path class="cls-5" d="M56.09,60.31l1.32-3.61h.48l1.45,3.61h-.48l-.49-1.08H56.93l-.36,1.08Zm1-1.44h1.2l-.36-1.08a1.75,1.75,0,0,1-.24-.72c-.12.24-.12.47-.24.72Z"/><path class="cls-5" d="M59.58,59.11h.36c.12.12.12.24.24.36s.12.23.36.36.24.12.48.12.36-.12.48-.12.24-.13.36-.24V59c-.12,0-.24-.12-.36-.24a1.3,1.3,0,0,1-.6-.12c-.36-.12-.6-.12-.72-.24s-.24-.12-.36-.36a.44.44,0,0,1-.12-.36c0-.24,0-.36.12-.48s.24-.36.48-.36.36-.13.6-.13a1.42,1.42,0,0,1,.72.13,1.66,1.66,0,0,1,.48.36.89.89,0,0,1,.12.6h-.36c-.12-.25-.12-.36-.36-.48a.71.71,0,0,0-.6-.24,5.2,5.2,0,0,0-.6.12c-.12.12-.12.24-.12.48s0,.12.12.24.24.24.72.24a4.72,4.72,0,0,0,.72.24,1.66,1.66,0,0,1,.48.36.72.72,0,0,1,.12.48,1.08,1.08,0,0,1-.12.6,1.66,1.66,0,0,1-.48.36,1.52,1.52,0,0,1-.72.12c-.24,0-.6,0-.72-.12a1.17,1.17,0,0,1-.6-.49C59.58,59.59,59.58,59.35,59.58,59.11Z"/><path class="cls-5" d="M64.38,60.31V56.7h1.2c.24,0,.48,0,.6.13a.63.63,0,0,1,.49.24,1.2,1.2,0,0,1,.48.6,1.78,1.78,0,0,1,.12.84,1.52,1.52,0,0,1-.12.72.85.85,0,0,1-.24.47c-.12.13-.12.25-.24.37s-.37.12-.49.12a5.2,5.2,0,0,1-.6.12Zm.48-.48h1.2a1.47,1.47,0,0,0,.37-.24.62.62,0,0,0,.24-.48.9.9,0,0,0,.12-.6c0-.36,0-.72-.12-.84s-.37-.36-.49-.48H64.86Z"/><path class="cls-5" d="M67.87,60.31V56.7h2.64v.48H68.35v1.08h2v.36h-2v1.21h2.16v.48Z"/><path class="cls-5" d="M72.07,60.31V57.18H70.86V56.7h2.89v.48h-1.2v3.13Z"/><path class="cls-5" d="M73.75,60.31l1.44-3.61h.48l1.45,3.61h-.61l-.36-1.08H74.71l-.36,1.08Zm1.08-1.44H76l-.36-1.09a1.71,1.71,0,0,1-.24-.72c-.12.24-.12.48-.24.72Z"/><path class="cls-5" d="M78.09,56.77v3.6h-.48v-3.6Z"/><path class="cls-5" d="M78.8,60.31V56.7h.48v3.13h1.8v.48Z"/><path class="cls-5" d="M84.2,60.31v-.84H82.64V59L84.2,56.7h.36V59H85v.48h-.48v.84Zm0-1.32V57.43L83,59Z"/><path class="cls-4" d="M67.63,76.65l-.84-.12L66.18,80Zm-.84-.12L66.18,80l-.24-3.73Z"/><path class="cls-2" d="M66.79,76.53l2.4-14.41"/><path class="cls-4" d="M46.12,94.92l-.59-.72-2.77,2.28Zm-.59-.72-2.77,2.28,2.16-2.89Z"/><path class="cls-2" d="M45.53,94.2l10.68-8.66,13-23.42"/><path class="cls-5" d="M52.72,157.3a14.88,14.88,0,0,1,2.15-.16,4.5,4.5,0,0,1,3.18,1,3.62,3.62,0,0,1,1.11,2.82A4.16,4.16,0,0,1,58,164a4.83,4.83,0,0,1-3.47,1.13,15.89,15.89,0,0,1-1.84-.09Zm1,6.94a6,6,0,0,0,1,.06A3,3,0,0,0,58.1,161c0-1.85-1-3-3.18-3a6.48,6.48,0,0,0-1.19.1Z"/><path class="cls-5" d="M64.54,161.36H61.49v2.83h3.4V165H60.47v-7.85h4.24V158H61.49v2.48h3.05Z"/><path class="cls-5" d="M67.88,158.06H65.5v-.87h5.8v.87H68.91v7h-1Z"/><path class="cls-5" d="M72.58,162.57,71.76,165H70.71l2.67-7.85H74.6L77.28,165H76.2l-.84-2.47Zm2.57-.79-.77-2.26c-.17-.51-.29-1-.41-1.43h0c-.12.47-.24.94-.4,1.42l-.76,2.27Z"/><path class="cls-5" d="M79.45,157.19V165h-1v-7.85Z"/><path class="cls-5" d="M81.22,157.19h1v7h3.36V165H81.22Z"/><path class="cls-5" d="M92,165V163H88.48v-.67l3.37-4.84H93v4.71H94v.8H93V165Zm0-2.86v-2.53c0-.39,0-.79,0-1.19h0c-.23.45-.42.77-.63,1.12l-1.85,2.57v0Z"/><path class="cls-5" d="M98.25,165l-.08-.71h0a2.1,2.1,0,0,1-1.72.84,1.61,1.61,0,0,1-1.73-1.62c0-1.36,1.22-2.11,3.39-2.09v-.12a1.16,1.16,0,0,0-1.28-1.3,2.74,2.74,0,0,0-1.46.42l-.24-.68a3.53,3.53,0,0,1,1.85-.5c1.73,0,2.15,1.18,2.15,2.3v2.11a7.9,7.9,0,0,0,.09,1.35Zm-.15-2.87c-1.12,0-2.39.17-2.39,1.27a.9.9,0,0,0,1,1,1.4,1.4,0,0,0,1.36-.94,1.2,1.2,0,0,0,.06-.33Z"/><path class="cls-5" d="M59.1,167.73a4.62,4.62,0,0,0-.89,2.88,4.69,4.69,0,0,0,.89,2.87h-.49a4.52,4.52,0,0,1-.93-2.87,4.61,4.61,0,0,1,.93-2.88Z"/><path class="cls-5" d="M59.69,171.88a2.16,2.16,0,0,0,1.1.31c.63,0,1-.33,1-.81s-.26-.7-.9-.95-1.26-.68-1.26-1.35a1.37,1.37,0,0,1,1.54-1.29,2.14,2.14,0,0,1,1,.23l-.16.5a2,2,0,0,0-.91-.22c-.65,0-.9.39-.9.71s.29.67,1,.92,1.21.7,1.21,1.4-.54,1.37-1.66,1.37a2.61,2.61,0,0,1-1.22-.3Z"/><path class="cls-5" d="M66.58,172.47a2.92,2.92,0,0,1-1.26.23A2.23,2.23,0,0,1,63,170.29a2.37,2.37,0,0,1,2.49-2.5,2.64,2.64,0,0,1,1.13.21l-.15.5a2.25,2.25,0,0,0-1-.2,1.78,1.78,0,0,0-1.86,2,1.73,1.73,0,0,0,1.83,1.91,2.49,2.49,0,0,0,1-.19Z"/><path class="cls-5" d="M68.15,171.13l-.5,1.5H67l1.62-4.76h.74L71,172.63h-.65l-.51-1.5Zm1.56-.48-.47-1.37c-.1-.31-.17-.59-.24-.87h0c-.07.28-.15.57-.24.86l-.46,1.38Z"/><path class="cls-5" d="M71.7,167.87h.61v4.24h2v.52H71.7Z"/><path class="cls-5" d="M77.5,170.4H75.65v1.71h2.06v.52H75v-4.76H77.6v.51H75.65v1.51H77.5Z"/><path class="cls-5" d="M81.13,168.62h0l-.8.43-.12-.48,1-.53h.53v4.59h-.6Z"/><path class="cls-5" d="M83.46,169.77a.41.41,0,0,1,.42-.44.44.44,0,1,1-.42.44Zm0,2.5a.42.42,0,0,1,.42-.45.42.42,0,0,1,.42.45.42.42,0,0,1-.43.44A.41.41,0,0,1,83.46,172.27Z"/><path class="cls-5" d="M86.22,168.62h0l-.8.43-.12-.48,1-.53h.53v4.59h-.6Z"/><path class="cls-5" d="M91.54,170.28c0,1.56-.58,2.43-1.59,2.43s-1.51-.84-1.52-2.36S89.09,168,90,168,91.54,168.82,91.54,170.28Zm-2.49.07c0,1.2.36,1.88.93,1.88s.94-.75.94-1.92-.29-1.87-.93-1.87S89.05,169.1,89.05,170.35Z"/><path class="cls-5" d="M91.94,173.48a4.78,4.78,0,0,0,.89-2.89,4.7,4.7,0,0,0-.89-2.86h.48a4.48,4.48,0,0,1,.92,2.87,4.58,4.58,0,0,1-.92,2.88Z"/><path class="cls-5" d="M104.26,137.34l-2.64-8.09h1.13l1.25,4c.35,1.1.65,2.08.87,3h0c.23-.94.57-2,.93-3l1.36-4h1.12l-2.89,8.09Z"/><path class="cls-5" d="M110.22,129.25v8.09h-1v-8.09Z"/><path class="cls-5" d="M116.23,133.55h-3.14v2.91h3.5v.88H112v-8.09h4.37v.88h-3.32v2.55h3.14Z"/><path class="cls-5" d="M119.38,137.34l-2-8.09h1.1l1,4.09c.24,1,.45,2,.6,2.8h0c.13-.81.39-1.77.66-2.81l1.08-4.08h1.09l1,4.1c.22,1,.44,1.92.56,2.77h0c.17-.88.4-1.78.65-2.79l1.07-4.08h1.07l-2.29,8.09h-1.1l-1-4.21a23.39,23.39,0,0,1-.52-2.64h0a24.73,24.73,0,0,1-.62,2.64l-1.15,4.21Z"/><path class="cls-5" d="M135.18,137.34l-1-1.79c-.42-.69-.69-1.13-.94-1.6h0c-.23.47-.46.9-.88,1.61l-1,1.78h-1.2l2.47-4.09-2.37-4h1.21l1.07,1.9c.3.52.52.93.74,1.36h0c.23-.48.44-.85.74-1.36l1.1-1.9h1.2l-2.46,3.94,2.52,4.15Z"/><path class="cls-5" d="M142.56,133.7v.78h-3v-.78Z"/><path class="cls-5" d="M150.8,137.34l-1-1.79c-.42-.69-.68-1.13-.94-1.6h0c-.23.47-.45.9-.87,1.61l-1,1.78h-1.2l2.48-4.09-2.38-4h1.21l1.07,1.9c.3.52.53.93.74,1.36h0c.23-.48.43-.85.73-1.36l1.1-1.9H152l-2.45,3.94,2.51,4.15Z"/><path class="cls-5" d="M110.37,140.31a4.76,4.76,0,0,0-.91,3,4.91,4.91,0,0,0,.91,2.93h-.5a4.71,4.71,0,0,1-1-2.93,4.83,4.83,0,0,1,1-3Z"/><path class="cls-5" d="M111,144.56a2.24,2.24,0,0,0,1.12.32c.65,0,1-.34,1-.83s-.26-.72-.92-1-1.28-.69-1.28-1.38a1.4,1.4,0,0,1,1.57-1.32,2.15,2.15,0,0,1,1.08.24l-.18.51a1.85,1.85,0,0,0-.92-.23c-.66,0-.92.4-.92.73s.3.68,1,.94c.82.31,1.24.71,1.24,1.42s-.55,1.41-1.7,1.41a2.43,2.43,0,0,1-1.24-.32Z"/><path class="cls-5" d="M118,145.16a3,3,0,0,1-1.28.24,2.28,2.28,0,0,1-2.4-2.47,2.42,2.42,0,0,1,2.54-2.55,2.52,2.52,0,0,1,1.15.22l-.15.51a2.24,2.24,0,0,0-1-.2,1.8,1.8,0,0,0-1.9,2,1.77,1.77,0,0,0,1.87,2,2.54,2.54,0,0,0,1-.2Z"/><path class="cls-5" d="M119.63,143.79l-.51,1.53h-.64l1.65-4.86h.76l1.66,4.86h-.68l-.51-1.53Zm1.6-.49-.48-1.4c-.11-.32-.18-.6-.25-.89h0c-.07.29-.15.59-.24.88l-.48,1.41Z"/><path class="cls-5" d="M123.26,140.46h.63v4.34H126v.52h-2.71Z"/><path class="cls-5" d="M129.19,143H127.3v1.76h2.11v.52h-2.74v-4.86h2.63V141h-2v1.54h1.89Z"/><path class="cls-5" d="M132.91,141.22h0l-.82.44-.12-.48,1-.55h.54v4.69h-.62Z"/><path class="cls-5" d="M135.29,142.41a.43.43,0,1,1,.86,0,.41.41,0,0,1-.43.44A.42.42,0,0,1,135.29,142.41Zm0,2.54a.43.43,0,1,1,.86,0,.41.41,0,0,1-.43.45A.43.43,0,0,1,135.29,145Z"/><path class="cls-5" d="M138.12,141.22h0l-.81.44-.13-.48,1-.55h.54v4.69h-.61Z"/><path class="cls-5" d="M143.56,142.93c0,1.59-.59,2.47-1.63,2.47s-1.54-.86-1.55-2.41.68-2.44,1.63-2.44S143.56,141.43,143.56,142.93ZM141,143c0,1.22.38,1.91,1,1.91s1-.76,1-1.95-.3-1.92-1-1.92S141,141.72,141,143Z"/><path class="cls-5" d="M144,146.2a4.94,4.94,0,0,0,.91-3,4.8,4.8,0,0,0-.91-2.93h.49a4.64,4.64,0,0,1,.94,2.94,4.72,4.72,0,0,1-.94,2.95Z"/><path class="cls-5" d="M116.46,81.59a2.27,2.27,0,0,0-.43,0,1.73,1.73,0,0,0-1.48,1.5h0a1.3,1.3,0,0,1,1-.48A1.25,1.25,0,0,1,116.87,84a1.41,1.41,0,0,1-1.4,1.5c-.91,0-1.5-.71-1.5-1.81a2.71,2.71,0,0,1,.71-1.91,2.32,2.32,0,0,1,1.36-.62,2.43,2.43,0,0,1,.42,0ZM116.29,84a.85.85,0,0,0-.87-1,.94.94,0,0,0-.82.52.46.46,0,0,0-.07.25c0,.7.34,1.21.94,1.21S116.29,84.64,116.29,84Z"/><path class="cls-5" d="M139.75,76.67a2.19,2.19,0,0,0-.43,0,1.71,1.71,0,0,0-1.47,1.51h0a1.24,1.24,0,0,1,1-.49,1.26,1.26,0,0,1,1.28,1.37,1.42,1.42,0,0,1-1.41,1.49c-.91,0-1.5-.7-1.5-1.8a2.63,2.63,0,0,1,.72-1.91,2.3,2.3,0,0,1,1.35-.63,2.34,2.34,0,0,1,.42,0Zm-.16,2.44a.86.86,0,0,0-.88-1,.94.94,0,0,0-.82.52.49.49,0,0,0-.06.25c0,.7.33,1.22.93,1.22S139.59,79.72,139.59,79.11Z"/><path class="cls-5" d="M103.92,55h0l-.68.37-.11-.4.86-.46h.45v3.91h-.51Z"/><path class="cls-5" d="M105.85,58.39v-.33l.42-.4c1-.95,1.44-1.45,1.45-2a.7.7,0,0,0-.77-.77,1.32,1.32,0,0,0-.83.33l-.17-.37a1.69,1.69,0,0,1,1.1-.4,1.1,1.1,0,0,1,1.2,1.14c0,.72-.52,1.31-1.35,2.1l-.31.29h1.76v.44Z"/><path class="cls-5" d="M146.63,55h0l-.68.37-.11-.4.86-.46h.45v3.91h-.51Z"/><path class="cls-5" d="M148.56,58.39v-.33l.42-.4c1-.95,1.44-1.45,1.45-2a.7.7,0,0,0-.77-.77,1.32,1.32,0,0,0-.83.33l-.17-.37a1.69,1.69,0,0,1,1.1-.4,1.1,1.1,0,0,1,1.2,1.14c0,.72-.52,1.31-1.35,2.1l-.31.29h1.76v.44Z"/><path class="cls-5" d="M102.81,44.28h0l-.68.37-.1-.41.85-.45h.45v3.9h-.51Z"/><path class="cls-5" d="M107.34,45.7c0,1.33-.49,2.06-1.35,2.06s-1.28-.72-1.3-2,.57-2,1.36-2S107.34,44.45,107.34,45.7Zm-2.12.06c0,1,.31,1.59.8,1.59s.8-.63.8-1.63-.25-1.59-.8-1.59S105.22,44.69,105.22,45.76Z"/><path class="cls-5" d="M148.28,44.28h0l-.68.37-.1-.41.85-.45h.45v3.9h-.51Z"/><path class="cls-5" d="M152.81,45.7c0,1.33-.49,2.06-1.36,2.06s-1.28-.72-1.29-2,.56-2,1.36-2S152.81,44.45,152.81,45.7Zm-2.12.06c0,1,.31,1.59.79,1.59s.8-.63.8-1.63-.25-1.59-.79-1.59S150.69,44.69,150.69,45.76Z"/><path class="cls-5" d="M121.55,0V.36l-1.77,3.72h-.57L121,.47h-2V0Z"/><path class="cls-5" d="M124.56.46H123l-.15,1.05.33,0a1.74,1.74,0,0,1,.88.22,1.15,1.15,0,0,1,.58,1,1.42,1.42,0,0,1-1.52,1.4,1.92,1.92,0,0,1-1-.26l.13-.42a1.86,1.86,0,0,0,.88.23.89.89,0,0,0,1-.88c0-.53-.36-.91-1.17-.91a4.16,4.16,0,0,0-.57.05l.27-2h2Z"/><path class="cls-5" d="M132.11,0V.36l-1.77,3.72h-.58L131.53.47h-2V0Z"/><path class="cls-5" d="M135.11.46h-1.55l-.16,1.05.33,0a1.72,1.72,0,0,1,.88.22,1.16,1.16,0,0,1,.59,1,1.42,1.42,0,0,1-1.52,1.4,2,2,0,0,1-1-.26l.14-.42a1.82,1.82,0,0,0,.87.23.9.9,0,0,0,1-.88c0-.53-.36-.91-1.18-.91a3.86,3.86,0,0,0-.56.05l.26-2h2Z"/><path class="cls-5" d="M168.76,13.17h-.34l-.42-.44c-1-1-1.51-1.5-2.13-1.51a.72.72,0,0,0-.79.81,1.36,1.36,0,0,0,.34.86l-.39.18a1.87,1.87,0,0,1-.41-1.16,1.14,1.14,0,0,1,1.18-1.24c.75,0,1.36.54,2.19,1.4l.3.33h0V10.57h.46Z"/><path class="cls-5" d="M166.68,7.26c1.38,0,2.14.51,2.14,1.41S168.08,10,166.74,10s-2.12-.59-2.12-1.42S165.38,7.26,166.68,7.26Zm.06,2.2c1.06,0,1.66-.32,1.66-.82s-.66-.83-1.7-.83-1.65.25-1.65.82S165.63,9.46,166.74,9.46Z"/><path class="cls-5" d="M168.37,32.67a2.49,2.49,0,0,0,0-.45,1.55,1.55,0,0,0-.39-.85,1.85,1.85,0,0,0-1.09-.54v0a1.19,1.19,0,0,1,.44,1,1.18,1.18,0,0,1-1.24,1.2,1.4,1.4,0,0,1-1.45-1.39c0-.83.68-1.34,1.71-1.34a2.55,2.55,0,0,1,1.91.7,2,2,0,0,1,.55,1.18,3.33,3.33,0,0,1,0,.51Zm-2.34-.2a.78.78,0,0,0,.86-.79.93.93,0,0,0-.42-.8.39.39,0,0,0-.2-.05c-.7,0-1.23.26-1.23.84S165.45,32.47,166,32.47Z"/><path class="cls-5" d="M166.68,27.08c1.38,0,2.14.51,2.14,1.41s-.74,1.33-2.08,1.35-2.12-.59-2.12-1.42S165.38,27.08,166.68,27.08Zm.06,2.21c1.06,0,1.66-.33,1.66-.83s-.66-.83-1.7-.83-1.65.25-1.65.82S165.63,29.29,166.74,29.29Z"/></g></g></svg>