<svg xmlns="http://www.w3.org/2000/svg" viewBox="0 0 258.78 259.83"><defs><style>.cls-1,.cls-2{fill:none;stroke-linejoin:round;}.cls-1,.cls-2,.cls-3{stroke:#c9c9c9;stroke-linecap:round;}.cls-1{stroke-width:0.48px;}.cls-2,.cls-3{stroke-width:0.12px;}.cls-3,.cls-4{fill:#c9c9c9;}.cls-3{stroke-miterlimit:7.5;}</style></defs><g id="Layer_2" data-name="Layer 2"><g id="Layer_1-2" data-name="Layer 1"><path class="cls-1" d="M181.37,76.36a67.36,67.36,0,1,0,67.27,67.42,67.38,67.38,0,0,0-67.27-67.42"/><path class="cls-1" d="M181.37,75a68.74,68.74,0,1,0,68.71,68.74A68.71,68.71,0,0,0,181.37,75"/><path class="cls-2" d="M181.25,143.78v-13.1"/><path class="cls-2" d="M181.25,126.11v.12"/><path class="cls-2" d="M181.25,121.67v-9"/><path class="cls-2" d="M181.25,108.21v.12"/><path class="cls-2" d="M181.25,103.64v-9"/><path class="cls-2" d="M181.25,90.18v.13"/><path class="cls-2" d="M181.25,85.62v-9"/><path class="cls-2" d="M181.25,72.16v.11"/><path class="cls-2" d="M181.25,67.72V54.49"/><path class="cls-2" d="M181.25,143.78l-11.41,6.61"/><path class="cls-2" d="M166,152.67v.12"/><path class="cls-2" d="M162.15,155l-7.81,4.44"/><path class="cls-2" d="M150.38,161.56v.13"/><path class="cls-2" d="M146.54,163.85l-7.81,4.56"/><path class="cls-2" d="M134.77,170.58v.12"/><path class="cls-2" d="M130.92,172.86l-7.81,4.57"/><path class="cls-2" d="M119.27,179.59v.12"/><path class="cls-2" d="M115.43,181.87,104,188.48"/><path class="cls-2" d="M181.25,143.78l11.41,6.61"/><path class="cls-2" d="M196.63,152.67v.12"/><path class="cls-2" d="M200.47,155l7.81,4.44"/><path class="cls-2" d="M212.24,161.56v.13"/><path class="cls-2" d="M216.08,163.85l7.81,4.56"/><path class="cls-2" d="M227.74,170.58v.12"/><path class="cls-2" d="M231.7,172.86l7.8,4.57"/><path class="cls-2" d="M243.35,179.59v.12"/><path class="cls-2" d="M247.31,181.87l11.41,6.61"/><path class="cls-1" d="M181.37,79.25a1.92,1.92,0,0,0,0,3.84,1.92,1.92,0,0,0,0-3.84"/><path class="cls-1" d="M176.68,81.17V76.6h9.25v4.57"/><path class="cls-1" d="M176.68,81.17a4.63,4.63,0,0,0,9.25,0"/><path class="cls-1" d="M176.68,81.17v.12"/><path class="cls-1" d="M176.68,76.6v.12"/><path class="cls-1" d="M185.93,76.6v.12"/><path class="cls-1" d="M185.93,81.17v.12"/><path class="cls-1" d="M235.55,173.1a1.92,1.92,0,1,0,0,3.84,1.92,1.92,0,0,0,0-3.84"/><path class="cls-1" d="M237.82,171.06l4,2.28-4.68,8.06-4-2.29"/><path class="cls-1" d="M237.82,171.06a4.6,4.6,0,1,0-4.68,7.93"/><path class="cls-1" d="M237.82,171.06v.12"/><path class="cls-1" d="M241.79,173.34v.12"/><path class="cls-1" d="M237.11,181.4v.11"/><path class="cls-1" d="M233.14,179.11v.12"/><path class="cls-1" d="M127.2,173.1a1.92,1.92,0,1,0,0,3.84,1.92,1.92,0,0,0,0-3.84"/><path class="cls-1" d="M129.48,179.11l-4.08,2.29-4.57-8.06,4-2.28"/><path class="cls-1" d="M129.48,179a4.65,4.65,0,0,0,1.68-6.25,4.55,4.55,0,0,0-6.24-1.68"/><path class="cls-1" d="M129.48,179.11v.12"/><path class="cls-1" d="M125.4,181.4v.11"/><path class="cls-1" d="M120.83,173.34v.12"/><path class="cls-1" d="M124.8,171.06v.12"/><path class="cls-2" d="M210.43,83.09l-1.79,4"/><path class="cls-2" d="M208.87,82.37l-1.91,4"/><path class="cls-2" d="M207.8,85.86a.84.84,0,0,0,0,1.68.85.85,0,1,0,0-1.68"/><path class="cls-2" d="M208.52,83.09l1.55.73"/><path class="cls-1" d="M92.36,34.06,84.07,33l-8.28-.73-8.29-.59-8.29-.25H50.8l-8.28.25-8.41.59L25.82,33l-8.28,1.07"/><path class="cls-1" d="M91.4,28.18l-8-1-8.17-.72-8-.48-8-.25H50.93l-8,.25-8.17.48-8,.72-8,1"/><path class="cls-1" d="M36.51,50.52V32H73.39v18.5"/><path class="cls-1" d="M36.51,50.41a18.44,18.44,0,1,0,36.88,0"/><path class="cls-1" d="M55,43a7.51,7.51,0,1,0,7.57,7.45A7.51,7.51,0,0,0,55,43"/><path class="cls-2" d="M177.89,116.51A27.54,27.54,0,0,0,156,154.36"/><path class="cls-3" d="M177.77,115.66v1l3.6-.24Zm0,1,3.6-.24-3.48,1.08Z"/><path class="cls-3" d="M156.87,154l-.85.36,1.57,3.24Zm-.85.36,1.57,3.24-2.29-2.88Z"/><path class="cls-2" d="M147,238.11h68.7"/><path class="cls-2" d="M125,250H237.23"/><path class="cls-2" d="M175.25,147.38,154,159.65"/><path class="cls-2" d="M187.37,147.38l21.38,12.27"/><path class="cls-2" d="M159.63,160.49a27.45,27.45,0,0,0,21.74,10.69,27.84,27.84,0,0,0,21.86-10.69"/><path class="cls-3" d="M158.79,161l.84-.47-2-2.89Zm.84-.47-2-2.89,2.76,2.41Z"/><path class="cls-3" d="M202.39,160l.72.48,2-2.89Zm.72.48,2-2.89L203.84,161Z"/><path class="cls-2" d="M187.37,147.38l21.38,12.27"/><path class="cls-2" d="M181.37,136.81V112.18"/><path class="cls-2" d="M206.71,154.36a27.41,27.41,0,0,0-1.55-24.28A27.8,27.8,0,0,0,185,116.51"/><path class="cls-3" d="M207.43,154.72l-.72-.36-1.55,3.24Zm-.72-.36-1.55,3.24.72-3.6Z"/><path class="cls-3" d="M184.85,117.46v-.84l-3.48-.24Zm0-.84-3.48-.24,3.6-.72Z"/><path class="cls-2" d="M191.7,78.28l-.12-1.56-.36-1.44-.48-1.2"/><path class="cls-2" d="M189.66,72.16l-.48-.72-1.08-1-1.21-.84-.36-.24"/><path class="cls-2" d="M184.49,68.44l-.24-.12-1.44-.24L181.37,68l-1.08.12"/><path class="cls-2" d="M178.12,68.44l-1.07.48-1.32.72-1.2.84-.12.12"/><path class="cls-2" d="M173,72.16l-.35.48L171.88,74l-.48,1.32-.24.84"/><path class="cls-2" d="M170.92,78.28l.12,1.45.36,1.44.48,1.32"/><path class="cls-2" d="M173,84.3l.49.72,1.08,1.08,1.2.84.48.24"/><path class="cls-2" d="M178.12,88.14h.25l1.43.36,1.57.12,1.08-.12"/><path class="cls-2" d="M184.49,88.14l1.08-.48,1.32-.72,1.21-.84.12-.12"/><path class="cls-2" d="M189.66,84.3l.36-.48.72-1.33.48-1.32.24-.72"/><path class="cls-2" d="M191.7,78.28v.13"/><path class="cls-2" d="M78.2,67.23l21,9.13,72.19,4.81"/><path class="cls-2" d="M34,99.08H76.87"/><path class="cls-2" d="M55,.06A37.56,37.56,0,1,0,92.6,37.67,37.55,37.55,0,0,0,55,.06"/><path class="cls-2" d="M55,46.21V17"/><path class="cls-2" d="M73.39,27.82V17"/><path class="cls-2" d="M58.61,21.21h11.3"/><path class="cls-3" d="M58.61,22.05v-.84H55Zm0-.84H55l3.61-.84Z"/><path class="cls-3" d="M69.91,20.37v.84h3.48Zm0,.84h3.48l-3.48.84Z"/><path class="cls-4" d="M65.58,17.24H62.82v-.48h2.76Zm0,1.32H62.82v-.48h2.76Z"/><path class="cls-2" d="M55,46.21V17"/><path class="cls-2" d="M36.51,27.82V17"/><path class="cls-2" d="M51.53,21.21H40.12"/><path class="cls-3" d="M51.53,20.37v.84H55Zm0,.84H55l-3.47.84Z"/><path class="cls-3" d="M40.12,22.05v-.84H36.51Zm0-.84H36.51l3.61-.84Z"/><path class="cls-4" d="M47.21,17.24H44.32v-.48h2.89Zm0,1.32H44.32v-.48h2.89Z"/><path class="cls-2" d="M36.51,27.82V7.51"/><path class="cls-2" d="M73.39,27.82V7.51"/><path class="cls-2" d="M40.12,11.71H69.91"/><path class="cls-3" d="M40.12,12.67v-1H36.51Zm0-1H36.51l3.61-.84Z"/><path class="cls-3" d="M69.91,10.87v.84h3.48Zm0,.84h3.48l-3.48,1Z"/><path class="cls-4" d="M52,10.27h-.47V6.91a1.86,1.86,0,0,1-.48.36c-.25.12-.37.24-.48.24V7a2.39,2.39,0,0,0,.72-.47c.24-.12.35-.36.48-.48H52Z"/><path class="cls-4" d="M53.32,9.08h.61a.89.89,0,0,0,.24.59.92.92,0,0,0,.6.25c.24,0,.36-.13.6-.25A1.26,1.26,0,0,0,55.61,9a.64.64,0,0,0-.24-.48c-.12-.24-.36-.24-.6-.24h-.36V7.75h.12a.9.9,0,0,0,.6-.12c.24-.12.24-.24.24-.48s0-.36-.12-.48a.72.72,0,0,0-1.08,0c-.12.12-.12.24-.24.48h-.48a1.37,1.37,0,0,1,.36-.84,1.14,1.14,0,0,1,.84-.24,1.52,1.52,0,0,1,.72.12c.12.12.36.24.36.36s.24.36.24.6a.91.91,0,0,1-.24.48c0,.12-.24.24-.36.36a.66.66,0,0,1,.6.36.9.9,0,0,1,.12.6,1.4,1.4,0,0,1-.36,1,1.4,1.4,0,0,1-1,.35,2.26,2.26,0,0,1-1-.24A2.52,2.52,0,0,1,53.32,9.08Z"/><path class="cls-4" d="M56.69,8.11a3.7,3.7,0,0,1,.12-1.2,1.2,1.2,0,0,1,.48-.6c.12-.24.48-.24.72-.24a.9.9,0,0,1,.6.12.64.64,0,0,1,.48.36,2,2,0,0,0,.24.6v1a3,3,0,0,1-.12,1.2c-.12.36-.24.61-.48.72s-.36.24-.72.24a1.4,1.4,0,0,1-1-.35A3.41,3.41,0,0,1,56.69,8.11Zm.48,0a3.54,3.54,0,0,0,.24,1.45.68.68,0,0,0,1.2,0,3.54,3.54,0,0,0,.24-1.45,3.17,3.17,0,0,0-.24-1.32.68.68,0,0,0-1.2,0A3.17,3.17,0,0,0,57.17,8.11Z"/><path class="cls-2" d="M21.73,41.64l22.59,6"/><path class="cls-2" d="M65.7,53.29l3.36,1"/><path class="cls-2" d="M62.34,52.45,47.8,48.61"/><path class="cls-3" d="M65.46,54.13l.24-.84-3.36-.84Zm.24-.84-3.36-.84h3.6Z"/><path class="cls-3" d="M44.56,46.81l-.24.84,3.48,1Zm-.24.84,3.48,1-3.72-.12Z"/><path class="cls-2" d="M32.31,32H1.44"/><path class="cls-2" d="M50.8,68.92H1.44"/><path class="cls-2" d="M5.76,35.63v29.8"/><path class="cls-3" d="M4.8,35.63h.85V32Zm.85,0V32l1,3.61Z"/><path class="cls-3" d="M6.61,65.43H5.77v3.49Zm-.84,0v3.49l-1-3.49Z"/><path class="cls-4" d="M4.2,53.42v.48H1c.12.11.24.36.36.47s.12.48.24.6H1.08a1.72,1.72,0,0,0-.48-.71c-.24-.25-.36-.49-.6-.49v-.35Z"/><path class="cls-4" d="M3.12,52.1,3,51.61a2,2,0,0,0,.72-.36.72.72,0,0,0,.12-.48c0-.25,0-.48-.24-.6s-.36-.24-.6-.24a.9.9,0,0,0-.6.12c-.12.24-.24.36-.24.6a.44.44,0,0,0,.12.36H1.8v-.12a1.23,1.23,0,0,0-.24-.6.62.62,0,0,0-.48-.24.62.62,0,0,0-.48.24c-.12.12-.12.23-.12.48s0,.36.12.48a.92.92,0,0,0,.6.24L1.08,52a1.09,1.09,0,0,1-.84-.36A1.73,1.73,0,0,1,0,50.77a.89.89,0,0,1,.12-.6.94.94,0,0,1,.48-.48c.12-.12.24-.12.48-.12s.36,0,.48.12a1.66,1.66,0,0,1,.36.48,1.28,1.28,0,0,1,.36-.6A1.71,1.71,0,0,1,3,49.33a1.6,1.6,0,0,1,1,.36,1.68,1.68,0,0,1,.36,1.08,1.09,1.09,0,0,1-.36.84A1.23,1.23,0,0,1,3.12,52.1Z"/><path class="cls-4" d="M2.16,48.85A3,3,0,0,1,1,48.61a1,1,0,0,1-.72-.36A1.73,1.73,0,0,1,0,47.41a1.08,1.08,0,0,1,.12-.6l.36-.36a1.71,1.71,0,0,1,.72-.24,2.06,2.06,0,0,1,1-.12,3.7,3.7,0,0,1,1.2.12,2.51,2.51,0,0,1,.72.48,1.71,1.71,0,0,1,.24.72,1,1,0,0,1-.48,1A2.35,2.35,0,0,1,2.16,48.85Zm0-.6c.72,0,1.08,0,1.32-.24a.66.66,0,0,0,.36-.6c0-.24-.12-.36-.36-.6a2.8,2.8,0,0,0-1.32-.24,3.45,3.45,0,0,0-1.44.24c-.12.24-.24.36-.24.6s0,.48.24.6S1.44,48.25,2.16,48.25Z"/><path class="cls-2" d="M50.8,50.52H10.57"/><path class="cls-2" d="M32.31,32H10.57"/><path class="cls-2" d="M14.89,46.93V35.63"/><path class="cls-3" d="M15.73,46.93h-.84v3.6Zm-.84,0v3.6l-1-3.6Z"/><path class="cls-3" d="M13.93,35.63h1V32Zm1,0V32l.84,3.61Z"/><path class="cls-4" d="M10.93,39.83v2.89h-.48V39.83Zm1.32,0v2.89h-.48V39.83Z"/><path class="cls-2" d="M50.8,50.52H10.57"/><path class="cls-2" d="M50.8,68.92H10.57"/><path class="cls-2" d="M14.89,54V65.43"/><path class="cls-3" d="M13.93,54h1V50.52Zm1,0V50.52L15.73,54Z"/><path class="cls-3" d="M15.73,65.43h-.84v3.49Zm-.84,0v3.49l-1-3.49Z"/><path class="cls-4" d="M10.93,58.34V61.1h-.48V58.34Zm1.32,0V61.1h-.48V58.34Z"/><path class="cls-4" d="M104.38,33.94H104V31.19a1.65,1.65,0,0,1-.48.35c-.12.13-.24.13-.36.24v-.47c.24-.12.36-.25.6-.37s.24-.36.36-.48h.24Z"/><path class="cls-4" d="M105.58,33.1l.36-.11c.12.23.12.47.24.59a.72.72,0,0,0,.48.12.62.62,0,0,0,.48-.24.6.6,0,0,0,.24-.47.59.59,0,0,0-.24-.48.6.6,0,0,0-.48-.25.37.37,0,0,0-.24.12V31.9h.12a.72.72,0,0,0,.48-.12c.12-.11.24-.24.24-.36a.64.64,0,0,0-.24-.48.47.47,0,0,0-.36-.11c-.24,0-.36,0-.48.11s-.12.25-.12.48h-.48a.74.74,0,0,1,.36-.72,1.29,1.29,0,0,1,.72-.24.72.72,0,0,1,.48.12c.24.12.36.25.36.36s.12.25.12.48a.43.43,0,0,1-.12.36c0,.12-.12.24-.36.37a.62.62,0,0,1,.48.23.94.94,0,0,1,.24.61,1,1,0,0,1-.36.71,1.09,1.09,0,0,1-.84.36,1,1,0,0,1-1.08-1Z"/><path class="cls-4" d="M108.22,32.26c0-.36.12-.72.12-.95a.86.86,0,0,1,.48-.61.94.94,0,0,1,.61-.24c.23,0,.36,0,.48.12s.23.12.36.36.12.25.23.48v.84a2.51,2.51,0,0,1-.11,1,.69.69,0,0,1-.36.61,1,1,0,0,1-.6.23,1.11,1.11,0,0,1-.85-.36A2.54,2.54,0,0,1,108.22,32.26Zm.48,0a2.44,2.44,0,0,0,.25,1.2.61.61,0,0,0,.48.24.64.64,0,0,0,.48-.24,2.61,2.61,0,0,0,.23-1.2,2.67,2.67,0,0,0-.23-1.2.63.63,0,0,0-.48-.23.6.6,0,0,0-.48.23A2.5,2.5,0,0,0,108.7,32.26Z"/><path class="cls-4" d="M112.18,33.94l1-1.32-.84-1.2h.49l.35.6c.13.13.25.24.25.36.11-.12.11-.23.24-.36l.35-.6h.48l-.83,1.2,1,1.32h-.48l-.61-.72-.11-.23-.73.95Z"/><path class="cls-4" d="M118.43,33.58v.36h-2.29V33.7a5.46,5.46,0,0,0,.36-.48c.13-.12.25-.36.49-.48a2.58,2.58,0,0,0,.84-.84.91.91,0,0,0,.24-.48,1,1,0,0,0-.24-.48c-.12-.11-.24-.11-.48-.11s-.36,0-.48.23a.66.66,0,0,0-.24.48l-.36-.12a1.89,1.89,0,0,1,.23-.72,1.81,1.81,0,0,1,.85-.24,1.73,1.73,0,0,1,.84.24,1.75,1.75,0,0,1,.24.72v.48l-.36.36-.6.6a2.83,2.83,0,0,0-.6.49c0,.11-.12.11-.12.23Z"/><path class="cls-4" d="M118.91,32.26c0-.36.12-.72.12-.95a1.33,1.33,0,0,1,.36-.61,1.71,1.71,0,0,1,.72-.24.72.72,0,0,1,.48.12c.12.12.24.12.36.36s.12.25.24.48v.84a2.32,2.32,0,0,1-.12,1c0,.24-.24.48-.36.61a1,1,0,0,1-.6.23,1.09,1.09,0,0,1-.84-.36A2.54,2.54,0,0,1,118.91,32.26Zm.48,0c0,.6,0,1,.24,1.2a.62.62,0,0,0,.48.24.91.91,0,0,0,.48-.24,2.58,2.58,0,0,0,.24-1.2,2.65,2.65,0,0,0-.24-1.2.89.89,0,0,0-.48-.23.62.62,0,0,0-.48.23C119.39,31.31,119.39,31.67,119.39,32.26Z"/><path class="cls-4" d="M123.23,33.94V30.46H125c.24.12.36.12.48.24s.24.13.24.36.12.25.12.48a1.71,1.71,0,0,1-.24.72c-.24.25-.6.25-1.09.25h-.84v1.43Zm.48-1.79h.84c.37,0,.61,0,.73-.13a.71.71,0,0,0,.12-.48c0-.23,0-.35-.12-.35a.26.26,0,0,0-.24-.25h-1.33Z"/><path class="cls-4" d="M126.48,33.94V30.46H127v3.12h1.68v.36Z"/><path class="cls-4" d="M130.2,33.94l1-1.32-.84-1.2h.48l.48.6c0,.13.12.24.12.36.12-.12.12-.23.24-.36l.36-.6h.61l-1,1.2,1,1.32h-.49l-.6-.72L131.4,33l-.6.95Z"/><path class="cls-4" d="M134.41,33.94V30.46h.48v3.12h1.68v.36Z"/><path class="cls-4" d="M137.05,32.26a1.52,1.52,0,0,1,.48-1.32,1.39,1.39,0,0,1,1.2-.48,1.14,1.14,0,0,1,.84.24,1.47,1.47,0,0,1,.6.61,2.18,2.18,0,0,1,.24.95,2.82,2.82,0,0,1-.24,1,1.53,1.53,0,0,1-.6.61,1.87,1.87,0,0,1-1.8,0,1.28,1.28,0,0,1-.6-.73A1.78,1.78,0,0,1,137.05,32.26Zm.48,0a1.51,1.51,0,0,0,.36,1.09,1,1,0,0,0,.84.35,1.12,1.12,0,0,0,.84-.35,1.7,1.7,0,0,0,.36-1.09,4.45,4.45,0,0,0-.12-.72,1.24,1.24,0,0,0-.48-.6,1.17,1.17,0,0,0-.6-.11,1.06,1.06,0,0,0-.84.36A1.43,1.43,0,0,0,137.53,32.26Z"/><path class="cls-4" d="M141,33.94V30.46h.48l1.8,2.76V30.46h.48v3.48h-.48l-1.92-2.76v2.76Z"/><path class="cls-4" d="M146.18,32.62v-.47h1.44v1.31a1.19,1.19,0,0,1-.6.48,2.37,2.37,0,0,1-.84.12,3.11,3.11,0,0,1-1-.23,1.51,1.51,0,0,1-.59-.61,2.82,2.82,0,0,1-.24-1,2.18,2.18,0,0,1,.24-.95c.11-.37.36-.48.59-.73a2.41,2.41,0,0,1,1-.12,1.48,1.48,0,0,1,.71.12.66.66,0,0,1,.49.36c.12.12.12.25.24.48l-.48.12c0-.12-.12-.23-.12-.35s-.24-.25-.36-.25a.77.77,0,0,0-.48-.11,1.2,1.2,0,0,0-.61.11c-.11,0-.23.12-.36.25s-.12.23-.23.35-.12.48-.12.72a1.88,1.88,0,0,0,.23.73,1,1,0,0,0,.48.47.93.93,0,0,0,.61.12,1.1,1.1,0,0,0,.6-.12.56.56,0,0,0,.47-.24v-.6Z"/><path class="cls-4" d="M103.18,40V36.47h2.28v.36h-1.92V38h1.68v.36h-1.68V40Z"/><path class="cls-4" d="M106.66,40l-.84-3.48h.48l.48,2.28a1.52,1.52,0,0,1,.12.72,5,5,0,0,1,.24-.6l.6-2.4h.6l.48,1.8a4.85,4.85,0,0,1,.25,1.2c.11-.24.11-.48.23-.72l.49-2.28h.48l-1,3.48H109l-.85-2.64c0-.24,0-.36-.12-.36v.36L107.14,40Z"/><path class="cls-4" d="M111.71,40,113,36.47h.6L115.07,40h-.61l-.35-1.08h-1.56L112.18,40Zm1.08-1.44H114l-.48-1a1.69,1.69,0,0,0-.23-.72c0,.24-.13.48-.13.72Z"/><path class="cls-4" d="M115.43,40V36.47h.36v3.12h1.8V40Z"/><path class="cls-4" d="M118.07,40V36.47h.48v3.12h1.8V40Z"/><path class="cls-4" d="M122.27,40V36.47h1.56a1.52,1.52,0,0,1,.72.12c.13,0,.25.12.37.36s.12.24.12.48a.92.92,0,0,1-.24.6.74.74,0,0,1-.73.36.37.37,0,0,0,.24.12,1.51,1.51,0,0,0,.37.48l.6,1h-.48l-.49-.72a1.66,1.66,0,0,0-.36-.48l-.24-.24c-.12,0-.12,0-.24-.12h-.72V40Zm.48-1.92h1c.24,0,.36,0,.48-.12a.42.42,0,0,0,.24-.12.6.6,0,0,0,0-.72.92.92,0,0,0-.6-.24h-1.08Z"/><path class="cls-4" d="M125.64,38.27a1.5,1.5,0,0,1,.48-1.32,1.54,1.54,0,0,1,1.2-.48,1.78,1.78,0,0,1,.84.12,1.6,1.6,0,0,1,.6.72,2.26,2.26,0,0,1,.24,1,2.82,2.82,0,0,1-.24,1,1.45,1.45,0,0,1-.6.6,1.59,1.59,0,0,1-1.68,0c-.36-.12-.48-.36-.6-.72A1.73,1.73,0,0,1,125.64,38.27Zm.48,0a1.18,1.18,0,0,0,.36,1,1,1,0,0,0,1.68,0,1.36,1.36,0,0,0,.36-1,1.78,1.78,0,0,0-.12-.84c-.12-.12-.24-.36-.48-.48a.9.9,0,0,0-.6-.12,1.09,1.09,0,0,0-.84.36A1.47,1.47,0,0,0,126.12,38.27Z"/><path class="cls-4" d="M131.88,36.47h.48v2a1.78,1.78,0,0,1-.12.84,1.66,1.66,0,0,1-.36.48,1.59,1.59,0,0,1-1.68,0,.94.94,0,0,1-.48-.48c-.12-.12-.12-.48-.12-.84v-2h.48v2a1.52,1.52,0,0,0,.12.72.26.26,0,0,0,.24.24.72.72,0,0,0,.48.12c.36,0,.6,0,.72-.24s.24-.36.24-.84Z"/><path class="cls-4" d="M133.21,40V36.46h.48l1.8,2.76V36.46H136V40h-.48l-1.92-2.76V40Z"/><path class="cls-4" d="M136.69,40V36.47h1.8a2.62,2.62,0,0,1,.6.36,2.62,2.62,0,0,1,.36.6,1.78,1.78,0,0,1,.12.84v.6a2,2,0,0,0-.24.6c-.12.12-.24.24-.36.24a.62.62,0,0,1-.48.24h-1.8Zm.48-.36h.72a.9.9,0,0,0,.6-.12.42.42,0,0,0,.24-.12,1.66,1.66,0,0,0,.36-.48v-.72a1.78,1.78,0,0,0-.12-.84,1.66,1.66,0,0,0-.48-.36,5.2,5.2,0,0,0-.6-.12h-.72Z"/><path class="cls-4" d="M104.38,46H104V43.2c-.12.12-.24.12-.48.24s-.24.24-.36.24v-.36a2.11,2.11,0,0,0,.6-.48,1.66,1.66,0,0,0,.36-.48h.24Z"/><path class="cls-4" d="M105.7,46v-3.6h.48l1.8,2.76V42.36h.48V46H108l-1.8-2.76V46Z"/><path class="cls-4" d="M109.07,44.28a2.5,2.5,0,0,1,.48-1.44,1.54,1.54,0,0,1,1.2-.48,2.3,2.3,0,0,1,1,.24,1.42,1.42,0,0,1,.59.6,2.45,2.45,0,0,1,.13,1,2.17,2.17,0,0,1-.13,1c-.23.24-.35.48-.59.6a1.46,1.46,0,0,1-1,.24,1.12,1.12,0,0,1-.84-.24,1.47,1.47,0,0,1-.61-.6A2.2,2.2,0,0,1,109.07,44.28Zm.48,0a1.32,1.32,0,0,0,.36,1,1.26,1.26,0,0,0,.84.36,1.38,1.38,0,0,0,1-.36c.24-.24.24-.6.24-1.08a1.42,1.42,0,0,0-.13-.72,1.37,1.37,0,0,0-.36-.48,2,2,0,0,0-.59-.24,1.33,1.33,0,0,0-1,.36A1.55,1.55,0,0,0,109.55,44.28Z"/><path class="cls-4" d="M114.23,45h.48a.59.59,0,0,0,.24.48c.12.12.23.12.48.12s.36,0,.48-.24a.9.9,0,0,0,0-1.2c-.12-.12-.25-.12-.48-.12h-.36c-.12.12-.25.24-.36.24h-.37l.37-1.8h1.68v.36h-1.32l-.25,1a1.75,1.75,0,0,1,.73-.24,1,1,0,0,1,.72.36,1.12,1.12,0,0,1,.36.84,2.42,2.42,0,0,1-.24.84,1.38,1.38,0,0,1-1,.36,1,1,0,0,1-.84-.24A1.69,1.69,0,0,1,114.23,45Z"/><path class="cls-4" d="M117,45h.48a.62.62,0,0,0,.24.48c.12.12.24.12.48.12a.72.72,0,0,0,.48-.12c.12-.24.24-.36.24-.6a.91.91,0,0,0-.24-.48c-.12-.12-.24-.12-.48-.12h-.36l.12-.36c.24,0,.36-.12.48-.12s.24-.24.24-.48,0-.36-.12-.36a.62.62,0,0,0-.48-.24c-.12,0-.24.12-.36.24a.62.62,0,0,0-.24.48l-.36-.12a1,1,0,0,1,.36-.72.92.92,0,0,1,.6-.24c.24,0,.36.12.6.12l.36.36a.72.72,0,0,1,.12.48.44.44,0,0,1-.12.36l-.36.36a.62.62,0,0,1,.48.24,1.08,1.08,0,0,1,.12.6,1.73,1.73,0,0,1-.24.84,2.22,2.22,0,0,1-.84.24,1,1,0,0,1-.84-.24A1,1,0,0,1,117,45Z"/><path class="cls-4" d="M121.31,46v-3.6h1.2a5.2,5.2,0,0,1,.6.12.62.62,0,0,1,.48.24,1.2,1.2,0,0,1,.48.6,1.78,1.78,0,0,1,.12.84,1.52,1.52,0,0,1-.12.72.62.62,0,0,1-.24.48c-.12.12-.12.24-.24.36s-.36.12-.48.12a.9.9,0,0,1-.6.12Zm.48-.48H123a.92.92,0,0,0,.36-.24c.12-.12.24-.24.24-.36a1.52,1.52,0,0,0,.12-.72c0-.36,0-.72-.12-.84a.64.64,0,0,0-.48-.36.9.9,0,0,0-.6-.12h-.72Z"/><path class="cls-4" d="M125.39,42.4V46h-.48V42.4Z"/><path class="cls-4" d="M125.88,46l1.32-3.6h.48l1.44,3.6h-.48l-.48-1.08h-1.44L126.36,46Zm1-1.44H128l-.36-1a4.72,4.72,0,0,1-.24-.72c-.12.12-.12.36-.24.6Z"/><path class="cls-4" d="M130.92,46v-3.6h.36v1.56h1.93V42.36h.48V46h-.48V44.28h-1.93V46Z"/><path class="cls-4" d="M134.29,44.28a1.91,1.91,0,0,1,.48-1.44,1.39,1.39,0,0,1,1.2-.48,1.73,1.73,0,0,1,.84.24,1.45,1.45,0,0,1,.6.6,2.82,2.82,0,0,1,.24,1,2.26,2.26,0,0,1-.24,1,1.45,1.45,0,0,1-.6.6A1.14,1.14,0,0,1,136,46a1.44,1.44,0,0,1-1-.24,1.2,1.2,0,0,1-.48-.6A1.14,1.14,0,0,1,134.29,44.28Zm.48,0a1.36,1.36,0,0,0,.36,1,1.16,1.16,0,0,0,1.68,0,1.47,1.47,0,0,0,.36-1.08c0-.24-.12-.48-.12-.72a.94.94,0,0,0-.48-.48.92.92,0,0,0-.6-.24,1.09,1.09,0,0,0-.84.36A1.59,1.59,0,0,0,134.77,44.28Z"/><path class="cls-4" d="M138.25,46v-3.6h.48v3.12h1.68V46Z"/><path class="cls-4" d="M141,46V42.35h2.52v.48h-2v1.08h1.91v.37H141.5v1.2h2.16V46Z"/><path class="cls-3" d="M77,49.81l-.36-.72-3.24,1.43Zm-.36-.72-3.24,1.43,2.88-2.27Z"/><path class="cls-2" d="M76.63,49.09l23.9-10.7"/><path class="cls-4" d="M24.09,40.66l.55-.45a2.41,2.41,0,0,1-.14-1.73,2.11,2.11,0,0,1,2.58-1.7,1.91,1.91,0,0,1,1,.62l.51-.41.27.32-.54.44a2.41,2.41,0,0,1,.13,1.73,2.06,2.06,0,0,1-2.55,1.71,1.87,1.87,0,0,1-1-.63l-.55.43Zm3.58-2.92a1.22,1.22,0,0,0-.72-.52c-.93-.25-1.63.48-1.87,1.38a2.23,2.23,0,0,0,0,1.23h0Zm-2.4,2.49a1.14,1.14,0,0,0,.72.52c.89.24,1.61-.44,1.87-1.41a2.09,2.09,0,0,0,0-1.19h0Z"/><path class="cls-4" d="M31.81,38.8l-1.57-.42-.45,1a1.88,1.88,0,0,1,.34.06,1.83,1.83,0,0,1,.83.46,1.21,1.21,0,0,1,.31,1.22,1.49,1.49,0,0,1-1.92,1,2.16,2.16,0,0,1-1-.54l.25-.38a2.06,2.06,0,0,0,.82.46.93.93,0,0,0,1.22-.63c.14-.53-.11-1-.94-1.23a3.19,3.19,0,0,0-.58-.11L30,37.8l2,.53Z"/><path class="cls-4" d="M31.92,42.07a2,2,0,0,0,.84.51c.72.19,1.07-.2,1.15-.55.15-.58-.3-1-.84-1.11l-.31-.09.11-.42.31.09c.41.11,1,0,1.11-.45.09-.33,0-.68-.55-.82a1.56,1.56,0,0,0-.9.05l0-.44a2,2,0,0,1,1.17,0c.81.22,1.05.8.91,1.3a1.06,1.06,0,0,1-1,.77h0a1.13,1.13,0,0,1,.63,1.31,1.36,1.36,0,0,1-1.84.83,2.19,2.19,0,0,1-1-.57Z"/><path class="cls-4" d="M36.87,89.81a14.77,14.77,0,0,1,2-.15,4.19,4.19,0,0,1,3,.92,3.36,3.36,0,0,1,1,2.63,3.89,3.89,0,0,1-1.06,2.86,4.56,4.56,0,0,1-3.25,1.05A16.71,16.71,0,0,1,36.87,97Zm1,6.5a6.54,6.54,0,0,0,1,0,2.82,2.82,0,0,0,3.13-3.11c0-1.74-1-2.84-3-2.84a5.67,5.67,0,0,0-1.11.1Z"/><path class="cls-4" d="M47.93,93.62H45.07v2.64h3.19v.8H44.13V89.72h4v.79h-3v2.32h2.86Z"/><path class="cls-4" d="M51.06,90.52H48.82v-.8h5.44v.8H52v6.54h-1Z"/><path class="cls-4" d="M55.45,94.75l-.77,2.31h-1l2.5-7.34h1.14l2.51,7.34h-1l-.79-2.31Zm2.4-.74-.71-2.11c-.17-.48-.28-.92-.39-1.35h0c-.11.44-.23.89-.37,1.33L55.64,94Z"/><path class="cls-4" d="M61.87,89.72v7.34h-.94V89.72Z"/><path class="cls-4" d="M63.53,89.72h1v6.54h3.13v.8H63.53Z"/><path class="cls-4" d="M70.87,96a3.26,3.26,0,0,0,1.57.45c1.23,0,1.61-.79,1.6-1.38,0-1-.9-1.41-1.83-1.41h-.53V92.9h.53c.7,0,1.58-.36,1.58-1.2,0-.57-.36-1.07-1.24-1.07a2.6,2.6,0,0,0-1.42.47l-.25-.7a3.4,3.4,0,0,1,1.86-.54c1.39,0,2,.83,2,1.69a1.74,1.74,0,0,1-1.31,1.66v0A1.84,1.84,0,0,1,75,95.05c0,1.14-.88,2.13-2.58,2.13a3.6,3.6,0,0,1-1.84-.48Z"/><path class="cls-4" d="M39.94,100.78a4.88,4.88,0,0,0-.94,3,5,5,0,0,0,.94,3h-.52a4.81,4.81,0,0,1-1-3,4.88,4.88,0,0,1,1-3Z"/><path class="cls-4" d="M40.56,105.16a2.3,2.3,0,0,0,1.16.33c.67,0,1.05-.35,1.05-.86s-.26-.74-.94-1-1.33-.71-1.33-1.42a1.45,1.45,0,0,1,1.63-1.36,2.41,2.41,0,0,1,1.11.24l-.18.53a2,2,0,0,0-1-.23c-.68,0-.94.4-.94.75s.3.7,1,1,1.28.74,1.28,1.48S42.86,106,41.68,106a2.57,2.57,0,0,1-1.28-.32Z"/><path class="cls-4" d="M47.83,105.79a3.39,3.39,0,0,1-1.32.23A2.34,2.34,0,0,1,44,103.48a2.49,2.49,0,0,1,2.62-2.63,2.7,2.7,0,0,1,1.19.22l-.16.53a2.3,2.3,0,0,0-1-.21,1.86,1.86,0,0,0-2,2.07,1.83,1.83,0,0,0,1.93,2,2.53,2.53,0,0,0,1.06-.21Z"/><path class="cls-4" d="M49.49,104.37,49,106H48.3l1.7-5h.78l1.72,5h-.7l-.53-1.58Zm1.64-.51-.49-1.44c-.11-.33-.18-.63-.26-.92h0c-.08.3-.16.61-.26.91l-.49,1.45Z"/><path class="cls-4" d="M53.24,100.93h.65v4.48H56V106H53.24Z"/><path class="cls-4" d="M59.35,103.6h-2v1.81h2.18V106H56.75v-5h2.72v.54H57.4v1.59h2Z"/><path class="cls-4" d="M63.19,101.72h0l-.84.45-.13-.49,1.06-.57h.56V106h-.64Z"/><path class="cls-4" d="M65.65,102.94a.44.44,0,0,1,.44-.47.45.45,0,0,1,.44.47.43.43,0,0,1-.45.46A.43.43,0,0,1,65.65,102.94Zm0,2.63a.43.43,0,0,1,.44-.47.44.44,0,0,1,.44.47.43.43,0,0,1-.45.46A.43.43,0,0,1,65.65,105.57Z"/><path class="cls-4" d="M70,101.66H68.18L68,102.9a3.47,3.47,0,0,1,.4,0,2,2,0,0,1,1,.27,1.37,1.37,0,0,1,.69,1.24,1.68,1.68,0,0,1-1.8,1.65,2.37,2.37,0,0,1-1.21-.3l.17-.5a2.13,2.13,0,0,0,1,.27,1.07,1.07,0,0,0,1.15-1c0-.62-.43-1.07-1.39-1.07a5.28,5.28,0,0,0-.67.05l.31-2.32H70Z"/><path class="cls-4" d="M70.77,106.85a5,5,0,0,0,.94-3,4.92,4.92,0,0,0-.94-3h.51a4.79,4.79,0,0,1,1,3,4.87,4.87,0,0,1-1,3Z"/><path class="cls-4" d="M176.86,164.86h0l-.78.42-.11-.46,1-.52h.51v4.45h-.58Z"/><path class="cls-4" d="M179.07,168.75v-.37l.47-.46c1.14-1.08,1.65-1.66,1.66-2.33a.8.8,0,0,0-.89-.87,1.51,1.51,0,0,0-.94.38l-.19-.43a1.92,1.92,0,0,1,1.26-.45,1.25,1.25,0,0,1,1.36,1.3c0,.82-.6,1.48-1.54,2.39l-.35.33h2v.5Z"/><path class="cls-4" d="M185.54,166.48c0,1.51-.56,2.35-1.55,2.35s-1.46-.82-1.47-2.29.64-2.32,1.54-2.32S185.54,165.06,185.54,166.48Zm-2.42.07c0,1.15.36,1.81.9,1.81s.91-.72.91-1.86-.28-1.81-.9-1.81S183.12,165.33,183.12,166.55Z"/><path class="cls-4" d="M187.8,165a.92.92,0,0,1-.92.92.88.88,0,0,1-.9-.89.9.9,0,0,1,.91-.92A.88.88,0,0,1,187.8,165Zm-1.45,0a.53.53,0,0,0,.53.56.56.56,0,0,0,.55-.58.55.55,0,0,0-.55-.58A.56.56,0,0,0,186.35,165Z"/><path class="cls-4" d="M150.27,130.43h0l0,.88-.45-.13,0-1.11.25-.44,3.85,2.24-.29.51Z"/><path class="cls-4" d="M154.74,130.48l-.32-.18-.16-.64c-.36-1.53-.6-2.26-1.18-2.61a.78.78,0,0,0-1.19.33,1.43,1.43,0,0,0-.15,1l-.47,0a1.94,1.94,0,0,1,.25-1.31,1.25,1.25,0,0,1,1.8-.53c.71.42,1,1.27,1.29,2.53l.11.48h0l1-1.72.43.25Z"/><path class="cls-4" d="M156,123.75c1.31.76,1.75,1.67,1.25,2.52s-1.44.85-2.72.12-1.67-1.72-1.22-2.51S154.81,123,156,123.75Zm-1.16,2.12c1,.58,1.75.61,2,.13s-.16-1.15-1.15-1.72-1.71-.67-2-.13S153.83,125.26,154.87,125.87Z"/><path class="cls-4" d="M155.85,121a.9.9,0,0,1,.33,1.25.87.87,0,0,1-1.21.33.89.89,0,0,1-.34-1.25A.86.86,0,0,1,155.85,121Zm-.7,1.26a.55.55,0,0,0,.76-.18.56.56,0,0,0-.24-.76.54.54,0,0,0-.77.18A.55.55,0,0,0,155.15,122.29Z"/><path class="cls-4" d="M208.53,123.52v0l-.76-.43.33-.34.95.55.28.43-3.79,2.35-.31-.49Z"/><path class="cls-4" d="M206.39,127.44l.31-.2.64.16c1.52.4,2.28.53,2.85.18a.78.78,0,0,0,.28-1.2,1.51,1.51,0,0,0-.82-.61l.26-.39a2,2,0,0,1,1.05.84,1.25,1.25,0,0,1-.39,1.84c-.69.43-1.57.27-2.84-.05l-.46-.12h0l1.05,1.7-.43.26Z"/><path class="cls-4" d="M211.73,131.74c-1.29.8-2.29.76-2.81-.08s-.08-1.67,1.17-2.46,2.3-.67,2.78.1S212.94,131,211.73,131.74Zm-1.33-2c-1,.61-1.36,1.26-1.07,1.73s1.09.39,2.06-.21,1.39-1.19,1.06-1.72S211.43,129.08,210.4,129.72Z"/><path class="cls-4" d="M214.22,132.85a.91.91,0,0,1-1.27-.29.87.87,0,0,1,.28-1.23.89.89,0,0,1,1.27.29A.88.88,0,0,1,214.22,132.85Zm-.79-1.21a.54.54,0,0,0-.2.75.56.56,0,0,0,.79.15.53.53,0,0,0,.2-.76A.56.56,0,0,0,213.43,131.64Z"/><path class="cls-4" d="M147.78,234.33a3.71,3.71,0,0,0,1.87.53c1.07,0,1.7-.56,1.7-1.38s-.44-1.18-1.53-1.6c-1.32-.47-2.13-1.15-2.13-2.29a2.33,2.33,0,0,1,2.61-2.2,3.6,3.6,0,0,1,1.79.4l-.29.85a3.11,3.11,0,0,0-1.53-.39c-1.11,0-1.53.66-1.53,1.22,0,.75.5,1.12,1.61,1.55,1.37.53,2.06,1.19,2.06,2.38s-.92,2.33-2.83,2.33a4.13,4.13,0,0,1-2.06-.52Z"/><path class="cls-4" d="M158,231.82h-3.14v2.91h3.5v.88h-4.55v-8.09h4.37v.88h-3.32V231H158Z"/><path class="cls-4" d="M165.4,235.34a5.22,5.22,0,0,1-2.14.39,3.77,3.77,0,0,1-4-4.09,4,4,0,0,1,4.22-4.25,4.4,4.4,0,0,1,1.92.36l-.25.85a3.85,3.85,0,0,0-1.63-.33,3,3,0,0,0-3.16,3.33,2.94,2.94,0,0,0,3.11,3.25,4.25,4.25,0,0,0,1.7-.33Z"/><path class="cls-4" d="M168.58,228.41h-2.46v-.89h6v.89h-2.47v7.2h-1Z"/><path class="cls-4" d="M174.05,227.52v8.09h-1v-8.09Z"/><path class="cls-4" d="M182.78,231.48c0,2.78-1.69,4.26-3.75,4.26s-3.63-1.66-3.63-4.1,1.59-4.25,3.75-4.25S182.78,229.08,182.78,231.48Zm-6.27.13c0,1.73.94,3.28,2.58,3.28s2.59-1.53,2.59-3.36c0-1.61-.84-3.29-2.58-3.29S176.51,229.84,176.51,231.61Z"/><path class="cls-4" d="M184.14,235.61v-8.09h1.14l2.59,4.09a22.28,22.28,0,0,1,1.45,2.63h0c-.1-1.08-.12-2.07-.12-3.33v-3.38h1v8.09h-1.05l-2.57-4.11a27.32,27.32,0,0,1-1.51-2.69h0c.06,1,.09,2,.09,3.33v3.46Z"/><path class="cls-4" d="M194.58,227.63a9.84,9.84,0,0,1,1.91-.17,3.35,3.35,0,0,1,2.22.59,1.69,1.69,0,0,1,.67,1.43,1.92,1.92,0,0,1-1.37,1.77v0a2.07,2.07,0,0,1,1.67,2,2.19,2.19,0,0,1-.68,1.62,4.06,4.06,0,0,1-2.8.76,11.75,11.75,0,0,1-1.62-.1Zm1,3.31h.94c1.11,0,1.75-.57,1.75-1.35,0-1-.71-1.32-1.77-1.32a4.14,4.14,0,0,0-.92.07Zm0,3.87a5,5,0,0,0,.87.05c1.08,0,2.08-.39,2.08-1.57s-1-1.56-2.09-1.56h-.86Z"/><path class="cls-4" d="M206,232v.78h-3V232Z"/><path class="cls-4" d="M209.86,227.63a9.69,9.69,0,0,1,1.91-.17,3.3,3.3,0,0,1,2.21.59,1.7,1.7,0,0,1,.68,1.43,1.92,1.92,0,0,1-1.37,1.77v0a2.07,2.07,0,0,1,1.67,2,2.16,2.16,0,0,1-.69,1.62,4,4,0,0,1-2.79.76,11.75,11.75,0,0,1-1.62-.1Zm1,3.31h.95c1.1,0,1.75-.57,1.75-1.35,0-1-.72-1.32-1.78-1.32a4.28,4.28,0,0,0-.92.07Zm0,3.87a5.2,5.2,0,0,0,.88.05c1.08,0,2.07-.39,2.07-1.57s-.95-1.56-2.08-1.56h-.87Z"/><path class="cls-4" d="M127.87,246.79a3.52,3.52,0,0,0,1.78.5c1,0,1.61-.54,1.61-1.32s-.41-1.13-1.45-1.53c-1.26-.44-2-1.09-2-2.18a2.21,2.21,0,0,1,2.49-2.09,3.41,3.41,0,0,1,1.7.38l-.27.81a3.08,3.08,0,0,0-1.47-.37c-1,0-1.45.63-1.45,1.16,0,.72.47,1.07,1.53,1.48,1.31.5,2,1.13,2,2.26s-.88,2.22-2.7,2.22a4,4,0,0,1-2-.49Z"/><path class="cls-4" d="M137.63,244.39h-3v2.77H138V248h-4.33v-7.71h4.16v.84h-3.16v2.43h3Z"/><path class="cls-4" d="M144.65,247.75a5,5,0,0,1-2,.36,3.6,3.6,0,0,1-3.8-3.9,3.83,3.83,0,0,1,4-4,4.1,4.1,0,0,1,1.83.34l-.24.81a3.7,3.7,0,0,0-1.56-.32,2.87,2.87,0,0,0-3,3.18,2.8,2.8,0,0,0,3,3.1,4.06,4.06,0,0,0,1.62-.32Z"/><path class="cls-4" d="M147.68,241.14h-2.35v-.85H151v.85h-2.36V248h-1Z"/><path class="cls-4" d="M152.89,240.29V248h-1v-7.71Z"/><path class="cls-4" d="M161.21,244.07c0,2.65-1.61,4.05-3.58,4.05s-3.46-1.57-3.46-3.91,1.52-4,3.58-4S161.21,241.78,161.21,244.07Zm-6,.12c0,1.65.9,3.12,2.46,3.12s2.47-1.45,2.47-3.2c0-1.53-.8-3.13-2.46-3.13S155.23,242.5,155.23,244.19Z"/><path class="cls-4" d="M162.5,248v-7.71h1.09l2.47,3.9a21.56,21.56,0,0,1,1.38,2.5h0c-.09-1-.11-2-.11-3.16v-3.23h.94V248h-1l-2.44-3.91a23.16,23.16,0,0,1-1.44-2.57h0c.06,1,.08,1.9.08,3.18V248Z"/><path class="cls-4" d="M177.83,247.75a5,5,0,0,1-2,.36,3.6,3.6,0,0,1-3.81-3.9,3.83,3.83,0,0,1,4-4,4,4,0,0,1,1.82.34l-.24.81a3.62,3.62,0,0,0-1.55-.32,2.87,2.87,0,0,0-3,3.18,2.8,2.8,0,0,0,3,3.1,4.07,4.07,0,0,0,1.63-.32Z"/><path class="cls-4" d="M183.8,244.53v.75H181v-.75Z"/><path class="cls-4" d="M192.82,247.75a5,5,0,0,1-2,.36,3.6,3.6,0,0,1-3.8-3.9,3.83,3.83,0,0,1,4-4,4.1,4.1,0,0,1,1.83.34l-.24.81A3.7,3.7,0,0,0,191,241a2.87,2.87,0,0,0-3,3.18,2.8,2.8,0,0,0,3,3.1,4.06,4.06,0,0,0,1.62-.32Z"/><path class="cls-4" d="M196.35,246.79a3.59,3.59,0,0,0,1.78.5c1,0,1.62-.54,1.62-1.32s-.42-1.13-1.46-1.53c-1.25-.44-2-1.09-2-2.18a2.21,2.21,0,0,1,2.49-2.09,3.41,3.41,0,0,1,1.7.38l-.27.81a3,3,0,0,0-1.46-.37c-1.05,0-1.45.63-1.45,1.16,0,.72.46,1.07,1.53,1.48,1.3.5,2,1.13,2,2.26s-.88,2.22-2.69,2.22a4,4,0,0,1-2-.49Z"/><path class="cls-4" d="M203.12,240.29V248h-1v-7.71Z"/><path class="cls-4" d="M211.35,244.61c-.06-1.07-.13-2.36-.12-3.32h0c-.26.9-.58,1.86-1,2.92L208.87,248h-.76l-1.24-3.67a30.88,30.88,0,0,1-.89-3h0c0,1-.08,2.25-.14,3.4L205.6,248h-.95l.54-7.71h1.27l1.31,3.73c.32.95.58,1.79.78,2.59h0c.2-.77.47-1.62.81-2.59l1.38-3.73H212l.48,7.71h-1Z"/><path class="cls-4" d="M215,240.29V248h-1v-7.71Z"/><path class="cls-4" d="M216.78,240.29h1v6.87h3.29V248h-4.28Z"/><path class="cls-4" d="M223.42,245.57l-.8,2.43h-1l2.62-7.71h1.2L228,248H227l-.82-2.43Zm2.52-.77-.75-2.22c-.17-.5-.29-1-.4-1.41h0c-.12.46-.24.93-.39,1.4l-.75,2.23Z"/><path class="cls-4" d="M229.17,240.4a9.73,9.73,0,0,1,1.91-.16,3.13,3.13,0,0,1,2.23.63,1.89,1.89,0,0,1,.6,1.46,2,2,0,0,1-1.45,2v0a1.89,1.89,0,0,1,1.13,1.55,12,12,0,0,0,.6,2.12h-1a9.77,9.77,0,0,1-.52-1.84c-.22-1.07-.64-1.47-1.54-1.5h-.94V248h-1Zm1,3.51h1c1.06,0,1.74-.59,1.74-1.47s-.72-1.43-1.77-1.44a4.53,4.53,0,0,0-1,.09Z"/><path class="cls-4" d="M163.62,253.44a5.19,5.19,0,0,0-1,3.2,5.29,5.29,0,0,0,1,3.19h-.54a5.11,5.11,0,0,1-1-3.19,5.2,5.2,0,0,1,1-3.2Z"/><path class="cls-4" d="M164.28,258.05a2.4,2.4,0,0,0,1.22.34c.7,0,1.11-.37,1.11-.9s-.28-.77-1-1.05-1.39-.75-1.39-1.5a1.52,1.52,0,0,1,1.71-1.43,2.35,2.35,0,0,1,1.17.26l-.19.55a2.17,2.17,0,0,0-1-.25c-.72,0-1,.43-1,.79s.32.74,1.05,1c.89.35,1.35.78,1.35,1.56s-.61,1.52-1.85,1.52a2.71,2.71,0,0,1-1.35-.34Z"/><path class="cls-4" d="M171.94,258.71a3.52,3.52,0,0,1-1.4.25,2.47,2.47,0,0,1-2.61-2.68,2.63,2.63,0,0,1,2.76-2.77,2.89,2.89,0,0,1,1.25.23l-.16.56a2.44,2.44,0,0,0-1.07-.22,2,2,0,0,0-2.06,2.18,1.93,1.93,0,0,0,2,2.13,2.82,2.82,0,0,0,1.12-.22Z"/><path class="cls-4" d="M173.68,257.22l-.55,1.66h-.7l1.79-5.29H175l1.81,5.29h-.73l-.57-1.66Zm1.73-.54-.51-1.52c-.12-.34-.2-.66-.28-1h0c-.08.31-.17.63-.27,1l-.52,1.53Z"/><path class="cls-4" d="M177.63,253.59h.68v4.72h2.26v.57h-2.94Z"/><path class="cls-4" d="M184.07,256.4H182v1.91h2.29v.57h-3v-5.29h2.86v.58H182v1.67h2.06Z"/><path class="cls-4" d="M188.11,254.42h0l-.88.48-.14-.52,1.12-.6h.59v5.1h-.67Z"/><path class="cls-4" d="M190.69,255.71a.46.46,0,0,1,.47-.49.45.45,0,0,1,.46.49.47.47,0,1,1-.93,0Zm0,2.77a.46.46,0,0,1,.47-.49.45.45,0,0,1,.46.49.47.47,0,1,1-.93,0Z"/><path class="cls-4" d="M192.26,258.88v-.42l.54-.53c1.3-1.24,1.89-1.9,1.9-2.67a.91.91,0,0,0-1-1,1.68,1.68,0,0,0-1.08.43l-.22-.49a2.26,2.26,0,0,1,1.44-.51,1.43,1.43,0,0,1,1.56,1.48c0,.94-.68,1.7-1.76,2.74l-.41.37v0h2.29v.57Z"/><path class="cls-4" d="M199.67,256.28c0,1.73-.64,2.69-1.77,2.69s-1.67-.94-1.69-2.62.74-2.65,1.78-2.65S199.67,254.65,199.67,256.28Zm-2.77.07c0,1.33.41,2.08,1,2.08s1-.82,1-2.12-.32-2.08-1-2.08S196.9,255,196.9,256.35Z"/><path class="cls-4" d="M200.11,259.83a5.31,5.31,0,0,0,1-3.21,5.15,5.15,0,0,0-1-3.18h.54a5,5,0,0,1,1,3.19,5.11,5.11,0,0,1-1,3.2Z"/></g></g></svg>