<svg xmlns="http://www.w3.org/2000/svg" viewBox="0 0 200.21 158.96"><defs><style>.cls-1,.cls-2,.cls-3{fill:none;stroke-linejoin:round;}.cls-1,.cls-2,.cls-3,.cls-4{stroke:#c9c9c9;stroke-linecap:round;}.cls-1,.cls-4{stroke-width:0.12px;}.cls-2{stroke-width:0.48px;}.cls-3{stroke-width:0.24px;}.cls-4,.cls-5{fill:#c9c9c9;}.cls-4{stroke-miterlimit:7.5;}</style></defs><g id="Layer_2" data-name="Layer 2"><g id="Layer_1-2" data-name="Layer 1"><path class="cls-1" d="M91.06,5v7.54"/><path class="cls-1" d="M91.06,14.81v1"/><path class="cls-1" d="M91.06,18v5.72"/><path class="cls-1" d="M91.06,25.83V27"/><path class="cls-1" d="M91.06,29.05v5.86"/><path class="cls-1" d="M91.06,37v1.12"/><path class="cls-1" d="M91.06,40.22v5.72"/><path class="cls-1" d="M91.06,48.18v1"/><path class="cls-1" d="M91.06,51.38v5.73"/><path class="cls-1" d="M91.06,59.21v1"/><path class="cls-1" d="M91.06,62.42v5.72"/><path class="cls-1" d="M91.06,70.37v1"/><path class="cls-1" d="M91.06,73.59v5.73"/><path class="cls-1" d="M91.06,81.55v1"/><path class="cls-1" d="M91.06,84.61v5.87"/><path class="cls-1" d="M91.06,92.58V93.7"/><path class="cls-1" d="M91.06,95.79v5.86"/><path class="cls-1" d="M91.06,103.75v1"/><path class="cls-1" d="M91.06,106.82v5.87"/><path class="cls-1" d="M91.06,114.78v1.11"/><path class="cls-1" d="M91.06,118v5.73"/><path class="cls-1" d="M91.06,126v1"/><path class="cls-1" d="M91.06,129.16v5.73"/><path class="cls-1" d="M91.06,137.12v1"/><path class="cls-1" d="M91.06,140.33v5.73"/><path class="cls-1" d="M91.06,148.15v1.12"/><path class="cls-1" d="M91.06,151.36v7.54"/><path class="cls-1" d="M134.33,19.41V72.75"/><path class="cls-1" d="M134.33,96.77v53.34"/><path class="cls-2" d="M160.16,72.75H47.79"/><path class="cls-2" d="M160.16,96.77H47.79"/><path class="cls-3" d="M161.55,84.2H156"/><path class="cls-3" d="M152.34,84.2h-8.66"/><path class="cls-3" d="M139.91,84.2h-8.66"/><path class="cls-3" d="M127.63,84.2H119"/><path class="cls-3" d="M115.21,84.2h-8.65"/><path class="cls-3" d="M102.93,84.2H94.27"/><path class="cls-3" d="M90.51,84.2H81.85"/><path class="cls-3" d="M78.21,84.2H69.56"/><path class="cls-3" d="M65.8,84.2H57.14"/><path class="cls-3" d="M53.38,84.2H47.79"/><path class="cls-3" d="M158.76,85.32H148.29"/><path class="cls-3" d="M144.66,85.32H136"/><path class="cls-3" d="M132.24,85.32h-8.65"/><path class="cls-3" d="M120,85.32h-8.79"/><path class="cls-3" d="M107.53,85.32H98.88"/><path class="cls-3" d="M95.25,85.32H86.59"/><path class="cls-3" d="M82.83,85.32H74.17"/><path class="cls-3" d="M70.55,85.32h-8.8"/><path class="cls-3" d="M58.12,85.32H47.79"/><path class="cls-2" d="M47.79,72.75v24"/><path class="cls-1" d="M47.79,19.41V47.76"/><path class="cls-1" d="M47.79,121.76v28.35"/><path class="cls-2" d="M130.14,72.75v-25H47.79v74h82.35v-25"/><path class="cls-3" d="M68.31,53.34l1.25-.84V51.11l-1.25-.7-1.12.7V52.5l1.12.84"/><path class="cls-3" d="M68.45,51a.84.84,0,1,0,0,1.67.79.79,0,0,0,.7-.84.78.78,0,0,0-.7-.83"/><path class="cls-3" d="M68.45,51.25c-.42,0-.7.13-.7.55a.64.64,0,0,0,.7.56A.6.6,0,0,0,69,51.8a.5.5,0,0,0-.55-.55"/><path class="cls-3" d="M109.49,53.34l1.25-.84V51.11l-1.25-.7-1.26.7V52.5l1.26.84"/><path class="cls-3" d="M109.63,51a.89.89,0,0,0-.84.83.9.9,0,0,0,.84.84.78.78,0,0,0,.69-.84.77.77,0,0,0-.69-.83"/><path class="cls-3" d="M109.63,51.25c-.42,0-.7.13-.7.55a.64.64,0,0,0,.7.56.6.6,0,0,0,.55-.56.5.5,0,0,0-.55-.55"/><path class="cls-3" d="M68.31,116.31l1.25.7v1.4l-1.25.7-1.12-.7V117l1.12-.7"/><path class="cls-3" d="M68.45,116.87a.84.84,0,1,0,0,1.67.85.85,0,0,0,0-1.67"/><path class="cls-3" d="M68.45,117a.67.67,0,0,0-.7.7.64.64,0,0,0,.7.56.6.6,0,0,0,.55-.56.65.65,0,0,0-.55-.7"/><path class="cls-3" d="M109.49,116.31l1.25.7v1.4l-1.25.7-1.26-.7V117l1.26-.7"/><path class="cls-3" d="M109.63,116.87a.84.84,0,1,0,0,1.67.85.85,0,0,0,0-1.67"/><path class="cls-3" d="M109.63,117a.67.67,0,0,0-.7.7.64.64,0,0,0,.7.56.6.6,0,0,0,.55-.56.65.65,0,0,0-.55-.7"/><path class="cls-1" d="M23.64,84.75h152"/><path class="cls-1" d="M121.77,150.11l.13-2.66-.13-2.09"/><path class="cls-1" d="M120.93,140.19l-.28-1-1-2.66v-.14"/><path class="cls-1" d="M117.31,131.68v-.14l-1.68-2.24-.56-.84"/><path class="cls-1" d="M111.44,124.69l-1.54-1.26-2.37-1.67"/><path class="cls-1" d="M74.45,121.76l-2.23,1.67-1.67,1.26"/><path class="cls-1" d="M66.91,128.46l-.56.84-1.53,2.24-.14.14"/><path class="cls-1" d="M62.31,136.42v.14l-1,2.66-.13,1"/><path class="cls-1" d="M60.21,145.36l-.14,2.09.14,2.66"/><path class="cls-1" d="M117,47.76l-1.53-2.38-1.68-2"/><path class="cls-1" d="M109.9,39.94l-.41-.29L107.26,38l-.56-.28"/><path class="cls-1" d="M102,35.47l-2.23-.84-1.54-.27"/><path class="cls-1" d="M93,33.52l-1.68-.14-2.23.14"/><path class="cls-1" d="M83.8,34.36l-1,.13-2.65.84-.14.14"/><path class="cls-1" d="M75.29,37.7l-.28.14-2.37,1.67-.56.43"/><path class="cls-1" d="M68.17,43.43l-1.53,2L65,47.76"/><path class="cls-1" d="M60.35,19.41l-.28,2.8.14,2.92"/><path class="cls-1" d="M61.05,30.44l.14.42,1,2.8.14.42"/><path class="cls-1" d="M64.68,38.82l1.67,2.51,1.82,2.24"/><path class="cls-1" d="M113.81,43.57l1.82-2.24,1.68-2.51"/><path class="cls-1" d="M119.68,34.08l.27-.42.84-2.8.14-.42"/><path class="cls-1" d="M121.77,25.13l.13-2.92-.13-2.8"/><path class="cls-1" d="M64.54,121.76l1.81,2.66,2,2.51"/><path class="cls-1" d="M113.67,126.93l2-2.51,1.81-2.66"/><path class="cls-1" d="M45.42,19.27H88.55l1.26-3.21,2.51,6.56,1.25-3.35H136.7"/><path class="cls-1" d="M45.42,150.11H88.55l1.26-3.36,2.51,6.7,1.25-3.34H136.7"/><path class="cls-1" d="M160.16,70.23v12l3.34,1.26L156.8,86l3.36,1.11V99.28"/><path class="cls-1" d="M47.79,126.65v16.62"/><path class="cls-1" d="M68.45,122.6v20.67"/><path class="cls-1" d="M52,138.24H64.26"/><path class="cls-4" d="M52,139.36v-1.12H47.79Zm0-1.12H47.79l4.18-1Z"/><path class="cls-4" d="M64.26,137.26v1h4.19Zm0,1h4.19l-4.19,1.12Z"/><path class="cls-5" d="M55.89,136v.56H52.53c0-.14.15-.28.15-.42a1.86,1.86,0,0,1,.42-.7l.7-.7a4.05,4.05,0,0,0,1.11-1.11,1.07,1.07,0,0,0,.28-.7c0-.28,0-.41-.28-.56a1.06,1.06,0,0,0-.56-.28.81.81,0,0,0-.69.28c-.28.15-.28.42-.28.7h-.7a2.07,2.07,0,0,1,.56-1.11c.28-.28.56-.28,1.11-.28a1.51,1.51,0,0,1,1.12.28,1.25,1.25,0,0,1,.42,1c0,.28-.14.42-.14.56s-.28.42-.42.7-.56.41-1,.83-.55.42-.69.56-.14.28-.28.42Z"/><path class="cls-5" d="M56.45,135.3l.69-.14a1,1,0,0,0,.84,1,1,1,0,0,0,.83-.42,1.13,1.13,0,0,0,.29-.83,1.84,1.84,0,0,0-.29-.84,1.44,1.44,0,0,0-.83-.28c-.14,0-.28.14-.42.14l-.42.42-.55-.14.41-2.51h2.51v.55H57.56l-.28,1.4a1.27,1.27,0,0,1,1-.42,1.69,1.69,0,0,1,1.39,1.68,1.5,1.5,0,0,1-.28,1.11,1.76,1.76,0,0,1-1.39.56,2,2,0,0,1-1-.28A1.82,1.82,0,0,1,56.45,135.3Z"/><path class="cls-5" d="M60.21,134.05a4.14,4.14,0,0,1,.28-1.4,2.76,2.76,0,0,1,.42-.69,1.18,1.18,0,0,1,1-.28,1.26,1.26,0,0,1,.7.14c.14,0,.28.27.42.41a1.07,1.07,0,0,1,.28.7,2.73,2.73,0,0,1,.14,1.12,3.48,3.48,0,0,1-.14,1.39,1.29,1.29,0,0,1-.56.84c-.14.28-.56.28-.84.28a1.36,1.36,0,0,1-1.12-.42A3.77,3.77,0,0,1,60.21,134.05Zm.7,0a4,4,0,0,0,.28,1.67.77.77,0,0,0,.7.42c.28,0,.42-.14.7-.42a4,4,0,0,0,.28-1.67,3.65,3.65,0,0,0-.28-1.53c-.28-.29-.42-.43-.7-.43a.76.76,0,0,0-.7.43A3.65,3.65,0,0,0,60.91,134.05Z"/><path class="cls-1" d="M68.45,122.6v20.67"/><path class="cls-1" d="M109.49,122.6v20.67"/><path class="cls-1" d="M72.5,138.24h32.94"/><path class="cls-4" d="M72.5,139.36v-1.12H68.32Zm0-1.12H68.32l4.18-1Z"/><path class="cls-4" d="M105.44,137.26v1h4.18Zm0,1h4.18l-4.18,1.12Z"/><path class="cls-5" d="M83.53,135.3l.69-.14a1,1,0,0,0,.84,1,1,1,0,0,0,.84-.42,1.18,1.18,0,0,0,.27-.83,1.93,1.93,0,0,0-.27-.84,1.53,1.53,0,0,0-.84-.28c-.14,0-.28.14-.42.14l-.42.42-.56-.14.42-2.51h2.51v.55h-2l-.28,1.4a1.27,1.27,0,0,1,1-.42,1.4,1.4,0,0,1,1,.56,1.38,1.38,0,0,1,.42,1.12,1.5,1.5,0,0,1-.28,1.11,1.78,1.78,0,0,1-1.39.56,2,2,0,0,1-1-.28A3.24,3.24,0,0,1,83.53,135.3Z"/><path class="cls-5" d="M87.29,134.05a4.14,4.14,0,0,1,.28-1.4,1.33,1.33,0,0,1,.56-.69c.14-.28.42-.28.84-.28a1.26,1.26,0,0,1,.7.14c.14,0,.28.27.41.41a1,1,0,0,1,.29.7,2.73,2.73,0,0,1,.14,1.12,3.48,3.48,0,0,1-.14,1.39,1.32,1.32,0,0,1-.56.84c-.14.28-.56.28-.84.28a1.38,1.38,0,0,1-1.12-.42A3.77,3.77,0,0,1,87.29,134.05Zm.71,0a4,4,0,0,0,.27,1.67.77.77,0,0,0,.7.42c.28,0,.42-.14.7-.42a4,4,0,0,0,.28-1.67,3.65,3.65,0,0,0-.28-1.53c-.28-.29-.42-.43-.7-.43a.76.76,0,0,0-.7.43A3.69,3.69,0,0,0,88,134.05Z"/><path class="cls-5" d="M91.2,134.05a4.32,4.32,0,0,1,.14-1.4,1.33,1.33,0,0,1,.56-.69c.14-.28.56-.28.84-.28a1,1,0,0,1,.69.14c.14,0,.42.27.56.41a2.37,2.37,0,0,0,.28.7v1.12a3.48,3.48,0,0,1-.14,1.39,1.29,1.29,0,0,1-.56.84c-.14.28-.42.28-.83.28a1.59,1.59,0,0,1-1.12-.42A3.92,3.92,0,0,1,91.2,134.05Zm.56,0a4,4,0,0,0,.28,1.67.77.77,0,0,0,.7.42.76.76,0,0,0,.69-.42,4,4,0,0,0,.28-1.67,3.65,3.65,0,0,0-.28-1.53.75.75,0,0,0-.69-.43.76.76,0,0,0-.7.43A3.65,3.65,0,0,0,91.76,134.05Z"/><path class="cls-1" d="M109.49,122.6v20.67"/><path class="cls-1" d="M130.14,126.65v16.62"/><path class="cls-1" d="M113.67,138.24H126"/><path class="cls-4" d="M113.67,139.36v-1.12h-4.18Zm0-1.12h-4.18l4.18-1Z"/><path class="cls-4" d="M126,137.26v1h4.18Zm0,1h4.18L126,139.36Z"/><path class="cls-5" d="M117.58,136v.56h-3.21v-.42c.14-.28.29-.42.43-.7s.41-.42.83-.7a7.78,7.78,0,0,0,1.12-1.11,1.12,1.12,0,0,0,.27-.7.77.77,0,0,0-.27-.56,1,1,0,0,0-1.4,0,1.09,1.09,0,0,0-.28.7h-.56a1.39,1.39,0,0,1,.42-1.11,2.38,2.38,0,0,1,2.24,0,1.28,1.28,0,0,1,.41,1c0,.28,0,.42-.14.56s-.13.42-.42.7l-.83.83c-.42.28-.7.42-.7.56s-.28.28-.28.42Z"/><path class="cls-5" d="M118.28,135.3l.56-.14c.14.28.14.56.42.7a.7.7,0,0,0,.56.28.77.77,0,0,0,.69-.42c.28-.14.28-.42.28-.83a1,1,0,0,0-.28-.84,1.06,1.06,0,0,0-.69-.28c-.29,0-.43.14-.56.14l-.42.42-.56-.14.56-2.51h2.37v.55h-1.95l-.28,1.4a1.51,1.51,0,0,1,1-.42,1.73,1.73,0,0,1,1.12.56,1.38,1.38,0,0,1,.42,1.12,1.58,1.58,0,0,1-.42,1.11,1.36,1.36,0,0,1-1.25.56,2.6,2.6,0,0,1-1.12-.28A1.51,1.51,0,0,1,118.28,135.3Z"/><path class="cls-5" d="M122,134.05a4,4,0,0,1,.15-1.4,1.27,1.27,0,0,1,.55-.69,1,1,0,0,1,.85-.28c.28,0,.56,0,.69.14.28,0,.42.27.56.41s.14.42.28.7.14.7.14,1.12a3,3,0,0,1-.28,1.39,1.2,1.2,0,0,1-.42.84,1.16,1.16,0,0,1-1,.28,1.6,1.6,0,0,1-1.13-.42A4,4,0,0,1,122,134.05Zm.56,0a4,4,0,0,0,.28,1.67c.28.28.43.42.71.42a.75.75,0,0,0,.69-.42c.28-.28.28-.83.28-1.67s0-1.26-.28-1.53a.74.74,0,0,0-.69-.43c-.28,0-.43.14-.57.43A2.21,2.21,0,0,0,122.6,134.05Z"/><path class="cls-1" d="M126,138.24H121.9"/><path class="cls-1" d="M138.38,138.24H153"/><path class="cls-1" d="M130.14,138.24h4.19"/><path class="cls-4" d="M126,137.26v1h4.18Zm0,1h4.18L126,139.36Z"/><path class="cls-4" d="M138.38,139.36v-1.12h-4Zm0-1.12h-4l4-1Z"/><path class="cls-5" d="M144.24,135.3l.7-.14a1.07,1.07,0,0,0,.28.7.88.88,0,0,0,1.4-.14,1.22,1.22,0,0,0,.27-.83,2.07,2.07,0,0,0-.27-.84,1.56,1.56,0,0,0-.84-.28c-.15,0-.28.14-.42.14l-.42.42-.56-.14.42-2.51h2.51v.55h-1.95l-.28,1.4a1.26,1.26,0,0,1,1-.42,1.42,1.42,0,0,1,1,.56,1.38,1.38,0,0,1,.42,1.12,2.63,2.63,0,0,1-.28,1.11,1.79,1.79,0,0,1-1.39.56,2,2,0,0,1-1-.28A1.78,1.78,0,0,1,144.24,135.3Z"/><path class="cls-5" d="M148,134.05a3.91,3.91,0,0,1,.28-1.4,3.12,3.12,0,0,1,.41-.69,1.18,1.18,0,0,1,1-.28,1.28,1.28,0,0,1,.71.14c.14,0,.27.27.41.41a1,1,0,0,1,.28.7,2.73,2.73,0,0,1,.14,1.12,3.48,3.48,0,0,1-.14,1.39,1.28,1.28,0,0,1-.55.84c-.14.28-.56.28-.85.28a1.34,1.34,0,0,1-1.11-.42A3.77,3.77,0,0,1,148,134.05Zm.69,0c0,.84,0,1.39.28,1.67a.77.77,0,0,0,.7.42c.29,0,.43-.14.71-.42a4,4,0,0,0,.27-1.67,3.69,3.69,0,0,0-.27-1.53c-.28-.29-.42-.43-.71-.43a.76.76,0,0,0-.7.43A3.65,3.65,0,0,0,148.7,134.05Z"/><path class="cls-1" d="M63.43,117.58H26.3"/><path class="cls-1" d="M42.9,121.76H26.3"/><path class="cls-1" d="M31.18,113.52v-4.19"/><path class="cls-1" d="M31.18,126v14.38"/><path class="cls-1" d="M31.18,117.58v4.18"/><path class="cls-4" d="M32.3,113.52H31.18v4.06Zm-1.12,0v4.06l-1-4.06Z"/><path class="cls-4" d="M30.2,126h1v-4.19Zm1,0v-4.19L32.3,126Z"/><path class="cls-5" d="M28.11,138.8v-.7a1,1,0,0,0,1-1c0-.27-.14-.41-.42-.7a1.17,1.17,0,0,0-.83-.28,2,2,0,0,0-.84.28,1.09,1.09,0,0,0-.28.7c0,.28.14.42.14.56l.42.42-.14.56-2.52-.56v-2.38h.56v2l1.4.28a1.27,1.27,0,0,1-.42-1,1.06,1.06,0,0,1,.56-1,1.14,1.14,0,0,1,1.12-.56,1.58,1.58,0,0,1,1.11.42,1.36,1.36,0,0,1,.56,1.26,2.17,2.17,0,0,1-.28,1.12A2.81,2.81,0,0,1,28.11,138.8Z"/><path class="cls-5" d="M27,134.89a4.1,4.1,0,0,1-1.41-.15,1.4,1.4,0,0,1-.69-.55.85.85,0,0,1-.42-.84,1.07,1.07,0,0,1,.28-.7.45.45,0,0,1,.42-.42,3,3,0,0,1,.69-.41H27a3.48,3.48,0,0,1,1.39.14,1.22,1.22,0,0,1,.84.56c.28.13.28.41.28.83a1.59,1.59,0,0,1-.42,1.12A4,4,0,0,1,27,134.89Zm0-.56a4,4,0,0,0,1.67-.28.79.79,0,0,0,0-1.4,4.14,4.14,0,0,0-1.67-.28,3.88,3.88,0,0,0-1.54.28.79.79,0,0,0,0,1.4A3.71,3.71,0,0,0,27,134.33Z"/><path class="cls-1" d="M63.43,117.58H26.3"/><path class="cls-1" d="M31,84.75H26.3"/><path class="cls-1" d="M31.18,113.52V88.81"/><path class="cls-4" d="M32.3,113.52H31.18v4.06Zm-1.12,0v4.06l-1-4.06Z"/><path class="cls-4" d="M30.2,88.81h1V84.75Zm1,0V84.75l1.12,4.06Z"/><path class="cls-5" d="M29.51,104.59H28.25v2.09h-.56l-3.07-2.23V104h3.07v-.7h.56v.7h1.26Zm-1.82,0h-2.1l2.1,1.54Z"/><path class="cls-5" d="M27,102.77a4.2,4.2,0,0,1-1.41-.28c-.27,0-.55-.28-.69-.42a1.26,1.26,0,0,1-.42-1c0-.29.14-.42.28-.7s.14-.28.42-.42a1,1,0,0,1,.69-.28A2.8,2.8,0,0,1,27,99.56a3.48,3.48,0,0,1,1.39.14,1.29,1.29,0,0,1,.84.56,1,1,0,0,1,.28.84,1.37,1.37,0,0,1-.42,1.11A2.88,2.88,0,0,1,27,102.77Zm0-.7c.84,0,1.39,0,1.67-.28a.77.77,0,0,0,.42-.69c0-.29-.14-.42-.42-.7a4,4,0,0,0-1.67-.28,3.71,3.71,0,0,0-1.54.28c-.28.28-.42.41-.42.7a.77.77,0,0,0,.42.69C25.73,102.07,26.3,102.07,27,102.07Z"/><path class="cls-5" d="M27,99a4.47,4.47,0,0,1-1.41-.27,1.47,1.47,0,0,1-.69-.56.86.86,0,0,1-.42-.85c0-.28.14-.42.28-.7s.14-.27.42-.41a3,3,0,0,1,.69-.42H27a3.48,3.48,0,0,1,1.39.14,1.31,1.31,0,0,1,.84.55c.28.14.28.56.28.84a1.57,1.57,0,0,1-.42,1.12A3.66,3.66,0,0,1,27,99Zm0-.69A4,4,0,0,0,28.67,98a.8.8,0,0,0,0-1.41A4,4,0,0,0,27,96.35a3.74,3.74,0,0,0-1.54.27.8.8,0,0,0,0,1.41A3.71,3.71,0,0,0,27,98.31Z"/><path class="cls-1" d="M63.43,51.8H26.3"/><path class="cls-1" d="M42.9,47.76H26.3"/><path class="cls-1" d="M31.18,55.85v4.2"/><path class="cls-1" d="M31.18,43.57V29.05"/><path class="cls-1" d="M31.18,51.8v-4"/><path class="cls-4" d="M30.2,55.85h1V51.8Zm1,0V51.8l1.12,4.05Z"/><path class="cls-4" d="M32.3,43.57H31.18v4.19Zm-1.12,0v4.19l-1-4.19Z"/><path class="cls-5" d="M28.11,37.84v-.7a1.12,1.12,0,0,0,.7-.27,1.09,1.09,0,0,0,.28-.7c0-.28-.14-.42-.42-.71a1.17,1.17,0,0,0-.83-.28,2,2,0,0,0-.84.28,1.12,1.12,0,0,0-.28.71c0,.27.14.42.14.56l.42.41-.14.56-2.52-.56V34.77h.56v2l1.4.27a1.25,1.25,0,0,1-.42-1,1.07,1.07,0,0,1,.56-1,1.14,1.14,0,0,1,1.12-.56,1.55,1.55,0,0,1,1.11.43,1.35,1.35,0,0,1,.56,1.26,2.13,2.13,0,0,1-.28,1.11A2.81,2.81,0,0,1,28.11,37.84Z"/><path class="cls-5" d="M27,33.93a4.7,4.7,0,0,1-1.41-.13,1.38,1.38,0,0,1-.69-.57.84.84,0,0,1-.42-.83,1,1,0,0,1,.28-.7.45.45,0,0,1,.42-.42,3,3,0,0,1,.69-.42H27a3.48,3.48,0,0,1,1.39.14,1.29,1.29,0,0,1,.84.56c.28.14.28.41.28.84a1.62,1.62,0,0,1-.42,1.12A3.91,3.91,0,0,1,27,33.93Zm0-.55a3.92,3.92,0,0,0,1.67-.29.79.79,0,0,0,0-1.39A4,4,0,0,0,27,31.42a3.71,3.71,0,0,0-1.54.28.79.79,0,0,0,0,1.39A3.68,3.68,0,0,0,27,33.38Z"/><path class="cls-1" d="M63.43,51.8H26.3"/><path class="cls-1" d="M31,84.75H26.3"/><path class="cls-1" d="M31.18,55.85V80.57"/><path class="cls-4" d="M30.2,55.85h1V51.8Zm1,0V51.8l1.12,4.05Z"/><path class="cls-4" d="M32.3,80.57H31.18v4.19Zm-1.12,0v4.19l-1-4.19Z"/><path class="cls-5" d="M29.51,71.63H28.25v2.24h-.56l-3.07-2.24v-.56h3.07v-.7h.56v.7h1.26Zm-1.82,0h-2.1l2.1,1.54Z"/><path class="cls-5" d="M27,69.82a4.38,4.38,0,0,1-1.41-.14,1.38,1.38,0,0,1-.69-.57.85.85,0,0,1-.42-.84,1,1,0,0,1,.28-.69.45.45,0,0,1,.42-.42,3,3,0,0,1,.69-.42H27a3.48,3.48,0,0,1,1.39.14,1.29,1.29,0,0,1,.84.56c.28.14.28.42.28.83a1.63,1.63,0,0,1-.42,1.13A3.89,3.89,0,0,1,27,69.82Zm0-.56A3.92,3.92,0,0,0,28.67,69a.77.77,0,0,0,.42-.7.76.76,0,0,0-.42-.69A4,4,0,0,0,27,67.3a3.71,3.71,0,0,0-1.54.28.76.76,0,0,0-.42.69.77.77,0,0,0,.42.7A3.68,3.68,0,0,0,27,69.26Z"/><path class="cls-5" d="M27,66.05c-.56,0-1-.14-1.41-.14a3.21,3.21,0,0,1-.69-.56,1.27,1.27,0,0,1-.42-1,2.37,2.37,0,0,1,.28-.7q0-.21.42-.42a1.09,1.09,0,0,1,.69-.27A2.8,2.8,0,0,1,27,62.84a3.48,3.48,0,0,1,1.39.14c.42.14.7.27.84.55a1,1,0,0,1,.28.84,1.39,1.39,0,0,1-.42,1.12A2.88,2.88,0,0,1,27,66.05Zm0-.7c.84,0,1.39,0,1.67-.28a.77.77,0,0,0,.42-.7c0-.28-.14-.42-.42-.7A4,4,0,0,0,27,63.39a3.71,3.71,0,0,0-1.54.28c-.28.28-.42.42-.42.7a.77.77,0,0,0,.42.7C25.73,65.35,26.3,65.35,27,65.35Z"/><path class="cls-4" d="M147.31,69.4l-.84-.42-1.81,3.77Zm-.84-.42-1.81,3.77.84-4.19Z"/><path class="cls-1" d="M146.47,69l9.36-19.83"/><path class="cls-1" d="M47.79,14.39V1.68"/><path class="cls-1" d="M91.06,8.52V1.68"/><path class="cls-1" d="M52,6.56h34.9"/><path class="cls-4" d="M52,7.68V6.57H47.79Zm0-1.11H47.79L52,5.6Z"/><path class="cls-4" d="M86.87,5.59v1h4.19Zm0,1h4.19L86.87,7.68Z"/><path class="cls-5" d="M64,3.64l.56-.14a1.51,1.51,0,0,0,.42.69.73.73,0,0,0,.56.28,1.07,1.07,0,0,0,.7-.28,1.29,1.29,0,0,0,.42-1,.78.78,0,0,0-.42-.69c-.14-.28-.42-.28-.7-.28a.84.84,0,0,0-.56.14.3.3,0,0,0-.28.28l-.55-.14L64.54,0h2.37V.7H65L64.82,2a1,1,0,0,1,.84-.28,1.57,1.57,0,0,1,1.11.42,1.58,1.58,0,0,1,.42,1.11,1.57,1.57,0,0,1-.42,1.12,1.45,1.45,0,0,1-1.25.7,1.59,1.59,0,0,1-1.12-.42A1.3,1.3,0,0,1,64,3.64Z"/><path class="cls-5" d="M71,4.33v.56H67.75V4.47c.14-.28.28-.42.42-.7A5.43,5.43,0,0,1,69,3.08l1-1a1,1,0,0,0,.29-.84A.55.55,0,0,0,70,.7a.73.73,0,0,0-.56-.28,1.09,1.09,0,0,0-.7.28c-.27.14-.27.42-.27.7h-.7A2.81,2.81,0,0,1,68.31.28,2.13,2.13,0,0,1,69.42,0a1.61,1.61,0,0,1,1.13.42,1.09,1.09,0,0,1,.42,1c0,.14-.14.28-.14.56a1.77,1.77,0,0,0-.42.56c-.14.14-.57.42-1,.83-.27.29-.56.56-.7.7a.5.5,0,0,0-.13.28Z"/><path class="cls-5" d="M71.52,3.64l.7-.14a.81.81,0,0,0,.28.69,1.06,1.06,0,0,0,.69.28c.29,0,.43-.14.7-.28a2,2,0,0,0,.28-1,1.06,1.06,0,0,0-.28-.69c-.14-.28-.41-.28-.7-.28s-.41,0-.55.14-.28.14-.42.28l-.56-.14L72.08,0h2.51V.7h-2L72.36,2a1.18,1.18,0,0,1,1-.28,1.26,1.26,0,0,1,1,.42,1.73,1.73,0,0,1,.56,1.11,1.57,1.57,0,0,1-.42,1.12,1.65,1.65,0,0,1-1.26.7,1.37,1.37,0,0,1-1.11-.42A2.28,2.28,0,0,1,71.52,3.64Z"/><path class="cls-1" d="M134.33,14.39V1.68"/><path class="cls-1" d="M91.06,8.52V1.68"/><path class="cls-1" d="M130.14,6.56H95.25"/><path class="cls-4" d="M130.14,5.59v1h4.18Zm0,1h4.18l-4.18,1.12Z"/><path class="cls-4" d="M95.25,7.68V6.57H91.06Zm0-1.11H91.06l4.19-1Z"/><path class="cls-5" d="M107.26,3.64l.55-.14a.81.81,0,0,0,.28.69c.28.14.42.28.7.28a1.07,1.07,0,0,0,.7-.28,2,2,0,0,0,.28-1,1.06,1.06,0,0,0-.28-.69c-.14-.28-.42-.28-.7-.28s-.42,0-.56.14-.28.14-.42.28l-.55-.14L107.81,0h2.37V.7h-2L108,2a1.33,1.33,0,0,1,1-.28A1.81,1.81,0,0,1,110,2.1a1.58,1.58,0,0,1,.42,1.11A1.57,1.57,0,0,1,110,4.33a1.44,1.44,0,0,1-1.25.7,1.59,1.59,0,0,1-1.12-.42A1.29,1.29,0,0,1,107.26,3.64Z"/><path class="cls-5" d="M114.09,4.33v.56h-3.21a.51.51,0,0,1,.14-.42c0-.28.14-.42.42-.7l.7-.69a11.16,11.16,0,0,0,1.11-1,2,2,0,0,0,.28-.84,1.06,1.06,0,0,0-.28-.56,1.07,1.07,0,0,0-.7-.28c-.27,0-.41.14-.69.28a1.07,1.07,0,0,0-.28.7H111a1.59,1.59,0,0,1,.42-1.12A2.63,2.63,0,0,1,112.55,0a1.38,1.38,0,0,1,1.12.42,1.09,1.09,0,0,1,.42,1A1.06,1.06,0,0,1,114,2c0,.14-.14.28-.28.56a4.65,4.65,0,0,0-1,.83,3.53,3.53,0,0,0-.69.7c-.14,0-.14.14-.28.28Z"/><path class="cls-5" d="M114.8,3.64l.55-.14a1.51,1.51,0,0,0,.42.69.73.73,0,0,0,.56.28,1,1,0,0,0,.69-.28,1.22,1.22,0,0,0,.42-1,1.06,1.06,0,0,0-.27-.69,1,1,0,0,0-.84-.28.84.84,0,0,0-.56.14.3.3,0,0,0-.28.28l-.56-.14L115.35,0h2.51V.7h-2L115.63,2a1,1,0,0,1,.84-.28,1.57,1.57,0,0,1,1.11.42A1.58,1.58,0,0,1,118,3.21a1.57,1.57,0,0,1-.42,1.12,1.45,1.45,0,0,1-1.25.7,1.59,1.59,0,0,1-1.12-.42A1.26,1.26,0,0,1,114.8,3.64Z"/><path class="cls-5" d="M151.22,45.52l-.42-.42a.51.51,0,0,1-.14-.42,1.88,1.88,0,0,1,.29-.84,2,2,0,0,1,.83-.27,2.14,2.14,0,0,1,1,.27,2,2,0,0,1,.28.84.51.51,0,0,1-.14.42l-.42.42a.75.75,0,0,1,.56.42c.13.14.13.28.13.56a1.26,1.26,0,0,1-.41,1,1.63,1.63,0,0,1-1,.28,1.51,1.51,0,0,1-1-.42,1.19,1.19,0,0,1-.27-.84,1.35,1.35,0,0,1,.13-.7A1.06,1.06,0,0,1,151.22,45.52Zm0-.84a.49.49,0,0,0,.56.56c.28,0,.42,0,.56-.14a.51.51,0,0,0,.14-.42c0-.28,0-.41-.14-.56-.14,0-.28-.14-.56-.14s-.28.14-.42.14C151.22,44.27,151.22,44.4,151.22,44.68ZM151,46.5c0,.14.13.28.13.42s.14.28.28.28a.51.51,0,0,0,.42.14c.28,0,.56,0,.7-.28s.14-.28.14-.56,0-.42-.14-.56a.84.84,0,0,0-1.26,0A.72.72,0,0,0,151,46.5Z"/><path class="cls-5" d="M153.73,46.64l.42-.14c.14.28.14.56.28.7s.28.14.56.14.42,0,.56-.28a.7.7,0,0,0,0-1.12.73.73,0,0,0-.56-.28.43.43,0,0,0-.28.14v-.42h.14a1.06,1.06,0,0,0,.56-.28c.14,0,.27-.28.27-.42a.74.74,0,0,0-.27-.56c-.14,0-.28-.14-.42-.14s-.42.14-.56.14a.86.86,0,0,0-.14.56h-.56a.86.86,0,0,1,.42-.84,1.58,1.58,0,0,1,.84-.27.84.84,0,0,1,.56.14c.28.13.42.27.42.41s.13.28.13.56a.54.54,0,0,1-.13.42q0,.21-.42.42a.69.69,0,0,1,.55.28,1.07,1.07,0,0,1,.28.7,1,1,0,0,1-.41.84,1.29,1.29,0,0,1-1,.42,2,2,0,0,1-1-.28A2,2,0,0,1,153.73,46.64Z"/><path class="cls-5" d="M157.64,45.52q-.42-.21-.42-.42c-.14-.14-.28-.28-.28-.42a1.21,1.21,0,0,1,.42-.84,1.22,1.22,0,0,1,.83-.27,1.59,1.59,0,0,1,.85.27,1,1,0,0,1,.28.84.51.51,0,0,1-.14.42q0,.21-.42.42c.28,0,.42.14.56.42a.73.73,0,0,1,.28.56,1.27,1.27,0,0,1-.42,1,2.06,2.06,0,0,1-1,.28,1.26,1.26,0,0,1-1-.42.85.85,0,0,1-.42-.84c0-.28.14-.42.28-.7A.73.73,0,0,1,157.64,45.52Zm-.14-.84c0,.14.14.28.14.42a.82.82,0,0,0,.55.14.49.49,0,0,0,.42-.14c.15-.14.29-.28.29-.42a.72.72,0,0,0-.29-.56c-.13,0-.27-.14-.42-.14a1.32,1.32,0,0,0-.41.14A.74.74,0,0,0,157.5,44.68Zm-.14,1.82a.51.51,0,0,0,.14.42.3.3,0,0,0,.28.28.49.49,0,0,0,.41.14c.29,0,.42,0,.57-.28a.7.7,0,0,0,0-1.12.75.75,0,0,0-.57-.28,1,1,0,0,0-.83.84Z"/><path class="cls-5" d="M161.41,47.76l1.11-1.54-1-1.54h.56l.41.7c.15.14.29.28.29.42,0-.14.14-.28.27-.42l.42-.7h.56l-1,1.4,1.12,1.68h-.56l-.69-1-.14-.28L162,47.76Z"/><path class="cls-5" d="M168.67,47.2v.56H166v-.42c.14-.14.28-.42.42-.56s.28-.42.56-.56a7.55,7.55,0,0,0,1-.84c.14-.28.28-.42.28-.7s-.14-.28-.28-.41a.69.69,0,0,0-.56-.29.71.71,0,0,0-.56.29.69.69,0,0,0-.28.55h-.42a2,2,0,0,1,.28-1,2.14,2.14,0,0,1,1-.27,2.1,2.1,0,0,1,1,.27,2,2,0,0,1,.28.84.84.84,0,0,1-.14.56c0,.14-.14.28-.28.42s-.41.42-.7.7-.56.56-.7.56-.14.14-.14.28Z"/><path class="cls-5" d="M169.37,46.78l.42-.14a.75.75,0,0,0,.27.56.53.53,0,0,0,.42.14.51.51,0,0,0,.42-.14c.14,0,.14-.14.28-.28s.14-.28.14-.42a1.26,1.26,0,0,0,.14-.7l-.42.42c-.14,0-.42.14-.56.14a.83.83,0,0,1-.83-.42,1.27,1.27,0,0,1-.42-1,1.29,1.29,0,0,1,.42-1,1,1,0,0,1,.83-.41,2.12,2.12,0,0,1,.84.27,1.93,1.93,0,0,1,.42.56,2.73,2.73,0,0,1,.14,1.12,3.11,3.11,0,0,1-.14,1.26,3.06,3.06,0,0,1-.42.7,1.39,1.39,0,0,1-1.67,0A1.07,1.07,0,0,1,169.37,46.78ZM171.32,45c0-.28,0-.56-.14-.69a1,1,0,0,0-.56-.29.74.74,0,0,0-.56.29c-.27.13-.27.41-.27.69a1,1,0,0,0,.14.7,1.25,1.25,0,0,0,.69.14.84.84,0,0,0,.56-.14A1,1,0,0,0,171.32,45Z"/><path class="cls-5" d="M175.08,47.2v.56H172.3c0-.14.13-.28.13-.42a1,1,0,0,1,.29-.56,3,3,0,0,1,.69-.56l.84-.84c.14-.28.28-.42.28-.7a.48.48,0,0,0-.14-.41,1,1,0,0,0-.56-.29,1,1,0,0,0-.7.29c-.14.13-.14.27-.14.55h-.56a1.25,1.25,0,0,1,.43-1,2.06,2.06,0,0,1,1-.27,1.58,1.58,0,0,1,.84.27,1.24,1.24,0,0,1,.41.84.84.84,0,0,1-.14.56c0,.14-.13.28-.27.42s-.42.42-.84.7-.42.56-.56.56l-.28.28Z"/><path class="cls-5" d="M177.05,47.76l1-1.54-1-1.54h.69l.42.7a.51.51,0,0,1,.14.42c.14-.14.28-.28.28-.42l.56-.7h.56l-1,1.4,1.12,1.68h-.7l-.56-1-.14-.28-.84,1.26Z"/><path class="cls-5" d="M183.46,47.76H183V44.55c-.14,0-.28.14-.56.28-.13.14-.27.28-.41.28v-.56c.28,0,.41-.28.69-.42s.28-.41.42-.55h.28Z"/><path class="cls-5" d="M184.85,44.12v-.41h2.66V44a8.36,8.36,0,0,0-.83,1.12,6.82,6.82,0,0,0-.56,1.54,2.73,2.73,0,0,0-.14,1.12h-.56a3.88,3.88,0,0,1,.14-1.26,5,5,0,0,1,.56-1.26,8.85,8.85,0,0,1,.69-1.12Z"/><path class="cls-5" d="M190.58,44.54l-.42.14c-.14-.28-.14-.41-.28-.41-.13-.15-.27-.29-.42-.29s-.41,0-.41.14c-.28.15-.28.28-.42.56s-.14.56-.14.84c.14-.14.28-.28.42-.28a.82.82,0,0,1,.55-.14,1,1,0,0,1,.84.28,1.27,1.27,0,0,1,.42,1,1.07,1.07,0,0,1-.28.7c0,.28-.14.42-.42.56a1,1,0,0,1-.7.14,1.26,1.26,0,0,1-1-.42,2.25,2.25,0,0,1-.42-1.54,3.18,3.18,0,0,1,.42-1.82,1.62,1.62,0,0,1,1.11-.41,1.09,1.09,0,0,1,.7.27A.78.78,0,0,1,190.58,44.54Zm-2.09,1.82c0,.14.14.28.14.56s.14.28.28.28a.5.5,0,0,0,.41.14.7.7,0,0,0,.56-.28,1.07,1.07,0,0,0,.28-.7c0-.28-.14-.42-.28-.7s-.27-.14-.56-.14a.83.83,0,0,0-.55.14C188.63,45.94,188.49,46.08,188.49,46.36Z"/><path class="cls-5" d="M195.61,43.57h.56v2.37a2.08,2.08,0,0,1-.14,1,1.93,1.93,0,0,1-.42.56,1.18,1.18,0,0,1-1,.28,2.1,2.1,0,0,1-1-.14c-.28-.14-.42-.42-.56-.56a2.73,2.73,0,0,1-.14-1.12V43.57h.56v2.37c0,.42,0,.7.14.84s.14.28.28.42.42.14.56.14a1.18,1.18,0,0,0,.84-.28c.28-.28.28-.56.28-1.12Z"/><path class="cls-5" d="M197,47.76V43.57h1.54c.42,0,.56.14.83.14s.29.27.42.41.14.28.14.56a.51.51,0,0,1-.14.42l-.42.42c.29,0,.42.14.56.42a.73.73,0,0,1,.28.56c0,.14-.14.42-.14.56s-.28.28-.28.42-.28.14-.56.14c-.13,0-.41.14-.55.14Zm.56-2.38h1a1.41,1.41,0,0,0,.42-.14c.14,0,.27-.14.41-.14v-.7c-.14-.13-.14-.28-.27-.28h-1.54Zm0,1.82H199c.14,0,.27,0,.27-.14a.49.49,0,0,0,.28-.14c0-.14.15-.28.15-.42s-.15-.28-.15-.42a.5.5,0,0,0-.41-.14c-.14-.14-.28-.14-.56-.14h-1Z"/><path class="cls-5" d="M141.17,20.1l.56-.13a.74.74,0,0,0,.28.56.61.61,0,0,0,.42.14.51.51,0,0,0,.42-.14l.28-.29c0-.14.14-.27.14-.41s.14-.42.14-.7c-.14.14-.28.28-.42.28a1.06,1.06,0,0,1-.56.14,1.18,1.18,0,0,1-1-.28,2,2,0,0,1-.28-1,1.08,1.08,0,0,1,.42-1,.85.85,0,0,1,.84-.42,1,1,0,0,1,.7.14,1.35,1.35,0,0,1,.55.69,2.43,2.43,0,0,1,.14,1.12,3,3,0,0,1-.14,1.25,1.32,1.32,0,0,1-.55.71,1.07,1.07,0,0,1-.7.28,1.18,1.18,0,0,1-.84-.28A2.94,2.94,0,0,1,141.17,20.1Zm2.1-1.81a1.06,1.06,0,0,0-.14-.7c-.28-.27-.42-.27-.56-.27s-.42.14-.7.27a1.06,1.06,0,0,0-.14.7c0,.28,0,.42.14.56a.56.56,0,0,0,.56.28.77.77,0,0,0,.7-.28C143.27,18.71,143.27,18.57,143.27,18.29Z"/><path class="cls-5" d="M144.38,19a2.34,2.34,0,0,1,.14-1.11.65.65,0,0,1,.42-.7c.14-.28.42-.28.69-.28s.43,0,.56.14a.38.38,0,0,1,.43.42.72.72,0,0,1,.27.56,2,2,0,0,1,.14,1c0,.42-.14.84-.14,1.11a2.65,2.65,0,0,1-.42.71,2,2,0,0,1-.84.28.84.84,0,0,1-.83-.42A3,3,0,0,1,144.38,19Zm.42,0a2,2,0,0,0,.28,1.25.75.75,0,0,0,.55.43c.29,0,.43-.14.56-.43a2,2,0,0,0,.28-1.25c0-.7,0-1.11-.28-1.4a.72.72,0,0,0-.56-.27,1.13,1.13,0,0,0-.55.27A3,3,0,0,0,144.8,19Z"/><path class="cls-5" d="M147.45,19a11.08,11.08,0,0,1,.14-1.11,1,1,0,0,1,.55-.7c.15-.28.43-.28.7-.28s.42,0,.56.14.28.14.43.42c.14.13.14.27.28.56s.14.55.14,1A2.55,2.55,0,0,1,150,20.1a.77.77,0,0,1-.43.71,1.07,1.07,0,0,1-.7.28,1.25,1.25,0,0,1-1-.42A3,3,0,0,1,147.45,19Zm.56,0a1.91,1.91,0,0,0,.28,1.25c.14.29.28.43.55.43s.42-.14.56-.43a2,2,0,0,0,.28-1.25,3,3,0,0,0-.28-1.4.71.71,0,0,0-1.11,0A2.92,2.92,0,0,0,148,19Z"/><path class="cls-5" d="M152.06,21l1.11-1.54-1-1.39h.56l.56.69a.49.49,0,0,0,.14.28c.13,0,.13-.14.27-.28l.42-.69h.56l-1,1.39L154.85,21h-.56l-.7-.85-.13-.27-.7,1.12Z"/><path class="cls-5" d="M159.32,20.53V21h-2.66v-.28c.14-.14.28-.43.42-.57s.28-.41.56-.69a2,2,0,0,0,1-.84,1,1,0,0,0,.29-.55,1,1,0,0,0-.29-.56c-.13-.14-.27-.14-.56-.14s-.41,0-.55.14a1,1,0,0,0-.28.69L156.8,18a1.19,1.19,0,0,1,.42-.84,1.17,1.17,0,0,1,.83-.28,2,2,0,0,1,1,.28,2,2,0,0,1,.28.84v.41a1.93,1.93,0,0,1-.42.56l-.71.7a4.14,4.14,0,0,0-.69.55c0,.15-.14.15-.14.29Z"/><path class="cls-5" d="M159.88,19c0-.56.13-.84.13-1.11a1.58,1.58,0,0,1,.43-.7,1,1,0,0,1,.83-.28.84.84,0,0,1,.56.14q.21,0,.42.42c.14.13.14.27.27.56v1a2.85,2.85,0,0,1-.13,1.11,1.19,1.19,0,0,1-.42.71,1.07,1.07,0,0,1-.7.28,1.24,1.24,0,0,1-1-.42A2.93,2.93,0,0,1,159.88,19Zm.56,0c0,.7,0,1.11.27,1.25.14.29.29.43.56.43a.74.74,0,0,0,.56-.43,2,2,0,0,0,.28-1.25,3,3,0,0,0-.28-1.4,1.12,1.12,0,0,0-.56-.27.77.77,0,0,0-.56.27A3.07,3.07,0,0,0,160.44,19Z"/><path class="cls-5" d="M165.87,21V17.32h-1.25V16.9h3.21v.42h-1.4V21Z"/><path class="cls-5" d="M168.39,21V16.9H169v1.67h2.09V16.9h.56V21h-.56V19.13H169V21Z"/><path class="cls-5" d="M172.43,21v-4H173v1.95l2.1-1.95h.7l-1.67,1.53L175.79,21h-.7l-1.4-2.09-.7.69V21Z"/><path class="cls-5" d="M177.88,21V16.9h2.23c.14.14.28.14.42.28s.28.14.42.28V18a1.17,1.17,0,0,1-.28,1c-.28.28-.56.28-1.25.28h-1V21Zm.56-2.1h1.12a5.81,5.81,0,0,0,.69-.14.84.84,0,0,0,.14-.56v-.56c-.14,0-.28-.13-.42-.13s-.27-.14-.55-.14h-1Z"/><path class="cls-5" d="M181.65,21V16.9h.56v3.63h2.09V21Z"/><path class="cls-5" d="M184.44,21l1.53-4h.56l1.68,4h-.56l-.41-1.25h-1.83L185,21Zm1.11-1.67H187l-.42-1.12c-.14-.42-.14-.69-.28-.83a6.28,6.28,0,0,1-.14.69Z"/><path class="cls-5" d="M189.75,21V17.32h-1.4V16.9h3.35v.42h-1.4V21Z"/><path class="cls-5" d="M192.26,21V16.9h2.92v.42h-2.51v1.25H195v.56h-2.37v1.4h2.51V21Z"/><path class="cls-5" d="M141.17,27.93l1.12-1.54-1-1.4h.56l.42.7c.14,0,.14.14.28.28a.49.49,0,0,1,.14-.28l.56-.7h.55l-1,1.4L144,27.93h-.69l-.56-1-.14-.28-.84,1.26Z"/><path class="cls-5" d="M147.73,27.93h-.56V24.72c-.14.14-.28.14-.42.27s-.42.28-.56.28v-.41a1.45,1.45,0,0,0,.7-.56c.28-.14.42-.28.42-.56h.42Z"/><path class="cls-5" d="M149,25.83a2.66,2.66,0,0,1,.14-1.11,3.06,3.06,0,0,1,.42-.7,1.56,1.56,0,0,1,.85-.28c.14,0,.41.14.56.14l.41.42c0,.14.14.42.14.56a2,2,0,0,1,.14,1,3.11,3.11,0,0,1-.14,1.26c-.14.29-.28.42-.42.7a1.25,1.25,0,0,1-.69.14,1.29,1.29,0,0,1-1-.42A2.43,2.43,0,0,1,149,25.83Zm.56,0a3.51,3.51,0,0,0,.14,1.4,1.45,1.45,0,0,0,.71.28,1,1,0,0,0,.56-.28,3.77,3.77,0,0,0,.13-1.4c0-.7,0-1.11-.13-1.26a.78.78,0,0,0-.56-.41.73.73,0,0,0-.56.28C149.54,24.72,149.54,25.13,149.54,25.83Z"/><path class="cls-5" d="M152.2,25.83a2.66,2.66,0,0,1,.14-1.11,3.06,3.06,0,0,1,.42-.7,1,1,0,0,1,.7-.28c.27,0,.41.14.55.14s.42.28.42.42a1.06,1.06,0,0,1,.28.56,2,2,0,0,1,.14,1,3.11,3.11,0,0,1-.14,1.26c-.14.29-.28.42-.42.7a1.76,1.76,0,0,1-.83.14,1,1,0,0,1-.84-.42A2.43,2.43,0,0,1,152.2,25.83Zm.42,0a3,3,0,0,0,.28,1.4,1,1,0,0,0,.56.28.69.69,0,0,0,.55-.28c.28-.28.28-.7.28-1.4s0-1.11-.28-1.26-.28-.41-.55-.41a1.06,1.06,0,0,0-.56.28A3,3,0,0,0,152.62,25.83Z"/><path class="cls-5" d="M155.41,25.83a2.66,2.66,0,0,1,.14-1.11A.75.75,0,0,1,156,24a1,1,0,0,1,.69-.28c.28,0,.42.14.56.14l.42.42a1.06,1.06,0,0,1,.28.56c0,.27.13.55.13,1s-.13,1-.13,1.26a2.33,2.33,0,0,1-.56.7,1,1,0,0,1-.7.14,1.29,1.29,0,0,1-1-.42A4.24,4.24,0,0,1,155.41,25.83Zm.42,0a3.18,3.18,0,0,0,.27,1.4.7.7,0,0,0,1.12,0,3,3,0,0,0,.28-1.4,2,2,0,0,0-.28-1.26c-.14-.27-.28-.41-.56-.41a.73.73,0,0,0-.56.28A3.12,3.12,0,0,0,155.83,25.83Z"/><path class="cls-5" d="M160.3,27.93V23.74h.55v3.64h2v.55Z"/><path class="cls-5" d="M163.36,25.83a2.08,2.08,0,0,1,.56-1.53,1.62,1.62,0,0,1,1.4-.56,2.6,2.6,0,0,1,1,.28,1.69,1.69,0,0,1,.7.7,3.19,3.19,0,0,1,.28,1.11A2.64,2.64,0,0,1,167,27a1.69,1.69,0,0,1-.7.7,1.32,1.32,0,0,1-1,.28,1.68,1.68,0,0,1-1.12-.28c-.28-.14-.42-.42-.7-.7A2.73,2.73,0,0,1,163.36,25.83Zm.56.14a1.59,1.59,0,0,0,.42,1.12,1.07,1.07,0,0,0,1,.42,1.23,1.23,0,0,0,1-.42,1.71,1.71,0,0,0,.42-1.26c0-.28-.14-.56-.14-.84a1.07,1.07,0,0,0-.56-.55c-.28-.14-.42-.28-.69-.28a1.3,1.3,0,0,0-1,.41A1.87,1.87,0,0,0,163.92,26Z"/><path class="cls-5" d="M168,27.93V23.74h.56l2.1,3.21V23.74h.56v4.19h-.56l-2.24-3.21v3.21Z"/><path class="cls-5" d="M174,26.25v-.42h1.67v1.55a3.23,3.23,0,0,1-.7.41,2.31,2.31,0,0,1-1,.14,2,2,0,0,1-1.81-1,2.64,2.64,0,0,1-.28-1.12,3.19,3.19,0,0,1,.28-1.11,1.63,1.63,0,0,1,.7-.7,3.19,3.19,0,0,1,1.11-.28,1.78,1.78,0,0,1,.84.14c.13.14.42.28.56.42a1.11,1.11,0,0,1,.27.69l-.41.14c-.15-.27-.15-.41-.29-.56s-.27-.13-.41-.27-.28-.14-.56-.14-.42.14-.7.14-.28.14-.41.27-.14.29-.29.42c0,.28-.14.56-.14.84a1.92,1.92,0,0,0,.29,1c.14.14.27.42.55.42a1,1,0,0,0,.7.28c.28,0,.42-.13.7-.13s.41-.29.56-.29v-.84Z"/><path class="cls-5" d="M143,34.91v-1h-1.82v-.55l2-2.66h.42v2.66H144v.55h-.41v1Zm0-1.53V31.56l-1.26,1.82Z"/><path class="cls-5" d="M144.8,34.91V30.72h.56l2.1,3.21V30.72H148v4.19h-.56l-2.24-3.2v3.2Z"/><path class="cls-5" d="M148.7,32.81a2.1,2.1,0,0,1,.56-1.53,1.81,1.81,0,0,1,1.4-.56,2,2,0,0,1,1,.28,1.15,1.15,0,0,1,.7.7,3.24,3.24,0,0,1,.28,1.11,2.6,2.6,0,0,1-.28,1.12,1.63,1.63,0,0,1-.7.7,1.18,1.18,0,0,1-1,.28,1.2,1.2,0,0,1-1-.28,1.13,1.13,0,0,1-.7-.7A3.24,3.24,0,0,1,148.7,32.81Zm.56,0a1.72,1.72,0,0,0,.42,1.27,1.29,1.29,0,0,0,1,.41,1.26,1.26,0,0,0,1-.41,1.72,1.72,0,0,0,.42-1.27,1.8,1.8,0,0,0-.14-.84,1.11,1.11,0,0,0-.56-.55,1,1,0,0,0-.7-.28,1.3,1.3,0,0,0-1,.42A1.7,1.7,0,0,0,149.26,32.81Z"/><path class="cls-5" d="M157.36,34.36v.55h-2.79c0-.14.14-.28.14-.42s.14-.27.28-.56a7,7,0,0,0,.69-.55l.84-.85a.75.75,0,0,0,.28-.69.51.51,0,0,0-.14-.42.83.83,0,0,0-1.25,0c-.14.14-.14.28-.14.55h-.56a1.26,1.26,0,0,1,.42-1,2,2,0,0,1,1-.28,1,1,0,0,1,.84.42.77.77,0,0,1,.42.7c0,.27,0,.42-.14.56s-.14.27-.28.41-.42.42-.84.85c-.27.14-.42.42-.55.42s-.14.28-.28.28Z"/><path class="cls-5" d="M159.46,34.91v-1h-1.68v-.55l1.82-2.66H160v2.66h.56v.55H160v1Zm0-1.53V31.56l-1.27,1.82Z"/><path class="cls-5" d="M162.81,34.91V30.72h1.39c.42,0,.56.14.84.14a1,1,0,0,1,.55.28,1.19,1.19,0,0,1,.42.7,2,2,0,0,1,.28,1c0,.28-.14.57-.14.85s-.14.42-.28.56-.28.27-.41.41-.28.14-.42.14a1.26,1.26,0,0,1-.7.14Zm.55-.55h1.54c.14-.14.28-.14.42-.28s.14-.28.27-.56a6.32,6.32,0,0,0,.14-.71,1.68,1.68,0,0,0-.27-1,1.09,1.09,0,0,0-.56-.56h-1.54Z"/><path class="cls-5" d="M167.5,30.76v4.18H167V30.76Z"/><path class="cls-5" d="M168.11,34.91l1.54-4.19h.56l1.67,4.19h-.56l-.42-1.25h-1.81l-.42,1.25Zm1.26-1.68h1.25l-.41-1.12c-.15-.41-.15-.69-.28-1,0,.28-.14.56-.14.83Z"/><path class="cls-5" d="M174,34.91V30.72h.56V32.4h2.09V30.72h.56v4.19h-.56V33h-2.09v1.95Z"/><path class="cls-5" d="M177.88,32.81a2.93,2.93,0,0,1,.56-1.53,1.8,1.8,0,0,1,1.4-.56A2.63,2.63,0,0,1,181,31a1.69,1.69,0,0,1,.7.7,3,3,0,0,1,.14,1.11,2.71,2.71,0,0,1-.14,1.12c-.28.29-.42.56-.84.7a1.17,1.17,0,0,1-1,.28,1.33,1.33,0,0,1-1-.28,1.63,1.63,0,0,1-.7-.7A3.24,3.24,0,0,1,177.88,32.81Zm.56,0a1.72,1.72,0,0,0,.42,1.27,1.26,1.26,0,0,0,1,.41,1.57,1.57,0,0,0,1.11-.41,2.81,2.81,0,0,0,.28-1.27,1.8,1.8,0,0,0-.14-.84,1.34,1.34,0,0,0-1.25-.83,1.51,1.51,0,0,0-1,.42A1.7,1.7,0,0,0,178.44,32.81Z"/><path class="cls-5" d="M182.48,34.91V30.72H183v3.64h2.09v.55Z"/><path class="cls-5" d="M185.7,34.91V30.72h2.93v.56h-2.37v1.25h2.23V33h-2.23v1.41h2.51v.55Z"/><path class="cls-5" d="M189.32,33.52h.56a.86.86,0,0,0,.14.56c.14.14.28.14.42.28s.42.13.56.13.42-.13.56-.13.27-.14.41-.28.15-.15.15-.28-.15-.28-.15-.42-.14-.15-.41-.15c0-.14-.28-.14-.7-.28a1.5,1.5,0,0,1-.84-.28c-.14,0-.27-.14-.41-.27s-.15-.43-.15-.56a.73.73,0,0,1,.29-.56c0-.14.27-.28.41-.42a1.78,1.78,0,0,1,.84-.14,1,1,0,0,1,.7.14,2.08,2.08,0,0,1,.56.42,1.11,1.11,0,0,1,.27.69H192a.75.75,0,0,0-.27-.55,1.07,1.07,0,0,0-.7-.28.82.82,0,0,0-.7.28c-.14,0-.28.14-.28.42,0,.13,0,.27.14.27a1.14,1.14,0,0,0,.84.29,6.94,6.94,0,0,0,.83.27,1.69,1.69,0,0,1,.56.42.87.87,0,0,1,.14.57,1.28,1.28,0,0,1-.14.7,1.83,1.83,0,0,1-.56.41c-.13.14-.41.14-.69.14a2.08,2.08,0,0,1-1-.14,2.05,2.05,0,0,1-.55-.41A1.88,1.88,0,0,1,189.32,33.52Z"/><path class="cls-4" d="M114.8,50.27l-.57-.84-3.49,2.09Zm-.57-.84-3.49,2.09,3.07-2.92Z"/><path class="cls-1" d="M114.23,49.43,139.77,33.8"/><path class="cls-1" d="M24.76,139.91H.06V123.43l5,16.48"/><path class="cls-5" d="M12.62,133.77v-3.49l-3.21-4.75H10.8L12.34,128l.14.14v.14h.14v.28h.14v.14L13,129v.28h.13v.14h.14v-.28h.15V129l.14-.14v-.14l.13-.14v-.14h.14v-.14l.14-.14V128h.14l1.53-2.51h1.26l-3.21,4.75v3.49Z"/><path class="cls-1" d="M157.36,139.91h24.57V123.43l-4.88,16.48"/><path class="cls-5" d="M168.25,133.77v-3.49L165,125.53h1.25L168,128v.14l.28.28v.14h.14v.14l.14.14V129l.14.14v.14h.14v.14l.14-.14v-.14h.14v-.28h.14v-.14l.14-.14v-.14h.14v-.28l.14-.14,1.67-2.51h1.25l-3.34,4.75v3.49Z"/></g></g></svg>