<svg xmlns="http://www.w3.org/2000/svg" viewBox="0 0 115 115">
  <defs>
    <style>
      .cls-1,.cls-2,.cls-5{fill:none}.cls-1,.cls-2,.cls-3{stroke:#dadada;stroke-linecap:round}.cls-1,.cls-2{stroke-linejoin:round}.cls-1{stroke-width:.48px}.cls-2,.cls-3{stroke-width:.12px}.cls-3,.cls-4{fill:#dadada}.cls-3{stroke-miterlimit:7.5}
    </style>
  </defs>
  <g id="Layer_2" data-name="Layer 2">
    <g id="Layer_1-2" data-name="Layer 1">
      <path class="cls-1" d="M94.4 41l-8.3-1-8.2-.7-8.3-.6-8.3-.3h-8.4l-8.3.3-8.4.6-8.3.7-8.3 1M93.5 35.1l-8-1-8.2-.7-8-.4-8-.2H53l-8 .2-8.2.5-8 .7-8 1"/>
      <path class="cls-1" d="M38.6 57.5V39h36.9v18.5M38.6 57.4a18.4 18.4 0 1036.9 0"/>
      <path class="cls-2" d="M36 95h43M57 7a37.5 37.5 0 1037.7 37.6A37.5 37.5 0 0057 7M57 53.2V24M75.5 34.8V24M60.7 28.2H72"/>
      <path class="cls-3" d="M60.7 29v-.8H57zm0-.8H57l3.6-.9zM72 27.3v.9h3.5zm0 .9h3.5L72 29z"/>
      <path class="cls-4" d="M67.7 24.2h-2.8v-.5h2.8zm0 1.3h-2.8v-.4h2.8z"/>
      <path class="cls-2" d="M57 53.2V24M38.6 34.8V24M53.6 28.2H42.2"/>
      <path class="cls-3" d="M53.6 27.3v.9h3.5zm0 .9h3.5l-3.5.8zM42.2 29v-.8h-3.6zm0-.8h-3.6l3.6-.9z"/>
      <path class="cls-4" d="M49.3 24.2h-3v-.5h3zm0 1.3h-3v-.4h3z"/>
      <path class="cls-2" d="M38.6 34.8V14.5M75.5 34.8V14.5M42.2 18.7H72"/>
      <path class="cls-3" d="M42.2 19.6v-1h-3.6zm0-1h-3.6l3.6-.8zM72 17.8v.9h3.5zm0 .9h3.5l-3.5 1z"/>
      <path class="cls-2" d="M23.8 48.6l22.6 6M34.4 39H3.5M52.9 75.9H3.5M7.8 42.6v29.8"/>
      <path class="cls-3" d="M6.9 42.6h.8V39zm.8 0V39l1 3.6zM8.7 72.4h-.9v3.5zm-.9 0v3.5l-1-3.5z"/>
      <path class="cls-2" d="M47.2 57.5H12.6M34.4 39H12.6M17 53.9V42.6"/>
      <path class="cls-3" d="M17.8 53.9H17v3.6zm-.8 0v3.6l-1-3.6zM16 42.6h1V39zm1 0V39l.8 3.6z"/>
      <path class="cls-4" d="M13 46.8v2.9h-.5v-2.9zm1.3 0v2.9h-.5v-2.9z"/>
      <path class="cls-2" d="M44.8 57.5H12.6M52.9 75.9H12.6M17 61v11.4"/>
      <path class="cls-3" d="M16 61h1v-3.5zm1 0v-3.5l.8 3.5zM17.8 72.4H17v3.5zm-.8 0v3.5l-1-3.5z"/>
      <path class="cls-4" d="M13 65.3v2.8h-.5v-2.8zm1.3 0v2.8h-.5v-2.8zM26.2 47.6l.5-.4a2.4 2.4 0 01-.1-1.8 2.1 2.1 0 012.6-1.7 1.9 1.9 0 011 .7l.5-.4.3.3-.6.4a2.4 2.4 0 01.1 1.7 2 2 0 01-2.5 1.8 1.8 1.8 0 01-1-.7l-.6.5zm3.6-2.9a1.2 1.2 0 00-.8-.5c-1-.3-1.6.5-1.8 1.4a2.3 2.3 0 000 1.2zm-2.5 2.5a1.2 1.2 0 00.8.5c.8.3 1.6-.4 1.8-1.4a2.2 2.2 0 000-1.2zM33.9 45.8l-1.6-.5-.4 1a1.5 1.5 0 01.3.1 1.8 1.8 0 01.8.5 1.2 1.2 0 01.3 1.2 1.5 1.5 0 01-1.9 1 2 2 0 01-1-.5l.3-.4a1.8 1.8 0 00.8.4 1 1 0 001.3-.6c.1-.5-.2-1-1-1.2l-.6-.1.8-2 2 .6zM34 49a2 2 0 00.8.5.8.8 0 001.2-.5c.1-.6-.3-1-.8-1.1l-.4-.1.2-.4h.3c.4.2 1 0 1-.4.2-.3 0-.7-.5-.8a1.6 1.6 0 00-.9 0v-.5a2 2 0 011.2 0c.8.3 1 .8.9 1.3a1 1 0 01-1 .8 1.1 1.1 0 01.6 1.3 1.4 1.4 0 01-1.8.8 2.4 2.4 0 01-1-.5zM39 85.6a14.5 14.5 0 012-.1 4.2 4.2 0 013 1 3.4 3.4 0 011 2.5 3.9 3.9 0 01-1 2.9 4.5 4.5 0 01-3.3 1 16.6 16.6 0 01-1.7 0zm1 6.5a6.5 6.5 0 001 0 2.8 2.8 0 003-3c0-1.8-1-2.9-3-2.9a5.7 5.7 0 00-1.1.1zM50 89.5h-2.9V92h3.2v.8h-4.1v-7.4h4v.8h-3v2.4H50zM53.1 86.3H51v-.8h5.4v.8h-2.2V93h-1zM57.5 90.6l-.7 2.3h-1l2.5-7.4h1.1l2.5 7.4h-1l-.8-2.3zm2.4-.8l-.7-2-.4-1.4-.3 1.3-.8 2.1zM64 85.5V93h-1v-7.4zM65.6 85.5h1v6.6h3.1v.8h-4.1zM73 91.8a3.3 3.3 0 001.5.4c1.2 0 1.6-.7 1.6-1.3 0-1-.9-1.5-1.8-1.5h-.6v-.7h.6c.7 0 1.6-.3 1.6-1.2 0-.5-.4-1-1.3-1a2.6 2.6 0 00-1.4.4l-.2-.7a3.4 3.4 0 011.8-.5c1.4 0 2 .8 2 1.7a1.7 1.7 0 01-1.3 1.6 1.9 1.9 0 011.6 1.8c0 1.2-.9 2.1-2.6 2.1a3.6 3.6 0 01-1.8-.4zM42 96.6a4.9 4.9 0 00-1 3 5 5 0 001 3h-.5a4.8 4.8 0 01-1-3 5 5 0 011-3zM42.6 101a2.3 2.3 0 001.2.3c.7 0 1-.3 1-.8s-.2-.8-1-1-1.3-.7-1.3-1.5a1.4 1.4 0 011.6-1.3 2.4 2.4 0 011.2.2l-.2.6a2 2 0 00-1-.3c-.7 0-1 .4-1 .8s.3.7 1 1c.8.3 1.3.7 1.3 1.5s-.6 1.4-1.8 1.4a2.6 2.6 0 01-1.3-.3zM50 101.6a3.5 3.5 0 01-1.4.3 2.4 2.4 0 01-2.5-2.6 2.5 2.5 0 012.6-2.6 2.7 2.7 0 011.2.2l-.1.5a2.4 2.4 0 00-1-.2 1.9 1.9 0 00-2 2 1.8 1.8 0 001.9 2 2.5 2.5 0 001-.1zM51.6 100.2l-.6 1.6h-.7l1.7-5h.8l1.7 5h-.7l-.5-1.6zm1.6-.5l-.5-1.5a8.2 8.2 0 01-.2-.9l-.3 1-.5 1.4zM55.3 96.8h.7v4.4h2.1v.6h-2.8zM61.4 99.4h-2v1.8h2.2v.6h-2.8v-5h2.7v.5h-2V99h2zM65.3 97.5l-.9.5-.1-.5 1-.6h.6v4.9h-.6zM67.7 98.8a.4.4 0 01.5-.5.5.5 0 11-.5.5zm0 2.6a.4.4 0 01.5-.5.5.5 0 010 1 .4.4 0 01-.5-.5zM72.1 97.5h-1.8l-.2 1.2a3.7 3.7 0 01.4 0 2.1 2.1 0 011 .3 1.4 1.4 0 01.7 1.2 1.7 1.7 0 01-1.8 1.7 2.3 2.3 0 01-1.2-.3l.1-.5a2.2 2.2 0 001 .3 1 1 0 001.2-1c0-.7-.5-1.1-1.4-1.1a5.4 5.4 0 00-.7 0l.3-2.3h2.4zM72.8 102.7a5.1 5.1 0 001-3 5 5 0 00-1-3h.5a4.7 4.7 0 011 3 4.8 4.8 0 01-1 3z"/>
      <path class="cls-5" d="M34.7 35h44.6v44.6H34.7z"/>
      <path class="cls-4" d="M57 38.6a18.6 18.6 0 1018.6 18.6A18.6 18.6 0 0057 38.6zm0 24.2l-7.4-7.4h14.9zM53.4 13.9l-.7.4-.1-.4.9-.5h.4v4h-.5zM55.5 16.8a1.9 1.9 0 001 .3c.6 0 .9-.5.9-.8 0-.6-.6-.8-1-.8H56V15h.3c.4 0 1-.2 1-.7 0-.4-.3-.6-.8-.6a1.6 1.6 0 00-.8.2l-.2-.4a2 2 0 011.1-.3c.8 0 1.2.5 1.2 1a1 1 0 01-.8 1 1 1 0 011 1c0 .7-.6 1.2-1.6 1.2a2 2 0 01-1-.2zM61.3 15.4c0 1.3-.5 2.1-1.4 2.1s-1.3-.7-1.3-2 .6-2.2 1.4-2.2 1.3.8 1.3 2zm-2.2 0c0 1 .3 1.7.8 1.7s.9-.7.9-1.7-.3-1.7-.9-1.7-.8.6-.8 1.7zM2.7 59.5l.4.7-.5.1-.4-.9V59h4v.5zM5.6 57.4a1.8 1.8 0 00.3-1 .8.8 0 00-.8-.9c-.6 0-.8.6-.8 1v.3h-.5v-.3c0-.4-.2-.9-.6-.9s-.7.2-.7.7a1.5 1.5 0 00.3.9l-.4.1a2 2 0 01-.3-1c0-.9.5-1.2 1-1.2a1 1 0 011 .7H4a1 1 0 011-.9c.7 0 1.2.5 1.2 1.5a2 2 0 01-.3 1zM4.2 51.6c1.3 0 2.1.5 2.1 1.4s-.7 1.3-2 1.3S2 53.7 2 53s.8-1.3 2-1.3zm0 2.2c1 0 1.7-.3 1.7-.8s-.7-.9-1.7-.9-1.7.3-1.7.9.6.8 1.7.8z"/>
      <path class="cls-4" d="M57.1 35.5A21.8 21.8 0 1079 57.3a21.8 21.8 0 00-21.8-21.8zm0 38.7a17 17 0 1117-17 17 17 0 01-17 17z"/>
      <path class="cls-5" d="M0 0h115v115H0z"/>
    </g>
  </g>
</svg>
